# This file uses centimeters as units for non-parametric coordinates.

mtllib SM_Aire_Acondicionado.mtl
g default
v -51.953033 34.800861 -10.394669
v 51.953018 34.800861 -10.394669
v -51.953033 1.272543 -10.394669
v 51.953018 1.272543 -10.394669
v -51.953033 1.272543 -1.406219
v -51.953033 3.727353 4.520203
v -51.953033 9.653784 6.975021
v 51.953018 1.272543 -1.406219
v 51.953018 9.653784 6.975021
v 51.953018 3.727353 4.520203
v -51.953033 34.800861 1.593719
v -51.953033 26.419619 9.974960
v -51.953033 32.346050 7.520157
v 51.953018 34.800861 1.593719
v 51.953018 32.346050 7.520157
v 51.953018 26.419619 9.974960
v -50.753021 8.545128 6.515793
v -50.753021 3.727353 4.520203
v 50.753021 3.727353 4.520203
v 50.753021 8.545128 6.515793
v -50.753021 1.731764 -0.297562
v 50.753021 1.731764 -0.297562
v -51.312149 10.037594 2.912674
v -51.312149 6.712284 1.535278
v 51.312149 6.712285 1.535278
v 51.312149 10.037594 2.912674
v -51.312149 5.334895 -1.790039
v 51.312149 5.334895 -1.790039
v -50.681824 3.237369 -2.869446
v 51.010147 3.237369 -2.869446
v -50.681824 4.574955 -2.534515
v 51.010147 4.574955 -2.534515
v -50.681824 0.323704 8.766937
v -49.349121 0.000000 10.059723
v -49.349121 1.337586 10.394653
v 49.677460 0.000000 10.059723
v 51.010147 0.447462 8.766937
v 49.677460 1.337586 10.394653
v -50.681824 1.661290 9.101868
v 51.010147 1.661290 9.101868
vt 0.651185 0.982404
vt 0.656049 0.982944
vt 0.653887 0.980242
vt 0.657963 0.981413
vt 0.649271 0.983935
vt 0.653347 0.985107
vt 0.648618 0.988891
vt 0.655800 0.978711
vt 0.651434 0.986638
vt 0.647807 0.985107
vt 0.651276 0.988058
vt 0.652807 0.989972
vt 0.650105 0.992134
vt 0.648574 0.990221
vt 0.649969 0.987810
vt 0.646455 0.986189
vt 0.645148 0.985940
vt 0.643617 0.984027
vt 0.646320 0.981864
vt 0.647851 0.983778
vt 0.647942 0.989432
vt 0.658752 0.980782
vt 0.656589 0.978079
vt 0.645780 0.986729
vt 0.650645 0.987269
vt 0.648482 0.984567
vt 0.648618 0.988891
vt 0.647942 0.989432
vt 0.645780 0.986729
vt 0.646455 0.986189
vt 0.658752 0.980782
vt 0.657963 0.981413
vt 0.655800 0.978711
vt 0.656589 0.978079
vt 0.648618 0.988891
vt 0.647942 0.989432
vt 0.645780 0.986729
vt 0.646455 0.986189
vt 0.658752 0.980782
vt 0.657963 0.981413
vt 0.655800 0.978711
vt 0.656589 0.978079
vt 0.650374 0.987485
vt 0.648212 0.984783
vt 0.648510 0.984602
vt 0.650616 0.987234
vt 0.653617 0.984890
vt 0.651455 0.982188
vt 0.653887 0.980242
vt 0.656049 0.982944
vt 0.647942 0.989432
vt 0.653319 0.985071
vt 0.651213 0.982440
vt 0.645780 0.986729
vt 0.860089 0.986234
vt 0.860089 0.986038
vt 0.865698 0.986038
vt 0.865698 0.986234
vt 0.860089 0.985899
vt 0.865698 0.985899
vt 0.860120 0.985748
vt 0.865667 0.985748
vt 0.875276 0.985966
vt 0.856130 0.985811
vt 0.856130 0.985811
vt 0.875275 0.985966
vn 0.000000 -0.183610 0.982999
vn -0.000000 -0.183610 0.982999
vn 0.000000 -0.024016 0.999712
vn 0.000000 -0.024016 0.999712
vn 0.000000 0.990742 0.135758
vn 0.000000 0.990742 0.135758
vn 0.000000 1.000000 0.000000
vn 0.000000 1.000000 0.000000
vn 0.000000 -1.000000 0.000000
vn 0.000000 -1.000000 0.000000
vn 0.000000 -0.999686 0.025057
vn -0.000000 -0.999686 0.025057
vn 0.000000 -0.382685 0.923879
vn 0.000000 -0.382685 0.923879
vn 0.000000 -0.382685 0.923879
vn 0.000000 -0.382685 0.923879
vn 0.000000 -0.923880 0.382683
vn 0.000000 -0.923880 0.382683
vn 0.000000 -0.923880 0.382683
vn 0.000000 -0.923880 0.382683
vn 0.000000 0.707107 0.707107
vn 0.000000 0.707107 0.707107
vn -1.000000 0.000000 0.000000
vn -1.000000 0.000000 0.000000
vn -1.000000 0.000000 0.000000
vn -1.000000 0.000000 0.000000
vn 1.000000 0.000000 0.000000
vn 1.000000 0.000000 0.000000
vn 1.000000 0.000000 0.000000
vn 1.000000 0.000000 0.000000
vn 0.000003 -0.382684 0.923879
vn 0.000003 -0.382684 0.923879
vn 0.000000 -0.382689 0.923877
vn -0.000003 -0.382684 0.923879
vn -0.000000 -0.382689 0.923877
vn -0.000003 -0.382684 0.923879
vn -0.000000 -0.923879 0.382685
vn -0.000000 -0.923880 0.382683
vn -0.000000 -0.923879 0.382685
vn 0.000000 -0.923880 0.382683
vn 0.000000 -0.923879 0.382685
vn 0.000000 -0.923879 0.382685
vn 0.989879 0.054309 -0.131113
vn 0.991342 0.092847 -0.092848
vn 0.991342 0.092847 -0.092848
vn 0.989879 0.054309 -0.131113
vn -0.991342 0.092847 -0.092848
vn -0.989879 0.054309 -0.131113
vn -0.989879 0.054309 -0.131113
vn -0.991342 0.092847 -0.092848
vn 0.000000 -0.923879 -0.382685
vn 0.000000 -0.923879 -0.382685
vn 0.000000 -0.923879 -0.382685
vn 0.000000 -0.923879 -0.382685
vn 0.989879 0.131111 -0.054309
vn 0.989879 0.131111 -0.054309
vn 0.000000 0.382686 0.923878
vn 0.000000 0.382686 0.923878
vn 0.000000 0.382686 0.923878
vn 0.000000 0.382686 0.923878
vn -0.989879 0.131112 -0.054309
vn -0.989879 0.131112 -0.054309
vn 1.000000 0.000000 0.000000
vn 1.000000 0.000000 0.000000
vn 1.000000 0.000000 0.000000
vn 1.000000 0.000000 0.000000
vn 1.000000 0.000000 0.000000
vn 1.000000 0.000000 0.000000
vn 1.000000 0.000000 0.000000
vn 1.000000 0.000000 0.000000
vn -1.000000 0.000000 0.000000
vn -1.000000 0.000000 0.000000
vn -1.000000 0.000000 0.000000
vn -1.000000 0.000000 0.000000
vn -1.000000 0.000000 0.000000
vn -1.000000 0.000000 0.000000
vn -1.000000 0.000000 0.000000
vn -1.000000 0.000000 0.000000
vn 0.000591 -0.970634 -0.240562
vn 0.000591 -0.970624 -0.240599
vn 0.000591 -0.958284 -0.285816
vn 0.000591 -0.958284 -0.285816
vn 0.000000 0.970053 0.242894
vn 0.000000 0.970053 0.242894
vn 0.000000 0.970053 0.242894
vn 0.000000 0.970053 0.242894
vn -1.000000 0.000002 0.000000
vn -1.000000 0.000002 0.000000
vn -1.000000 0.000002 0.000000
vn -1.000000 0.000002 0.000000
vn -0.707105 -0.171758 0.685932
vn -0.707105 -0.171758 0.685932
vn -0.707105 -0.171758 0.685932
vn -0.707105 -0.171758 0.685932
vn 0.000000 -0.242900 0.970051
vn 0.000000 -0.242900 0.970051
vn 0.000000 -0.242900 0.970051
vn 0.000000 -0.242900 0.970051
vn 0.711219 -0.178512 0.679928
vn 0.711219 -0.178512 0.679928
vn 0.711219 -0.178512 0.679928
vn 0.711219 -0.178512 0.679928
vn 1.000000 0.000001 0.000000
vn 1.000000 0.000001 0.000000
vn 1.000000 0.000001 0.000000
vn 1.000000 0.000001 0.000000
vn 0.000000 0.970053 0.242894
vn 0.000000 0.970053 0.242894
vn 0.000591 -0.971257 -0.238031
vn 0.000591 -0.971257 -0.238031
s 1
g Aire_Acondicionado
usemtl initialShadingGroup
f 7/7/1 9/16/2 16/10/3 12/15/4
f 11/9/5 14/5/6 2/1/7 1/6/8
s 3
f 3/2/9 4/3/10 8/8/11 5/4/12
s off
f 23/55/13 24/56/14 25/57/15 26/58/16
f 24/56/17 27/59/18 28/60/19 25/57/20
s 1
f 11/9/5 13/25/21 15/26/22 14/5/6
f 13/63/21 12/64/4 16/65/3 15/66/22
s off
f 11/11/23 1/12/24 3/13/25 5/14/26
f 9/16/27 10/24/28 15/26/29 16/10/30
s 1
f 7/7/1 6/21/31 18/28/32 17/27/33
f 10/24/34 9/16/2 20/30/35 19/29/36
f 9/16/2 7/7/1 17/27/33 20/30/35
s 3
f 6/22/37 5/4/12 21/32/38 18/31/39
f 5/4/12 8/8/11 22/33/40 21/32/38
f 8/8/11 10/23/41 19/34/42 22/33/40
s 4
f 17/27/43 18/28/44 24/36/45 23/35/46
s 5
f 19/29/47 20/30/48 26/38/49 25/37/50
s off
f 20/30/51 17/27/52 23/35/53 26/38/54
s 4
f 18/31/44 21/32/55 27/40/56 24/39/45
s off
f 21/61/57 22/62/58 28/60/59 27/59/60
s 5
f 22/33/61 19/34/47 25/42/50 28/41/62
s off
f 14/20/63 8/17/64 4/18/65 2/19/66
f 15/26/67 10/24/68 8/17/69 14/20/70
f 11/11/71 5/14/72 6/21/73 13/25/74
f 13/25/75 6/21/76 7/7/77 12/15/78
s 6
f 33/43/79 37/44/80 36/45/81 34/46/82
s 7
f 39/47/83 40/48/84 32/49/85 31/50/86
s off
f 29/51/87 33/43/88 39/47/89 31/50/90
f 33/43/91 34/46/92 35/52/93 39/47/94
f 34/46/95 36/45/96 38/53/97 35/52/98
f 36/45/99 37/44/100 40/48/101 38/53/102
f 37/44/103 30/54/104 32/49/105 40/48/106
s 7
f 39/47/83 35/52/107 38/53/108 40/48/84
s 6
f 29/51/109 30/54/110 37/44/80 33/43/79
