# This file uses centimeters as units for non-parametric coordinates.

v -5.195303 3.480086 -1.039467
v 5.195302 3.480086 -1.039467
v -5.195303 0.127254 -1.039467
v 5.195302 0.127254 -1.039467
v -5.195303 0.127254 -0.140622
v -5.195303 0.372735 0.452020
v -5.195303 0.965378 0.697502
v 5.195302 0.127254 -0.140622
v 5.195302 0.965378 0.697502
v 5.195302 0.372735 0.452020
v -5.195303 3.480086 0.159372
v -5.195303 2.641962 0.997496
v -5.195303 3.234605 0.752016
v 5.195302 3.480086 0.159372
v 5.195302 3.234605 0.752016
v 5.195302 2.641962 0.997496
v -5.075302 0.854513 0.651579
v -5.075302 0.372735 0.452020
v 5.075302 0.372735 0.452020
v 5.075302 0.854513 0.651579
v -5.075302 0.173176 -0.029756
v 5.075302 0.173176 -0.029756
v -5.131215 1.003759 0.291267
v -5.131215 0.671228 0.153528
v 5.131215 0.671229 0.153528
v 5.131215 1.003759 0.291267
v -5.131215 0.533490 -0.179004
v 5.131215 0.533490 -0.179004
v -5.068182 0.323737 -0.286945
v 5.101015 0.323737 -0.286945
v -5.068182 0.457495 -0.253451
v 5.101015 0.457495 -0.253451
v -5.068182 0.032370 0.876694
v -4.934912 0.000000 1.005972
v -4.934912 0.133759 1.039465
v 4.967746 0.000000 1.005972
v 5.101015 0.044746 0.876694
v 4.967746 0.133759 1.039465
v -5.068182 0.166129 0.910187
v 5.101015 0.166129 0.910187
vt 0.648618 0.988891
vt 0.646455 0.986189
vt 0.647807 0.985107
vt 0.649969 0.987810
vt 0.651434 0.986638
vt 0.649271 0.983935
vt 0.651185 0.982404
vt 0.653347 0.985107
vt 0.656049 0.982944
vt 0.653887 0.980242
vt 0.655800 0.978711
vt 0.657963 0.981413
vt 0.860089 0.986234
vt 0.860089 0.986038
vt 0.865698 0.986038
vt 0.865698 0.986234
vt 0.860089 0.985899
vt 0.865698 0.985899
vt 0.650645 0.987269
vt 0.648482 0.984567
vt 0.875276 0.985966
vt 0.856130 0.985811
vt 0.856130 0.985811
vt 0.875275 0.985966
vt 0.651276 0.988058
vt 0.652807 0.989972
vt 0.650105 0.992134
vt 0.648574 0.990221
vt 0.645780 0.986729
vt 0.647942 0.989432
vt 0.647942 0.989432
vt 0.648618 0.988891
vt 0.646455 0.986189
vt 0.645780 0.986729
vt 0.658752 0.980782
vt 0.657963 0.981413
vt 0.658752 0.980782
vt 0.655800 0.978711
vt 0.656589 0.978079
vt 0.656589 0.978079
vt 0.647942 0.989432
vt 0.648618 0.988891
vt 0.646455 0.986189
vt 0.645780 0.986729
vt 0.657963 0.981413
vt 0.658752 0.980782
vt 0.860120 0.985748
vt 0.865667 0.985748
vt 0.656589 0.978079
vt 0.655800 0.978711
vt 0.647851 0.983778
vt 0.645148 0.985940
vt 0.643617 0.984027
vt 0.646320 0.981864
vt 0.650374 0.987485
vt 0.648212 0.984783
vt 0.648510 0.984602
vt 0.650616 0.987234
vt 0.653617 0.984890
vt 0.651455 0.982188
vt 0.653887 0.980242
vt 0.656049 0.982944
vt 0.647942 0.989432
vt 0.653319 0.985071
vt 0.651213 0.982440
vt 0.645780 0.986729
vn 0.000000 -0.183610 0.982999
vn 0.000000 -0.183610 0.982999
vn 0.000000 -0.024016 0.999712
vn 0.000000 -0.024016 0.999712
vn 0.000000 0.990742 0.135758
vn 0.000000 0.990742 0.135758
vn 0.000000 1.000000 0.000000
vn 0.000000 1.000000 0.000000
vn 0.000000 -1.000000 0.000000
vn 0.000000 -1.000000 0.000000
vn 0.000000 -0.999686 0.025057
vn 0.000000 -0.999686 0.025057
vn 0.000000 -0.382685 0.923879
vn 0.000000 -0.382685 0.923879
vn 0.000000 -0.382685 0.923879
vn 0.000000 -0.382685 0.923879
vn 0.000000 -0.923880 0.382683
vn 0.000000 -0.923880 0.382683
vn 0.000000 -0.923880 0.382683
vn 0.000000 -0.923880 0.382683
vn 0.000000 0.990742 0.135758
vn 0.000000 0.707107 0.707107
vn 0.000000 0.707107 0.707107
vn 0.000000 0.990742 0.135758
vn 0.000000 0.707107 0.707107
vn 0.000000 -0.024016 0.999712
vn 0.000000 -0.024016 0.999712
vn 0.000000 0.707107 0.707107
vn -1.000000 0.000000 0.000000
vn -1.000000 0.000000 0.000000
vn -1.000000 0.000000 0.000000
vn -1.000000 0.000000 0.000000
vn 1.000000 0.000000 0.000000
vn 1.000000 0.000000 0.000000
vn 1.000000 0.000000 0.000000
vn 1.000000 0.000000 0.000000
vn 0.000000 -0.183610 0.982999
vn 0.000003 -0.382684 0.923879
vn 0.000003 -0.382684 0.923879
vn 0.000000 -0.382689 0.923877
vn -0.000003 -0.382684 0.923879
vn 0.000000 -0.183610 0.982999
vn 0.000000 -0.382689 0.923877
vn -0.000003 -0.382684 0.923879
vn 0.000000 -0.183610 0.982999
vn 0.000000 -0.183610 0.982999
vn 0.000000 -0.382689 0.923877
vn 0.000000 -0.382689 0.923877
vn 0.000000 -0.923879 0.382685
vn 0.000000 -0.999686 0.025057
vn 0.000000 -0.923880 0.382683
vn 0.000000 -0.923879 0.382685
vn 0.000000 -0.999686 0.025057
vn 0.000000 -0.999686 0.025057
vn 0.000000 -0.923880 0.382683
vn 0.000000 -0.923880 0.382683
vn 0.000000 -0.999686 0.025057
vn 0.000000 -0.923879 0.382685
vn 0.000000 -0.923879 0.382685
vn 0.000000 -0.923880 0.382683
vn 0.989879 0.054309 -0.131113
vn 0.991342 0.092847 -0.092848
vn 0.991342 0.092847 -0.092848
vn 0.989879 0.054309 -0.131113
vn -0.991342 0.092847 -0.092848
vn -0.989879 0.054309 -0.131113
vn -0.989879 0.054309 -0.131113
vn -0.991342 0.092847 -0.092848
vn 0.000000 -0.923879 -0.382685
vn 0.000000 -0.923879 -0.382685
vn 0.000000 -0.923879 -0.382685
vn 0.000000 -0.923879 -0.382685
vn 0.991342 0.092847 -0.092848
vn 0.989879 0.131111 -0.054309
vn 0.989879 0.131111 -0.054309
vn 0.991342 0.092847 -0.092848
vn 0.000000 0.382686 0.923878
vn 0.000000 0.382686 0.923878
vn 0.000000 0.382686 0.923878
vn 0.000000 0.382686 0.923878
vn -0.989879 0.131112 -0.054309
vn -0.991342 0.092847 -0.092848
vn -0.991342 0.092847 -0.092848
vn -0.989879 0.131112 -0.054309
vn 1.000000 0.000000 0.000000
vn 1.000000 0.000000 0.000000
vn 1.000000 0.000000 0.000000
vn 1.000000 0.000000 0.000000
vn 1.000000 0.000000 0.000000
vn 1.000000 0.000000 0.000000
vn 1.000000 0.000000 0.000000
vn 1.000000 0.000000 0.000000
vn -1.000000 0.000000 0.000000
vn -1.000000 0.000000 0.000000
vn -1.000000 0.000000 0.000000
vn -1.000000 0.000000 0.000000
vn -1.000000 0.000000 0.000000
vn -1.000000 0.000000 0.000000
vn -1.000000 0.000000 0.000000
vn -1.000000 0.000000 0.000000
vn 0.000591 -0.970634 -0.240562
vn 0.000591 -0.970624 -0.240599
vn 0.000591 -0.958284 -0.285816
vn 0.000591 -0.958284 -0.285816
vn 0.000000 0.970053 0.242894
vn 0.000000 0.970053 0.242894
vn 0.000000 0.970053 0.242894
vn 0.000000 0.970053 0.242894
vn -1.000000 0.000002 0.000000
vn -1.000000 0.000002 0.000000
vn -1.000000 0.000002 0.000000
vn -1.000000 0.000002 0.000000
vn -0.707105 -0.171758 0.685932
vn -0.707105 -0.171758 0.685932
vn -0.707105 -0.171758 0.685932
vn -0.707105 -0.171758 0.685932
vn 0.000000 -0.242900 0.970051
vn 0.000000 -0.242900 0.970051
vn 0.000000 -0.242900 0.970051
vn 0.000000 -0.242900 0.970051
vn 0.711219 -0.178512 0.679928
vn 0.711219 -0.178512 0.679928
vn 0.711219 -0.178512 0.679928
vn 0.711219 -0.178512 0.679928
vn 1.000000 0.000001 0.000000
vn 1.000000 0.000001 0.000000
vn 1.000000 0.000001 0.000000
vn 1.000000 0.000001 0.000000
vn 0.000000 0.970053 0.242894
vn 0.000000 0.970053 0.242894
vn 0.000000 0.970053 0.242894
vn 0.000000 0.970053 0.242894
vn 0.000591 -0.971257 -0.238031
vn 0.000591 -0.971257 -0.238031
vn 0.000591 -0.970624 -0.240599
vn 0.000591 -0.970634 -0.240562
s off
f 7/1/1 9/2/2 16/3/3 12/4/4
f 11/5/5 14/6/6 2/7/7 1/8/8
f 3/9/9 4/10/10 8/11/11 5/12/12
f 23/13/13 24/14/14 25/15/15 26/16/16
f 24/14/17 27/17/18 28/18/19 25/15/20
f 11/5/21 13/19/22 15/20/23 14/6/24
f 13/21/25 12/22/26 16/23/27 15/24/28
f 11/25/29 1/26/30 3/27/31 5/28/32
f 9/2/33 10/29/34 15/20/35 16/3/36
f 7/1/37 6/30/38 18/31/39 17/32/40
f 10/29/41 9/2/42 20/33/43 19/34/44
f 9/2/45 7/1/46 17/32/47 20/33/48
f 6/35/49 5/12/50 21/36/51 18/37/52
f 5/12/53 8/11/54 22/38/55 21/36/56
f 8/11/57 10/39/58 19/40/59 22/38/60
f 17/32/61 18/31/62 24/41/63 23/42/64
f 19/34/65 20/33/66 26/43/67 25/44/68
f 20/33/69 17/32/70 23/42/71 26/43/72
f 18/37/73 21/36/74 27/45/75 24/46/76
f 21/47/77 22/48/78 28/18/79 27/17/80
f 22/38/81 19/40/82 25/49/83 28/50/84
f 14/51/85 8/52/86 4/53/87 2/54/88
f 15/20/89 10/29/90 8/52/91 14/51/92
f 11/25/93 5/28/94 6/30/95 13/19/96
f 13/19/97 6/30/98 7/1/99 12/4/100
f 33/55/101 37/56/102 36/57/103 34/58/104
f 39/59/105 40/60/106 32/61/107 31/62/108
f 29/63/109 33/55/110 39/59/111 31/62/112
f 33/55/113 34/58/114 35/64/115 39/59/116
f 34/58/117 36/57/118 38/65/119 35/64/120
f 36/57/121 37/56/122 40/60/123 38/65/124
f 37/56/125 30/66/126 32/61/127 40/60/128
f 39/59/129 35/64/130 38/65/131 40/60/132
f 29/63/133 30/66/134 37/56/135 33/55/136
