# This file uses centimeters as units for non-parametric coordinates.

mtllib SM_BancoA.mtl
g default
v -9.926575 -0.000001 -20.907064
v -9.926575 1.171402 -22.078465
v -8.755188 1.171402 -20.907064
v -22.232666 1.171402 -20.907064
v -21.061249 1.171402 -22.078465
v -21.061249 -0.000001 -20.907064
v -8.755188 1.171402 -11.534668
v -9.926575 1.171402 -10.363266
v -9.926575 -0.000001 -11.534668
v -21.061249 -0.000001 -11.534668
v -21.061249 1.171402 -10.363266
v -22.232666 1.171402 -11.534668
v -8.755188 16.408987 -20.907064
v -9.926575 16.408987 -22.078465
v -21.061249 16.408987 -22.078465
v -22.232666 16.408987 -20.907064
v -9.926575 16.408987 -10.363266
v -8.755188 16.408987 -11.534668
v -22.232666 16.408987 -11.534668
v -21.061249 16.408987 -10.363266
v 21.007813 -0.000001 11.946609
v 21.007813 1.171402 10.775206
v 22.179199 1.171402 11.946609
v 8.701721 1.171402 11.946609
v 9.873138 1.171402 10.775206
v 9.873138 -0.000001 11.946609
v 22.179199 1.171402 21.319004
v 21.007813 1.171402 22.490406
v 21.007813 -0.000001 21.319004
v 9.873138 -0.000001 21.319004
v 9.873138 1.171402 22.490406
v 8.701721 1.171402 21.319004
v 22.179199 16.408987 11.946609
v 21.007813 16.408987 10.775206
v 9.873138 16.408987 10.775206
v 8.701721 16.408987 11.946609
v 21.007813 16.408987 22.490406
v 22.179199 16.408987 21.319004
v 8.701721 16.408987 21.319004
v 9.873138 16.408987 22.490406
v 21.007813 -0.000001 -20.907064
v 21.007813 1.171402 -22.078465
v 22.179199 1.171402 -20.907064
v 8.701721 1.171402 -20.907064
v 9.873138 1.171402 -22.078465
v 9.873138 -0.000001 -20.907064
v 22.179199 1.171402 -11.534668
v 21.007813 1.171402 -10.363266
v 21.007813 -0.000001 -11.534668
v 9.873138 -0.000001 -11.534668
v 9.873138 1.171402 -10.363266
v 8.701721 1.171402 -11.534668
v 22.179199 16.408987 -20.907064
v 21.007813 16.408987 -22.078465
v 9.873138 16.408987 -22.078465
v 8.701721 16.408987 -20.907064
v 21.007813 16.408987 -10.363266
v 22.179199 16.408987 -11.534668
v 8.701721 16.408987 -11.534668
v 9.873138 16.408987 -10.363266
v -9.926575 -0.000001 11.946609
v -9.926575 1.171402 10.775206
v -8.755188 1.171402 11.946609
v -22.232666 1.171402 11.946609
v -21.061249 1.171402 10.775206
v -21.061249 -0.000001 11.946609
v -8.755188 1.171402 21.319004
v -9.926575 1.171402 22.490406
v -9.926575 -0.000001 21.319004
v -21.061249 -0.000001 21.319004
v -21.061249 1.171402 22.490406
v -22.232666 1.171402 21.319004
v -8.755188 16.408987 11.946609
v -9.926575 16.408987 10.775206
v -21.061249 16.408987 10.775206
v -22.232666 16.408987 11.946609
v -9.926575 16.408987 22.490406
v -8.755188 16.408987 21.319004
v -22.232666 16.408987 21.319004
v -21.061249 16.408987 22.490406
v 23.059357 28.282009 -19.433195
v 19.433197 28.282009 -23.059357
v 19.433197 31.908173 -19.433195
v -19.433197 31.908173 -19.433195
v -19.433197 28.282009 -23.059357
v -23.059357 28.282009 -19.433195
v 23.059357 28.282009 19.433201
v 19.433197 31.908173 19.433201
v 19.433197 28.282009 23.059362
v -19.433197 28.282009 23.059362
v -19.433197 31.908173 19.433201
v -23.059357 28.282009 19.433201
v 23.059357 23.058174 -19.433195
v 19.433197 23.058174 -23.059357
v -23.059357 23.058174 -19.433195
v -19.433197 23.058174 -23.059357
v 23.059357 23.058174 19.433201
v 19.433197 23.058174 23.059362
v -23.059357 23.058174 19.433201
v -19.433197 23.058174 23.059362
v 23.692261 15.530070 -21.323265
v 21.323273 15.530070 -23.692259
v 23.692261 24.920362 -21.323265
v 21.323273 24.920362 -23.692259
v -23.692230 15.530070 -21.323265
v -21.323242 15.530070 -23.692259
v -23.692230 24.920362 -21.323265
v -21.323242 24.920362 -23.692259
v 23.692261 24.920362 21.323271
v 21.323273 24.920362 23.692257
v 23.692261 15.530070 21.323271
v 21.323273 15.530070 23.692257
v -21.323242 24.920362 23.692257
v -23.692230 24.920362 21.323271
v -23.692230 15.530070 21.323271
v -21.323242 15.530070 23.692257
vt 0.433602 0.704093
vt 0.433599 0.704043
vt 0.434065 0.704046
vt 0.434068 0.704096
vt 0.433541 0.704100
vt 0.433602 0.704643
vt 0.433541 0.704650
vt 0.433500 0.704198
vt 0.433558 0.704141
vt 0.433599 0.704708
vt 0.434068 0.704646
vt 0.434065 0.704711
vt 0.433558 0.704807
vt 0.433500 0.704748
vt 0.434123 0.704104
vt 0.434024 0.704144
vt 0.434082 0.704203
vt 0.434123 0.704654
vt 0.434082 0.704752
vt 0.434024 0.704810
vt 0.434584 0.702464
vt 0.434582 0.702547
vt 0.434483 0.702585
vt 0.434485 0.702502
vt 0.434901 0.702887
vt 0.434983 0.702890
vt 0.434883 0.702927
vt 0.434802 0.702925
vt 0.434983 0.702085
vt 0.434883 0.702123
vt 0.428063 0.760921
vt 0.428978 0.758759
vt 0.428905 0.758759
vt 0.427990 0.760921
vt 0.428984 0.758759
vt 0.428027 0.760921
vt 0.428036 0.760931
vt 0.434956 0.702528
vt 0.435055 0.702528
vt 0.428023 0.760931
vt 0.427954 0.760921
vt 0.427950 0.760931
vt 0.428892 0.765798
vt 0.435055 0.703809
vt 0.428892 0.765927
vt 0.427945 0.767970
vt 0.433012 0.702684
vt 0.433009 0.702633
vt 0.427945 0.768099
vt 0.417404 0.741568
vt 0.417393 0.741599
vt 0.417089 0.741599
vt 0.417101 0.741568
vt 0.417421 0.741568
vt 0.417404 0.741524
vt 0.433475 0.702637
vt 0.433479 0.702687
vt 0.432951 0.702691
vt 0.417421 0.741524
vt 0.417295 0.741568
vt 0.433013 0.703234
vt 0.432951 0.703241
vt 0.432910 0.702789
vt 0.432968 0.702732
vt 0.433009 0.703299
vt 0.433479 0.703237
vt 0.433475 0.703302
vt 0.432968 0.703397
vt 0.432910 0.703339
vt 0.433534 0.702695
vt 0.433434 0.702735
vt 0.433493 0.702793
vt 0.433534 0.703245
vt 0.433493 0.703343
vt 0.433434 0.703401
vt 0.435114 0.703473
vt 0.435111 0.703423
vt 0.435577 0.703426
vt 0.435580 0.703476
vt 0.435052 0.703480
vt 0.435114 0.704023
vt 0.435052 0.704030
vt 0.435011 0.703579
vt 0.435070 0.703521
vt 0.435111 0.704088
vt 0.435580 0.704026
vt 0.435577 0.704092
vt 0.435070 0.704187
vt 0.435011 0.704128
vt 0.435635 0.703484
vt 0.435536 0.703524
vt 0.435594 0.703583
vt 0.435635 0.704034
vt 0.435594 0.704132
vt 0.435536 0.704190
vt 0.433069 0.702473
vt 0.433094 0.702412
vt 0.433109 0.704518
vt 0.433084 0.704579
vt 0.435451 0.702412
vt 0.435426 0.702473
vt 0.435440 0.704579
vt 0.435465 0.704518
vt 0.433202 0.704696
vt 0.433227 0.704635
vt 0.435348 0.704635
vt 0.435323 0.704696
vt 0.435307 0.702356
vt 0.435332 0.702295
vt 0.433211 0.702295
vt 0.433186 0.702356
vt 0.417267 0.741599
vt 0.417255 0.741568
vt 0.416952 0.741568
vt 0.416964 0.741599
vt 0.417295 0.741524
vt 0.417255 0.741524
vt 0.417061 0.741568
vt 0.417061 0.741524
vt 0.417101 0.741524
vt 0.416935 0.741568
vt 0.416952 0.741524
vt 0.416935 0.741524
vt 0.434956 0.703809
vt 0.434070 0.702528
vt 0.434169 0.702528
vt 0.434169 0.703809
vt 0.434070 0.703809
vn 0.378632 -0.810462 -0.446978
vn 0.992226 -0.065934 -0.105545
vn 0.992226 -0.065934 0.105545
vn 0.378632 -0.810462 0.446978
vn 0.090494 -0.066736 -0.993658
vn -0.378629 -0.810465 -0.446975
vn -0.090493 -0.066736 -0.993659
vn 0.094761 0.000000 -0.995500
vn 0.993885 0.000000 -0.110418
vn -0.992226 -0.065936 -0.105548
vn -0.378629 -0.810465 0.446975
vn -0.992226 -0.065936 0.105548
vn -0.993885 0.000000 -0.110421
vn -0.094760 0.000000 -0.995500
vn 0.090494 -0.066736 0.993658
vn 0.993885 0.000000 0.110418
vn 0.094761 0.000000 0.995500
vn -0.090494 -0.066736 0.993659
vn -0.094760 0.000000 0.995500
vn -0.993885 0.000000 0.110421
vn 0.000000 -1.000000 0.000000
vn 0.000000 -1.000000 0.000000
vn 0.000000 -1.000000 0.000000
vn 0.000000 -1.000000 0.000000
vn 0.378632 -0.810462 -0.446978
vn 0.992226 -0.065934 -0.105545
vn 0.992226 -0.065934 0.105545
vn 0.378632 -0.810462 0.446978
vn 0.090494 -0.066736 -0.993658
vn -0.378629 -0.810465 -0.446975
vn -0.090494 -0.066736 -0.993659
vn 0.094761 0.000000 -0.995500
vn 0.993885 0.000000 -0.110418
vn -0.992226 -0.065936 -0.105548
vn -0.378629 -0.810465 0.446975
vn -0.992226 -0.065936 0.105548
vn -0.993885 0.000000 -0.110421
vn -0.094761 0.000000 -0.995500
vn 0.090494 -0.066736 0.993658
vn 0.993885 0.000000 0.110418
vn 0.094761 0.000000 0.995500
vn -0.090494 -0.066736 0.993659
vn -0.094760 0.000000 0.995500
vn -0.993885 0.000000 0.110421
vn 0.000000 -1.000000 0.000000
vn 0.000000 -1.000000 0.000000
vn 0.000000 -1.000000 0.000000
vn 0.000000 -1.000000 0.000000
vn 0.378632 -0.810461 -0.446979
vn 0.992226 -0.065934 -0.105545
vn 0.992226 -0.065934 0.105545
vn 0.378632 -0.810462 0.446978
vn 0.090494 -0.066736 -0.993658
vn -0.378629 -0.810465 -0.446975
vn -0.090493 -0.066736 -0.993659
vn 0.094761 0.000000 -0.995500
vn 0.993885 0.000000 -0.110418
vn -0.992226 -0.065936 -0.105548
vn -0.378629 -0.810465 0.446975
vn -0.992226 -0.065936 0.105548
vn -0.993885 0.000000 -0.110421
vn -0.094760 0.000000 -0.995500
vn 0.090494 -0.066736 0.993658
vn 0.993885 0.000000 0.110418
vn 0.094761 0.000000 0.995500
vn -0.090494 -0.066736 0.993659
vn -0.094760 0.000000 0.995500
vn -0.993885 0.000000 0.110421
vn 0.000000 -1.000000 0.000000
vn 0.000000 -1.000000 0.000000
vn 0.000000 -1.000000 0.000000
vn 0.000000 -1.000000 0.000000
vn 0.378632 -0.810462 -0.446978
vn 0.992226 -0.065934 -0.105545
vn 0.992226 -0.065934 0.105545
vn 0.378632 -0.810462 0.446978
vn 0.090494 -0.066736 -0.993658
vn -0.378629 -0.810465 -0.446975
vn -0.090494 -0.066736 -0.993659
vn 0.094761 0.000000 -0.995500
vn 0.993885 0.000000 -0.110418
vn -0.992226 -0.065936 -0.105548
vn -0.378629 -0.810465 0.446975
vn -0.992226 -0.065936 0.105548
vn -0.993885 0.000000 -0.110421
vn -0.094761 0.000000 -0.995500
vn 0.090494 -0.066736 0.993658
vn 0.993885 0.000000 0.110418
vn 0.094761 0.000000 0.995500
vn -0.090494 -0.066736 0.993659
vn -0.094760 0.000000 0.995500
vn -0.993885 0.000000 0.110421
vn 0.000000 -1.000000 0.000000
vn 0.000000 -1.000000 0.000000
vn 0.000000 -1.000000 0.000000
vn 0.000000 -1.000000 0.000000
vn 0.928248 0.367260 -0.058950
vn 0.080350 0.993523 -0.080350
vn 0.080350 0.993523 0.080350
vn 0.928248 0.367260 0.058950
vn 0.058950 0.367260 -0.928248
vn 0.996379 0.000000 -0.085027
vn 0.085027 0.000000 -0.996379
vn -0.058950 0.367260 -0.928248
vn -0.080350 0.993523 -0.080350
vn -0.928248 0.367260 -0.058950
vn -0.928248 0.367260 0.058950
vn -0.080350 0.993523 0.080350
vn -0.085027 0.000000 -0.996379
vn -0.996379 0.000000 -0.085027
vn 0.058950 0.367260 0.928248
vn 0.085027 0.000000 0.996379
vn 0.996379 0.000000 0.085027
vn -0.058950 0.367260 0.928248
vn -0.996379 0.000000 0.085027
vn -0.085027 0.000000 0.996379
vn 0.052553 0.000000 -0.998618
vn 0.052553 0.000000 -0.998618
vn -0.052553 0.000000 -0.998618
vn -0.052553 0.000000 -0.998618
vn 0.052553 0.000000 0.998618
vn 0.052553 0.000000 0.998618
vn -0.052553 0.000000 0.998618
vn -0.052553 0.000000 0.998618
vn -0.998618 0.000000 -0.052553
vn -0.998618 0.000000 -0.052553
vn -0.998618 0.000000 0.052553
vn -0.998618 0.000000 0.052553
vn 0.998618 0.000000 0.052553
vn 0.998618 0.000000 0.052553
vn 0.998618 0.000000 -0.052553
vn 0.998618 0.000000 -0.052553
vn 0.000000 1.000000 0.000000
vn 0.000000 1.000000 0.000000
vn 0.000000 1.000000 0.000000
vn 0.000000 1.000000 0.000000
vn 0.000000 -1.000000 0.000000
vn 0.000000 -1.000000 0.000000
vn 0.000000 -1.000000 0.000000
vn 0.000000 -1.000000 0.000000
vn 0.000000 -1.000000 0.000000
vn 0.000000 -1.000000 0.000000
vn 0.000000 -1.000000 0.000000
vn 0.000000 -1.000000 0.000000
vn 0.000000 -1.000000 0.000000
vn 0.000000 -1.000000 0.000000
vn 0.000000 -1.000000 0.000000
vn 0.000000 -1.000000 0.000000
vn 0.000000 1.000000 0.000000
vn 0.000000 1.000000 0.000000
vn 0.000000 1.000000 0.000000
vn 0.000000 1.000000 0.000000
vn 0.000000 1.000000 0.000000
vn 0.000000 1.000000 0.000000
vn 0.000000 1.000000 0.000000
vn 0.000000 1.000000 0.000000
s 1
g BancoA
usemtl initialShadingGroup
f 1/1/1 3/2/2 7/3/3 9/4/4
f 2/5/5 1/1/1 6/6/6 5/7/7
f 3/2/2 2/5/5 14/8/8 13/9/9
f 4/10/10 6/6/6 10/11/11 12/12/12
f 5/7/7 4/10/10 16/13/13 15/14/14
f 8/15/15 7/3/3 18/16/16 17/17/17
f 9/4/4 8/15/15 11/18/18 10/11/11
f 12/12/12 11/18/18 20/19/19 19/20/20
f 2/5/5 5/7/7 15/14/14 14/8/8
f 8/15/15 17/17/17 20/19/19 11/18/18
s off
f 9/4/21 10/11/22 6/6/23 1/1/24
s 1
f 4/10/10 12/12/12 19/20/20 16/13/13
f 7/3/3 3/2/2 13/9/9 18/16/16
f 1/1/1 2/5/5 3/2/2
f 4/10/10 5/7/7 6/6/6
f 7/3/3 8/15/15 9/4/4
f 10/11/11 11/18/18 12/12/12
s 2
f 21/31/25 23/32/26 27/33/27 29/34/28
f 22/35/29 21/31/25 26/36/30 25/37/31
f 23/38/26 22/39/29 34/44/32 33/124/33
f 24/40/34 26/36/30 30/41/35 32/42/36
f 25/21/31 24/22/34 36/23/37 35/24/38
f 28/125/39 27/126/27 38/127/40 37/128/41
f 29/34/28 28/43/39 31/46/42 30/41/35
f 32/25/36 31/26/42 40/27/43 39/28/44
f 22/29/29 25/21/31 35/24/38 34/30/32
f 28/43/39 37/45/41 40/49/43 31/46/42
s off
f 29/34/45 30/41/46 26/36/47 21/31/48
s 2
f 24/22/34 32/25/36 39/28/44 36/23/37
f 27/126/27 23/38/26 33/124/33 38/127/40
f 21/31/25 22/35/29 23/32/26
f 24/40/34 25/37/31 26/36/30
f 27/33/27 28/43/39 29/34/28
f 30/41/35 31/46/42 32/42/36
s 3
f 41/47/49 43/48/50 47/56/51 49/57/52
f 42/58/53 41/47/49 46/61/54 45/62/55
f 43/48/50 42/58/53 54/63/56 53/64/57
f 44/65/58 46/61/54 50/66/59 52/67/60
f 45/62/55 44/65/58 56/68/61 55/69/62
f 48/70/63 47/56/51 58/71/64 57/72/65
f 49/57/52 48/70/63 51/73/66 50/66/59
f 52/67/60 51/73/66 60/74/67 59/75/68
f 42/58/53 45/62/55 55/69/62 54/63/56
f 48/70/63 57/72/65 60/74/67 51/73/66
s off
f 49/57/69 50/66/70 46/61/71 41/47/72
s 3
f 44/65/58 52/67/60 59/75/68 56/68/61
f 47/56/51 43/48/50 53/64/57 58/71/64
f 41/47/49 42/58/53 43/48/50
f 44/65/58 45/62/55 46/61/54
f 47/56/51 48/70/63 49/57/52
f 50/66/59 51/73/66 52/67/60
s 4
f 61/76/73 63/77/74 67/78/75 69/79/76
f 62/80/77 61/76/73 66/81/78 65/82/79
f 63/77/74 62/80/77 74/83/80 73/84/81
f 64/85/82 66/81/78 70/86/83 72/87/84
f 65/82/79 64/85/82 76/88/85 75/89/86
f 68/90/87 67/78/75 78/91/88 77/92/89
f 69/79/76 68/90/87 71/93/90 70/86/83
f 72/87/84 71/93/90 80/94/91 79/95/92
f 62/80/77 65/82/79 75/89/86 74/83/80
f 68/90/87 77/92/89 80/94/91 71/93/90
s off
f 69/79/93 70/86/94 66/81/95 61/76/96
s 4
f 64/85/82 72/87/84 79/95/92 76/88/85
f 67/78/75 63/77/74 73/84/81 78/91/88
f 61/76/73 62/80/77 63/77/74
f 64/85/82 65/82/79 66/81/78
f 67/78/75 68/90/87 69/79/76
f 70/86/83 71/93/90 72/87/84
s 5
f 81/50/97 83/51/98 88/52/99 87/53/100
f 82/54/101 81/50/97 93/55/102 94/59/103
f 83/51/98 82/54/101 85/60/104 84/112/105
f 84/112/105 86/113/106 92/114/107 91/115/108
f 86/113/106 85/60/104 96/116/109 95/117/110
f 87/53/100 89/118/111 98/119/112 97/120/113
f 89/118/111 88/52/99 91/115/108 90/121/114
f 90/121/114 92/114/107 99/122/115 100/123/116
f 82/54/101 94/59/103 96/116/109 85/60/104
f 83/51/98 84/112/105 91/115/108 88/52/99
f 89/118/111 90/121/114 100/123/116 98/119/112
f 86/113/106 95/117/110 99/122/115 92/114/107
f 87/53/100 97/120/113 93/55/102 81/50/97
f 81/50/97 82/54/101 83/51/98
f 84/112/105 85/60/104 86/113/106
f 87/53/100 88/52/99 89/118/111
f 90/121/114 91/115/108 92/114/107
s 6
f 104/96/117 102/97/118 106/98/119 108/99/120
f 112/100/121 110/101/122 113/102/123 116/103/124
f 107/104/125 105/105/126 115/106/127 114/107/128
f 109/108/129 111/109/130 101/110/131 103/111/132
s off
f 103/111/133 104/96/134 110/101/135 109/108/136
f 106/98/137 116/103/138 115/106/139 105/105/140
s 6
f 101/110/131 102/97/118 104/96/117 103/111/132
f 106/98/119 105/105/126 107/104/125 108/99/120
f 109/108/129 110/101/122 112/100/121 111/109/130
f 113/102/123 114/107/128 115/106/127 116/103/124
s off
f 111/109/141 112/100/142 102/97/143 101/110/144
f 102/97/145 112/100/146 116/103/147 106/98/148
f 113/102/149 108/99/150 107/104/151 114/107/152
f 110/101/153 104/96/154 108/99/155 113/102/156
