# This file uses centimeters as units for non-parametric coordinates.

v -0.992658 -0.000000 -2.090706
v -0.992658 0.117140 -2.207846
v -0.875519 0.117140 -2.090706
v -2.223267 0.117140 -2.090706
v -2.106125 0.117140 -2.207846
v -2.106125 -0.000000 -2.090706
v -0.875519 0.117140 -1.153467
v -0.992658 0.117140 -1.036326
v -0.992658 -0.000000 -1.153467
v -2.106125 -0.000000 -1.153467
v -2.106125 0.117140 -1.036326
v -2.223267 0.117140 -1.153467
v -0.875519 1.640899 -2.090706
v -0.992658 1.640899 -2.207846
v -2.106125 1.640899 -2.207846
v -2.223267 1.640899 -2.090706
v -0.992658 1.640899 -1.036326
v -0.875519 1.640899 -1.153467
v -2.223267 1.640899 -1.153467
v -2.106125 1.640899 -1.036326
v 2.100780 -0.000000 1.194661
v 2.100780 0.117140 1.077520
v 2.217920 0.117140 1.194661
v 0.870172 0.117140 1.194661
v 0.987314 0.117140 1.077520
v 0.987314 -0.000000 1.194661
v 2.217920 0.117140 2.131901
v 2.100780 0.117140 2.249041
v 2.100780 -0.000000 2.131901
v 0.987314 -0.000000 2.131901
v 0.987314 0.117140 2.249041
v 0.870172 0.117140 2.131901
v 2.217920 1.640899 1.194661
v 2.100780 1.640899 1.077520
v 0.987314 1.640899 1.077520
v 0.870172 1.640899 1.194661
v 2.100780 1.640899 2.249041
v 2.217920 1.640899 2.131901
v 0.870172 1.640899 2.131901
v 0.987314 1.640899 2.249041
v 2.100780 -0.000000 -2.090706
v 2.100780 0.117140 -2.207846
v 2.217920 0.117140 -2.090706
v 0.870172 0.117140 -2.090706
v 0.987314 0.117140 -2.207846
v 0.987314 -0.000000 -2.090706
v 2.217920 0.117140 -1.153467
v 2.100780 0.117140 -1.036326
v 2.100780 -0.000000 -1.153467
v 0.987314 -0.000000 -1.153467
v 0.987314 0.117140 -1.036326
v 0.870172 0.117140 -1.153467
v 2.217920 1.640899 -2.090706
v 2.100780 1.640899 -2.207846
v 0.987314 1.640899 -2.207846
v 0.870172 1.640899 -2.090706
v 2.100780 1.640899 -1.036326
v 2.217920 1.640899 -1.153467
v 0.870172 1.640899 -1.153467
v 0.987314 1.640899 -1.036326
v -0.992658 -0.000000 1.194661
v -0.992658 0.117140 1.077520
v -0.875519 0.117140 1.194661
v -2.223267 0.117140 1.194661
v -2.106125 0.117140 1.077520
v -2.106125 -0.000000 1.194661
v -0.875519 0.117140 2.131901
v -0.992658 0.117140 2.249041
v -0.992658 -0.000000 2.131901
v -2.106125 -0.000000 2.131901
v -2.106125 0.117140 2.249041
v -2.223267 0.117140 2.131901
v -0.875519 1.640899 1.194661
v -0.992658 1.640899 1.077520
v -2.106125 1.640899 1.077520
v -2.223267 1.640899 1.194661
v -0.992658 1.640899 2.249041
v -0.875519 1.640899 2.131901
v -2.223267 1.640899 2.131901
v -2.106125 1.640899 2.249041
v 2.305935 2.828201 -1.943319
v 1.943319 2.828201 -2.305935
v 1.943319 3.190817 -1.943319
v -1.943319 3.190817 -1.943319
v -1.943319 2.828201 -2.305935
v -2.305935 2.828201 -1.943319
v 2.305935 2.828201 1.943319
v 1.943319 3.190817 1.943319
v 1.943319 2.828201 2.305937
v -1.943319 2.828201 2.305937
v -1.943319 3.190817 1.943319
v -2.305935 2.828201 1.943319
v 2.305935 2.305817 -1.943319
v 1.943319 2.305817 -2.305935
v -2.305935 2.305817 -1.943319
v -1.943319 2.305817 -2.305935
v 2.305935 2.305817 1.943319
v 1.943319 2.305817 2.305937
v -2.305935 2.305817 1.943319
v -1.943319 2.305817 2.305937
v 2.369226 1.553007 -2.132326
v 2.132328 1.553007 -2.369226
v 2.369226 2.492037 -2.132326
v 2.132328 2.492037 -2.369226
v -2.369223 1.553007 -2.132326
v -2.132324 1.553007 -2.369226
v -2.369223 2.492037 -2.132326
v -2.132324 2.492037 -2.369226
v 2.369226 2.492037 2.132326
v 2.132328 2.492037 2.369226
v 2.369226 1.553007 2.132326
v 2.132328 1.553007 2.369226
v -2.132324 2.492037 2.369226
v -2.369223 2.492037 2.132326
v -2.369223 1.553007 2.132326
v -2.132324 1.553007 2.369226
vt 0.433602 0.704093
vt 0.433599 0.704043
vt 0.434065 0.704046
vt 0.434068 0.704096
vt 0.433541 0.704100
vt 0.433602 0.704643
vt 0.433541 0.704650
vt 0.433500 0.704198
vt 0.433558 0.704141
vt 0.433599 0.704708
vt 0.434068 0.704646
vt 0.434065 0.704711
vt 0.433558 0.704807
vt 0.433500 0.704748
vt 0.434123 0.704104
vt 0.434024 0.704144
vt 0.434082 0.704203
vt 0.434123 0.704654
vt 0.434082 0.704752
vt 0.434024 0.704810
vt 0.428063 0.760921
vt 0.428978 0.758759
vt 0.428905 0.758759
vt 0.427990 0.760921
vt 0.428984 0.758759
vt 0.428027 0.760921
vt 0.428036 0.760931
vt 0.434956 0.702528
vt 0.435055 0.702528
vt 0.435055 0.703809
vt 0.434956 0.703809
vt 0.428023 0.760931
vt 0.427954 0.760921
vt 0.427950 0.760931
vt 0.434584 0.702464
vt 0.434582 0.702547
vt 0.434483 0.702585
vt 0.434485 0.702502
vt 0.434070 0.702528
vt 0.434169 0.702528
vt 0.434169 0.703809
vt 0.434070 0.703809
vt 0.428892 0.765798
vt 0.427945 0.767970
vt 0.434901 0.702887
vt 0.434983 0.702890
vt 0.434883 0.702927
vt 0.434802 0.702925
vt 0.434983 0.702085
vt 0.434883 0.702123
vt 0.428892 0.765927
vt 0.427945 0.768099
vt 0.433012 0.702684
vt 0.433009 0.702633
vt 0.433475 0.702637
vt 0.433479 0.702687
vt 0.432951 0.702691
vt 0.433013 0.703234
vt 0.432951 0.703241
vt 0.432910 0.702789
vt 0.432968 0.702732
vt 0.433009 0.703299
vt 0.433479 0.703237
vt 0.433475 0.703302
vt 0.432968 0.703397
vt 0.432910 0.703339
vt 0.433534 0.702695
vt 0.433434 0.702735
vt 0.433493 0.702793
vt 0.433534 0.703245
vt 0.433493 0.703343
vt 0.433434 0.703401
vt 0.435114 0.703473
vt 0.435111 0.703423
vt 0.435577 0.703426
vt 0.435580 0.703476
vt 0.435052 0.703480
vt 0.435114 0.704023
vt 0.435052 0.704030
vt 0.435011 0.703579
vt 0.435070 0.703521
vt 0.435111 0.704088
vt 0.435580 0.704026
vt 0.435577 0.704092
vt 0.435070 0.704187
vt 0.435011 0.704128
vt 0.435635 0.703484
vt 0.435536 0.703524
vt 0.435594 0.703583
vt 0.435635 0.704034
vt 0.435594 0.704132
vt 0.435536 0.704190
vt 0.417404 0.741568
vt 0.417393 0.741599
vt 0.417089 0.741599
vt 0.417101 0.741568
vt 0.417421 0.741568
vt 0.417404 0.741524
vt 0.417421 0.741524
vt 0.417295 0.741568
vt 0.417267 0.741599
vt 0.417255 0.741568
vt 0.416952 0.741568
vt 0.416964 0.741599
vt 0.417295 0.741524
vt 0.417255 0.741524
vt 0.417061 0.741568
vt 0.417061 0.741524
vt 0.417101 0.741524
vt 0.416935 0.741568
vt 0.416952 0.741524
vt 0.416935 0.741524
vt 0.433069 0.702473
vt 0.433094 0.702412
vt 0.433109 0.704518
vt 0.433084 0.704579
vt 0.435451 0.702412
vt 0.435426 0.702473
vt 0.435440 0.704579
vt 0.435465 0.704518
vt 0.433202 0.704696
vt 0.433227 0.704635
vt 0.435348 0.704635
vt 0.435323 0.704696
vt 0.435307 0.702356
vt 0.435332 0.702295
vt 0.433211 0.702295
vt 0.433186 0.702356
vn 0.378632 -0.810462 -0.446978
vn 0.992226 -0.065934 -0.105545
vn 0.992226 -0.065934 0.105545
vn 0.378632 -0.810462 0.446978
vn 0.090494 -0.066736 -0.993659
vn 0.378632 -0.810462 -0.446978
vn -0.378629 -0.810465 -0.446975
vn -0.090493 -0.066736 -0.993659
vn 0.992226 -0.065934 -0.105545
vn 0.090494 -0.066736 -0.993659
vn 0.094761 0.000000 -0.995500
vn 0.993885 0.000000 -0.110418
vn -0.992226 -0.065936 -0.105548
vn -0.378629 -0.810465 -0.446975
vn -0.378629 -0.810465 0.446975
vn -0.992226 -0.065936 0.105548
vn -0.090493 -0.066736 -0.993659
vn -0.992226 -0.065936 -0.105548
vn -0.993885 0.000000 -0.110421
vn -0.094760 0.000000 -0.995500
vn 0.090494 -0.066736 0.993659
vn 0.992226 -0.065934 0.105545
vn 0.993885 0.000000 0.110418
vn 0.094761 0.000000 0.995500
vn 0.378632 -0.810462 0.446978
vn 0.090494 -0.066736 0.993659
vn -0.090494 -0.066736 0.993659
vn -0.378629 -0.810465 0.446975
vn -0.992226 -0.065936 0.105548
vn -0.090494 -0.066736 0.993659
vn -0.094760 0.000000 0.995500
vn -0.993885 0.000000 0.110421
vn 0.090494 -0.066736 -0.993659
vn -0.090493 -0.066736 -0.993659
vn -0.094760 0.000000 -0.995500
vn 0.094761 0.000000 -0.995500
vn 0.090494 -0.066736 0.993659
vn 0.094761 0.000000 0.995500
vn -0.094760 0.000000 0.995500
vn -0.090494 -0.066736 0.993659
vn 0.000000 -1.000000 0.000000
vn 0.000000 -1.000000 0.000000
vn 0.000000 -1.000000 0.000000
vn 0.000000 -1.000000 0.000000
vn -0.992226 -0.065936 -0.105548
vn -0.992226 -0.065936 0.105548
vn -0.993885 0.000000 0.110421
vn -0.993885 0.000000 -0.110421
vn 0.992226 -0.065934 0.105545
vn 0.992226 -0.065934 -0.105545
vn 0.993885 0.000000 -0.110418
vn 0.993885 0.000000 0.110418
vn 0.378632 -0.810462 -0.446978
vn 0.090494 -0.066736 -0.993659
vn 0.992226 -0.065934 -0.105545
vn -0.992226 -0.065936 -0.105548
vn -0.090493 -0.066736 -0.993659
vn -0.378629 -0.810465 -0.446975
vn 0.992226 -0.065934 0.105545
vn 0.090494 -0.066736 0.993659
vn 0.378632 -0.810462 0.446978
vn -0.378629 -0.810465 0.446975
vn -0.090494 -0.066736 0.993659
vn -0.992226 -0.065936 0.105548
vn 0.378632 -0.810462 -0.446978
vn 0.992226 -0.065934 -0.105545
vn 0.992226 -0.065934 0.105545
vn 0.378632 -0.810462 0.446978
vn 0.090494 -0.066736 -0.993659
vn 0.378632 -0.810462 -0.446978
vn -0.378629 -0.810465 -0.446975
vn -0.090494 -0.066736 -0.993659
vn 0.992226 -0.065934 -0.105545
vn 0.090494 -0.066736 -0.993659
vn 0.094761 0.000000 -0.995500
vn 0.993885 0.000000 -0.110418
vn -0.992226 -0.065936 -0.105548
vn -0.378629 -0.810465 -0.446975
vn -0.378629 -0.810465 0.446975
vn -0.992226 -0.065936 0.105548
vn -0.090494 -0.066736 -0.993659
vn -0.992226 -0.065936 -0.105548
vn -0.993885 0.000000 -0.110421
vn -0.094761 0.000000 -0.995500
vn 0.090494 -0.066736 0.993659
vn 0.992226 -0.065934 0.105545
vn 0.993885 0.000000 0.110418
vn 0.094761 0.000000 0.995500
vn 0.378632 -0.810462 0.446978
vn 0.090494 -0.066736 0.993659
vn -0.090494 -0.066736 0.993659
vn -0.378629 -0.810465 0.446975
vn -0.992226 -0.065936 0.105548
vn -0.090494 -0.066736 0.993659
vn -0.094760 0.000000 0.995500
vn -0.993885 0.000000 0.110421
vn 0.090494 -0.066736 -0.993659
vn -0.090494 -0.066736 -0.993659
vn -0.094761 0.000000 -0.995500
vn 0.094761 0.000000 -0.995500
vn 0.090494 -0.066736 0.993659
vn 0.094761 0.000000 0.995500
vn -0.094760 0.000000 0.995500
vn -0.090494 -0.066736 0.993659
vn 0.000000 -1.000000 0.000000
vn 0.000000 -1.000000 0.000000
vn 0.000000 -1.000000 0.000000
vn 0.000000 -1.000000 0.000000
vn -0.992226 -0.065936 -0.105548
vn -0.992226 -0.065936 0.105548
vn -0.993885 0.000000 0.110421
vn -0.993885 0.000000 -0.110421
vn 0.992226 -0.065934 0.105545
vn 0.992226 -0.065934 -0.105545
vn 0.993885 0.000000 -0.110418
vn 0.993885 0.000000 0.110418
vn 0.378632 -0.810462 -0.446978
vn 0.090494 -0.066736 -0.993659
vn 0.992226 -0.065934 -0.105545
vn -0.992226 -0.065936 -0.105548
vn -0.090494 -0.066736 -0.993659
vn -0.378629 -0.810465 -0.446975
vn 0.992226 -0.065934 0.105545
vn 0.090494 -0.066736 0.993659
vn 0.378632 -0.810462 0.446978
vn -0.378629 -0.810465 0.446975
vn -0.090494 -0.066736 0.993659
vn -0.992226 -0.065936 0.105548
vn 0.378632 -0.810461 -0.446979
vn 0.992226 -0.065934 -0.105545
vn 0.992226 -0.065934 0.105545
vn 0.378632 -0.810462 0.446978
vn 0.090494 -0.066736 -0.993659
vn 0.378632 -0.810461 -0.446979
vn -0.378629 -0.810465 -0.446975
vn -0.090493 -0.066736 -0.993659
vn 0.992226 -0.065934 -0.105545
vn 0.090494 -0.066736 -0.993659
vn 0.094761 0.000000 -0.995500
vn 0.993885 0.000000 -0.110418
vn -0.992226 -0.065936 -0.105548
vn -0.378629 -0.810465 -0.446975
vn -0.378629 -0.810465 0.446975
vn -0.992226 -0.065936 0.105548
vn -0.090493 -0.066736 -0.993659
vn -0.992226 -0.065936 -0.105548
vn -0.993885 0.000000 -0.110421
vn -0.094760 0.000000 -0.995500
vn 0.090494 -0.066736 0.993659
vn 0.992226 -0.065934 0.105545
vn 0.993885 0.000000 0.110418
vn 0.094761 0.000000 0.995500
vn 0.378632 -0.810462 0.446978
vn 0.090494 -0.066736 0.993659
vn -0.090494 -0.066736 0.993659
vn -0.378629 -0.810465 0.446975
vn -0.992226 -0.065936 0.105548
vn -0.090494 -0.066736 0.993659
vn -0.094760 0.000000 0.995500
vn -0.993885 0.000000 0.110421
vn 0.090494 -0.066736 -0.993659
vn -0.090493 -0.066736 -0.993659
vn -0.094760 0.000000 -0.995500
vn 0.094761 0.000000 -0.995500
vn 0.090494 -0.066736 0.993659
vn 0.094761 0.000000 0.995500
vn -0.094760 0.000000 0.995500
vn -0.090494 -0.066736 0.993659
vn 0.000000 -1.000000 0.000000
vn 0.000000 -1.000000 0.000000
vn 0.000000 -1.000000 0.000000
vn 0.000000 -1.000000 0.000000
vn -0.992226 -0.065936 -0.105548
vn -0.992226 -0.065936 0.105548
vn -0.993885 0.000000 0.110421
vn -0.993885 0.000000 -0.110421
vn 0.992226 -0.065934 0.105545
vn 0.992226 -0.065934 -0.105545
vn 0.993885 0.000000 -0.110418
vn 0.993885 0.000000 0.110418
vn 0.378632 -0.810461 -0.446979
vn 0.090494 -0.066736 -0.993659
vn 0.992226 -0.065934 -0.105545
vn -0.992226 -0.065936 -0.105548
vn -0.090493 -0.066736 -0.993659
vn -0.378629 -0.810465 -0.446975
vn 0.992226 -0.065934 0.105545
vn 0.090494 -0.066736 0.993659
vn 0.378632 -0.810462 0.446978
vn -0.378629 -0.810465 0.446975
vn -0.090494 -0.066736 0.993659
vn -0.992226 -0.065936 0.105548
vn 0.378632 -0.810462 -0.446978
vn 0.992226 -0.065934 -0.105545
vn 0.992226 -0.065934 0.105545
vn 0.378632 -0.810462 0.446978
vn 0.090494 -0.066736 -0.993659
vn 0.378632 -0.810462 -0.446978
vn -0.378629 -0.810465 -0.446975
vn -0.090494 -0.066736 -0.993659
vn 0.992226 -0.065934 -0.105545
vn 0.090494 -0.066736 -0.993659
vn 0.094761 0.000000 -0.995500
vn 0.993885 0.000000 -0.110418
vn -0.992226 -0.065936 -0.105548
vn -0.378629 -0.810465 -0.446975
vn -0.378629 -0.810465 0.446975
vn -0.992226 -0.065936 0.105548
vn -0.090494 -0.066736 -0.993659
vn -0.992226 -0.065936 -0.105548
vn -0.993885 0.000000 -0.110421
vn -0.094761 0.000000 -0.995500
vn 0.090494 -0.066736 0.993659
vn 0.992226 -0.065934 0.105545
vn 0.993885 0.000000 0.110418
vn 0.094761 0.000000 0.995500
vn 0.378632 -0.810462 0.446978
vn 0.090494 -0.066736 0.993659
vn -0.090494 -0.066736 0.993659
vn -0.378629 -0.810465 0.446975
vn -0.992226 -0.065936 0.105548
vn -0.090494 -0.066736 0.993659
vn -0.094760 0.000000 0.995500
vn -0.993885 0.000000 0.110421
vn 0.090494 -0.066736 -0.993659
vn -0.090494 -0.066736 -0.993659
vn -0.094761 0.000000 -0.995500
vn 0.094761 0.000000 -0.995500
vn 0.090494 -0.066736 0.993659
vn 0.094761 0.000000 0.995500
vn -0.094760 0.000000 0.995500
vn -0.090494 -0.066736 0.993659
vn 0.000000 -1.000000 0.000000
vn 0.000000 -1.000000 0.000000
vn 0.000000 -1.000000 0.000000
vn 0.000000 -1.000000 0.000000
vn -0.992226 -0.065936 -0.105548
vn -0.992226 -0.065936 0.105548
vn -0.993885 0.000000 0.110421
vn -0.993885 0.000000 -0.110421
vn 0.992226 -0.065934 0.105545
vn 0.992226 -0.065934 -0.105545
vn 0.993885 0.000000 -0.110418
vn 0.993885 0.000000 0.110418
vn 0.378632 -0.810462 -0.446978
vn 0.090494 -0.066736 -0.993659
vn 0.992226 -0.065934 -0.105545
vn -0.992226 -0.065936 -0.105548
vn -0.090494 -0.066736 -0.993659
vn -0.378629 -0.810465 -0.446975
vn 0.992226 -0.065934 0.105545
vn 0.090494 -0.066736 0.993659
vn 0.378632 -0.810462 0.446978
vn -0.378629 -0.810465 0.446975
vn -0.090494 -0.066736 0.993659
vn -0.992226 -0.065936 0.105548
vn 0.928248 0.367260 -0.058950
vn 0.080350 0.993523 -0.080350
vn 0.080350 0.993523 0.080350
vn 0.928248 0.367260 0.058950
vn 0.058950 0.367260 -0.928248
vn 0.928248 0.367260 -0.058950
vn 0.996379 0.000000 -0.085027
vn 0.085027 0.000000 -0.996379
vn 0.080350 0.993523 -0.080350
vn 0.058950 0.367260 -0.928248
vn -0.058950 0.367260 -0.928248
vn -0.080350 0.993523 -0.080350
vn -0.080350 0.993523 -0.080350
vn -0.928248 0.367260 -0.058950
vn -0.928248 0.367260 0.058950
vn -0.080350 0.993523 0.080350
vn -0.928248 0.367260 -0.058950
vn -0.058950 0.367260 -0.928248
vn -0.085027 0.000000 -0.996379
vn -0.996379 0.000000 -0.085027
vn 0.928248 0.367260 0.058950
vn 0.058950 0.367260 0.928248
vn 0.085027 0.000000 0.996379
vn 0.996379 0.000000 0.085027
vn 0.058950 0.367260 0.928248
vn 0.080350 0.993523 0.080350
vn -0.080350 0.993523 0.080350
vn -0.058950 0.367260 0.928248
vn -0.058950 0.367260 0.928248
vn -0.928248 0.367260 0.058950
vn -0.996379 0.000000 0.085027
vn -0.085027 0.000000 0.996379
vn 0.058950 0.367260 -0.928248
vn 0.085027 0.000000 -0.996379
vn -0.085027 0.000000 -0.996379
vn -0.058950 0.367260 -0.928248
vn 0.080350 0.993523 -0.080350
vn -0.080350 0.993523 -0.080350
vn -0.080350 0.993523 0.080350
vn 0.080350 0.993523 0.080350
vn 0.058950 0.367260 0.928248
vn -0.058950 0.367260 0.928248
vn -0.085027 0.000000 0.996379
vn 0.085027 0.000000 0.996379
vn -0.928248 0.367260 -0.058950
vn -0.996379 0.000000 -0.085027
vn -0.996379 0.000000 0.085027
vn -0.928248 0.367260 0.058950
vn 0.928248 0.367260 0.058950
vn 0.996379 0.000000 0.085027
vn 0.996379 0.000000 -0.085027
vn 0.928248 0.367260 -0.058950
vn 0.928248 0.367260 -0.058950
vn 0.058950 0.367260 -0.928248
vn 0.080350 0.993523 -0.080350
vn -0.080350 0.993523 -0.080350
vn -0.058950 0.367260 -0.928248
vn -0.928248 0.367260 -0.058950
vn 0.928248 0.367260 0.058950
vn 0.080350 0.993523 0.080350
vn 0.058950 0.367260 0.928248
vn -0.058950 0.367260 0.928248
vn -0.080350 0.993523 0.080350
vn -0.928248 0.367260 0.058950
vn 0.052553 0.000000 -0.998618
vn 0.052553 0.000000 -0.998618
vn -0.052553 0.000000 -0.998618
vn -0.052553 0.000000 -0.998618
vn 0.052553 0.000000 0.998618
vn 0.052553 0.000000 0.998618
vn -0.052553 0.000000 0.998618
vn -0.052553 0.000000 0.998618
vn -0.998618 0.000000 -0.052553
vn -0.998618 0.000000 -0.052553
vn -0.998618 0.000000 0.052553
vn -0.998618 0.000000 0.052553
vn 0.998618 0.000000 0.052553
vn 0.998618 0.000000 0.052553
vn 0.998618 0.000000 -0.052553
vn 0.998618 0.000000 -0.052553
vn 0.000000 1.000000 0.000000
vn 0.000000 1.000000 0.000000
vn 0.000000 1.000000 0.000000
vn 0.000000 1.000000 0.000000
vn 0.000000 -1.000000 0.000000
vn 0.000000 -1.000000 0.000000
vn 0.000000 -1.000000 0.000000
vn 0.000000 -1.000000 0.000000
vn 0.998618 0.000000 -0.052553
vn 0.052553 0.000000 -0.998618
vn 0.052553 0.000000 -0.998618
vn 0.998618 0.000000 -0.052553
vn -0.052553 0.000000 -0.998618
vn -0.998618 0.000000 -0.052553
vn -0.998618 0.000000 -0.052553
vn -0.052553 0.000000 -0.998618
vn 0.998618 0.000000 0.052553
vn 0.052553 0.000000 0.998618
vn 0.052553 0.000000 0.998618
vn 0.998618 0.000000 0.052553
vn -0.052553 0.000000 0.998618
vn -0.998618 0.000000 0.052553
vn -0.998618 0.000000 0.052553
vn -0.052553 0.000000 0.998618
vn 0.000000 -1.000000 0.000000
vn 0.000000 -1.000000 0.000000
vn 0.000000 -1.000000 0.000000
vn 0.000000 -1.000000 0.000000
vn 0.000000 -1.000000 0.000000
vn 0.000000 -1.000000 0.000000
vn 0.000000 -1.000000 0.000000
vn 0.000000 -1.000000 0.000000
vn 0.000000 1.000000 0.000000
vn 0.000000 1.000000 0.000000
vn 0.000000 1.000000 0.000000
vn 0.000000 1.000000 0.000000
vn 0.000000 1.000000 0.000000
vn 0.000000 1.000000 0.000000
vn 0.000000 1.000000 0.000000
vn 0.000000 1.000000 0.000000
s off
f 1/1/1 3/2/2 7/3/3 9/4/4
f 2/5/5 1/1/6 6/6/7 5/7/8
f 3/2/9 2/5/10 14/8/11 13/9/12
f 4/10/13 6/6/14 10/11/15 12/12/16
f 5/7/17 4/10/18 16/13/19 15/14/20
f 8/15/21 7/3/22 18/16/23 17/17/24
f 9/4/25 8/15/26 11/18/27 10/11/28
f 12/12/29 11/18/30 20/19/31 19/20/32
f 2/5/33 5/7/34 15/14/35 14/8/36
f 8/15/37 17/17/38 20/19/39 11/18/40
f 9/4/41 10/11/42 6/6/43 1/1/44
f 4/10/45 12/12/46 19/20/47 16/13/48
f 7/3/49 3/2/50 13/9/51 18/16/52
f 1/1/53 2/5/54 3/2/55
f 4/10/56 5/7/57 6/6/58
f 7/3/59 8/15/60 9/4/61
f 10/11/62 11/18/63 12/12/64
f 21/21/65 23/22/66 27/23/67 29/24/68
f 22/25/69 21/21/70 26/26/71 25/27/72
f 23/28/73 22/29/74 34/30/75 33/31/76
f 24/32/77 26/26/78 30/33/79 32/34/80
f 25/35/81 24/36/82 36/37/83 35/38/84
f 28/39/85 27/40/86 38/41/87 37/42/88
f 29/24/89 28/43/90 31/44/91 30/33/92
f 32/45/93 31/46/94 40/47/95 39/48/96
f 22/49/97 25/35/98 35/38/99 34/50/100
f 28/43/101 37/51/102 40/52/103 31/44/104
f 29/24/105 30/33/106 26/26/107 21/21/108
f 24/36/109 32/45/110 39/48/111 36/37/112
f 27/40/113 23/28/114 33/31/115 38/41/116
f 21/21/117 22/25/118 23/22/119
f 24/32/120 25/27/121 26/26/122
f 27/23/123 28/43/124 29/24/125
f 30/33/126 31/44/127 32/34/128
f 41/53/129 43/54/130 47/55/131 49/56/132
f 42/57/133 41/53/134 46/58/135 45/59/136
f 43/54/137 42/57/138 54/60/139 53/61/140
f 44/62/141 46/58/142 50/63/143 52/64/144
f 45/59/145 44/62/146 56/65/147 55/66/148
f 48/67/149 47/55/150 58/68/151 57/69/152
f 49/56/153 48/67/154 51/70/155 50/63/156
f 52/64/157 51/70/158 60/71/159 59/72/160
f 42/57/161 45/59/162 55/66/163 54/60/164
f 48/67/165 57/69/166 60/71/167 51/70/168
f 49/56/169 50/63/170 46/58/171 41/53/172
f 44/62/173 52/64/174 59/72/175 56/65/176
f 47/55/177 43/54/178 53/61/179 58/68/180
f 41/53/181 42/57/182 43/54/183
f 44/62/184 45/59/185 46/58/186
f 47/55/187 48/67/188 49/56/189
f 50/63/190 51/70/191 52/64/192
f 61/73/193 63/74/194 67/75/195 69/76/196
f 62/77/197 61/73/198 66/78/199 65/79/200
f 63/74/201 62/77/202 74/80/203 73/81/204
f 64/82/205 66/78/206 70/83/207 72/84/208
f 65/79/209 64/82/210 76/85/211 75/86/212
f 68/87/213 67/75/214 78/88/215 77/89/216
f 69/76/217 68/87/218 71/90/219 70/83/220
f 72/84/221 71/90/222 80/91/223 79/92/224
f 62/77/225 65/79/226 75/86/227 74/80/228
f 68/87/229 77/89/230 80/91/231 71/90/232
f 69/76/233 70/83/234 66/78/235 61/73/236
f 64/82/237 72/84/238 79/92/239 76/85/240
f 67/75/241 63/74/242 73/81/243 78/88/244
f 61/73/245 62/77/246 63/74/247
f 64/82/248 65/79/249 66/78/250
f 67/75/251 68/87/252 69/76/253
f 70/83/254 71/90/255 72/84/256
f 81/93/257 83/94/258 88/95/259 87/96/260
f 82/97/261 81/93/262 93/98/263 94/99/264
f 83/94/265 82/97/266 85/100/267 84/101/268
f 84/101/269 86/102/270 92/103/271 91/104/272
f 86/102/273 85/100/274 96/105/275 95/106/276
f 87/96/277 89/107/278 98/108/279 97/109/280
f 89/107/281 88/95/282 91/104/283 90/110/284
f 90/110/285 92/103/286 99/111/287 100/112/288
f 82/97/289 94/99/290 96/105/291 85/100/292
f 83/94/293 84/101/294 91/104/295 88/95/296
f 89/107/297 90/110/298 100/112/299 98/108/300
f 86/102/301 95/106/302 99/111/303 92/103/304
f 87/96/305 97/109/306 93/98/307 81/93/308
f 81/93/309 82/97/310 83/94/311
f 84/101/312 85/100/313 86/102/314
f 87/96/315 88/95/316 89/107/317
f 90/110/318 91/104/319 92/103/320
f 104/113/321 102/114/322 106/115/323 108/116/324
f 112/117/325 110/118/326 113/119/327 116/120/328
f 107/121/329 105/122/330 115/123/331 114/124/332
f 109/125/333 111/126/334 101/127/335 103/128/336
f 103/128/337 104/113/338 110/118/339 109/125/340
f 106/115/341 116/120/342 115/123/343 105/122/344
f 101/127/345 102/114/346 104/113/347 103/128/348
f 106/115/349 105/122/350 107/121/351 108/116/352
f 109/125/353 110/118/354 112/117/355 111/126/356
f 113/119/357 114/124/358 115/123/359 116/120/360
f 111/126/361 112/117/362 102/114/363 101/127/364
f 102/114/365 112/117/366 116/120/367 106/115/368
f 113/119/369 108/116/370 107/121/371 114/124/372
f 110/118/373 104/113/374 108/116/375 113/119/376
