# This file uses centimeters as units for non-parametric coordinates.

mtllib SM_CarpetaB.mtl
g default
v 1.858756 27.621283 -8.360018
v 2.051661 0.717018 -8.360018
v -2.625438 27.688656 -8.360018
v -2.432536 0.784390 -8.360018
v -2.203222 27.682312 8.799281
v -2.010324 0.778046 8.799281
v 1.520985 27.626358 8.799281
v 1.713890 0.722092 8.799281
v -2.503782 28.324497 -9.113987
v -2.300890 0.026865 -9.113987
v -3.011854 28.332136 -9.113987
v -2.808954 0.034498 -9.113987
v -2.589608 28.325790 9.014358
v -2.495051 26.909786 10.489892
v -2.081545 28.318157 9.014358
v -1.986961 26.902157 10.489892
v -2.312427 1.441628 10.489892
v -2.386719 0.028154 9.014358
v -1.878652 0.020531 9.014358
v -1.804380 1.434002 10.489892
v -2.462559 28.323883 -9.395962
v -2.259638 0.026246 -9.395962
v -2.628429 0.031788 -9.728234
v -2.831299 28.329420 -9.728234
v -2.118961 28.318718 -9.661680
v -1.916071 0.021084 -9.661680
v -2.140272 0.024451 -10.095146
v -2.343137 28.322083 -10.095146
v -1.548271 28.310143 -9.971161
v -1.345366 0.012510 -9.971161
v -1.345366 0.012510 -10.404623
v -1.548271 28.310143 -10.404623
v -0.410971 28.293055 -10.056435
v -0.208079 -0.004577 -10.056435
v -0.208079 -0.004577 -10.489894
v -0.410971 28.293055 -10.489894
v 1.884727 -0.036021 -9.113987
v 1.681859 28.261608 -9.113987
v 2.392777 -0.043655 -9.113987
v 2.189898 28.253971 -9.113987
v 1.914285 -0.036464 9.014358
v 1.847869 1.379121 10.489892
v 1.406212 -0.028830 9.014358
v 1.339809 1.386755 10.489892
v 1.665256 26.847279 10.489892
v 1.711381 28.261166 9.014358
v 1.203333 28.268799 9.014358
v 1.157195 26.854912 10.489892
v 1.843526 -0.035403 -9.395962
v 1.640615 28.262230 -9.395962
v 2.009385 28.256687 -9.728234
v 2.212252 -0.040934 -9.728234
v 1.499949 -0.030241 -9.661680
v 1.297049 28.267403 -9.661680
v 1.521214 28.264019 -10.095146
v 1.724136 -0.033608 -10.095146
v 0.929227 -0.021664 -9.971161
v 0.726336 28.275970 -9.971161
v 0.726336 28.275970 -10.404623
v 0.929227 -0.021664 -10.404623
v -1.300003 3.373204 -10.433049
v -0.164020 2.939762 -10.433049
v 0.927169 3.432179 -10.433049
v 0.904254 3.407947 -9.999583
v -0.197643 2.939234 -9.999583
v -1.324683 3.396715 -9.999583
v -2.333412 4.562756 -9.113983
v -1.911211 4.556411 9.014358
v -1.833657 5.516349 10.489892
v -2.341702 5.523965 10.489892
v -2.419270 4.564045 9.014358
v -2.841466 4.570390 -9.113983
v -2.660934 4.567676 -9.728234
v -2.172799 4.560342 -10.095146
v -1.815353 4.478634 -10.433049
v 1.334323 4.562025 -10.433049
v 1.691589 4.502272 -10.095146
v 2.179760 4.494938 -9.728234
v 2.360286 4.492225 -9.113987
v 1.881759 4.499416 9.014358
v 1.818567 5.461458 10.489892
v 1.310517 5.469092 10.489892
v 1.373720 4.507050 9.014358
v 1.852202 4.499859 -9.113987
v 1.810992 4.500480 -9.395962
v 1.467413 4.505642 -9.661680
v 1.335588 4.528279 -9.999583
v -1.816630 4.512388 -9.999583
v -1.948619 4.556974 -9.661680
v -2.292161 4.562135 -9.395962
v -1.408197 5.608480 -10.433049
v -0.317035 6.100905 -10.433049
v 0.818961 5.667444 -10.433049
v 0.843657 5.643951 -9.999583
v -0.283398 6.101422 -9.999583
v -1.385317 5.632712 -9.999583
vt 0.462139 0.015463
vt 0.465265 0.015463
vt 0.462139 0.018589
vt 0.465265 0.018589
vt 0.462139 0.021715
vt 0.465265 0.021715
vt 0.462139 0.024841
vt 0.465265 0.024841
vt 0.468391 0.015463
vt 0.468391 0.018589
vt 0.459013 0.015463
vt 0.459013 0.018589
vt 0.786515 0.238880
vt 0.786308 0.239452
vt 0.786002 0.239758
vt 0.785818 0.238880
vt 0.786297 0.243589
vt 0.785671 0.243589
vt 0.788687 0.232729
vt 0.790522 0.230894
vt 0.790494 0.234901
vt 0.786515 0.234901
vt 0.778192 0.234901
vt 0.780094 0.232634
vt 0.782171 0.230557
vt 0.782171 0.234901
vt 0.786515 0.243954
vt 0.786515 0.247933
vt 0.785818 0.247933
vt 0.785818 0.243954
vt 0.782171 0.238880
vt 0.784398 0.241361
vt 0.782388 0.243589
vt 0.782171 0.243954
vt 0.786515 0.230557
vt 0.786515 0.230557
vt 0.785818 0.230557
vt 0.785818 0.230557
vt 0.786515 0.234901
vt 0.785818 0.234901
vt 0.785818 0.234901
vt 0.782171 0.230557
vt 0.782171 0.234901
vt 0.786515 0.230557
vt 0.785818 0.230557
vt 0.786515 0.234901
vt 0.785818 0.234901
vt 0.782171 0.230557
vt 0.782171 0.234901
vt 0.786515 0.230557
vt 0.786046 0.230557
vt 0.786515 0.234901
vt 0.786046 0.234901
vt 0.782171 0.230557
vt 0.782171 0.234901
vt 0.786046 0.230557
vt 0.786515 0.230557
vt 0.786515 0.234901
vt 0.786046 0.234901
vt 0.782171 0.230557
vt 0.782171 0.234901
vt 0.784398 0.241361
vt 0.782171 0.238880
vt 0.782867 0.238880
vt 0.784704 0.241055
vt 0.782388 0.243589
vt 0.783014 0.243589
vt 0.788687 0.232729
vt 0.790522 0.230894
vt 0.790494 0.234901
vt 0.786515 0.234901
vt 0.778192 0.234901
vt 0.780094 0.232634
vt 0.782171 0.230557
vt 0.782171 0.234901
vt 0.782171 0.247933
vt 0.782171 0.243954
vt 0.782867 0.243954
vt 0.782867 0.247933
vt 0.786308 0.239452
vt 0.786515 0.238880
vt 0.786515 0.243954
vt 0.786297 0.243589
vt 0.782171 0.230557
vt 0.782867 0.230557
vt 0.782867 0.230557
vt 0.786515 0.230557
vt 0.786515 0.234901
vt 0.786515 0.230557
vt 0.782171 0.234901
vt 0.782867 0.234901
vt 0.782867 0.234901
vt 0.782171 0.230557
vt 0.782867 0.230557
vt 0.786515 0.234901
vt 0.786515 0.230557
vt 0.782171 0.234901
vt 0.782867 0.234901
vt 0.782639 0.230557
vt 0.782171 0.230557
vt 0.786515 0.234901
vt 0.786515 0.230557
vt 0.782171 0.234901
vt 0.782639 0.234901
vt 0.782639 0.230557
vt 0.782171 0.230557
vt 0.786515 0.234901
vt 0.786515 0.230557
vt 0.782639 0.234901
vt 0.782171 0.234901
vt 0.785818 0.234901
vt 0.782171 0.247933
vt 0.785596 0.234901
vt 0.783090 0.234901
vt 0.786515 0.247933
vt 0.783090 0.230557
vt 0.785596 0.230557
vt 0.785596 0.234901
vt 0.783090 0.234901
vt 0.783090 0.230557
vt 0.785596 0.230557
vt 0.782867 0.234901
vt 0.782867 0.230557
vt 0.785818 0.230557
vn 0.000000 0.000000 -1.000000
vn 0.000000 0.000000 -1.000000
vn 0.000000 0.000000 -1.000000
vn 0.000000 0.000000 -1.000000
vn 0.000000 0.000000 1.000000
vn 0.000000 0.000000 1.000000
vn 0.000000 0.000000 1.000000
vn 0.000000 0.000000 1.000000
vn -0.015023 -0.999887 -0.000000
vn -0.015023 -0.999887 -0.000000
vn -0.015023 -0.999887 -0.000000
vn -0.015023 -0.999887 -0.000000
vn 0.015023 0.999887 0.000000
vn 0.015023 0.999887 0.000000
vn 0.015023 0.999887 0.000000
vn 0.015023 0.999887 0.000000
vn -0.998341 -0.007162 0.057134
vn -0.998341 -0.007162 0.057134
vn -0.998342 -0.007158 0.057124
vn -0.998341 -0.007159 0.057126
vn 0.000000 0.000000 1.000000
vn 0.000000 0.000000 1.000000
vn 0.000000 0.000000 1.000000
vn 0.000000 0.000000 1.000000
vn -0.015012 -0.999887 0.000000
vn -0.015012 -0.999887 0.000000
vn -0.015012 -0.999887 0.000000
vn -0.015012 -0.999887 0.000000
vn 0.015028 0.999887 -0.000000
vn 0.015028 0.999887 -0.000000
vn 0.015028 0.999887 -0.000000
vn 0.015028 0.999887 -0.000000
vn 0.999703 0.007172 -0.023281
vn 0.999703 0.007172 -0.023281
vn 0.999703 0.007168 -0.023281
vn 0.999703 0.007168 -0.023281
vn 0.010842 0.721817 0.691999
vn 0.010842 0.721817 0.691999
vn 0.010842 0.721817 0.691999
vn 0.010842 0.721817 0.691999
vn -0.010831 -0.721816 0.692001
vn -0.010831 -0.721816 0.692001
vn -0.010831 -0.721816 0.692001
vn -0.010831 -0.721816 0.692001
vn 0.989445 0.007094 0.144734
vn 0.989445 0.007094 0.144734
vn 0.989451 0.007095 0.144692
vn 0.989451 0.007095 0.144692
vn -0.015023 -0.999887 -0.000003
vn -0.015023 -0.999887 -0.000003
vn -0.015023 -0.999887 -0.000003
vn -0.015023 -0.999887 -0.000003
vn -0.959407 -0.006876 -0.281941
vn -0.959407 -0.006876 -0.281941
vn -0.959402 -0.006879 -0.281958
vn -0.959402 -0.006879 -0.281958
vn 0.015024 0.999887 0.000007
vn 0.015024 0.999887 0.000007
vn 0.015024 0.999887 0.000007
vn 0.015024 0.999887 0.000007
vn 0.611835 0.004389 0.790973
vn 0.611835 0.004389 0.790973
vn 0.611820 0.004387 0.790985
vn 0.611820 0.004387 0.790985
vn -0.015025 -0.999887 0.000002
vn -0.015025 -0.999887 0.000002
vn -0.015025 -0.999887 0.000002
vn -0.015025 -0.999887 0.000002
vn -0.600876 -0.004307 -0.799331
vn -0.600876 -0.004307 -0.799331
vn -0.600874 -0.004308 -0.799332
vn -0.600874 -0.004308 -0.799332
vn 0.015023 0.999887 -0.000011
vn 0.015023 0.999887 -0.000011
vn 0.015023 0.999887 -0.000011
vn 0.015023 0.999887 -0.000011
vn 0.479364 0.003867 0.877608
vn 0.231613 -0.001054 0.972808
vn 0.322427 0.002620 0.946591
vn 0.516410 0.002560 0.856337
vn -0.015021 -0.999887 0.000001
vn -0.015021 -0.999887 0.000001
vn -0.015021 -0.999887 0.000001
vn -0.015021 -0.999887 0.000001
vn -0.260171 -0.002157 -0.965560
vn -0.201602 0.001177 -0.979467
vn -0.363603 -0.002762 -0.931550
vn -0.390227 -0.001679 -0.920717
vn 0.015020 0.999887 -0.000006
vn 0.015020 0.999887 -0.000006
vn 0.015020 0.999887 -0.000006
vn 0.015020 0.999887 -0.000006
vn -0.000380 -0.004609 0.999989
vn -0.000427 -0.004609 0.999989
vn -0.015023 -0.999887 0.000000
vn -0.015023 -0.999887 0.000000
vn -0.015023 -0.999887 0.000000
vn -0.015023 -0.999887 0.000000
vn 0.001092 0.004603 -0.999989
vn 0.000254 0.004613 -0.999989
vn 0.015023 0.999887 0.000000
vn 0.015023 0.999887 0.000000
vn 0.015023 0.999887 0.000000
vn 0.015023 0.999887 0.000000
vn 0.999248 0.007169 0.038110
vn 0.999248 0.007169 0.038110
vn 0.999248 0.007165 0.038112
vn 0.999248 0.007165 0.038112
vn 0.000002 0.000000 1.000000
vn 0.000002 0.000000 1.000000
vn -0.000001 0.000000 1.000000
vn -0.000001 0.000000 1.000000
vn 0.015027 0.999887 -0.000000
vn 0.015027 0.999887 -0.000000
vn 0.015027 0.999887 -0.000000
vn 0.015027 0.999887 -0.000000
vn -0.015023 -0.999887 0.000000
vn -0.015023 -0.999887 0.000000
vn -0.015023 -0.999887 0.000000
vn -0.015023 -0.999887 0.000000
vn -0.999626 -0.007164 -0.026382
vn -0.999626 -0.007164 -0.026382
vn -0.999626 -0.007167 -0.026383
vn -0.999626 -0.007167 -0.026383
vn -0.010845 -0.721815 0.692001
vn -0.010845 -0.721815 0.692001
vn -0.010845 -0.721815 0.692001
vn -0.010845 -0.721815 0.692001
vn 0.010845 0.721817 0.691999
vn 0.010845 0.721817 0.691999
vn 0.010845 0.721817 0.691999
vn 0.010845 0.721817 0.691999
vn -0.989468 -0.007096 0.144578
vn -0.989468 -0.007096 0.144578
vn -0.989459 -0.007094 0.144639
vn -0.989459 -0.007094 0.144639
vn 0.015032 0.999887 0.000003
vn 0.015032 0.999887 0.000003
vn 0.015032 0.999887 0.000003
vn 0.015032 0.999887 0.000003
vn 0.959408 0.006873 -0.281937
vn 0.959408 0.006873 -0.281937
vn 0.959410 0.006878 -0.281930
vn 0.959410 0.006878 -0.281930
vn -0.015017 -0.999887 -0.000011
vn -0.015017 -0.999887 -0.000011
vn -0.015017 -0.999887 -0.000011
vn -0.015017 -0.999887 -0.000011
vn -0.611807 -0.004388 0.790995
vn -0.611807 -0.004388 0.790995
vn -0.611815 -0.004387 0.790989
vn -0.611815 -0.004387 0.790989
vn 0.015040 0.999887 -0.000008
vn 0.015040 0.999887 -0.000008
vn 0.015040 0.999887 -0.000008
vn 0.015040 0.999887 -0.000008
vn 0.600878 0.004308 -0.799329
vn 0.600878 0.004308 -0.799329
vn 0.600860 0.004308 -0.799343
vn 0.600860 0.004308 -0.799343
vn -0.015011 -0.999887 -0.000004
vn -0.015011 -0.999887 -0.000004
vn -0.015011 -0.999887 -0.000004
vn -0.015011 -0.999887 -0.000004
vn -0.333032 -0.000129 0.942915
vn -0.241089 -0.002875 0.970499
vn -0.495477 -0.000478 0.868621
vn -0.506465 -0.003255 0.862254
vn 0.015031 0.999887 -0.000017
vn 0.015031 0.999887 -0.000017
vn 0.015031 0.999887 -0.000017
vn 0.015031 0.999887 -0.000017
vn 0.384372 -0.001620 -0.923177
vn 0.211629 0.001352 -0.977349
vn 0.277969 -0.001767 -0.960589
vn 0.377415 0.001936 -0.926042
vn -0.015024 -0.999887 -0.000001
vn -0.015024 -0.999887 -0.000001
vn -0.015024 -0.999887 -0.000001
vn -0.015024 -0.999887 -0.000001
vn 0.015020 0.999887 0.000000
vn 0.015020 0.999887 0.000000
vn 0.015020 0.999887 0.000000
vn 0.015020 0.999887 0.000000
vn -0.015022 -0.999887 0.000000
vn -0.015022 -0.999887 0.000000
vn -0.015022 -0.999887 0.000000
vn -0.015022 -0.999887 0.000000
vn -0.999703 -0.007170 0.023281
vn -0.999703 -0.007170 0.023281
vn -0.999703 -0.007168 0.023281
vn -0.999703 -0.007168 0.023281
vn -0.999248 -0.007164 -0.038113
vn -0.999248 -0.007164 -0.038113
vn -0.999248 -0.007165 -0.038120
vn -0.999248 -0.007164 -0.038118
vn 0.998342 0.007163 -0.057123
vn 0.998342 0.007163 -0.057123
vn 0.998341 0.007158 -0.057126
vn 0.998341 0.007157 -0.057127
vn 0.999626 0.007164 0.026383
vn 0.999626 0.007164 0.026383
vn 0.999626 0.007167 0.026384
vn 0.999626 0.007167 0.026384
vn -0.693163 -0.062962 -0.718026
vn 0.999703 0.007167 -0.023281
vn 0.999703 0.007167 -0.023281
vn 0.998341 0.007157 -0.057128
vn 0.998341 0.007157 -0.057128
vn 0.000000 0.000000 1.000000
vn 0.000000 0.000000 1.000000
vn -0.998342 -0.007158 0.057123
vn -0.998342 -0.007158 0.057123
vn -0.999703 -0.007167 0.023281
vn -0.999703 -0.007167 0.023281
vn -0.959401 -0.006879 -0.281962
vn -0.959401 -0.006879 -0.281962
vn -0.600874 -0.004308 -0.799332
vn -0.600874 -0.004308 -0.799332
vn -0.258128 -0.001235 -0.966110
vn 0.244936 0.001816 -0.969538
vn 0.184197 0.000911 -0.982889
vn 0.363528 0.002633 -0.931580
vn 0.600857 0.004308 -0.799345
vn 0.600857 0.004308 -0.799345
vn 0.959411 0.006879 -0.281928
vn 0.959411 0.006879 -0.281928
vn 0.999626 0.007168 0.026384
vn 0.999626 0.007168 0.026384
vn 0.999248 0.007164 0.038112
vn 0.999248 0.007164 0.038112
vn -0.000001 0.000000 1.000000
vn -0.000001 0.000000 1.000000
vn -0.999247 -0.007165 -0.038120
vn -0.999248 -0.007165 -0.038120
vn -0.999626 -0.007167 -0.026383
vn -0.999626 -0.007167 -0.026383
vn -0.989457 -0.007094 0.144651
vn -0.989457 -0.007094 0.144651
vn -0.611816 -0.004387 0.790988
vn -0.611816 -0.004387 0.790988
vn -0.300113 -0.002211 0.953901
vn -0.479099 -0.003509 0.877754
vn -0.209048 -0.001081 0.977905
vn 0.307412 0.001836 0.951575
vn 0.218553 0.001743 0.975823
vn 0.493646 0.003011 0.869658
vn 0.611818 0.004387 0.790987
vn 0.611818 0.004387 0.790987
vn 0.989453 0.007095 0.144684
vn 0.989453 0.007095 0.144684
vn -0.000525 -0.000656 -1.000000
vn -0.194781 -0.001369 -0.980846
vn -0.000498 -0.000656 -1.000000
vn 0.000071 0.000653 1.000000
vn 0.000520 0.000656 1.000000
vn -0.937057 0.349176 -0.000050
vn -0.937057 0.349176 -0.000050
vn -0.937057 0.349176 -0.000050
vn -0.937057 0.349176 -0.000050
vn -0.401399 0.915904 -0.000020
vn -0.401399 0.915904 -0.000020
vn -0.401399 0.915904 -0.000020
vn -0.401399 0.915904 -0.000020
vn 0.366322 0.930488 -0.000032
vn 0.366322 0.930488 -0.000032
vn 0.366322 0.930488 -0.000032
vn 0.366322 0.930488 -0.000032
vn 0.910721 0.413023 -0.000015
vn 0.910721 0.413023 -0.000015
vn 0.910721 0.413023 -0.000015
vn 0.910721 0.413023 -0.000015
vn 0.937059 -0.349172 0.000004
vn 0.937059 -0.349172 0.000004
vn 0.937059 -0.349172 0.000004
vn 0.937059 -0.349172 0.000004
vn 0.401402 -0.915902 -0.000021
vn 0.401402 -0.915902 -0.000021
vn 0.401402 -0.915902 -0.000021
vn 0.401402 -0.915902 -0.000021
vn -0.366320 -0.930489 -0.000011
vn -0.366320 -0.930489 -0.000011
vn -0.366320 -0.930489 -0.000011
vn -0.366320 -0.930489 -0.000011
vn -0.910721 -0.413023 0.000003
vn -0.910721 -0.413023 0.000003
vn -0.910721 -0.413023 0.000003
vn -0.910721 -0.413023 0.000003
vn 0.691008 0.056279 -0.720653
vn -0.382277 -0.001989 -0.924045
vn 0.932504 0.052822 0.357276
vn -0.931770 -0.040167 0.360819
s off
g Carpeta1
usemtl initialShadingGroup
f 1/1/1 2/2/2 4/4/3 3/3/4
f 5/5/5 6/6/6 8/8/7 7/7/8
f 2/2/9 8/9/10 6/10/11 4/4/12
f 7/11/13 1/1/14 3/3/15 5/12/16
s 1
f 18/13/17 17/14/18 70/15/19 71/16/20
s 2
f 17/14/21 20/17/22 69/18/23 70/15/24
s off
f 10/19/25 19/20/26 18/21/27 12/22/28
f 13/23/29 15/24/30 9/25/31 11/26/32
s 3
f 19/27/33 10/28/34 67/29/35 68/30/36
s off
f 13/31/37 14/32/38 16/33/39 15/34/40
f 17/14/41 18/13/42 19/27/43 20/17/44
s 4
f 10/35/45 22/36/46 90/37/47 67/38/48
s off
f 10/35/49 12/22/50 23/39/51 22/36/52
s 5
f 23/39/53 12/22/54 72/40/55 73/41/56
s off
f 11/26/57 9/25/58 21/42/59 24/43/60
s 6
f 22/36/61 26/44/62 89/45/63 90/37/64
s off
f 22/36/65 23/39/66 27/46/67 26/44/68
s 7
f 27/46/69 23/39/70 73/41/71 74/47/72
s off
f 24/43/73 21/42/74 25/48/75 28/49/76
s 8
f 26/44/77 30/50/78 66/51/79 89/45/80
s off
f 26/44/81 27/46/82 31/52/83 30/50/84
s 9
f 61/53/85 31/52/86 27/46/87 74/47/88
s off
f 28/49/89 25/48/90 29/54/91 32/55/92
s 8
f 65/56/93 66/51/79 30/50/78 34/57/94
s off
f 30/50/95 31/52/96 35/58/97 34/57/98
s 9
f 31/52/86 61/53/85 62/59/99 35/58/100
s off
f 32/55/101 29/54/102 33/60/103 36/61/104
s 10
f 42/62/105 41/63/106 80/64/107 81/65/108
s 11
f 44/66/109 42/62/110 81/65/111 82/67/112
s off
f 38/68/113 47/69/114 46/70/115 40/71/116
f 41/72/117 43/73/118 37/74/119 39/75/120
s 12
f 37/76/121 43/77/122 83/78/123 84/79/124
s off
f 41/63/125 42/62/126 44/66/127 43/77/128
f 45/80/129 46/81/130 47/82/131 48/83/132
s 13
f 49/84/133 37/74/134 84/85/135 85/86/136
s off
f 38/87/137 40/71/138 51/88/139 50/89/140
s 14
f 39/75/141 52/90/142 78/91/143 79/92/144
s off
f 39/75/145 37/74/146 49/84/147 52/90/148
s 15
f 53/93/149 49/84/150 85/86/151 86/94/152
s off
f 50/89/153 51/88/154 55/95/155 54/96/156
s 16
f 52/90/157 56/97/158 77/98/159 78/91/160
s off
f 52/90/161 49/84/162 53/93/163 56/97/164
s 8
f 64/99/165 57/100/166 53/93/167 86/94/168
s off
f 54/96/169 55/95/170 59/101/171 58/102/172
s 9
f 56/97/173 60/103/174 63/104/175 77/98/176
s off
f 56/97/177 53/93/178 57/100/179 60/103/180
s 8
f 57/100/166 64/99/165 65/105/93 34/106/94
s off
f 58/102/181 59/101/182 36/107/183 33/108/184
s 9
f 62/109/99 63/104/175 60/103/174 35/110/100
s off
f 60/103/185 57/100/186 34/106/187 35/110/188
s 17
f 12/22/189 18/13/190 71/16/191 72/40/192
s 18
f 43/77/193 44/66/194 82/67/195 83/78/196
s 19
f 20/17/197 19/27/198 68/30/199 69/18/200
s 20
f 41/63/201 39/75/202 79/92/203 80/64/204
s 9
f 61/53/85 74/47/88 75/111/205
s 3
f 68/30/36 67/29/35 9/112/206 15/34/207
s 19
f 69/18/200 68/30/199 15/34/208 16/33/209
s 2
f 70/15/24 69/18/23 16/33/210 14/32/211
s 1
f 71/16/20 70/15/19 14/32/212 13/31/213
s 17
f 72/40/192 71/16/191 13/31/214 11/26/215
s 5
f 73/41/56 72/40/55 11/26/216 24/43/217
s 7
f 74/47/72 73/41/71 24/43/218 28/49/219
s 9
f 75/111/205 74/47/88 91/113/220
f 77/98/176 93/114/221 59/101/222 55/95/223
s 16
f 78/91/160 77/98/159 55/95/224 51/88/225
s 14
f 79/92/144 78/91/143 51/88/226 40/71/227
s 20
f 80/64/204 79/92/203 40/71/228 46/81/229
s 10
f 81/65/108 80/64/107 46/81/230 45/80/231
s 11
f 82/67/112 81/65/111 45/80/232 48/83/233
s 18
f 83/78/196 82/67/195 48/83/234 47/82/235
s 12
f 84/79/124 83/78/123 47/82/236 38/115/237
s 13
f 85/86/136 84/85/135 38/87/238 50/89/239
s 15
f 86/94/152 85/86/151 50/89/240 54/96/241
s 8
f 94/116/242 86/94/168 54/96/243 58/102/244
f 89/45/80 96/117/245 29/54/246 25/48/247
s 6
f 90/37/64 89/45/63 25/48/248 21/42/249
s 4
f 9/25/250 67/38/48 90/37/47 21/42/251
s 9
f 92/118/252 91/113/220 32/55/253 36/61/254
f 59/101/222 93/114/221 92/119/252 36/107/254
s 8
f 95/120/255 94/116/242 58/102/244 33/108/256
f 29/54/246 96/117/245 95/121/255 33/60/256
s off
f 76/122/257 63/104/258 64/99/259 87/123/260
f 63/104/261 62/109/262 65/105/263 64/99/264
f 62/59/265 61/53/266 66/51/267 65/56/268
f 61/53/269 75/111/270 88/124/271 66/51/272
f 75/111/273 91/113/274 96/117/275 88/124/276
f 91/113/277 92/118/278 95/121/279 96/117/280
f 92/119/281 93/114/282 94/116/283 95/120/284
f 93/114/285 76/122/286 87/123/287 94/116/288
s 9
f 76/122/289 77/98/176 63/104/175
f 93/114/221 77/98/176 76/122/289
f 91/113/220 74/47/88 28/49/290 32/55/253
s 8
f 88/124/291 89/45/80 66/51/79
f 96/117/245 89/45/80 88/124/291
f 87/123/292 86/94/168 94/116/242
f 64/99/165 86/94/168 87/123/292
