# This file uses centimeters as units for non-parametric coordinates.

v 25.017670 0.000000 0.000000
v 30.017670 0.000000 0.000000
v 30.017670 29.250092 0.000000
v 29.267731 30.000000 0.000000
v 25.767593 30.000000 0.000000
v 25.017670 29.250092 0.000000
v 25.009338 0.000000 -25.000504
v 25.009338 29.250092 -25.000504
v 25.767593 30.000000 -25.001007
v 29.267731 30.000000 -25.001007
v 30.017670 29.250092 -25.001007
v 30.017670 0.000000 -25.001007
v 0.000000 0.000000 -30.000000
v 29.223114 0.000000 -30.000000
v 0.000000 0.000000 -25.000000
v 0.000000 29.250092 -25.000000
v 0.000000 30.000000 -25.749924
v 0.000000 30.000000 -29.250092
v 0.000000 29.250092 -30.000000
v 29.223114 29.250092 -30.000000
v 29.283051 30.000000 -29.250092
v 25.001007 0.000000 -30.000000
v 25.001007 29.250092 -30.000000
v 25.001007 30.000000 -29.250092
v 25.001007 30.000000 -25.749924
v 30.017670 29.250092 -29.205200
v 30.017670 0.000000 -29.205200
vt 0.495126 0.115505
vt 0.495124 0.115505
vt 0.495124 0.115502
vt 0.495126 0.115502
vt 0.495126 0.115505
vt 0.495124 0.115505
vt 0.495126 0.115507
vt 0.495124 0.115507
vt 0.495126 0.115507
vt 0.495127 0.115509
vt 0.495126 0.115509
vt 0.495124 0.115509
vt 0.495124 0.115505
vt 0.495124 0.115507
vt 0.495124 0.115502
vt 0.495124 0.115505
vt 0.495124 0.115505
vt 0.495124 0.115502
vt 0.495126 0.115505
vt 0.495126 0.115502
vt 0.495126 0.115505
vt 0.495126 0.115507
vt 0.495126 0.115507
vt 0.495124 0.115507
vt 0.495126 0.115509
vt 0.495124 0.115509
vt 0.495124 0.115505
vt 0.495120 0.115511
vt 0.495120 0.115502
vt 0.495129 0.115502
vn -1.000000 0.000000 0.000333
vn -1.000000 0.000000 0.000333
vn -1.000000 0.000000 0.000333
vn -1.000000 0.000000 0.000333
vn -0.705146 0.709062 0.000118
vn -0.705146 0.709062 0.000118
vn -0.705146 0.709062 0.000118
vn -0.705146 0.709062 0.000118
vn 0.000000 1.000000 0.000000
vn 0.000000 1.000000 0.000000
vn 0.000000 1.000000 0.000000
vn 0.000000 1.000000 0.000000
vn 0.707107 0.707106 0.000000
vn 0.707107 0.707106 0.000000
vn 0.707107 0.707106 0.000000
vn 0.707107 0.707106 0.000000
vn 1.000000 0.000000 0.000000
vn 1.000000 0.000000 0.000000
vn 1.000000 0.000000 0.000000
vn 1.000000 0.000000 0.000000
vn 0.000000 1.000000 0.000000
vn 0.000000 1.000000 0.000000
vn 0.000000 1.000000 0.000000
vn 0.000000 1.000000 -0.000001
vn 0.000000 0.000000 -1.000000
vn 0.000000 0.000000 -1.000000
vn 0.000000 0.000000 -1.000000
vn 0.000000 0.000000 -1.000000
vn 0.000000 0.000000 -1.000000
vn 0.000000 0.000000 -1.000000
vn 0.000000 0.000000 -1.000000
vn 0.000000 0.000000 -1.000000
vn 0.000000 0.707107 -0.707106
vn 0.000000 0.707107 -0.707106
vn 0.000000 0.707107 -0.707106
vn 0.000000 0.707107 -0.707106
vn 0.000000 1.000000 0.000000
vn 0.000000 1.000000 0.000000
vn 0.000000 1.000000 0.000000
vn 0.000000 1.000000 0.000000
vn 0.000007 0.706990 0.707224
vn 0.000007 0.706990 0.707224
vn 0.000007 0.706990 0.707224
vn 0.000007 0.706989 0.707224
vn 0.000020 0.000000 1.000000
vn 0.000020 0.000000 1.000000
vn 0.000020 0.000000 1.000000
vn 0.000020 0.000000 1.000000
vn 0.000000 0.707107 -0.707106
vn 0.000000 0.707107 -0.707106
vn 0.000000 0.707107 -0.707106
vn 0.000000 0.707107 -0.707106
vn 1.000000 0.000000 0.000000
vn 1.000000 0.000000 0.000000
vn 1.000000 0.000000 0.000000
vn 1.000000 0.000000 0.000000
vn 0.707222 0.000000 -0.706992
vn 0.707222 0.000000 -0.706992
vn 0.707222 0.000000 -0.706992
vn 0.707222 0.000000 -0.706992
vn -0.570595 0.577321 0.584056
vn -0.570595 0.577321 0.584056
vn -0.570595 0.577321 0.584056
vn 0.710702 0.703492 0.001287
vn 0.710702 0.703492 0.001287
vn 0.710702 0.703492 0.001287
vn 0.710702 0.703492 0.001287
vn 0.592833 0.545273 -0.592643
vn 0.592833 0.545273 -0.592644
vn 0.592833 0.545273 -0.592643
vn 0.000000 1.000000 0.000000
vn 0.000000 1.000000 0.000000
vn 0.000000 1.000000 0.000000
s off
f 6/1/1 8/2/2 7/3/3 1/4/4
f 6/1/5 5/5/6 9/6/7 8/2/8
f 4/7/9 10/8/10 9/6/11 5/5/12
f 4/7/13 3/9/14 11/10/15 10/8/16
f 2/11/17 12/12/18 11/10/19 3/9/20
f 10/8/21 24/13/22 25/14/23 9/6/24
f 22/15/25 23/16/26 20/17/27 14/18/28
f 19/19/29 23/16/30 22/15/31 13/20/32
f 19/19/33 18/21/34 24/13/35 23/16/36
f 17/22/37 25/14/38 24/13/39 18/21/40
f 17/22/41 16/23/42 8/24/43 25/14/44
f 15/25/45 7/26/46 8/24/47 16/23/48
f 24/13/49 21/27/50 20/17/51 23/16/52
f 12/28/53 27/29/54 26/30/55 11/10/56
f 14/18/57 20/17/58 26/30/59 27/29/60
f 9/6/61 25/14/62 8/2/63
f 11/10/64 26/30/65 21/27/66 10/8/67
f 20/17/68 21/27/69 26/30/70
f 21/27/71 24/13/72 10/8/73
