# This file uses centimeters as units for non-parametric coordinates.

mtllib SM_Esquinero.mtl
g default
v 250.176666 0.000000 0.000000
v 300.176666 0.000000 0.000000
v 300.176666 292.500763 0.000000
v 292.677429 300.000000 0.000000
v 257.675903 300.000000 0.000000
v 250.176666 292.500763 0.000000
v 250.093384 0.000000 -250.005051
v 250.093384 292.500763 -250.005051
v 257.675903 300.000000 -250.010101
v 292.677429 300.000000 -250.010101
v 300.176666 292.500763 -250.010101
v 300.176666 0.000000 -250.010101
v 0.000000 0.000000 -300.000000
v 292.231140 0.000000 -300.000000
v 0.000000 0.000000 -250.000000
v 0.000000 292.500763 -250.000000
v 0.000000 300.000000 -257.499268
v 0.000000 300.000000 -292.500763
v 0.000000 292.500763 -300.000000
v 292.231140 292.500763 -300.000000
v 292.830414 300.000000 -292.500763
v 250.010101 0.000000 -300.000000
v 250.010101 292.500763 -300.000000
v 250.010101 300.000000 -292.500763
v 250.010101 300.000000 -257.499268
v 300.176666 292.500763 -292.051880
v 300.176666 0.000000 -292.051880
vt 0.495126 0.115509
vt 0.495126 0.115507
vt 0.495126 0.115502
vt 0.495126 0.115505
vt 0.495126 0.115507
vt 0.495126 0.115505
vt 0.495124 0.115502
vt 0.495124 0.115505
vt 0.495124 0.115505
vt 0.495124 0.115507
vt 0.495127 0.115509
vt 0.495124 0.115509
vt 0.495124 0.115505
vt 0.495124 0.115507
vt 0.495124 0.115505
vt 0.495124 0.115502
vt 0.495124 0.115505
vt 0.495124 0.115505
vt 0.495124 0.115502
vt 0.495126 0.115505
vt 0.495126 0.115502
vt 0.495126 0.115505
vt 0.495126 0.115507
vt 0.495126 0.115507
vt 0.495124 0.115507
vt 0.495126 0.115509
vt 0.495124 0.115509
vt 0.495120 0.115511
vt 0.495120 0.115502
vt 0.495129 0.115502
vn -1.000000 0.000000 0.000333
vn -1.000000 0.000000 0.000333
vn -1.000000 0.000000 0.000333
vn -1.000000 0.000000 0.000333
vn -0.705146 0.709062 0.000118
vn -0.705146 0.709062 0.000118
vn -0.705146 0.709062 0.000118
vn -0.705146 0.709062 0.000118
vn 0.000000 1.000000 0.000000
vn 0.000000 1.000000 0.000000
vn 0.000000 1.000000 0.000000
vn 0.000000 1.000000 0.000000
vn 0.707107 0.707106 0.000000
vn 0.707107 0.707106 0.000000
vn 0.707107 0.707106 0.000000
vn 0.707107 0.707106 0.000000
vn 1.000000 0.000000 0.000000
vn 1.000000 0.000000 0.000000
vn 1.000000 0.000000 0.000000
vn 1.000000 0.000000 0.000000
vn 0.000000 1.000000 -0.000000
vn 0.000000 1.000000 -0.000000
vn 0.000000 1.000000 -0.000000
vn 0.000000 1.000000 -0.000001
vn 0.000000 0.000000 -1.000000
vn 0.000000 0.000000 -1.000000
vn 0.000000 0.000000 -1.000000
vn 0.000000 0.000000 -1.000000
vn 0.000000 0.000000 -1.000000
vn 0.000000 0.000000 -1.000000
vn 0.000000 0.707107 -0.707106
vn 0.000000 0.707107 -0.707106
vn 0.000000 0.707107 -0.707106
vn 0.000000 0.707107 -0.707106
vn 0.000000 1.000000 0.000000
vn 0.000000 1.000000 0.000000
vn 0.000007 0.706990 0.707224
vn 0.000007 0.706990 0.707224
vn 0.000007 0.706990 0.707224
vn 0.000007 0.706989 0.707224
vn 0.000020 0.000000 1.000000
vn 0.000020 0.000000 1.000000
vn 0.000020 0.000000 1.000000
vn 0.000020 0.000000 1.000000
vn 0.000000 0.707107 -0.707106
vn 0.000000 0.707107 -0.707106
vn 0.000000 0.707107 -0.707106
vn 0.000000 0.707107 -0.707106
vn 1.000000 0.000000 0.000000
vn 1.000000 0.000000 0.000000
vn 1.000000 0.000000 0.000000
vn 1.000000 0.000000 0.000000
vn 0.707222 0.000000 -0.706992
vn 0.707222 0.000000 -0.706992
vn 0.707222 0.000000 -0.706992
vn 0.707222 0.000000 -0.706992
vn -0.570595 0.577321 0.584056
vn -0.570595 0.577321 0.584056
vn -0.570595 0.577321 0.584056
vn 0.710702 0.703492 0.001287
vn 0.710702 0.703492 0.001287
vn 0.710702 0.703492 0.001287
vn 0.710702 0.703492 0.001287
vn 0.592833 0.545273 -0.592643
vn 0.592833 0.545273 -0.592644
vn 0.592833 0.545273 -0.592643
vn 0.000000 1.000000 0.000000
s off
g Esquinero
usemtl initialShadingGroup
f 6/6/1 8/8/2 7/7/3 1/3/4
f 6/6/5 5/4/6 9/9/7 8/8/8
f 4/5/9 10/10/10 9/9/11 5/4/12
f 4/5/13 3/2/14 11/11/15 10/10/16
f 2/1/17 12/12/18 11/11/19 3/2/20
s 1
f 10/10/21 24/13/22 25/14/23 9/9/24
s 2
f 22/16/25 23/17/26 20/18/27 14/19/28
f 19/20/29 23/17/26 22/16/25 13/21/30
s off
f 19/20/31 18/22/32 24/13/33 23/17/34
s 1
f 17/23/35 25/14/23 24/13/22 18/22/36
s off
f 17/23/37 16/24/38 8/25/39 25/14/40
f 15/26/41 7/27/42 8/25/43 16/24/44
f 24/13/45 21/15/46 20/18/47 23/17/48
f 12/28/49 27/29/50 26/30/51 11/11/52
f 14/19/53 20/18/54 26/30/55 27/29/56
f 9/9/57 25/14/58 8/8/59
f 11/11/60 26/30/61 21/15/62 10/10/63
f 20/18/64 21/15/65 26/30/66
s 1
f 21/15/67 24/13/22 10/10/21
