# This file uses centimeters as units for non-parametric coordinates.

mtllib SM_Fichero_Escritorio.mtl
g default
v 9.212043 1.024679 -13.269279
v 9.212043 1.579636 -13.269279
v 9.212043 1.579636 13.488762
v 9.212043 1.024679 13.488762
v 9.745172 0.844404 13.488762
v 9.745172 0.844404 -13.269279
v 9.856183 1.388143 13.488762
v 9.856183 1.388143 -13.269279
v 10.099262 0.533144 13.488762
v 10.099262 0.533144 -13.269279
v 10.369555 1.017829 13.488762
v 10.369555 1.017829 -13.269279
v 10.466546 0.004530 13.488762
v 10.466546 0.004530 -13.269279
v 10.931680 0.307219 13.488762
v 10.931680 0.307219 -13.269279
v -8.478378 1.024679 -13.269279
v -8.478378 1.579636 -13.269279
v -8.478378 1.579636 13.488762
v -8.478378 1.024679 13.488762
v -9.011503 0.844404 13.488762
v -9.011503 0.844404 -13.269279
v -9.122511 1.388143 13.488762
v -9.122511 1.388143 -13.269279
v -9.365589 0.533144 13.488762
v -9.365589 0.533144 -13.269279
v -9.635881 1.017829 13.488762
v -9.635881 1.017829 -13.269279
v -9.732874 0.004530 13.488762
v -9.732874 0.004530 -13.269279
v -10.198013 0.307219 13.488762
v -10.198013 0.307219 -13.269279
v 10.695904 9.587383 13.215508
v -9.737190 9.587383 13.215508
v 10.695904 9.501348 13.560280
v -9.737190 9.501348 13.560280
v 9.081237 3.593816 12.086033
v -8.122519 3.593816 12.086033
v 9.081237 3.679854 11.741284
v -8.122519 3.679854 11.741284
v 10.695904 9.587389 -12.928440
v -9.737190 9.587389 -12.928440
v 10.695904 9.501348 -13.273205
v -9.737190 9.501348 -13.273205
v 9.081237 3.593816 -11.798958
v -8.122519 3.593816 -11.798958
v 9.081237 3.679854 -11.454197
v -8.122519 3.679854 -11.454197
v 12.667231 16.633459 -16.113659
v 7.749675 1.342607 -12.140056
v 13.380744 16.403988 -16.113659
v 8.463199 1.113141 -12.140056
v 13.380744 16.403988 16.113663
v 8.463199 1.113141 12.140061
v 12.667231 16.633459 16.113663
v 7.749675 1.342607 12.140061
v -11.792489 16.633459 -16.113659
v -6.874941 1.342607 -12.140056
v -12.506002 16.403988 -16.113659
v -7.588459 1.113141 -12.140056
v -12.506002 16.403988 16.113663
v -7.588459 1.113141 12.140061
v -11.792489 16.633459 16.113663
v -6.874941 1.342607 12.140061
vt 0.122943 0.782888
vt 0.122943 0.783676
vt 0.122943 0.784464
vt 0.122943 0.785253
vt 0.122943 0.786041
vt 0.123731 0.782888
vt 0.123731 0.783676
vt 0.122943 0.782888
vt 0.123731 0.782888
vt 0.123731 0.783676
vt 0.122943 0.783676
vt 0.122943 0.782888
vt 0.123731 0.782888
vt 0.123731 0.783676
vt 0.122943 0.783676
vt 0.122943 0.782888
vt 0.123731 0.782888
vt 0.123731 0.783676
vt 0.122943 0.783676
vt 0.122943 0.782888
vt 0.122943 0.783676
vt 0.122943 0.784464
vt 0.122943 0.785253
vt 0.122943 0.786041
vt 0.122943 0.782888
vt 0.123731 0.782888
vt 0.123731 0.783676
vt 0.122943 0.783676
vt 0.123731 0.782888
vt 0.123731 0.782888
vt 0.122943 0.782888
vt 0.123731 0.783676
vt 0.123731 0.783676
vt 0.122943 0.783676
vt 0.123731 0.782888
vt 0.122943 0.782888
vt 0.123731 0.783676
vt 0.122943 0.783676
vt 0.122154 0.782888
vt 0.122943 0.782888
vt 0.122943 0.783676
vt 0.122154 0.783676
vt 0.122943 0.784464
vt 0.122154 0.784464
vt 0.122943 0.785253
vt 0.122154 0.785253
vt 0.122943 0.786041
vt 0.122154 0.786041
vt 0.122154 0.782888
vt 0.122154 0.783676
vt 0.122943 0.783676
vt 0.122943 0.782888
vt 0.122154 0.784464
vt 0.122943 0.784464
vt 0.122154 0.785253
vt 0.122943 0.785253
vt 0.122154 0.786041
vt 0.122943 0.786041
vt 0.122154 0.782888
vt 0.122154 0.783676
vt 0.122943 0.783676
vt 0.122943 0.782888
vt 0.122154 0.784464
vt 0.122943 0.784464
vt 0.122154 0.785253
vt 0.122943 0.785253
vt 0.122154 0.786041
vt 0.122943 0.786041
vt 0.121366 0.782888
vt 0.121366 0.783676
vt 0.122154 0.782888
vt 0.122943 0.782888
vt 0.122943 0.783676
vt 0.122154 0.783676
vt 0.122943 0.784464
vt 0.122154 0.784464
vt 0.122943 0.785253
vt 0.122154 0.785253
vt 0.122943 0.786041
vt 0.122154 0.786041
vt 0.121366 0.782888
vt 0.121366 0.783676
vn 0.545433 -0.838154 0.000000
vn 0.545433 -0.838154 0.000000
vn 0.545433 -0.838154 0.000000
vn 0.545433 -0.838154 0.000000
vn -0.320327 -0.947307 0.000000
vn -0.320327 -0.947307 0.000000
vn -0.320327 -0.947307 0.000000
vn -0.320327 -0.947307 0.000000
vn -0.000006 0.000000 1.000000
vn -0.000006 0.000000 1.000000
vn -0.000006 0.000000 1.000000
vn -0.000006 0.000000 1.000000
vn 0.284959 0.958540 0.000000
vn 0.284959 0.958540 0.000000
vn 0.284959 0.958540 0.000000
vn 0.284959 0.958540 0.000000
vn -0.000011 0.000000 -1.000000
vn -0.000011 0.000000 -1.000000
vn -0.000011 0.000000 -1.000000
vn -0.000011 0.000000 -1.000000
vn -0.660221 -0.751071 0.000000
vn -0.660221 -0.751071 0.000000
vn -0.660221 -0.751071 0.000000
vn -0.660221 -0.751071 0.000000
vn 0.000000 0.000000 1.000000
vn 0.000000 0.000000 1.000000
vn 0.000000 0.000000 1.000000
vn 0.000000 0.000000 1.000000
vn 0.585019 0.811020 0.000000
vn 0.585019 0.811020 0.000000
vn 0.585019 0.811020 0.000000
vn 0.585019 0.811020 0.000000
vn 0.000007 0.000000 -1.000000
vn 0.000007 0.000000 -1.000000
vn 0.000007 0.000000 -1.000000
vn 0.000007 0.000000 -1.000000
vn -0.821231 -0.570595 0.000000
vn -0.821231 -0.570595 0.000000
vn -0.821231 -0.570595 0.000000
vn -0.821231 -0.570595 0.000000
vn 0.000000 0.000000 1.000000
vn 0.000000 0.000000 1.000000
vn 0.000000 0.000000 1.000000
vn 0.000000 0.000000 1.000000
vn 0.784283 0.620404 0.000000
vn 0.784283 0.620404 0.000000
vn 0.784283 0.620404 0.000000
vn 0.784283 0.620404 0.000000
vn 0.000000 0.000000 -1.000000
vn 0.000000 0.000000 -1.000000
vn 0.000000 0.000000 -1.000000
vn 0.000000 0.000000 -1.000000
vn 0.000000 0.000000 -1.000000
vn 0.000000 0.000000 -1.000000
vn 0.000000 0.000000 -1.000000
vn 0.000000 0.000000 -1.000000
vn 0.000000 1.000000 0.000000
vn 0.000000 1.000000 0.000000
vn 0.000000 1.000000 0.000000
vn 0.000000 1.000000 0.000000
vn 0.000000 0.000000 1.000000
vn 0.000000 0.000000 1.000000
vn 0.000000 0.000000 1.000000
vn 0.000000 0.000000 1.000000
vn 0.000000 -1.000000 0.000000
vn 0.000000 -1.000000 0.000000
vn 0.000000 -1.000000 0.000000
vn 0.000000 -1.000000 0.000000
vn -0.545429 -0.838157 0.000000
vn -0.545429 -0.838157 0.000000
vn -0.545429 -0.838157 0.000000
vn -0.545429 -0.838157 0.000000
vn 0.320329 -0.947306 0.000000
vn 0.320329 -0.947306 0.000000
vn 0.320329 -0.947306 0.000000
vn 0.320329 -0.947306 0.000000
vn 0.000004 0.000000 1.000000
vn 0.000004 0.000000 1.000000
vn 0.000004 0.000000 1.000000
vn 0.000004 0.000000 1.000000
vn -0.284963 0.958539 0.000000
vn -0.284963 0.958539 0.000000
vn -0.284963 0.958539 0.000000
vn -0.284963 0.958539 0.000000
vn 0.000009 0.000000 -1.000000
vn 0.000009 0.000000 -1.000000
vn 0.000009 0.000000 -1.000000
vn 0.000009 0.000000 -1.000000
vn 0.660226 -0.751067 0.000000
vn 0.660226 -0.751067 0.000000
vn 0.660226 -0.751067 0.000000
vn 0.660226 -0.751067 0.000000
vn -0.000003 0.000000 1.000000
vn -0.000003 0.000000 1.000000
vn -0.000003 0.000000 1.000000
vn -0.000003 0.000000 1.000000
vn -0.585020 0.811019 0.000000
vn -0.585020 0.811019 0.000000
vn -0.585020 0.811019 0.000000
vn -0.585020 0.811019 0.000000
vn 0.000007 0.000000 -1.000000
vn 0.000007 0.000000 -1.000000
vn 0.000007 0.000000 -1.000000
vn 0.000007 0.000000 -1.000000
vn 0.821231 -0.570596 0.000000
vn 0.821231 -0.570596 0.000000
vn 0.821231 -0.570596 0.000000
vn 0.821231 -0.570596 0.000000
vn 0.000000 0.000000 1.000000
vn 0.000000 0.000000 1.000000
vn 0.000000 0.000000 1.000000
vn 0.000000 0.000000 1.000000
vn -0.784279 0.620409 0.000000
vn -0.784279 0.620409 0.000000
vn -0.784279 0.620409 0.000000
vn -0.784279 0.620409 0.000000
vn 0.000000 0.000000 -1.000000
vn 0.000000 0.000000 -1.000000
vn 0.000000 0.000000 -1.000000
vn 0.000000 0.000000 -1.000000
vn 0.000000 0.970248 0.242115
vn 0.000000 0.970248 0.242115
vn 0.000000 0.970248 0.242115
vn 0.000000 0.970248 0.242115
vn 0.000000 -0.242128 0.970244
vn 0.000000 -0.242128 0.970244
vn 0.000000 -0.242128 0.970244
vn 0.000000 -0.242128 0.970244
vn 0.000000 -0.970242 -0.242139
vn 0.000000 -0.970242 -0.242139
vn 0.000000 -0.970242 -0.242139
vn 0.000000 -0.970242 -0.242139
vn 0.000000 0.242125 -0.970245
vn 0.000000 0.242125 -0.970245
vn 0.000000 0.242125 -0.970245
vn 0.000000 0.242125 -0.970245
vn 0.000000 0.970242 -0.242136
vn 0.000000 0.970242 -0.242136
vn 0.000000 0.970242 -0.242136
vn 0.000000 0.970242 -0.242136
vn 0.000000 -0.242128 -0.970244
vn 0.000000 -0.242128 -0.970244
vn 0.000000 -0.242128 -0.970244
vn 0.000000 -0.242128 -0.970244
vn 0.000000 -0.970244 0.242132
vn 0.000000 -0.970244 0.242132
vn 0.000000 -0.970244 0.242132
vn 0.000000 -0.970244 0.242132
vn 0.000000 0.242127 0.970244
vn 0.000000 0.242127 0.970245
vn 0.000000 0.242127 0.970245
vn 0.000000 0.242127 0.970244
vn -0.073528 -0.228618 -0.970736
vn -0.073528 -0.228618 -0.970736
vn -0.073528 -0.228618 -0.970736
vn -0.073528 -0.228618 -0.970736
vn 0.951981 -0.306158 0.000000
vn 0.951981 -0.306158 0.000000
vn 0.951981 -0.306158 0.000000
vn 0.951981 -0.306158 0.000000
vn -0.073523 -0.228618 0.970736
vn -0.073523 -0.228618 0.970736
vn -0.073523 -0.228618 0.970736
vn -0.073523 -0.228618 0.970736
vn -0.951981 0.306158 0.000000
vn -0.951981 0.306158 0.000000
vn -0.951981 0.306158 0.000000
vn -0.951981 0.306158 0.000000
vn 0.306164 0.951979 0.000000
vn 0.306164 0.951979 0.000000
vn 0.306164 0.951979 0.000000
vn 0.306164 0.951979 0.000000
vn 0.073527 -0.228617 -0.970736
vn 0.073527 -0.228617 -0.970736
vn 0.073527 -0.228618 -0.970736
vn 0.073527 -0.228617 -0.970736
vn -0.951981 -0.306158 0.000000
vn -0.951981 -0.306158 0.000000
vn -0.951981 -0.306158 0.000000
vn -0.951981 -0.306158 0.000000
vn 0.073524 -0.228618 0.970736
vn 0.073524 -0.228618 0.970736
vn 0.073524 -0.228618 0.970736
vn 0.073524 -0.228618 0.970736
vn 0.951981 0.306158 0.000000
vn 0.951981 0.306158 0.000000
vn 0.951981 0.306158 0.000000
vn 0.951981 0.306158 0.000000
vn -0.306163 0.951979 0.000000
vn -0.306163 0.951979 0.000000
vn -0.306163 0.951979 0.000000
vn -0.306163 0.951979 0.000000
s off
g Fichero_Escritorio
usemtl initialShadingGroup
f 14/16/1 16/19/2 15/18/3 13/17/4
f 1/1/5 6/8/6 5/9/7 4/6/8
f 4/6/9 5/9/10 7/10/11 3/7/12
f 3/7/13 7/10/14 8/11/15 2/2/16
f 2/2/17 8/11/18 6/8/19 1/1/20
f 6/8/21 10/12/22 9/13/23 5/9/24
f 5/9/25 9/13/26 11/14/27 7/10/28
f 7/10/29 11/14/30 12/15/31 8/11/32
f 8/11/33 12/15/34 10/12/35 6/8/36
f 10/12/37 14/16/38 13/17/39 9/13/40
f 9/13/41 13/17/42 15/18/43 11/14/44
f 11/14/45 15/18/46 16/19/47 12/15/48
f 12/15/49 16/19/50 14/16/51 10/12/52
f 1/1/53 17/20/54 18/21/55 2/2/56
f 2/2/57 18/21/58 19/22/59 3/3/60
f 3/3/61 19/22/62 20/23/63 4/4/64
f 4/4/65 20/23/66 17/24/67 1/5/68
f 30/25/69 29/26/70 31/27/71 32/28/72
f 17/20/73 20/29/74 21/30/75 22/31/76
f 20/29/77 19/32/78 23/33/79 21/30/80
f 19/32/81 18/21/82 24/34/83 23/33/84
f 18/21/85 17/20/86 22/31/87 24/34/88
f 22/31/89 21/30/90 25/35/91 26/36/92
f 21/30/93 23/33/94 27/37/95 25/35/96
f 23/33/97 24/34/98 28/38/99 27/37/100
f 24/34/101 22/31/102 26/36/103 28/38/104
f 26/36/105 25/35/106 29/26/107 30/25/108
f 25/35/109 27/37/110 31/27/111 29/26/112
f 27/37/113 28/38/114 32/28/115 31/27/116
f 28/38/117 26/36/118 30/25/119 32/28/120
f 33/39/121 34/40/122 36/41/123 35/42/124
f 35/42/125 36/41/126 38/43/127 37/44/128
f 37/44/129 38/43/130 40/45/131 39/46/132
f 39/46/133 40/45/134 34/47/135 33/48/136
f 41/49/137 43/50/138 44/51/139 42/52/140
f 43/50/141 45/53/142 46/54/143 44/51/144
f 45/53/145 47/55/146 48/56/147 46/54/148
f 47/55/149 41/57/150 42/58/151 48/56/152
f 49/59/153 51/60/154 52/61/155 50/62/156
f 51/60/157 53/63/158 54/64/159 52/61/160
f 53/63/161 55/65/162 56/66/163 54/64/164
f 55/65/165 49/67/166 50/68/167 56/66/168
f 55/69/169 53/70/170 51/60/171 49/59/172
f 57/71/173 58/72/174 60/73/175 59/74/176
f 59/74/177 60/73/178 62/75/179 61/76/180
f 61/76/181 62/75/182 64/77/183 63/78/184
f 63/78/185 64/77/186 58/79/187 57/80/188
f 63/81/189 57/71/190 59/74/191 61/82/192
