# This file uses centimeters as units for non-parametric coordinates.

mtllib SM_Hojas.mtl
g default
v -5.389985 0.000000 4.178131
v 3.075402 0.000000 11.385979
v -5.389985 0.313989 4.178131
v 3.075402 0.313989 11.385979
v 4.515865 0.313989 -7.455994
v 12.981253 0.313989 -0.248154
v 4.515865 0.000000 -7.455994
v 12.981253 0.000000 -0.248154
v -4.834385 0.028448 3.741600
v 6.172972 0.028448 5.308136
v -4.834385 0.214477 3.741600
v 6.172972 0.214477 5.308136
v -2.681476 0.214477 -11.385971
v 8.325881 0.214477 -9.819443
v -2.681476 0.028448 -11.385971
v 8.325881 0.028448 -9.819443
v -12.106518 0.277819 -0.229401
v -6.399268 0.277819 9.312248
v -12.106518 0.591806 -0.229401
v -6.399268 0.591806 9.312248
v 1.006714 0.591806 -8.072968
v 6.713976 0.591806 1.468674
v 1.006714 0.277819 -8.072968
v 6.713976 0.277819 1.468674
vt 0.027449 0.016354
vt 0.016420 0.016480
vt 0.027474 0.016282
vt 0.016238 0.016345
vt 0.027377 0.031939
vt 0.032766 0.029391
vt 0.027449 0.032091
vt 0.032838 0.029545
vt 0.016156 0.031866
vt 0.015837 0.031858
vt 0.022127 0.018817
vt 0.022179 0.018926
vt 0.027449 0.016354
vt 0.021832 0.014488
vt 0.021791 0.014429
vt 0.027517 0.016332
vt 0.019111 0.022345
vt 0.024793 0.024318
vt 0.019144 0.022250
vt 0.024826 0.024222
vt 0.019049 0.022216
vt 0.024922 0.024254
vt 0.027449 0.016354
vt 0.021909 0.014515
vt 0.021841 0.014416
vt 0.027563 0.016317
vt 0.019121 0.022369
vt 0.024770 0.024383
vt 0.019179 0.022208
vt 0.024826 0.024222
vt 0.019020 0.022150
vt 0.024988 0.024274
vt 0.176555 0.249996
vt 0.025071 0.250010
vt 0.025053 0.041823
vt 0.176537 0.041810
vt 0.176507 0.249996
vt 0.025024 0.249975
vt 0.025053 0.041788
vt 0.176537 0.041810
vt 0.176567 0.249996
vt 0.025083 0.250018
vt 0.025054 0.041831
vt 0.176537 0.041810
vn -0.648289 0.000000 0.761395
vn -0.648289 0.000000 0.761395
vn -0.648289 0.000000 0.761395
vn -0.648289 0.000000 0.761395
vn 0.000000 1.000000 -0.000000
vn 0.000000 1.000000 -0.000000
vn 0.000000 1.000000 -0.000000
vn 0.000000 1.000000 -0.000000
vn 0.648288 0.000000 -0.761395
vn 0.648288 0.000000 -0.761395
vn 0.648288 0.000000 -0.761395
vn 0.648288 0.000000 -0.761395
vn 0.761395 0.000000 0.648288
vn 0.761395 0.000000 0.648288
vn 0.761395 0.000000 0.648288
vn 0.761395 0.000000 0.648288
vn -0.761395 0.000000 -0.648288
vn -0.761395 0.000000 -0.648288
vn -0.761395 0.000000 -0.648288
vn -0.761395 0.000000 -0.648288
vn 0.000000 -1.000000 0.000000
vn 0.000000 -1.000000 0.000000
vn 0.000000 -1.000000 0.000000
vn 0.000000 -1.000000 0.000000
vn -0.140897 0.000000 0.990024
vn -0.140897 0.000000 0.990024
vn -0.140897 0.000000 0.990024
vn -0.140897 0.000000 0.990024
vn 0.000000 1.000000 -0.000000
vn 0.000000 1.000000 -0.000000
vn 0.000000 1.000000 -0.000000
vn 0.000000 1.000000 -0.000000
vn 0.140897 0.000000 -0.990024
vn 0.140897 0.000000 -0.990024
vn 0.140897 0.000000 -0.990024
vn 0.140897 0.000000 -0.990024
vn 0.990024 0.000000 0.140897
vn 0.990024 0.000000 0.140897
vn 0.990024 0.000000 0.140897
vn 0.990024 0.000000 0.140897
vn -0.990024 0.000000 -0.140897
vn -0.990024 0.000000 -0.140897
vn -0.990024 0.000000 -0.140897
vn -0.990024 0.000000 -0.140897
vn 0.000000 -1.000000 0.000000
vn 0.000000 -1.000000 0.000000
vn 0.000000 -1.000000 0.000000
vn 0.000000 -1.000000 0.000000
vn -0.858196 0.000000 0.513322
vn -0.858196 0.000000 0.513322
vn -0.858196 0.000000 0.513322
vn -0.858196 0.000000 0.513322
vn 0.000000 1.000000 0.000000
vn 0.000000 1.000000 0.000000
vn 0.000000 1.000000 0.000000
vn 0.000000 1.000000 0.000000
vn 0.858195 0.000000 -0.513323
vn 0.858195 0.000000 -0.513323
vn 0.858195 0.000000 -0.513323
vn 0.858195 0.000000 -0.513323
vn 0.513322 0.000000 0.858196
vn 0.513322 0.000000 0.858196
vn 0.513322 0.000000 0.858196
vn 0.513322 0.000000 0.858196
vn -0.513322 0.000000 -0.858196
vn -0.513322 0.000000 -0.858196
vn -0.513322 0.000000 -0.858196
vn -0.513322 0.000000 -0.858196
vn 0.000000 -1.000000 0.000000
vn 0.000000 -1.000000 0.000000
vn 0.000000 -1.000000 0.000000
vn 0.000000 -1.000000 0.000000
s off
g Hojas
usemtl lambert2SG
f 1/1/1 2/2/2 4/4/3 3/3/4
f 3/33/5 4/34/6 6/35/7 5/36/8
f 5/5/9 6/6/10 8/8/11 7/7/12
f 2/2/13 8/9/14 6/10/15 4/4/16
f 7/11/17 1/1/18 3/3/19 5/12/20
f 1/1/21 7/7/22 8/9/23 2/2/24
f 9/13/25 10/14/26 12/15/27 11/16/28
f 11/37/29 12/38/30 14/39/31 13/40/32
f 13/18/33 14/17/34 16/19/35 15/20/36
f 10/14/37 16/19/38 14/21/39 12/15/40
f 15/20/41 9/13/42 11/16/43 13/22/44
f 9/13/45 15/20/46 16/19/47 10/14/48
f 17/23/49 18/24/50 20/25/51 19/26/52
f 19/41/53 20/42/54 22/43/55 21/44/56
f 21/28/57 22/27/58 24/29/59 23/30/60
f 18/24/61 24/29/62 22/31/63 20/25/64
f 23/30/65 17/23/66 19/26/67 21/32/68
f 17/23/69 23/30/70 24/29/71 18/24/72
