# This file uses centimeters as units for non-parametric coordinates.

v -5.446419 0.000000 4.203789
v -4.301857 0.000000 4.203789
v -5.517956 1.868265 4.203789
v -4.230324 1.868265 4.203789
v -5.517956 1.868265 3.050781
v -4.230324 1.868265 3.050781
v -5.446419 0.000000 3.050781
v -4.301857 0.000000 3.050781
v -5.446419 0.000000 -3.346304
v -4.301857 0.000000 -3.346304
v -5.517956 1.868265 -3.346304
v -4.230324 1.868265 -3.346304
v -5.517956 1.868265 -4.499310
v -4.230324 1.868265 -4.499310
v -5.446419 0.000000 -4.499310
v -4.301857 0.000000 -4.499310
v -5.123005 20.509430 4.862881
v -4.714592 20.917847 4.862881
v -5.123005 20.509430 4.467285
v -4.714592 20.917847 4.467285
v 2.637634 20.917847 4.862881
v 3.046045 20.509430 4.862881
v 2.637634 20.917847 4.467285
v 3.046045 20.509430 4.467285
v -4.714592 8.119537 4.862881
v -5.123005 8.527946 4.862881
v -4.714592 8.119537 4.467285
v -5.123005 8.527946 4.467285
v 3.046045 8.527946 4.862881
v 2.637634 8.119537 4.862881
v 3.046045 8.527946 4.467285
v 2.637634 8.119537 4.467285
v 4.148170 0.000000 -3.346304
v 5.292725 0.000000 -3.346304
v 4.076630 1.868265 -3.346304
v 5.364265 1.868265 -3.346304
v 4.076630 1.868265 -4.499310
v 5.364265 1.868265 -4.499310
v 4.148170 0.000000 -4.499310
v 5.292725 0.000000 -4.499310
v -5.996124 1.734177 4.608223
v 5.996124 1.734177 4.608223
v -5.996124 21.735916 4.608223
v 5.996124 21.735916 4.608223
v -5.996124 21.735916 -4.946289
v 5.996124 21.735916 -4.946289
v -5.996124 1.734177 -4.946289
v 5.996124 1.734177 -4.946289
v 4.031975 5.495274 4.764324
v 5.459404 5.495274 4.764324
v 4.031975 7.000275 4.764324
v 5.459404 7.000275 4.764324
v 4.031975 7.000275 4.520832
v 5.459404 7.000275 4.520832
v 4.031975 5.495274 4.520832
v 5.459404 5.495274 4.520832
v 3.838276 11.576416 4.787590
v 5.700226 11.576416 4.787590
v 3.838276 19.607407 4.787590
v 5.700226 19.607407 4.787590
v 3.838276 19.607407 4.418167
v 5.700226 19.607407 4.418167
v 3.838276 11.576416 4.418167
v 5.700226 11.576416 4.418167
v 4.148170 0.000000 4.203789
v 5.292725 0.000000 4.203789
v 4.076630 1.868265 4.203789
v 5.364265 1.868265 4.203789
v 4.076630 1.868265 3.050781
v 5.364265 1.868265 3.050781
v 4.148170 0.000000 3.050781
v 5.292725 0.000000 3.050781
v -3.141193 3.871384 4.946289
v 1.727777 3.871384 4.946289
v -3.141193 6.799412 4.946289
v 1.727777 6.799412 4.946289
v -3.141193 6.799412 4.467285
v 1.727777 6.799412 4.467285
v -3.141193 3.871384 4.467285
v 1.727777 3.871384 4.467285
v -2.664501 4.247993 4.946289
v 1.251093 4.247993 4.946289
v 1.251093 6.422798 4.946289
v -2.664501 6.422798 4.946289
v -2.664501 4.247993 4.630550
v 1.251093 4.247993 4.630550
v 1.251093 6.422798 4.630550
v -2.664501 6.422798 4.630550
vt 0.411085 0.717240
vt 0.411010 0.716693
vt 0.411130 0.716451
vt 0.411085 0.715908
vt 0.411485 0.716448
vt 0.411215 0.716433
vt 0.410886 0.716145
vt 0.411267 0.715788
vt 0.411409 0.716420
vt 0.411462 0.716130
vt 0.411085 0.717240
vt 0.411010 0.716693
vt 0.411130 0.716451
vt 0.411085 0.715908
vt 0.411485 0.716448
vt 0.411215 0.716433
vt 0.410886 0.716145
vt 0.411267 0.715788
vt 0.411409 0.716420
vt 0.411462 0.716130
vt 0.411018 0.714577
vt 0.411036 0.714675
vt 0.409949 0.715406
vt 0.409910 0.715314
vt 0.411018 0.711915
vt 0.411028 0.711989
vt 0.409982 0.712602
vt 0.409951 0.712529
vt 0.409126 0.717223
vt 0.409066 0.717218
vt 0.409203 0.715432
vt 0.409262 0.715447
vt 0.411772 0.717218
vt 0.411706 0.717228
vt 0.411417 0.715240
vt 0.411492 0.715253
vt 0.256245 0.978186
vt 0.395230 0.978186
vt 0.388281 0.985134
vt 0.263194 0.985134
vt 0.411085 0.714577
vt 0.409083 0.715292
vt 0.411085 0.711915
vt 0.411119 0.712366
vt 0.409547 0.712591
vt 0.409554 0.712579
vt 0.256245 0.774338
vt 0.395230 0.774338
vt 0.263194 0.767390
vt 0.388281 0.767390
vt 0.411085 0.717240
vt 0.411010 0.716693
vt 0.411130 0.716451
vt 0.411085 0.715908
vt 0.411485 0.716448
vt 0.411214 0.716433
vt 0.410886 0.716145
vt 0.411267 0.715788
vt 0.411409 0.716420
vt 0.411462 0.716130
vt 0.411085 0.717240
vt 0.409742 0.717481
vt 0.409847 0.715738
vt 0.411085 0.715908
vt 0.409883 0.714739
vt 0.410980 0.714874
vt 0.409976 0.713095
vt 0.410862 0.713095
vt 0.408848 0.717509
vt 0.408805 0.715617
vt 0.411873 0.717412
vt 0.411873 0.715736
vt 0.411085 0.717240
vt 0.409306 0.717334
vt 0.409323 0.715526
vt 0.411085 0.715908
vt 0.409341 0.715196
vt 0.411183 0.715609
vt 0.411085 0.713246
vt 0.409754 0.713246
vt 0.409754 0.713019
vt 0.411085 0.713019
vt 0.408973 0.717329
vt 0.409032 0.715504
vt 0.411321 0.717301
vt 0.411321 0.715847
vt 0.407487 0.826985
vt 0.437615 0.826985
vt 0.437615 0.963576
vt 0.407487 0.963576
vt 0.411085 0.715908
vt 0.409225 0.715538
vt 0.409237 0.715180
vt 0.411187 0.715473
vt 0.411085 0.713246
vt 0.409754 0.713246
vt 0.409754 0.712943
vt 0.411085 0.712943
vt 0.409136 0.717273
vt 0.409056 0.717269
vt 0.409154 0.715531
vt 0.411148 0.717251
vt 0.411085 0.717240
vt 0.411148 0.715897
vt 0.411085 0.717240
vt 0.411010 0.716693
vt 0.411130 0.716451
vt 0.411085 0.715908
vt 0.411485 0.716448
vt 0.411215 0.716433
vt 0.410886 0.716145
vt 0.411267 0.715788
vt 0.411409 0.716420
vt 0.411462 0.716130
vt 0.295128 0.703621
vt 0.366389 0.703621
vt 0.366389 0.743201
vt 0.295128 0.743201
vt 0.411085 0.715908
vt 0.409312 0.715453
vt 0.409353 0.715281
vt 0.411133 0.715769
vt 0.411085 0.713246
vt 0.409754 0.713246
vt 0.409754 0.713115
vt 0.411085 0.713115
vt 0.409290 0.717337
vt 0.408949 0.717326
vt 0.409016 0.715442
vt 0.411893 0.717429
vt 0.411608 0.717429
vt 0.412416 0.715908
vt 0.267652 0.684948
vt 0.393527 0.684948
vt 0.381203 0.694684
vt 0.279975 0.694684
vt 0.393527 0.760645
vt 0.381203 0.750908
vt 0.267652 0.760645
vt 0.279975 0.750908
vt 0.411154 0.717304
vt 0.409725 0.717261
vt 0.409795 0.717192
vt 0.411085 0.717240
vt 0.409725 0.715887
vt 0.409795 0.715956
vt 0.411154 0.715844
vt 0.411085 0.715908
vn 0.000000 0.000000 1.000000
vn 0.000000 0.000000 1.000000
vn 0.000000 0.000000 1.000000
vn 0.000000 0.000000 1.000000
vn 0.000000 -1.000000 0.000000
vn 0.000000 -1.000000 0.000000
vn 0.000000 -1.000000 0.000000
vn 0.000000 -1.000000 0.000000
vn 0.999268 -0.038260 0.000000
vn 0.999268 -0.038260 0.000000
vn 0.999268 -0.038260 0.000000
vn 0.999268 -0.038260 0.000000
vn -0.999268 -0.038264 0.000000
vn -0.999268 -0.038264 0.000000
vn -0.999268 -0.038264 0.000000
vn -0.999268 -0.038264 0.000000
vn 0.000000 0.000000 -1.000000
vn 0.000000 0.000000 -1.000000
vn 0.000000 0.000000 -1.000000
vn 0.000000 0.000000 -1.000000
vn 0.000000 0.000000 1.000000
vn 0.000000 0.000000 1.000000
vn 0.000000 0.000000 1.000000
vn 0.000000 0.000000 1.000000
vn 0.000000 -1.000000 0.000000
vn 0.000000 -1.000000 0.000000
vn 0.000000 -1.000000 0.000000
vn 0.000000 -1.000000 0.000000
vn 0.999268 -0.038261 0.000000
vn 0.999268 -0.038261 0.000000
vn 0.999268 -0.038261 0.000000
vn 0.999268 -0.038261 0.000000
vn -0.999268 -0.038264 0.000000
vn -0.999268 -0.038264 0.000000
vn -0.999268 -0.038264 0.000000
vn -0.999268 -0.038264 0.000000
vn 0.000000 0.000000 -1.000000
vn 0.000000 0.000000 -1.000000
vn 0.000000 0.000000 -1.000000
vn 0.000000 0.000000 -1.000000
vn 0.000000 1.000000 0.000000
vn 0.000000 1.000000 0.000000
vn 0.000000 1.000000 0.000000
vn 0.000000 1.000000 0.000000
vn 0.000000 -1.000000 0.000000
vn 0.000000 -1.000000 0.000000
vn 0.000000 -1.000000 0.000000
vn 0.000000 -1.000000 0.000000
vn 1.000000 0.000000 0.000000
vn 1.000000 0.000000 0.000000
vn 1.000000 0.000000 0.000000
vn 1.000000 0.000000 0.000000
vn -1.000000 0.000000 0.000000
vn -1.000000 0.000000 0.000000
vn -1.000000 0.000000 0.000000
vn -1.000000 0.000000 0.000000
vn 0.000000 0.000000 1.000000
vn 0.000000 0.000000 1.000000
vn 0.000000 0.000000 1.000000
vn 0.000000 0.000000 1.000000
vn -0.707108 0.707105 0.000000
vn -0.707108 0.707105 0.000000
vn -0.707108 0.707105 0.000000
vn -0.707108 0.707105 0.000000
vn 0.707108 0.707105 0.000000
vn 0.707108 0.707105 0.000000
vn 0.707108 0.707105 0.000000
vn 0.707108 0.707105 0.000000
vn -0.707108 -0.707105 0.000000
vn -0.707108 -0.707105 0.000000
vn -0.707108 -0.707105 0.000000
vn -0.707108 -0.707105 0.000000
vn 0.707108 -0.707105 0.000000
vn 0.707108 -0.707105 0.000000
vn 0.707108 -0.707105 0.000000
vn 0.707108 -0.707105 0.000000
vn 0.000000 0.000000 1.000000
vn 0.000000 0.000000 1.000000
vn 0.000000 0.000000 1.000000
vn 0.000000 0.000000 1.000000
vn 0.000000 0.000000 1.000000
vn 0.000000 0.000000 1.000000
vn 0.000000 0.000000 1.000000
vn 0.000000 0.000000 1.000000
vn 0.000000 0.000000 1.000000
vn 0.000000 0.000000 1.000000
vn 0.000000 0.000000 1.000000
vn 0.000000 0.000000 1.000000
vn 0.000000 -1.000000 0.000000
vn 0.000000 -1.000000 0.000000
vn 0.000000 -1.000000 0.000000
vn 0.000000 -1.000000 0.000000
vn 0.999268 -0.038264 0.000000
vn 0.999268 -0.038264 0.000000
vn 0.999268 -0.038264 0.000000
vn 0.999268 -0.038264 0.000000
vn -0.999268 -0.038264 0.000000
vn -0.999268 -0.038264 0.000000
vn -0.999268 -0.038264 0.000000
vn -0.999268 -0.038264 0.000000
vn 0.000000 0.000000 -1.000000
vn 0.000000 0.000000 -1.000000
vn 0.000000 0.000000 -1.000000
vn 0.000000 0.000000 -1.000000
vn 0.000000 0.000000 1.000000
vn 0.000000 0.000000 1.000000
vn 0.000000 0.000000 1.000000
vn 0.000000 0.000000 1.000000
vn 0.000000 1.000000 0.000000
vn 0.000000 1.000000 0.000000
vn 0.000000 1.000000 0.000000
vn 0.000000 1.000000 0.000000
vn 0.000000 0.000000 -1.000000
vn 0.000000 0.000000 -1.000000
vn 0.000000 0.000000 -1.000000
vn 0.000000 0.000000 -1.000000
vn 1.000000 0.000000 0.000000
vn 1.000000 0.000000 0.000000
vn 1.000000 0.000000 0.000000
vn 1.000000 0.000000 0.000000
vn -1.000000 0.000000 0.000000
vn -1.000000 0.000000 0.000000
vn -1.000000 0.000000 0.000000
vn -1.000000 0.000000 0.000000
vn 0.000000 0.000000 1.000000
vn 0.000000 0.000000 1.000000
vn 0.000000 0.000000 1.000000
vn 0.000000 0.000000 1.000000
vn 0.000000 1.000000 0.000000
vn 0.000000 1.000000 0.000000
vn 0.000000 1.000000 0.000000
vn 0.000000 1.000000 0.000000
vn 0.000000 -1.000000 0.000000
vn 0.000000 -1.000000 0.000000
vn 0.000000 -1.000000 0.000000
vn 0.000000 -1.000000 0.000000
vn 1.000000 0.000000 0.000000
vn 1.000000 0.000000 0.000000
vn 1.000000 0.000000 0.000000
vn 1.000000 0.000000 0.000000
vn -1.000000 0.000000 0.000000
vn -1.000000 0.000000 0.000000
vn -1.000000 0.000000 0.000000
vn -1.000000 0.000000 0.000000
vn 0.000000 0.000000 1.000000
vn 0.000000 0.000000 1.000000
vn 0.000000 0.000000 1.000000
vn 0.000000 0.000000 1.000000
vn 0.000000 1.000000 0.000000
vn 0.000000 1.000000 0.000000
vn 0.000000 1.000000 0.000000
vn 0.000000 1.000000 0.000000
vn 0.000000 -1.000000 0.000000
vn 0.000000 -1.000000 0.000000
vn 0.000000 -1.000000 0.000000
vn 0.000000 -1.000000 0.000000
vn 1.000000 0.000000 0.000000
vn 1.000000 0.000000 0.000000
vn 1.000000 0.000000 0.000000
vn 1.000000 0.000000 0.000000
vn -1.000000 0.000000 0.000000
vn -1.000000 0.000000 0.000000
vn -1.000000 0.000000 0.000000
vn -1.000000 0.000000 0.000000
vn 0.000000 0.000000 1.000000
vn 0.000000 0.000000 1.000000
vn 0.000000 0.000000 1.000000
vn 0.000000 0.000000 1.000000
vn 0.000000 -1.000000 0.000000
vn 0.000000 -1.000000 0.000000
vn 0.000000 -1.000000 0.000000
vn 0.000000 -1.000000 0.000000
vn 0.999268 -0.038264 0.000000
vn 0.999268 -0.038264 0.000000
vn 0.999268 -0.038264 0.000000
vn 0.999268 -0.038264 0.000000
vn -0.999268 -0.038264 0.000000
vn -0.999268 -0.038264 0.000000
vn -0.999268 -0.038264 0.000000
vn -0.999268 -0.038264 0.000000
vn 0.000000 0.000000 -1.000000
vn 0.000000 0.000000 -1.000000
vn 0.000000 0.000000 -1.000000
vn 0.000000 0.000000 -1.000000
vn 0.000000 0.000000 1.000000
vn 0.000000 0.000000 1.000000
vn 0.000000 0.000000 1.000000
vn 0.000000 0.000000 1.000000
vn 0.000000 1.000000 0.000000
vn 0.000000 1.000000 0.000000
vn 0.000000 1.000000 0.000000
vn 0.000000 1.000000 0.000000
vn 0.000000 -1.000000 0.000000
vn 0.000000 -1.000000 0.000000
vn 0.000000 -1.000000 0.000000
vn 0.000000 -1.000000 0.000000
vn 1.000000 0.000000 0.000000
vn 1.000000 0.000000 0.000000
vn 1.000000 0.000000 0.000000
vn 1.000000 0.000000 0.000000
vn -1.000000 0.000000 0.000000
vn -1.000000 0.000000 0.000000
vn -1.000000 0.000000 0.000000
vn -1.000000 0.000000 0.000000
vn 0.000000 0.000000 1.000000
vn 0.000000 0.000000 1.000000
vn 0.000000 0.000000 1.000000
vn 0.000000 0.000000 1.000000
vn 0.000000 0.000000 1.000000
vn 0.000000 0.000000 1.000000
vn 0.000000 0.000000 1.000000
vn 0.000000 0.000000 1.000000
vn 0.000000 0.000000 1.000000
vn 0.000000 0.000000 1.000000
vn 0.000000 0.000000 1.000000
vn 0.000000 0.000000 1.000000
vn 0.000000 0.000000 1.000000
vn 0.000000 0.000000 1.000000
vn 0.000000 0.000000 1.000000
vn 0.000000 0.000000 1.000000
vn 0.000000 1.000000 0.000000
vn 0.000000 1.000000 0.000000
vn 0.000000 1.000000 0.000000
vn 0.000000 1.000000 0.000000
vn -1.000000 0.000000 0.000000
vn -1.000000 0.000000 0.000000
vn -1.000000 0.000000 0.000000
vn -1.000000 0.000000 0.000000
vn 0.000000 -1.000000 0.000000
vn 0.000000 -1.000000 0.000000
vn 0.000000 -1.000000 0.000000
vn 0.000000 -1.000000 0.000000
vn 1.000000 0.000000 0.000000
vn 1.000000 0.000000 0.000000
vn 1.000000 0.000000 0.000000
vn 1.000000 0.000000 0.000000
s off
f 1/1/1 2/2/2 4/3/3 3/4/4
f 7/5/5 8/6/6 2/7/7 1/8/8
f 2/2/9 8/6/10 6/9/11 4/3/12
f 7/5/13 1/1/14 3/4/15 5/10/16
f 7/5/17 5/10/18 6/9/19 8/6/20
f 9/11/21 10/12/22 12/13/23 11/14/24
f 15/15/25 16/16/26 10/17/27 9/18/28
f 10/12/29 16/16/30 14/19/31 12/13/32
f 15/15/33 9/11/34 11/14/35 13/20/36
f 15/15/37 13/20/38 14/19/39 16/16/40
f 20/21/41 18/22/42 21/23/43 23/24/44
f 25/25/45 27/26/46 32/27/47 30/28/48
f 29/29/49 31/30/50 24/31/51 22/32/52
f 28/33/53 26/34/54 17/35/55 19/36/56
f 17/37/57 22/38/58 21/39/59 18/40/60
f 17/35/61 18/22/62 20/21/63 19/41/64
f 21/23/65 22/32/66 24/42/67 23/24/68
f 25/25/69 26/43/70 28/44/71 27/26/72
f 29/45/73 30/28/74 32/27/75 31/46/76
f 26/47/77 29/48/78 22/38/79 17/37/80
f 26/47/81 25/49/82 30/50/83 29/48/84
f 33/51/85 34/52/86 36/53/87 35/54/88
f 39/55/89 40/56/90 34/57/91 33/58/92
f 34/52/93 40/56/94 38/59/95 36/53/96
f 39/55/97 33/51/98 35/54/99 37/60/100
f 39/55/101 37/60/102 38/59/103 40/56/104
f 41/61/105 42/62/106 44/63/107 43/64/108
f 43/64/109 44/63/110 46/65/111 45/66/112
f 45/66/113 46/65/114 48/67/115 47/68/116
f 42/62/117 48/69/118 46/70/119 44/63/120
f 47/71/121 41/61/122 43/64/123 45/72/124
f 49/73/125 50/74/126 52/75/127 51/76/128
f 51/76/129 52/75/130 54/77/131 53/78/132
f 55/79/133 56/80/134 50/81/135 49/82/136
f 50/74/137 56/83/138 54/84/139 52/75/140
f 55/85/141 49/73/142 51/76/143 53/86/144
f 57/87/145 58/88/146 60/89/147 59/90/148
f 59/91/149 60/92/150 62/93/151 61/94/152
f 63/95/153 64/96/154 58/97/155 57/98/156
f 58/99/157 64/100/158 62/101/159 60/92/160
f 63/102/161 57/103/162 59/91/163 61/104/164
f 65/105/165 66/106/166 68/107/167 67/108/168
f 71/109/169 72/110/170 66/111/171 65/112/172
f 66/106/173 72/110/174 70/113/175 68/107/176
f 71/109/177 65/105/178 67/108/179 69/114/180
f 71/109/181 69/114/182 70/113/183 72/110/184
f 85/115/185 86/116/186 87/117/187 88/118/188
f 75/119/189 76/120/190 78/121/191 77/122/192
f 79/123/193 80/124/194 74/125/195 73/126/196
f 74/127/197 80/128/198 78/129/199 76/120/200
f 79/130/201 73/131/202 75/119/203 77/132/204
f 73/133/205 74/134/206 82/135/207 81/136/208
f 74/134/209 76/137/210 83/138/211 82/135/212
f 76/137/213 75/139/214 84/140/215 83/138/216
f 75/139/217 73/133/218 81/136/219 84/140/220
f 81/141/221 82/142/222 86/143/223 85/144/224
f 82/142/225 83/145/226 87/146/227 86/143/228
f 83/145/229 84/147/230 88/148/231 87/146/232
f 84/147/233 81/141/234 85/144/235 88/148/236
