# This file uses centimeters as units for non-parametric coordinates.

v -3.516405 0.000000 2.777294
v -2.718042 0.000000 2.777294
v -3.516405 6.200733 3.282658
v -2.718042 6.200733 3.282658
v -3.516405 6.200733 -3.282658
v -2.718042 6.200733 -3.282658
v -3.516405 0.000000 -2.777294
v -2.718042 0.000000 -2.777294
v -13.135475 6.717403 3.516161
v 13.180466 6.717403 3.516161
v -13.135483 6.902325 3.516161
v 13.180473 6.902325 3.516161
v -13.135483 6.902325 -3.516161
v 13.180473 6.902325 -3.516161
v -13.135475 6.717403 -3.516161
v 13.180466 6.717403 -3.516161
v -13.268967 6.115349 6.398529
v 13.268982 6.115349 6.398529
v -13.268967 6.770546 6.398529
v 13.268982 6.770546 6.398529
v -13.268967 6.770546 -6.398529
v 13.268982 6.770546 -6.398529
v -13.268967 6.115349 -6.398529
v 13.268982 6.115349 -6.398529
v -9.604294 0.000000 2.777294
v -8.805931 0.000000 2.777294
v -9.604294 6.200733 3.282658
v -8.805931 6.200733 3.282658
v -9.604294 6.200733 -3.282658
v -8.805931 6.200733 -3.282658
v -9.604294 0.000000 -2.777294
v -8.805931 0.000000 -2.777294
v 8.659378 0.000000 2.777294
v 9.457741 0.000000 2.777294
v 8.659378 6.200733 3.282658
v 9.457741 6.200733 3.282658
v 8.659378 6.200733 -3.282658
v 9.457741 6.200733 -3.282658
v 8.659378 0.000000 -2.777294
v 9.457741 0.000000 -2.777294
v 2.571486 0.000000 2.777294
v 3.369850 0.000000 2.777294
v 2.571486 6.200733 3.282658
v 3.369850 6.200733 3.282658
v 2.571486 6.200733 -3.282658
v 3.369850 6.200733 -3.282658
v 2.571486 0.000000 -2.777294
v 3.369850 0.000000 -2.777294
vt 0.567056 0.978426
vt 0.570136 0.978426
vt 0.570136 0.981506
vt 0.567056 0.981506
vt 0.570136 0.984587
vt 0.567056 0.984587
vt 0.570136 0.987667
vt 0.567056 0.987667
vt 0.570136 0.990748
vt 0.567056 0.990748
vt 0.573217 0.978426
vt 0.573217 0.981506
vt 0.563975 0.978426
vt 0.563975 0.981506
vt 0.811402 0.980099
vt 0.812146 0.980099
vt 0.812146 0.980843
vt 0.811402 0.980843
vt 0.812146 0.981587
vt 0.811402 0.981587
vt 0.812146 0.982332
vt 0.811402 0.982332
vt 0.812890 0.980099
vt 0.812890 0.980843
vt 0.810657 0.980099
vt 0.810657 0.980843
vt 0.567056 0.978426
vt 0.570136 0.978426
vt 0.570136 0.981506
vt 0.567056 0.981506
vt 0.570136 0.984587
vt 0.567056 0.984587
vt 0.570136 0.987667
vt 0.567056 0.987667
vt 0.570136 0.990748
vt 0.567056 0.990748
vt 0.573217 0.978426
vt 0.573217 0.981506
vt 0.563975 0.978426
vt 0.563975 0.981506
vt 0.567056 0.978426
vt 0.570136 0.978426
vt 0.570136 0.981506
vt 0.567056 0.981506
vt 0.570136 0.984587
vt 0.567056 0.984587
vt 0.570136 0.987667
vt 0.567056 0.987667
vt 0.570136 0.990748
vt 0.567056 0.990748
vt 0.573217 0.978426
vt 0.573217 0.981506
vt 0.563975 0.978426
vt 0.563975 0.981506
vt 0.567056 0.978426
vt 0.570136 0.978426
vt 0.570136 0.981506
vt 0.567056 0.981506
vt 0.570136 0.984587
vt 0.567056 0.984587
vt 0.570136 0.987667
vt 0.567056 0.987667
vt 0.570136 0.990748
vt 0.567056 0.990748
vt 0.573217 0.978426
vt 0.573217 0.981506
vt 0.563975 0.978426
vt 0.563975 0.981506
vt 0.567056 0.978426
vt 0.570136 0.978426
vt 0.570136 0.981506
vt 0.567056 0.981506
vt 0.570136 0.984587
vt 0.567056 0.984587
vt 0.570136 0.987667
vt 0.567056 0.987667
vt 0.570136 0.990748
vt 0.567056 0.990748
vt 0.573217 0.978426
vt 0.573217 0.981506
vt 0.563975 0.978426
vt 0.563975 0.981506
vn 0.000000 -0.081231 0.996695
vn 0.000000 -0.081231 0.996695
vn 0.000000 -0.081231 0.996695
vn 0.000000 -0.081231 0.996695
vn 0.000000 1.000000 0.000000
vn 0.000000 1.000000 0.000000
vn 0.000000 1.000000 0.000000
vn 0.000000 1.000000 0.000000
vn 0.000000 -0.081231 -0.996695
vn 0.000000 -0.081231 -0.996695
vn 0.000000 -0.081231 -0.996695
vn 0.000000 -0.081231 -0.996695
vn 0.000000 -1.000000 0.000000
vn 0.000000 -1.000000 0.000000
vn 0.000000 -1.000000 0.000000
vn 0.000000 -1.000000 0.000000
vn 1.000000 0.000000 0.000000
vn 1.000000 0.000000 0.000000
vn 1.000000 0.000000 0.000000
vn 1.000000 0.000000 0.000000
vn -1.000000 0.000000 0.000000
vn -1.000000 0.000000 0.000000
vn -1.000000 0.000000 0.000000
vn -1.000000 0.000000 0.000000
vn 0.000000 0.000000 1.000000
vn 0.000000 0.000000 1.000000
vn 0.000000 0.000000 1.000000
vn 0.000000 0.000000 1.000000
vn 0.000000 1.000000 0.000000
vn 0.000000 1.000000 0.000000
vn 0.000000 1.000000 0.000000
vn 0.000000 1.000000 0.000000
vn 0.000000 0.000000 -1.000000
vn 0.000000 0.000000 -1.000000
vn 0.000000 0.000000 -1.000000
vn 0.000000 0.000000 -1.000000
vn 1.000000 -0.000008 0.000000
vn 1.000000 -0.000008 0.000000
vn 1.000000 -0.000008 0.000000
vn 1.000000 -0.000008 0.000000
vn -1.000000 -0.000030 0.000000
vn -1.000000 -0.000030 0.000000
vn -1.000000 -0.000030 0.000000
vn -1.000000 -0.000030 0.000000
vn 0.000000 0.000000 1.000000
vn 0.000000 0.000000 1.000000
vn 0.000000 0.000000 1.000000
vn 0.000000 0.000000 1.000000
vn 0.000000 1.000000 0.000000
vn 0.000000 1.000000 0.000000
vn 0.000000 1.000000 0.000000
vn 0.000000 1.000000 0.000000
vn 0.000000 0.000000 -1.000000
vn 0.000000 0.000000 -1.000000
vn 0.000000 0.000000 -1.000000
vn 0.000000 0.000000 -1.000000
vn 0.000000 -1.000000 0.000000
vn 0.000000 -1.000000 0.000000
vn 0.000000 -1.000000 0.000000
vn 0.000000 -1.000000 0.000000
vn 1.000000 -0.000009 0.000000
vn 1.000000 -0.000009 0.000000
vn 1.000000 -0.000009 0.000000
vn 1.000000 -0.000009 0.000000
vn -1.000000 -0.000002 0.000000
vn -1.000000 -0.000002 0.000000
vn -1.000000 -0.000002 0.000000
vn -1.000000 -0.000002 0.000000
vn 0.000000 -0.081231 0.996695
vn 0.000000 -0.081231 0.996695
vn 0.000000 -0.081231 0.996695
vn 0.000000 -0.081231 0.996695
vn 0.000000 1.000000 0.000000
vn 0.000000 1.000000 0.000000
vn 0.000000 1.000000 0.000000
vn 0.000000 1.000000 0.000000
vn 0.000000 -0.081231 -0.996695
vn 0.000000 -0.081231 -0.996695
vn 0.000000 -0.081231 -0.996695
vn 0.000000 -0.081231 -0.996695
vn 0.000000 -1.000000 0.000000
vn 0.000000 -1.000000 0.000000
vn 0.000000 -1.000000 0.000000
vn 0.000000 -1.000000 0.000000
vn 1.000000 0.000000 0.000000
vn 1.000000 0.000000 0.000000
vn 1.000000 0.000000 0.000000
vn 1.000000 0.000000 0.000000
vn -1.000000 0.000000 0.000000
vn -1.000000 0.000000 0.000000
vn -1.000000 0.000000 0.000000
vn -1.000000 0.000000 0.000000
vn 0.000000 -0.081231 0.996695
vn 0.000000 -0.081231 0.996695
vn 0.000000 -0.081231 0.996695
vn 0.000000 -0.081231 0.996695
vn 0.000000 1.000000 0.000000
vn 0.000000 1.000000 0.000000
vn 0.000000 1.000000 0.000000
vn 0.000000 1.000000 0.000000
vn 0.000000 -0.081231 -0.996695
vn 0.000000 -0.081231 -0.996695
vn 0.000000 -0.081231 -0.996695
vn 0.000000 -0.081231 -0.996695
vn 0.000000 -1.000000 0.000000
vn 0.000000 -1.000000 0.000000
vn 0.000000 -1.000000 0.000000
vn 0.000000 -1.000000 0.000000
vn 1.000000 0.000000 0.000000
vn 1.000000 0.000000 0.000000
vn 1.000000 0.000000 0.000000
vn 1.000000 0.000000 0.000000
vn -1.000000 0.000000 0.000000
vn -1.000000 0.000000 0.000000
vn -1.000000 0.000000 0.000000
vn -1.000000 0.000000 0.000000
vn 0.000000 -0.081231 0.996695
vn 0.000000 -0.081231 0.996695
vn 0.000000 -0.081231 0.996695
vn 0.000000 -0.081231 0.996695
vn 0.000000 1.000000 0.000000
vn 0.000000 1.000000 0.000000
vn 0.000000 1.000000 0.000000
vn 0.000000 1.000000 0.000000
vn 0.000000 -0.081231 -0.996695
vn 0.000000 -0.081231 -0.996695
vn 0.000000 -0.081231 -0.996695
vn 0.000000 -0.081231 -0.996695
vn 0.000000 -1.000000 0.000000
vn 0.000000 -1.000000 0.000000
vn 0.000000 -1.000000 0.000000
vn 0.000000 -1.000000 0.000000
vn 1.000000 0.000000 0.000000
vn 1.000000 0.000000 0.000000
vn 1.000000 0.000000 0.000000
vn 1.000000 0.000000 0.000000
vn -1.000000 0.000000 0.000000
vn -1.000000 0.000000 0.000000
vn -1.000000 0.000000 0.000000
vn -1.000000 0.000000 0.000000
s off
f 1/1/1 2/2/2 4/3/3 3/4/4
f 3/4/5 4/3/6 6/5/7 5/6/8
f 5/6/9 6/5/10 8/7/11 7/8/12
f 7/8/13 8/7/14 2/9/15 1/10/16
f 2/2/17 8/11/18 6/12/19 4/3/20
f 7/13/21 1/1/22 3/4/23 5/14/24
f 9/15/25 10/16/26 12/17/27 11/18/28
f 11/18/29 12/17/30 14/19/31 13/20/32
f 13/20/33 14/19/34 16/21/35 15/22/36
f 10/16/37 16/23/38 14/24/39 12/17/40
f 15/25/41 9/15/42 11/18/43 13/26/44
f 17/27/45 18/28/46 20/29/47 19/30/48
f 19/30/49 20/29/50 22/31/51 21/32/52
f 21/32/53 22/31/54 24/33/55 23/34/56
f 23/34/57 24/33/58 18/35/59 17/36/60
f 18/28/61 24/37/62 22/38/63 20/29/64
f 23/39/65 17/27/66 19/30/67 21/40/68
f 25/41/69 26/42/70 28/43/71 27/44/72
f 27/44/73 28/43/74 30/45/75 29/46/76
f 29/46/77 30/45/78 32/47/79 31/48/80
f 31/48/81 32/47/82 26/49/83 25/50/84
f 26/42/85 32/51/86 30/52/87 28/43/88
f 31/53/89 25/41/90 27/44/91 29/54/92
f 33/55/93 34/56/94 36/57/95 35/58/96
f 35/58/97 36/57/98 38/59/99 37/60/100
f 37/60/101 38/59/102 40/61/103 39/62/104
f 39/62/105 40/61/106 34/63/107 33/64/108
f 34/56/109 40/65/110 38/66/111 36/57/112
f 39/67/113 33/55/114 35/58/115 37/68/116
f 41/69/117 42/70/118 44/71/119 43/72/120
f 43/72/121 44/71/122 46/73/123 45/74/124
f 45/74/125 46/73/126 48/75/127 47/76/128
f 47/76/129 48/75/130 42/77/131 41/78/132
f 42/70/133 48/79/134 46/80/135 44/71/136
f 47/81/137 41/69/138 43/72/139 45/82/140
