# This file uses centimeters as units for non-parametric coordinates.

mtllib SM_Maquina_Espendedora.mtl
g default
v -54.464172 0.000000 42.037880
v -43.018555 0.000000 42.037880
v -55.179565 18.682642 42.037880
v -42.303223 18.682642 42.037880
v -55.179565 18.682642 30.507820
v -42.303223 18.682642 30.507820
v -54.464172 0.000000 30.507820
v -43.018555 0.000000 30.507820
v -54.464172 0.000000 -33.463043
v -43.018555 0.000000 -33.463043
v -55.179565 18.682642 -33.463043
v -42.303223 18.682642 -33.463043
v -55.179565 18.682642 -44.993088
v -42.303223 18.682642 -44.993088
v -54.464172 0.000000 -44.993088
v -43.018555 0.000000 -44.993088
v -51.230042 205.094330 48.628792
v -47.145935 209.178452 48.628792
v -51.230042 205.094330 44.672859
v -47.145935 209.178452 44.672859
v 26.376343 209.178452 48.628792
v 30.460449 205.094330 48.628792
v 26.376343 209.178452 44.672859
v 30.460449 205.094330 44.672859
v -47.145935 81.195358 48.628792
v -51.230042 85.279480 48.628792
v -47.145935 81.195358 44.672859
v -51.230042 85.279480 44.672859
v 30.460449 85.279480 48.628792
v 26.376343 81.195358 48.628792
v 30.460449 85.279480 44.672859
v 26.376343 81.195358 44.672859
v 41.481689 0.000000 -33.463043
v 52.927246 0.000000 -33.463043
v 40.766296 18.682642 -33.463043
v 53.642639 18.682642 -33.463043
v 40.766296 18.682642 -44.993088
v 53.642639 18.682642 -44.993088
v 41.481689 0.000000 -44.993088
v 52.927246 0.000000 -44.993088
v -59.961243 17.341770 46.082222
v 59.961243 17.341770 46.082222
v -59.961243 217.359085 46.082222
v 59.961243 217.359085 46.082222
v -59.961243 217.359085 -49.462906
v 59.961243 217.359085 -49.462906
v -59.961243 17.341770 -49.462906
v 59.961243 17.341770 -49.462906
v 40.319763 54.952740 47.643257
v 54.594055 54.952740 47.643257
v 40.319763 70.002747 47.643257
v 54.594055 70.002747 47.643257
v 40.319763 70.002747 45.208321
v 54.594055 70.002747 45.208321
v 40.319763 54.952740 45.208321
v 54.594055 54.952740 45.208321
v 38.382751 115.764175 47.875893
v 57.002258 115.764175 47.875893
v 38.382751 196.074127 47.875893
v 57.002258 196.074127 47.875893
v 38.382751 196.074127 44.181679
v 57.002258 196.074127 44.181679
v 38.382751 115.764175 44.181679
v 57.002258 115.764175 44.181679
v 41.481689 0.000000 42.037880
v 52.927246 0.000000 42.037880
v 40.766296 18.682642 42.037880
v 53.642639 18.682642 42.037880
v 40.766296 18.682642 30.507820
v 53.642639 18.682642 30.507820
v 41.481689 0.000000 30.507820
v 52.927246 0.000000 30.507820
v -31.411926 38.713821 49.462898
v 17.277771 38.713821 49.462898
v -31.411926 67.994102 49.462898
v 17.277771 67.994102 49.462898
v -31.411926 67.994102 44.672859
v 17.277771 67.994102 44.672859
v -31.411926 38.713821 44.672859
v 17.277771 38.713821 44.672859
v -26.645020 42.479946 49.462898
v 12.510925 42.479946 49.462898
v 12.510925 64.227966 49.462898
v -26.645020 64.227966 49.462898
v -26.645020 42.479946 46.305519
v 12.510925 42.479946 46.305519
v 12.510925 64.227966 46.305519
v -26.645020 64.227966 46.305519
vt 0.411085 0.717240
vt 0.411010 0.716693
vt 0.411085 0.715908
vt 0.411130 0.716451
vt 0.411485 0.716448
vt 0.411215 0.716433
vt 0.411267 0.715788
vt 0.410886 0.716145
vt 0.411409 0.716420
vt 0.411462 0.716130
vt 0.411085 0.717240
vt 0.411010 0.716693
vt 0.411130 0.716451
vt 0.411085 0.715908
vt 0.411485 0.716448
vt 0.411215 0.716433
vt 0.410886 0.716145
vt 0.411267 0.715788
vt 0.411409 0.716420
vt 0.411462 0.716130
vt 0.411018 0.714577
vt 0.411036 0.714675
vt 0.409949 0.715406
vt 0.409910 0.715314
vt 0.411018 0.711915
vt 0.411028 0.711989
vt 0.409982 0.712602
vt 0.409951 0.712529
vt 0.409126 0.717223
vt 0.409066 0.717218
vt 0.409203 0.715432
vt 0.409262 0.715447
vt 0.411772 0.717218
vt 0.411706 0.717228
vt 0.411417 0.715240
vt 0.411492 0.715253
vt 0.411085 0.714577
vt 0.409083 0.715292
vt 0.411085 0.711915
vt 0.411119 0.712366
vt 0.409547 0.712591
vt 0.409554 0.712579
vt 0.256245 0.978186
vt 0.395230 0.978186
vt 0.411085 0.717240
vt 0.411010 0.716693
vt 0.411130 0.716451
vt 0.411085 0.715908
vt 0.411485 0.716448
vt 0.411214 0.716433
vt 0.410886 0.716145
vt 0.411267 0.715788
vt 0.411409 0.716420
vt 0.411462 0.716130
vt 0.411085 0.717240
vt 0.409742 0.717481
vt 0.409847 0.715738
vt 0.411085 0.715908
vt 0.409883 0.714739
vt 0.410980 0.714874
vt 0.409976 0.713095
vt 0.410862 0.713095
vt 0.408848 0.717509
vt 0.408805 0.715617
vt 0.411873 0.717412
vt 0.411873 0.715736
vt 0.411085 0.717240
vt 0.409306 0.717334
vt 0.409323 0.715526
vt 0.411085 0.715908
vt 0.409341 0.715196
vt 0.411183 0.715609
vt 0.411085 0.713246
vt 0.409754 0.713246
vt 0.409754 0.713019
vt 0.411085 0.713019
vt 0.408973 0.717329
vt 0.409032 0.715504
vt 0.411321 0.717301
vt 0.411321 0.715847
vt 0.411085 0.717240
vt 0.409136 0.717273
vt 0.409225 0.715538
vt 0.411085 0.715908
vt 0.409237 0.715180
vt 0.411187 0.715473
vt 0.411085 0.713246
vt 0.409754 0.713246
vt 0.409754 0.712943
vt 0.411085 0.712943
vt 0.409056 0.717269
vt 0.409154 0.715531
vt 0.411148 0.717251
vt 0.411148 0.715897
vt 0.411085 0.717240
vt 0.411010 0.716693
vt 0.411130 0.716451
vt 0.411085 0.715908
vt 0.411485 0.716448
vt 0.411215 0.716433
vt 0.410886 0.716145
vt 0.411267 0.715788
vt 0.411409 0.716420
vt 0.411462 0.716130
vt 0.411085 0.717240
vt 0.409795 0.717192
vt 0.409795 0.715956
vt 0.411085 0.715908
vt 0.411085 0.715908
vt 0.409312 0.715453
vt 0.409353 0.715281
vt 0.411133 0.715769
vt 0.411085 0.713246
vt 0.409754 0.713246
vt 0.409754 0.713115
vt 0.411085 0.713115
vt 0.409290 0.717337
vt 0.408949 0.717326
vt 0.409016 0.715442
vt 0.411893 0.717429
vt 0.411608 0.717429
vt 0.412416 0.715908
vt 0.409725 0.717261
vt 0.411154 0.717304
vt 0.409725 0.715887
vt 0.411154 0.715844
vt 0.388281 0.985134
vt 0.263194 0.985134
vt 0.256245 0.774338
vt 0.395230 0.774338
vt 0.263194 0.767390
vt 0.388281 0.767390
vt 0.407487 0.826985
vt 0.437615 0.826985
vt 0.437615 0.963576
vt 0.407487 0.963576
vt 0.295128 0.703621
vt 0.366389 0.703621
vt 0.366389 0.743201
vt 0.295128 0.743201
vt 0.267652 0.684948
vt 0.393527 0.684948
vt 0.381203 0.694684
vt 0.279975 0.694684
vt 0.393527 0.760645
vt 0.381203 0.750908
vt 0.267652 0.760645
vt 0.279975 0.750908
vn 0.000000 0.000000 1.000000
vn 0.000000 0.000000 1.000000
vn 0.000000 0.000000 1.000000
vn 0.000000 0.000000 1.000000
vn 0.000000 -1.000000 0.000000
vn 0.000000 -1.000000 0.000000
vn 0.000000 -1.000000 0.000000
vn 0.000000 -1.000000 0.000000
vn 0.999268 -0.038260 0.000000
vn 0.999268 -0.038260 0.000000
vn 0.999268 -0.038260 0.000000
vn 0.999268 -0.038260 0.000000
vn -0.999268 -0.038264 0.000000
vn -0.999268 -0.038264 0.000000
vn -0.999268 -0.038264 0.000000
vn -0.999268 -0.038264 0.000000
vn 0.000000 0.000000 -1.000000
vn 0.000000 0.000000 -1.000000
vn 0.000000 0.000000 -1.000000
vn 0.000000 0.000000 -1.000000
vn 0.000000 0.000000 1.000000
vn 0.000000 0.000000 1.000000
vn 0.000000 0.000000 1.000000
vn 0.000000 0.000000 1.000000
vn 0.000000 -1.000000 0.000000
vn 0.000000 -1.000000 0.000000
vn 0.000000 -1.000000 0.000000
vn 0.000000 -1.000000 0.000000
vn 0.999268 -0.038261 0.000000
vn 0.999268 -0.038261 0.000000
vn 0.999268 -0.038261 0.000000
vn 0.999268 -0.038261 0.000000
vn -0.999268 -0.038264 0.000000
vn -0.999268 -0.038264 0.000000
vn -0.999268 -0.038264 0.000000
vn -0.999268 -0.038264 0.000000
vn 0.000000 0.000000 -1.000000
vn 0.000000 0.000000 -1.000000
vn 0.000000 0.000000 -1.000000
vn 0.000000 0.000000 -1.000000
vn 0.000000 1.000000 0.000000
vn 0.000000 1.000000 0.000000
vn 0.000000 1.000000 0.000000
vn 0.000000 1.000000 0.000000
vn 0.000000 -1.000000 0.000000
vn 0.000000 -1.000000 0.000000
vn 0.000000 -1.000000 0.000000
vn 0.000000 -1.000000 0.000000
vn 1.000000 0.000000 0.000000
vn 1.000000 0.000000 0.000000
vn 1.000000 0.000000 0.000000
vn 1.000000 0.000000 0.000000
vn -1.000000 0.000000 0.000000
vn -1.000000 0.000000 0.000000
vn -1.000000 0.000000 0.000000
vn -1.000000 0.000000 0.000000
vn 0.000000 0.000000 1.000000
vn 0.000000 0.000000 1.000000
vn 0.000000 0.000000 1.000000
vn 0.000000 0.000000 1.000000
vn -0.707108 0.707105 0.000000
vn -0.707108 0.707105 0.000000
vn -0.707108 0.707105 0.000000
vn -0.707108 0.707105 0.000000
vn 0.707108 0.707105 0.000000
vn 0.707108 0.707105 0.000000
vn 0.707108 0.707105 0.000000
vn 0.707108 0.707105 0.000000
vn -0.707108 -0.707105 0.000000
vn -0.707108 -0.707105 0.000000
vn -0.707108 -0.707105 0.000000
vn -0.707108 -0.707105 0.000000
vn 0.707108 -0.707105 0.000000
vn 0.707108 -0.707105 0.000000
vn 0.707108 -0.707105 0.000000
vn 0.707108 -0.707105 0.000000
vn 0.000000 0.000000 1.000000
vn 0.000000 0.000000 1.000000
vn 0.000000 0.000000 1.000000
vn 0.000000 0.000000 1.000000
vn 0.000000 0.000000 1.000000
vn 0.000000 0.000000 1.000000
vn 0.000000 0.000000 1.000000
vn 0.000000 0.000000 1.000000
vn 0.000000 0.000000 1.000000
vn 0.000000 0.000000 1.000000
vn 0.000000 0.000000 1.000000
vn 0.000000 0.000000 1.000000
vn 0.000000 -1.000000 0.000000
vn 0.000000 -1.000000 0.000000
vn 0.000000 -1.000000 0.000000
vn 0.000000 -1.000000 0.000000
vn 0.999268 -0.038264 0.000000
vn 0.999268 -0.038264 0.000000
vn 0.999268 -0.038264 0.000000
vn 0.999268 -0.038264 0.000000
vn -0.999268 -0.038264 0.000000
vn -0.999268 -0.038264 0.000000
vn -0.999268 -0.038264 0.000000
vn -0.999268 -0.038264 0.000000
vn 0.000000 0.000000 -1.000000
vn 0.000000 0.000000 -1.000000
vn 0.000000 0.000000 -1.000000
vn 0.000000 0.000000 -1.000000
vn 0.000000 0.000000 1.000000
vn 0.000000 0.000000 1.000000
vn 0.000000 0.000000 1.000000
vn 0.000000 0.000000 1.000000
vn 0.000000 1.000000 0.000000
vn 0.000000 1.000000 0.000000
vn 0.000000 1.000000 0.000000
vn 0.000000 1.000000 0.000000
vn 0.000000 0.000000 -1.000000
vn 0.000000 0.000000 -1.000000
vn 0.000000 0.000000 -1.000000
vn 0.000000 0.000000 -1.000000
vn 1.000000 0.000000 0.000000
vn 1.000000 0.000000 0.000000
vn 1.000000 0.000000 0.000000
vn 1.000000 0.000000 0.000000
vn -1.000000 0.000000 0.000000
vn -1.000000 0.000000 0.000000
vn -1.000000 0.000000 0.000000
vn -1.000000 0.000000 0.000000
vn 0.000000 0.000000 1.000000
vn 0.000000 0.000000 1.000000
vn 0.000000 0.000000 1.000000
vn 0.000000 0.000000 1.000000
vn 0.000000 1.000000 0.000000
vn 0.000000 1.000000 0.000000
vn 0.000000 1.000000 0.000000
vn 0.000000 1.000000 0.000000
vn 0.000000 -1.000000 0.000000
vn 0.000000 -1.000000 0.000000
vn 0.000000 -1.000000 0.000000
vn 0.000000 -1.000000 0.000000
vn 1.000000 0.000000 0.000000
vn 1.000000 0.000000 0.000000
vn 1.000000 0.000000 0.000000
vn 1.000000 0.000000 0.000000
vn -1.000000 0.000000 0.000000
vn -1.000000 0.000000 0.000000
vn -1.000000 0.000000 0.000000
vn -1.000000 0.000000 0.000000
vn 0.000000 0.000000 1.000000
vn 0.000000 0.000000 1.000000
vn 0.000000 0.000000 1.000000
vn 0.000000 0.000000 1.000000
vn 0.000000 1.000000 0.000000
vn 0.000000 1.000000 0.000000
vn 0.000000 1.000000 0.000000
vn 0.000000 1.000000 0.000000
vn 0.000000 -1.000000 0.000000
vn 0.000000 -1.000000 0.000000
vn 0.000000 -1.000000 0.000000
vn 0.000000 -1.000000 0.000000
vn 1.000000 0.000000 0.000000
vn 1.000000 0.000000 0.000000
vn 1.000000 0.000000 0.000000
vn 1.000000 0.000000 0.000000
vn -1.000000 0.000000 0.000000
vn -1.000000 0.000000 0.000000
vn -1.000000 0.000000 0.000000
vn -1.000000 0.000000 0.000000
vn 0.000000 0.000000 1.000000
vn 0.000000 0.000000 1.000000
vn 0.000000 0.000000 1.000000
vn 0.000000 0.000000 1.000000
vn 0.000000 -1.000000 0.000000
vn 0.000000 -1.000000 0.000000
vn 0.000000 -1.000000 0.000000
vn 0.000000 -1.000000 0.000000
vn 0.999268 -0.038264 0.000000
vn 0.999268 -0.038264 0.000000
vn 0.999268 -0.038264 0.000000
vn 0.999268 -0.038264 0.000000
vn -0.999268 -0.038264 0.000000
vn -0.999268 -0.038264 0.000000
vn -0.999268 -0.038264 0.000000
vn -0.999268 -0.038264 0.000000
vn 0.000000 0.000000 -1.000000
vn 0.000000 0.000000 -1.000000
vn 0.000000 0.000000 -1.000000
vn 0.000000 0.000000 -1.000000
vn 0.000000 0.000000 1.000000
vn 0.000000 0.000000 1.000000
vn 0.000000 0.000000 1.000000
vn 0.000000 0.000000 1.000000
vn 0.000000 1.000000 0.000000
vn 0.000000 1.000000 0.000000
vn 0.000000 1.000000 0.000000
vn 0.000000 1.000000 0.000000
vn 0.000000 -1.000000 0.000000
vn 0.000000 -1.000000 0.000000
vn 0.000000 -1.000000 0.000000
vn 0.000000 -1.000000 0.000000
vn 1.000000 0.000000 0.000000
vn 1.000000 0.000000 0.000000
vn 1.000000 0.000000 0.000000
vn 1.000000 0.000000 0.000000
vn -1.000000 0.000000 0.000000
vn -1.000000 0.000000 0.000000
vn -1.000000 0.000000 0.000000
vn -1.000000 0.000000 0.000000
vn 0.000000 0.000000 1.000000
vn 0.000000 0.000000 1.000000
vn 0.000000 0.000000 1.000000
vn 0.000000 0.000000 1.000000
vn 0.000000 0.000000 1.000000
vn 0.000000 0.000000 1.000000
vn 0.000000 0.000000 1.000000
vn 0.000000 0.000000 1.000000
vn 0.000000 0.000000 1.000000
vn 0.000000 0.000000 1.000000
vn 0.000000 0.000000 1.000000
vn 0.000000 0.000000 1.000000
vn 0.000000 0.000000 1.000000
vn 0.000000 0.000000 1.000000
vn 0.000000 0.000000 1.000000
vn 0.000000 0.000000 1.000000
vn 0.000000 1.000000 0.000000
vn 0.000000 1.000000 0.000000
vn 0.000000 1.000000 0.000000
vn 0.000000 1.000000 0.000000
vn -1.000000 0.000000 0.000000
vn -1.000000 0.000000 0.000000
vn -1.000000 0.000000 0.000000
vn -1.000000 0.000000 0.000000
vn 0.000000 -1.000000 0.000000
vn 0.000000 -1.000000 0.000000
vn 0.000000 -1.000000 0.000000
vn 0.000000 -1.000000 0.000000
vn 1.000000 0.000000 0.000000
vn 1.000000 0.000000 0.000000
vn 1.000000 0.000000 0.000000
vn 1.000000 0.000000 0.000000
s off
g Maquina_Espendedora
usemtl lambert2SG
f 1/1/1 2/2/2 4/4/3 3/3/4
f 7/5/5 8/6/6 2/8/7 1/7/8
f 2/2/9 8/6/10 6/9/11 4/4/12
f 7/5/13 1/1/14 3/3/15 5/10/16
f 7/5/17 5/10/18 6/9/19 8/6/20
f 9/11/21 10/12/22 12/13/23 11/14/24
f 15/15/25 16/16/26 10/17/27 9/18/28
f 10/12/29 16/16/30 14/19/31 12/13/32
f 15/15/33 9/11/34 11/14/35 13/20/36
f 15/15/37 13/20/38 14/19/39 16/16/40
f 20/21/41 18/22/42 21/23/43 23/24/44
f 25/25/45 27/26/46 32/27/47 30/28/48
f 29/29/49 31/30/50 24/31/51 22/32/52
f 28/33/53 26/34/54 17/35/55 19/36/56
f 17/43/57 22/44/58 21/127/59 18/128/60
f 17/35/61 18/22/62 20/21/63 19/37/64
f 21/23/65 22/32/66 24/38/67 23/24/68
f 25/25/69 26/39/70 28/40/71 27/26/72
f 29/41/73 30/28/74 32/27/75 31/42/76
f 26/129/77 29/130/78 22/44/79 17/43/80
f 26/129/81 25/131/82 30/132/83 29/130/84
f 33/45/85 34/46/86 36/47/87 35/48/88
f 39/49/89 40/50/90 34/51/91 33/52/92
f 34/46/93 40/50/94 38/53/95 36/47/96
f 39/49/97 33/45/98 35/48/99 37/54/100
f 39/49/101 37/54/102 38/53/103 40/50/104
f 41/55/105 42/56/106 44/57/107 43/58/108
f 43/58/109 44/57/110 46/59/111 45/60/112
f 45/60/113 46/59/114 48/61/115 47/62/116
f 42/56/117 48/63/118 46/64/119 44/57/120
f 47/65/121 41/55/122 43/58/123 45/66/124
f 49/67/125 50/68/126 52/69/127 51/70/128
f 51/70/129 52/69/130 54/71/131 53/72/132
f 55/73/133 56/74/134 50/75/135 49/76/136
f 50/68/137 56/77/138 54/78/139 52/69/140
f 55/79/141 49/67/142 51/70/143 53/80/144
f 57/133/145 58/134/146 60/135/147 59/136/148
f 59/84/149 60/83/150 62/85/151 61/86/152
f 63/87/153 64/88/154 58/89/155 57/90/156
f 58/82/157 64/91/158 62/92/159 60/83/160
f 63/93/161 57/81/162 59/84/163 61/94/164
f 65/95/165 66/96/166 68/97/167 67/98/168
f 71/99/169 72/100/170 66/101/171 65/102/172
f 66/96/173 72/100/174 70/103/175 68/97/176
f 71/99/177 65/95/178 67/98/179 69/104/180
f 71/99/181 69/104/182 70/103/183 72/100/184
f 85/137/185 86/138/186 87/139/187 88/140/188
f 75/109/189 76/110/190 78/111/191 77/112/192
f 79/113/193 80/114/194 74/115/195 73/116/196
f 74/117/197 80/118/198 78/119/199 76/110/200
f 79/120/201 73/121/202 75/109/203 77/122/204
f 73/141/205 74/142/206 82/143/207 81/144/208
f 74/142/209 76/145/210 83/146/211 82/143/212
f 76/145/213 75/147/214 84/148/215 83/146/216
f 75/147/217 73/141/218 81/144/219 84/148/220
f 81/124/221 82/123/222 86/106/223 85/105/224
f 82/123/225 83/125/226 87/107/227 86/106/228
f 83/125/229 84/126/230 88/108/231 87/107/232
f 84/126/233 81/124/234 85/105/235 88/108/236
