# This file uses centimeters as units for non-parametric coordinates.

mtllib SM_Monitor.mtl
g default
v 72.169655 2.328488 -62.468529
v 65.495010 2.328488 -62.468529
v 72.169655 34.213387 -59.038193
v 65.495010 34.213387 -59.038193
v 71.993378 33.284485 -57.050953
v 65.671288 33.284485 -57.050953
v 71.993378 2.328497 -60.300091
v 65.671288 2.328497 -60.300091
v 72.169655 11.042309 -59.038193
v 65.495010 11.042309 -59.038193
v 65.671288 11.486403 -57.050953
v 71.993378 11.486403 -57.050953
v 71.993378 14.759232 -57.050953
v 65.671288 14.759232 -57.050953
v 65.495010 14.497659 -59.038193
v 72.169655 14.497659 -59.038193
v 71.993378 29.875153 -57.050953
v 65.671288 29.875153 -57.050953
v 65.495010 30.613922 -59.038193
v 72.169655 30.613922 -59.038193
v 70.500832 2.328488 -62.468529
v 67.163841 2.328488 -62.468529
v 67.251968 2.328497 -60.300091
v 70.412697 2.328497 -60.300091
v 67.251968 11.486403 -57.050953
v 70.412697 11.486403 -57.050953
v 67.251968 14.759232 -57.050953
v 70.412697 14.759232 -57.050953
v 67.251968 29.875153 -57.050953
v 70.412697 29.875153 -57.050953
v 67.251968 33.284485 -57.050953
v 70.412697 33.284485 -57.050953
v 67.163841 34.213387 -59.038193
v 70.500832 34.213387 -59.038193
v 67.163841 30.613922 -59.038193
v 70.500832 30.613922 -59.038193
v 67.163841 14.497659 -59.038193
v 70.500832 14.497659 -59.038193
v 67.163841 11.042309 -59.038193
v 70.500832 11.042309 -59.038193
v 100.926247 15.080412 -62.547760
v 101.828575 15.982740 -62.547760
v 101.828575 15.924326 -66.085579
v 100.984657 15.080412 -66.085579
v 35.550102 15.982740 -62.547760
v 36.452431 15.080412 -62.547760
v 36.394020 15.080412 -66.085579
v 35.550102 15.924326 -66.085579
v 100.984657 52.172047 -66.085579
v 101.828575 51.328140 -66.085579
v 101.828575 51.344292 -62.547760
v 101.000816 52.172047 -62.547760
v 35.550102 51.328140 -66.085579
v 36.394020 52.172047 -66.085579
v 36.377857 52.172047 -62.547760
v 35.550102 51.344292 -62.547760
v 87.075211 36.348896 -58.695396
v 86.265160 37.199005 -58.695396
v 51.114727 37.199005 -58.695396
v 50.303478 36.350754 -58.695396
v 50.303478 18.761154 -58.695396
v 51.982555 17.987160 -58.853676
v 85.373161 17.995209 -58.845882
v 87.075211 18.764957 -58.695396
v 98.332008 17.881130 -66.085579
v 97.488091 17.037216 -66.085579
v 39.890591 17.037216 -66.085579
v 39.046669 17.881130 -66.085579
v 39.046669 49.371338 -66.085579
v 39.890591 50.215248 -66.085579
v 97.488091 50.215248 -66.085579
v 98.332008 49.371338 -66.085579
v 98.332008 17.864950 -64.478912
v 97.504265 17.037216 -64.478912
v 39.046669 17.864950 -64.478912
v 39.874405 17.037216 -64.478912
v 39.874405 50.215248 -64.478912
v 39.046669 49.387512 -64.478912
v 98.332008 49.387512 -64.478912
v 97.504265 50.215248 -64.478912
v 71.227448 27.956362 -60.266037
v 66.151222 27.956362 -60.266037
v 71.227448 27.956362 -56.546593
v 66.151222 27.956362 -56.546593
v 71.227448 18.451975 -56.546593
v 66.151222 18.451975 -56.546593
v 71.227448 18.451975 -60.266037
v 66.151222 18.451975 -60.266037
v 83.766884 2.325520 -72.605553
v 53.611790 2.325520 -72.605553
v 83.766884 2.325520 -57.540592
v 53.611790 2.325520 -57.540592
v 83.766884 0.000000 -57.540592
v 53.611790 0.000000 -57.540592
v 83.766884 0.000000 -72.605553
v 53.611790 0.000000 -72.605553
vt 0.779885 0.980291
vt 0.780122 0.980350
vt 0.778937 0.984907
vt 0.778599 0.980144
vt 0.778126 0.984657
vt 0.780160 0.981526
vt 0.778358 0.981553
vt 0.778277 0.982125
vt 0.780114 0.982336
vt 0.778033 0.984135
vt 0.779302 0.984455
vt 0.779146 0.980135
vt 0.779592 0.981433
vt 0.779839 0.982230
vt 0.778603 0.984583
vt 0.778395 0.984533
vt 0.779479 0.982322
vt 0.780509 0.983346
vt 0.779442 0.988561
vt 0.779681 0.980229
vt 0.779885 0.981355
vt 0.779785 0.983413
vt 0.780303 0.988629
vt 0.778608 0.984165
vt 0.779451 0.982207
vt 0.779609 0.982221
vt 0.778987 0.984432
vt 0.778522 0.984497
vt 0.778417 0.984082
vt 0.778781 0.984338
vt 0.778637 0.984746
vt 0.776881 0.988251
vt 0.777785 0.983113
vt 0.777726 0.988371
vt 0.778898 0.982308
vt 0.778464 0.983306
vt 0.778890 0.984225
vt 0.778857 0.982350
vt 0.778723 0.984593
vt 0.778706 0.984204
vt 0.778442 0.984669
vt 0.778640 0.984515
vt 0.778295 0.984252
vt 0.778538 0.984553
vt 0.778546 0.982128
vt 0.778497 0.984268
vt 0.778675 0.981443
vt 0.778759 0.982186
vt 0.778903 0.980094
vt 0.778964 0.981461
vt 0.884259 0.985439
vt 0.888579 0.986689
vt 0.888513 0.986729
vt 0.884296 0.985512
vt 0.883051 0.989132
vt 0.882987 0.989058
vt 0.884225 0.988910
vt 0.884345 0.988998
vt 0.884032 0.982097
vt 0.884061 0.982125
vt 0.884070 0.982316
vt 0.883935 0.982367
vt 0.884006 0.982328
vt 0.884267 0.982401
vt 0.884134 0.982504
vt 0.888117 0.989818
vt 0.888045 0.989875
vt 0.886932 0.989536
vt 0.887062 0.989488
vt 0.887423 0.981797
vt 0.887470 0.981721
vt 0.887543 0.981993
vt 0.887451 0.981993
vt 0.887486 0.982184
vt 0.887276 0.982121
vt 0.883947 0.985698
vt 0.883855 0.985656
vt 0.884129 0.985462
vt 0.884250 0.985622
vt 0.883871 0.985963
vt 0.883788 0.985995
vt 0.884631 0.987463
vt 0.884552 0.987511
vt 0.889347 0.986795
vt 0.889276 0.986991
vt 0.888506 0.986842
vt 0.888763 0.986645
vt 0.888724 0.987062
vt 0.888829 0.987110
vt 0.888699 0.987396
vt 0.888649 0.987325
vt 0.887289 0.988229
vt 0.887249 0.988153
vt 0.884290 0.982477
vt 0.884259 0.982520
vt 0.887298 0.982250
vt 0.887262 0.982209
vt 0.890323 0.980815
vt 0.890411 0.981100
vt 0.881258 0.980861
vt 0.881136 0.981142
vt 0.888475 0.987325
vt 0.888072 0.990152
vt 0.882949 0.988889
vt 0.883603 0.985999
vt 0.887906 0.981766
vt 0.883802 0.985651
vt 0.883808 0.982313
vt 0.967336 0.979372
vt 0.970189 0.980273
vt 0.970038 0.982117
vt 0.967336 0.982443
vt 0.970131 0.986782
vt 0.967946 0.987010
vt 0.970137 0.988193
vt 0.968244 0.988408
vt 0.974276 0.980376
vt 0.974293 0.981951
vt 0.961205 0.979715
vt 0.961205 0.982100
vt 0.884259 0.979372
vt 0.883483 0.981585
vt 0.883470 0.981594
vt 0.883592 0.981402
vt 0.883469 0.981608
vt 0.883310 0.981685
vt 0.883462 0.981650
vt 0.882723 0.983979
vt 0.883464 0.981596
vt 0.883961 0.981593
vt 0.225041 0.615346
vt 0.224936 0.619246
vt 0.223145 0.619181
vt 0.223250 0.615281
vn -0.995759 -0.026642 0.088055
vn -0.995912 -0.019777 0.088139
vn -0.996089 0.000000 0.088357
vn -0.996089 0.000000 0.088357
vn 0.995912 -0.019777 0.088139
vn 0.995759 -0.026642 0.088055
vn 0.996089 0.000000 0.088357
vn 0.996089 0.000000 0.088357
vn -0.995580 -0.032880 0.087976
vn -0.995580 -0.032880 0.087976
vn 0.995580 -0.032880 0.087976
vn 0.995580 -0.032880 0.087976
vn -0.996089 0.000000 0.088357
vn -0.996089 0.000000 0.088358
vn 0.996089 0.000000 0.088358
vn 0.996089 0.000000 0.088357
vn -0.996089 0.000000 0.088358
vn -0.996089 0.000000 0.088358
vn 0.996089 0.000000 0.088358
vn 0.996089 0.000000 0.088358
vn 0.000000 0.366304 -0.930495
vn 0.000000 0.366304 -0.930495
vn 0.000000 0.271314 -0.962491
vn 0.000000 0.271314 -0.962491
vn 0.000000 -0.334370 0.942442
vn 0.000000 -0.334369 0.942442
vn 0.000000 -0.252884 0.967497
vn 0.000000 -0.252884 0.967497
vn 0.000000 0.000000 1.000000
vn 0.000000 0.000000 1.000000
vn 0.000000 0.000000 1.000000
vn 0.000000 0.000000 1.000000
vn 0.000000 0.000000 1.000000
vn 0.000000 0.000000 1.000000
vn 0.000000 0.905917 0.423455
vn 0.000000 0.905917 0.423455
vn 0.000000 0.905917 0.423455
vn 0.000000 0.905917 0.423455
vn 0.000000 0.000000 -1.000000
vn 0.000000 0.000000 -1.000000
vn 0.000000 0.000000 -1.000000
vn 0.000000 0.000000 -1.000000
vn 0.000000 0.000000 -1.000000
vn 0.000000 0.000000 -1.000000
vn 0.000000 0.271314 -0.962491
vn 0.000000 0.000000 -1.000000
vn 0.000000 0.905917 0.423456
vn 0.000000 0.905917 0.423456
vn 0.000000 0.000000 1.000000
vn 0.000000 -0.252884 0.967497
vn 0.000000 0.366305 -0.930495
vn 0.000000 -0.334370 0.942442
vn 0.000000 0.000000 1.000000
vn 0.000000 0.000000 -1.000000
vn 0.000000 0.000000 1.000000
vn 0.000000 0.000000 -1.000000
vn 0.000000 -0.252884 0.967497
vn 0.000000 -0.334369 0.942442
vn 0.000000 0.000000 1.000000
vn 0.000000 0.000000 1.000000
vn 0.000000 0.000000 1.000000
vn 0.000000 0.905916 0.423457
vn 0.000000 0.905916 0.423457
vn 0.000000 0.000000 -1.000000
vn 0.000000 0.000000 -1.000000
vn 0.000000 0.000000 -1.000000
vn 0.000000 0.271314 -0.962491
vn 0.000000 0.366304 -0.930495
vn 0.000000 0.991448 -0.130500
vn 0.000000 0.991448 -0.130500
vn 0.000000 0.991448 -0.130500
vn 0.000000 0.991448 -0.130500
vn -0.999018 0.000000 -0.044307
vn -0.999018 0.000000 -0.044307
vn -0.999018 0.000000 -0.044307
vn -0.999018 0.000000 -0.044307
vn 0.000000 -0.937325 -0.348455
vn 0.000000 -0.937325 -0.348455
vn 0.000000 -0.937325 -0.348455
vn 0.000000 -0.937325 -0.348455
vn 0.999018 0.000000 -0.044303
vn 0.999018 0.000000 -0.044303
vn 0.999018 0.000000 -0.044303
vn 0.999018 0.000000 -0.044303
vn 0.000000 0.000000 -1.000000
vn 0.000000 0.000000 -1.000000
vn 0.000000 0.000000 -1.000000
vn 0.000000 0.000000 -1.000000
vn 0.166214 -0.342124 0.924837
vn 0.250487 -0.010414 0.968064
vn 0.248504 -0.019859 0.968427
vn 0.166214 -0.342124 0.924837
vn 0.707057 -0.707060 0.011674
vn 0.707057 -0.707060 0.011674
vn 0.707057 -0.707060 0.011674
vn 0.707057 -0.707060 0.011674
vn 0.000000 0.000000 -1.000000
vn 0.000000 0.000000 -1.000000
vn 0.000000 0.000000 -1.000000
vn 0.000000 0.000000 -1.000000
vn -0.250485 -0.010426 0.968064
vn -0.166014 -0.342947 0.924568
vn -0.166014 -0.342947 0.924568
vn -0.248513 -0.019827 0.968426
vn -0.707057 -0.707060 0.011674
vn -0.707057 -0.707060 0.011674
vn -0.707057 -0.707060 0.011674
vn -0.707057 -0.707060 0.011674
vn 0.000000 0.000000 -1.000000
vn 0.000001 0.000000 -1.000000
vn 0.000001 0.000000 -1.000000
vn 0.000000 0.000000 -1.000000
vn 0.000000 0.000000 -1.000000
vn 0.000000 0.000000 -1.000000
vn 0.000000 0.000000 -1.000000
vn 0.000000 0.000000 -1.000000
vn 0.707098 0.707108 -0.003230
vn 0.707098 0.707108 -0.003230
vn 0.707098 0.707108 -0.003230
vn 0.707098 0.707108 -0.003230
vn 0.239430 0.013858 0.970815
vn 0.007621 0.242114 0.970218
vn 0.002817 0.246566 0.969122
vn 0.247960 0.004926 0.968758
vn 0.000001 0.000000 -1.000000
vn 0.000000 0.000000 -1.000000
vn 0.000000 0.000000 -1.000000
vn 0.000001 0.000000 -1.000000
vn -0.707099 0.707107 -0.003230
vn -0.707099 0.707107 -0.003230
vn -0.707099 0.707107 -0.003230
vn -0.707099 0.707107 -0.003230
vn -0.007613 0.242122 0.970216
vn -0.239423 0.013866 0.970816
vn -0.247951 0.004935 0.968760
vn -0.002811 0.246572 0.969121
vn -0.707083 0.707095 0.007119
vn -0.707083 0.707095 0.007119
vn -0.707083 0.707095 0.007119
vn -0.707083 0.707095 0.007119
vn 0.707085 0.707093 0.007122
vn 0.707085 0.707093 0.007122
vn 0.707085 0.707093 0.007122
vn 0.707085 0.707093 0.007122
vn 0.707085 -0.707093 0.007120
vn 0.707085 -0.707093 0.007120
vn 0.707085 -0.707093 0.007120
vn 0.707085 -0.707093 0.007120
vn -0.707083 -0.707095 0.007118
vn -0.707083 -0.707095 0.007118
vn -0.707083 -0.707095 0.007118
vn -0.707083 -0.707095 0.007118
vn 0.000000 -1.000000 -0.000000
vn 0.000000 -1.000000 -0.000000
vn 0.000000 -1.000000 -0.000000
vn 0.000000 -1.000000 -0.000000
vn 0.000000 1.000000 0.000001
vn 0.000000 1.000000 0.000001
vn 0.000000 1.000000 0.000001
vn 0.000000 1.000000 0.000001
vn -1.000000 0.000000 0.000000
vn -1.000000 0.000000 0.000000
vn -1.000000 0.000000 0.000000
vn -1.000000 0.000000 0.000000
vn 1.000000 0.000000 0.000000
vn 1.000000 0.000000 0.000000
vn 1.000000 0.000000 0.000000
vn 1.000000 0.000000 0.000000
vn 0.000015 -0.785779 0.618507
vn 0.000015 -0.785779 0.618507
vn 0.000015 -0.785779 0.618507
vn 0.000015 -0.785779 0.618507
vn 0.000000 1.000000 0.000001
vn 0.000000 1.000000 0.000001
vn 0.000000 1.000000 0.000001
vn 0.000000 1.000000 0.000001
vn 1.000000 0.000000 0.000000
vn 1.000000 0.000000 0.000000
vn 1.000000 0.000000 0.000000
vn 1.000000 0.000000 0.000000
vn 0.000000 -1.000000 -0.000000
vn 0.000000 -1.000000 -0.000000
vn 0.000000 -1.000000 -0.000000
vn 0.000000 -1.000000 -0.000000
vn -1.000000 0.000000 0.000000
vn -1.000000 0.000000 0.000000
vn -1.000000 0.000000 0.000000
vn -1.000000 0.000000 0.000000
vn 0.000000 0.000000 -1.000000
vn 0.000000 0.000000 -1.000000
vn 0.000000 0.000000 -1.000000
vn 0.000000 0.000000 -1.000000
vn -0.000113 -0.008037 0.999968
vn -0.000113 -0.008037 0.999968
vn -0.000113 -0.008037 0.999968
vn -0.000113 -0.008037 0.999968
vn 0.063515 -0.002795 0.997977
vn 0.063515 -0.002795 0.997977
vn 0.063515 -0.002795 0.997977
vn 0.063515 -0.002795 0.997977
vn -0.059884 -0.002631 0.998202
vn -0.059884 -0.002631 0.998202
vn -0.059884 -0.002631 0.998202
vn -0.059884 -0.002631 0.998202
vn 0.000000 1.000000 0.000000
vn 0.000000 1.000000 0.000000
vn 0.000000 1.000000 0.000000
vn 0.000000 1.000000 0.000000
vn 0.000000 0.000000 1.000000
vn 0.000000 0.000000 1.000000
vn 0.000000 0.000000 1.000000
vn 0.000000 0.000000 1.000000
vn 0.000000 -1.000000 0.000000
vn 0.000000 -1.000000 0.000000
vn 0.000000 -1.000000 0.000000
vn 0.000000 -1.000000 0.000000
vn -1.000000 0.000000 0.000000
vn -1.000000 0.000000 0.000000
vn -1.000000 0.000000 0.000000
vn -1.000000 0.000000 0.000000
vn 1.000000 0.000000 0.000000
vn 1.000000 0.000000 0.000000
vn 1.000000 0.000000 0.000000
vn 1.000000 0.000000 0.000000
vn 0.000000 1.000000 0.000000
vn 0.000000 1.000000 0.000000
vn 0.000000 1.000000 0.000000
vn 0.000000 1.000000 0.000000
vn 0.000000 0.000000 1.000000
vn 0.000000 0.000000 1.000000
vn 0.000000 0.000000 1.000000
vn 0.000000 0.000000 1.000000
vn 0.000000 -1.000000 0.000000
vn 0.000000 -1.000000 0.000000
vn 0.000000 -1.000000 0.000000
vn 0.000000 -1.000000 0.000000
vn -1.000000 0.000000 0.000000
vn -1.000000 0.000000 0.000000
vn -1.000000 0.000000 0.000000
vn -1.000000 0.000000 0.000000
vn 1.000000 0.000000 0.000000
vn 1.000000 0.000000 0.000000
vn 1.000000 0.000000 0.000000
vn 1.000000 0.000000 0.000000
vn 0.000000 0.000000 -1.000000
vn 0.000000 0.000000 -1.000000
vn 0.000000 0.000000 -1.000000
vn 0.000000 0.000000 -1.000000
s 1
g Monitor
usemtl initialShadingGroup
f 10/21/1 11/6/2 14/9/3 15/14/4
s 2
f 12/7/5 9/47/6 16/45/7 13/8/8
s 1
f 2/1/9 8/2/10 11/6/2 10/21/1
s 2
f 7/4/11 1/49/12 9/47/6 12/7/5
s 1
f 15/14/4 14/9/3 18/11/13 19/27/14
s 2
f 13/8/8 16/45/7 20/43/15 17/10/16
s 1
f 19/27/14 18/11/13 6/3/17 4/31/18
s 2
f 17/10/16 20/43/15 3/41/19 5/5/20
s 3
f 21/12/21 22/20/22 39/13/23 40/50/24
s 4
f 23/19/25 24/34/26 26/36/27 25/22/28
f 25/22/28 26/36/27 28/38/29 27/17/30
f 29/24/31 30/40/32 32/42/33 31/28/34
s 6
f 31/28/35 32/42/36 34/44/37 33/15/38
s 3
f 33/15/39 34/44/40 36/46/41 35/30/42
f 37/26/43 38/48/44 40/50/24 39/13/23
f 37/26/43 39/13/23 10/21/45 15/14/46
s 6
f 31/28/35 33/15/38 4/31/47 6/16/48
s 4
f 25/22/28 27/17/30 14/25/49 11/18/50
s 3
f 39/13/23 22/20/22 2/1/51 10/21/45
s 4
f 23/19/25 25/22/28 11/18/50 8/23/52
f 27/17/30 29/24/31 18/29/53 14/25/49
s 3
f 35/30/42 37/26/43 15/14/46 19/27/54
s 4
f 29/24/31 31/28/34 6/16/55 18/29/53
s 3
f 33/15/39 35/30/42 19/27/54 4/31/56
s 4
f 12/33/57 26/36/27 24/34/26 7/32/58
f 13/35/59 28/38/29 26/36/27 12/33/57
f 17/37/60 30/40/32 28/38/29 13/35/59
f 5/39/61 32/42/33 30/40/32 17/37/60
s 6
f 3/41/62 34/44/37 32/42/36 5/39/63
s 3
f 20/43/64 36/46/41 34/44/40 3/41/65
f 16/45/66 38/48/44 36/46/41 20/43/64
f 9/47/67 40/50/24 38/48/44 16/45/66
f 1/49/68 21/12/21 40/50/24 9/47/67
s off
f 27/17/69 28/38/70 38/48/71 37/26/72
f 28/38/73 30/40/74 36/46/75 38/48/76
f 30/40/77 29/24/78 35/30/79 36/46/80
f 29/24/81 27/17/82 37/26/83 35/30/84
s 8
f 79/51/85 78/52/86 77/53/87 80/54/88
s 9
f 41/55/89 42/56/90 64/57/91 63/58/92
s off
f 42/59/93 41/60/94 44/61/95 43/62/96
s 10
f 43/63/97 44/61/98 66/64/99 65/65/100
s 9
f 45/66/101 46/67/102 62/68/103 61/69/104
s off
f 46/70/105 45/71/106 48/72/107 47/73/108
s 10
f 47/73/109 48/72/110 68/74/111 67/75/112
f 49/76/113 50/77/114 72/78/115 71/79/116
s off
f 50/77/117 49/76/118 52/80/119 51/81/120
s 9
f 51/81/121 52/80/122 58/82/123 57/83/124
s 10
f 53/84/125 54/85/126 70/86/127 69/87/128
s off
f 54/88/129 53/89/130 56/90/131 55/91/132
s 9
f 55/91/133 56/90/134 60/92/135 59/93/136
s off
f 65/65/137 66/64/138 74/94/139 73/95/140
f 67/75/141 68/74/142 75/96/143 76/97/144
f 69/87/145 70/86/146 77/53/147 78/52/148
f 71/79/149 72/78/150 79/51/151 80/54/152
f 41/60/153 46/70/154 47/73/155 44/61/156
f 49/76/157 54/88/158 55/91/159 52/80/160
f 45/71/161 56/98/162 53/99/163 48/72/164
f 51/100/165 42/59/166 43/62/167 50/101/168
s 9
f 52/80/122 55/91/133 59/93/136 58/82/123
f 56/102/134 45/66/101 61/69/104 60/92/135
s off
f 46/103/169 41/55/170 63/58/171 62/68/172
s 9
f 42/104/90 51/105/121 57/83/124 64/57/91
s 10
f 44/61/98 47/73/109 67/75/112 66/64/99
f 48/106/110 53/84/125 69/87/128 68/74/111
f 54/88/126 49/76/113 71/79/116 70/86/127
f 50/107/114 43/108/97 65/65/100 72/78/115
s off
f 66/64/173 67/75/174 76/97/175 74/94/176
f 68/74/177 69/87/178 78/52/179 75/96/180
f 70/86/181 71/79/182 80/54/183 77/53/184
f 72/78/185 65/65/186 73/95/187 79/51/188
s 8
f 73/95/189 74/94/190 76/97/191 75/96/192
f 73/131/189 75/132/192 78/133/86 79/134/85
s off
f 58/82/193 59/93/194 62/68/195 63/58/196
f 60/92/197 61/69/198 62/68/199 59/93/200
f 64/57/201 57/83/202 58/82/203 63/58/204
f 81/109/205 82/110/206 84/111/207 83/112/208
f 83/112/209 84/111/210 86/113/211 85/114/212
f 85/114/213 86/113/214 88/115/215 87/116/216
f 82/110/217 88/117/218 86/118/219 84/111/220
f 87/119/221 81/109/222 83/112/223 85/120/224
f 89/121/225 90/122/226 92/123/227 91/124/228
f 91/124/229 92/123/230 94/125/231 93/126/232
f 93/126/233 94/125/234 96/127/235 95/128/236
f 90/122/237 96/127/238 94/129/239 92/123/240
f 95/128/241 89/121/242 91/124/243 93/130/244
f 90/122/245 89/121/246 95/128/247 96/127/248
