# This file uses centimeters as units for non-parametric coordinates.

v 0.000000 0.000000 -2.500000
v 30.000000 0.000000 -2.500000
v 0.000000 0.000000 2.500000
v 30.000000 0.000000 2.500000
v 0.000000 29.250092 2.500000
v 0.000000 30.000000 1.750075
v 30.000000 30.000000 1.750075
v 30.000000 29.250092 2.500000
v 0.000000 30.000000 -1.750075
v 0.000000 29.250092 -2.500000
v 30.000000 29.250092 -2.500000
v 30.000000 30.000000 -1.750075
vt 0.490788 0.114852
vt 0.491666 0.114852
vt 0.491666 0.115708
vt 0.490788 0.115708
vt 0.490788 0.115861
vt 0.491666 0.115861
vt 0.491666 0.116476
vt 0.490788 0.116476
vt 0.490788 0.116630
vt 0.491666 0.116630
vt 0.491666 0.117486
vt 0.490788 0.117486
vn 0.000000 0.000000 1.000000
vn 0.000000 0.000000 1.000000
vn 0.000000 0.000000 1.000000
vn 0.000000 0.000000 1.000000
vn 0.000000 1.000000 0.000000
vn 0.000000 1.000000 0.000000
vn 0.000000 1.000000 0.000000
vn 0.000000 1.000000 0.000000
vn 0.000000 0.000000 -1.000000
vn 0.000000 0.000000 -1.000000
vn 0.000000 0.000000 -1.000000
vn 0.000000 0.000000 -1.000000
vn 0.000000 0.707107 0.707107
vn 0.000000 0.707107 0.707107
vn 0.000000 0.707107 0.707107
vn 0.000000 0.707107 0.707107
vn 0.000000 0.707107 -0.707107
vn 0.000000 0.707107 -0.707107
vn 0.000000 0.707107 -0.707107
vn 0.000000 0.707107 -0.707107
s off
f 3/1/1 4/2/2 8/3/3 5/4/4
f 6/5/5 7/6/6 12/7/7 9/8/8
f 10/9/9 11/10/10 2/11/11 1/12/12
f 6/5/13 5/4/14 8/3/15 7/6/16
f 10/9/17 9/8/18 12/7/19 11/10/20
