# This file uses centimeters as units for non-parametric coordinates.

mtllib SM_Pizarron.mtl
g default
v -45.669865 52.815758 0.081439
v 46.349064 52.815758 0.081439
v -45.669865 52.815758 3.157211
v 46.349064 52.815758 3.157211
v -45.669865 104.810196 3.157211
v 46.349064 104.810196 3.157211
v -45.669865 104.810196 0.081439
v 46.349064 104.810196 0.081439
v 54.526054 0.000000 28.302837
v 54.526054 0.000000 -28.302841
v 54.526054 3.075775 28.302837
v 54.526054 3.075775 -28.302841
v 48.381489 3.075729 28.302837
v 48.381489 3.075729 -28.302841
v 48.381489 -0.000046 28.302837
v 48.381489 -0.000046 -28.302841
v -51.713581 44.664635 0.081483
v 52.392780 44.664635 0.081483
v -51.713581 44.664635 3.157256
v 52.392780 44.664635 3.157256
v -51.713581 50.809200 3.157211
v 52.392780 50.809200 3.157211
v -51.713581 50.809200 0.081439
v 52.392780 50.809200 0.081439
v 50.983776 58.273849 3.323772
v 43.804268 58.241356 3.323772
v 42.585663 61.474297 3.323772
v 43.804268 64.707237 3.323772
v 50.983776 64.674744 3.323772
v 50.983776 58.273849 -0.211893
v 43.804268 58.241356 -0.211893
v 42.585663 61.474297 -0.211893
v 43.804268 64.707237 -0.211893
v 50.983776 64.674744 -0.211893
v 50.983776 61.474297 3.323772
v 50.983776 61.474297 -0.211893
v 50.983776 91.643242 3.323772
v 43.804268 91.610748 3.323772
v 42.585663 94.843689 3.323772
v 43.804268 98.076630 3.323772
v 50.983776 98.044136 3.323772
v 50.983776 91.643242 -0.211893
v 43.804268 91.610748 -0.211893
v 42.585663 94.843689 -0.211893
v 43.804268 98.076630 -0.211893
v 50.983776 98.044136 -0.211893
v 50.983776 94.843689 3.323772
v 50.983776 94.843689 -0.211893
v -51.713581 11.380997 0.081483
v 52.392780 11.380997 0.081483
v -51.713581 11.380997 3.157256
v 52.392780 11.380997 3.157256
v -51.713581 17.525558 3.157211
v 52.392780 17.525558 3.157211
v -51.713581 17.525558 0.081439
v 52.392780 17.525558 0.081439
v -52.652035 1.966888 -1.452913
v -52.652035 108.450653 -1.452934
v -49.576260 1.966888 -1.452913
v -49.576260 108.450653 -1.452934
v -49.576305 1.966888 4.691650
v -49.576305 108.450653 4.691629
v -52.652077 1.966888 4.691650
v -52.652077 108.450653 4.691629
v 49.915901 1.966888 -1.452913
v 49.915901 108.450653 -1.452934
v 52.991676 1.966888 -1.452913
v 52.991676 108.450653 -1.452934
v 52.991631 1.966888 4.691650
v 52.991631 108.450653 4.691629
v 49.915859 1.966888 4.691650
v 49.915859 108.450653 4.691629
v -49.645798 64.674744 3.323772
v -42.466290 64.707237 3.323772
v -41.247681 61.474297 3.323772
v -42.466290 58.241356 3.323772
v -49.645798 58.273849 3.323772
v -49.645798 64.674744 -0.211893
v -42.466290 64.707237 -0.211893
v -41.247681 61.474297 -0.211893
v -42.466290 58.241356 -0.211893
v -49.645798 58.273849 -0.211893
v -49.645798 61.474297 3.323772
v -49.645798 61.474297 -0.211893
v -49.645798 98.044136 3.323772
v -42.466290 98.076630 3.323772
v -41.247681 94.843689 3.323772
v -42.466290 91.610748 3.323772
v -49.645798 91.643242 3.323772
v -49.645798 98.044136 -0.211893
v -42.466290 98.076630 -0.211893
v -41.247681 94.843689 -0.211893
v -42.466290 91.610748 -0.211893
v -49.645798 91.643242 -0.211893
v -49.645798 94.843689 3.323772
v -49.645798 94.843689 -0.211893
v -48.381516 0.000000 28.302837
v -48.381516 0.000000 -28.302841
v -48.381516 3.075775 28.302837
v -48.381516 3.075775 -28.302841
v -54.526077 3.075729 28.302837
v -54.526077 3.075729 -28.302841
v -54.526077 -0.000046 28.302837
v -54.526077 -0.000046 -28.302841
vt 0.488751 0.979832
vt 0.490276 0.979832
vt 0.488751 0.981357
vt 0.490276 0.981357
vt 0.488751 0.982882
vt 0.490276 0.982882
vt 0.488751 0.984406
vt 0.490276 0.984406
vt 0.488751 0.985931
vt 0.490276 0.985931
vt 0.491800 0.979832
vt 0.491800 0.981357
vt 0.487226 0.979832
vt 0.487226 0.981357
vt 0.579359 0.980142
vt 0.581271 0.980142
vt 0.581271 0.982055
vt 0.579359 0.982055
vt 0.581271 0.983967
vt 0.579359 0.983967
vt 0.581271 0.985880
vt 0.579359 0.985880
vt 0.581271 0.987792
vt 0.579359 0.987792
vt 0.583183 0.980142
vt 0.583183 0.982055
vt 0.577446 0.980142
vt 0.577446 0.982055
vt 0.579359 0.980142
vt 0.581271 0.980142
vt 0.581271 0.982055
vt 0.579359 0.982055
vt 0.581271 0.983967
vt 0.579359 0.983967
vt 0.581271 0.985880
vt 0.579359 0.985880
vt 0.581271 0.987792
vt 0.579359 0.987792
vt 0.583183 0.980142
vt 0.583183 0.982055
vt 0.577446 0.980142
vt 0.577446 0.982055
vt 0.654431 0.986609
vt 0.654259 0.986609
vt 0.654259 0.984543
vt 0.654431 0.984543
vt 0.654087 0.986609
vt 0.654087 0.984543
vt 0.653915 0.986609
vt 0.653915 0.984543
vt 0.653744 0.986609
vt 0.653744 0.984543
vt 0.654523 0.988076
vt 0.653915 0.988327
vt 0.653915 0.987503
vt 0.654774 0.987468
vt 0.654523 0.986861
vt 0.653915 0.986609
vt 0.653915 0.983723
vt 0.653915 0.982830
vt 0.654523 0.983082
vt 0.654774 0.983689
vt 0.654523 0.984296
vt 0.653915 0.984548
vt 0.654431 0.986609
vt 0.654259 0.986609
vt 0.654259 0.984543
vt 0.654431 0.984543
vt 0.654087 0.986609
vt 0.654087 0.984543
vt 0.653915 0.986609
vt 0.653915 0.984543
vt 0.653744 0.986609
vt 0.653744 0.984543
vt 0.654523 0.988076
vt 0.653915 0.988327
vt 0.653915 0.987503
vt 0.654774 0.987468
vt 0.654523 0.986861
vt 0.653915 0.986609
vt 0.653915 0.983723
vt 0.653915 0.982830
vt 0.654523 0.983082
vt 0.654774 0.983689
vt 0.654523 0.984296
vt 0.653915 0.984548
vt 0.579359 0.980142
vt 0.581271 0.980142
vt 0.581271 0.982055
vt 0.579359 0.982055
vt 0.581271 0.983967
vt 0.579359 0.983967
vt 0.581271 0.985880
vt 0.579359 0.985880
vt 0.581271 0.987792
vt 0.579359 0.987792
vt 0.583183 0.980142
vt 0.583183 0.982055
vt 0.577446 0.980142
vt 0.577446 0.982055
vt 0.579359 0.980142
vt 0.581271 0.980142
vt 0.581271 0.982055
vt 0.579359 0.982055
vt 0.581271 0.983967
vt 0.579359 0.983967
vt 0.581271 0.985880
vt 0.579359 0.985880
vt 0.581271 0.987792
vt 0.579359 0.987792
vt 0.583183 0.980142
vt 0.583183 0.982055
vt 0.577446 0.980142
vt 0.577446 0.982055
vt 0.579359 0.980142
vt 0.581271 0.980142
vt 0.581271 0.982055
vt 0.579359 0.982055
vt 0.581271 0.983967
vt 0.579359 0.983967
vt 0.581271 0.985880
vt 0.579359 0.985880
vt 0.581271 0.987792
vt 0.579359 0.987792
vt 0.583183 0.980142
vt 0.583183 0.982055
vt 0.577446 0.980142
vt 0.577446 0.982055
vt 0.654431 0.986609
vt 0.654259 0.986609
vt 0.654259 0.984543
vt 0.654431 0.984543
vt 0.654087 0.986609
vt 0.654087 0.984543
vt 0.653915 0.986609
vt 0.653915 0.984543
vt 0.653744 0.986609
vt 0.653744 0.984543
vt 0.654523 0.988076
vt 0.653915 0.988327
vt 0.653915 0.987503
vt 0.654774 0.987468
vt 0.654523 0.986861
vt 0.653915 0.986609
vt 0.653915 0.983723
vt 0.653915 0.982830
vt 0.654523 0.983082
vt 0.654774 0.983689
vt 0.654523 0.984296
vt 0.653915 0.984548
vt 0.654431 0.986609
vt 0.654259 0.986609
vt 0.654259 0.984543
vt 0.654431 0.984543
vt 0.654087 0.986609
vt 0.654087 0.984543
vt 0.653915 0.986609
vt 0.653915 0.984543
vt 0.653744 0.986609
vt 0.653744 0.984543
vt 0.654523 0.988076
vt 0.653915 0.988327
vt 0.653915 0.987503
vt 0.654774 0.987468
vt 0.654523 0.986861
vt 0.653915 0.986609
vt 0.653915 0.983723
vt 0.653915 0.982830
vt 0.654523 0.983082
vt 0.654774 0.983689
vt 0.654523 0.984296
vt 0.653915 0.984548
vt 0.579359 0.980142
vt 0.581271 0.980142
vt 0.581271 0.982055
vt 0.579359 0.982055
vt 0.581271 0.983967
vt 0.579359 0.983967
vt 0.581271 0.985880
vt 0.579359 0.985880
vt 0.581271 0.987792
vt 0.579359 0.987792
vt 0.583183 0.980142
vt 0.583183 0.982055
vt 0.577446 0.980142
vt 0.577446 0.982055
vn 0.000000 -1.000000 0.000000
vn 0.000000 -1.000000 0.000000
vn 0.000000 -1.000000 0.000000
vn 0.000000 -1.000000 0.000000
vn 0.000000 0.000000 1.000000
vn 0.000000 0.000000 1.000000
vn 0.000000 0.000000 1.000000
vn 0.000000 0.000000 1.000000
vn 0.000000 1.000000 0.000000
vn 0.000000 1.000000 0.000000
vn 0.000000 1.000000 0.000000
vn 0.000000 1.000000 0.000000
vn 0.000000 0.000000 -1.000000
vn 0.000000 0.000000 -1.000000
vn 0.000000 0.000000 -1.000000
vn 0.000000 0.000000 -1.000000
vn 1.000000 0.000000 0.000000
vn 1.000000 0.000000 0.000000
vn 1.000000 0.000000 0.000000
vn 1.000000 0.000000 0.000000
vn -1.000000 0.000000 0.000000
vn -1.000000 0.000000 0.000000
vn -1.000000 0.000000 0.000000
vn -1.000000 0.000000 0.000000
vn 1.000000 0.000000 0.000000
vn 1.000000 0.000000 0.000000
vn 1.000000 0.000000 0.000000
vn 1.000000 0.000000 0.000000
vn -0.000007 1.000000 0.000000
vn -0.000007 1.000000 0.000000
vn -0.000007 1.000000 0.000000
vn -0.000007 1.000000 0.000000
vn -1.000000 0.000000 0.000000
vn -1.000000 0.000000 0.000000
vn -1.000000 0.000000 0.000000
vn -1.000000 0.000000 0.000000
vn 0.000007 -1.000000 0.000000
vn 0.000007 -1.000000 0.000000
vn 0.000007 -1.000000 0.000000
vn 0.000007 -1.000000 0.000000
vn 0.000000 0.000000 -1.000000
vn 0.000000 0.000000 -1.000000
vn 0.000000 0.000000 -1.000000
vn 0.000000 0.000000 -1.000000
vn 0.000000 0.000000 1.000000
vn 0.000000 0.000000 1.000000
vn 0.000000 0.000000 1.000000
vn 0.000000 0.000000 1.000000
vn 0.000000 -1.000000 0.000000
vn 0.000000 -1.000000 0.000000
vn 0.000000 -1.000000 0.000000
vn 0.000000 -1.000000 0.000000
vn 0.000000 0.000007 1.000000
vn 0.000000 0.000007 1.000000
vn 0.000000 0.000007 1.000000
vn 0.000000 0.000007 1.000000
vn 0.000000 1.000000 0.000000
vn 0.000000 1.000000 0.000000
vn 0.000000 1.000000 0.000000
vn 0.000000 1.000000 0.000000
vn 0.000000 -0.000007 -1.000000
vn 0.000000 -0.000007 -1.000000
vn 0.000000 -0.000007 -1.000000
vn 0.000000 -0.000007 -1.000000
vn 1.000000 0.000000 0.000000
vn 1.000000 0.000000 0.000000
vn 1.000000 0.000000 0.000000
vn 1.000000 0.000000 0.000000
vn -1.000000 0.000000 0.000000
vn -1.000000 0.000000 0.000000
vn -1.000000 0.000000 0.000000
vn -1.000000 0.000000 0.000000
vn 0.004526 -0.999990 0.000000
vn 0.004526 -0.999990 0.000000
vn 0.004526 -0.999990 0.000000
vn 0.004526 -0.999990 0.000000
vn -0.935733 -0.352709 0.000000
vn -0.935733 -0.352709 0.000000
vn -0.935733 -0.352709 0.000000
vn -0.935733 -0.352709 0.000000
vn -0.935733 0.352709 0.000000
vn -0.935733 0.352709 0.000000
vn -0.935733 0.352709 0.000000
vn -0.935733 0.352709 0.000000
vn 0.004526 0.999990 0.000000
vn 0.004526 0.999990 0.000000
vn 0.004526 0.999990 0.000000
vn 0.004526 0.999990 0.000000
vn 0.000000 0.000000 1.000000
vn 0.000000 0.000000 1.000000
vn 0.000000 0.000000 1.000000
vn 0.000000 0.000000 1.000000
vn 0.000000 0.000000 1.000000
vn 0.000000 0.000000 1.000000
vn 0.000000 0.000000 -1.000000
vn 0.000000 0.000000 -1.000000
vn 0.000000 0.000000 -1.000000
vn 0.000000 0.000000 -1.000000
vn 0.000000 0.000000 -1.000000
vn 0.000000 0.000000 -1.000000
vn 0.004526 -0.999990 0.000000
vn 0.004526 -0.999990 0.000000
vn 0.004526 -0.999990 0.000000
vn 0.004526 -0.999990 0.000000
vn -0.935733 -0.352709 0.000000
vn -0.935733 -0.352709 0.000000
vn -0.935733 -0.352709 0.000000
vn -0.935733 -0.352709 0.000000
vn -0.935733 0.352709 0.000000
vn -0.935733 0.352709 0.000000
vn -0.935733 0.352709 0.000000
vn -0.935733 0.352709 0.000000
vn 0.004526 0.999990 0.000000
vn 0.004526 0.999990 0.000000
vn 0.004526 0.999990 0.000000
vn 0.004526 0.999990 0.000000
vn 0.000000 0.000000 1.000000
vn 0.000000 0.000000 1.000000
vn 0.000000 0.000000 1.000000
vn 0.000000 0.000000 1.000000
vn 0.000000 0.000000 1.000000
vn 0.000000 0.000000 1.000000
vn 0.000000 0.000000 -1.000000
vn 0.000000 0.000000 -1.000000
vn 0.000000 0.000000 -1.000000
vn 0.000000 0.000000 -1.000000
vn 0.000000 0.000000 -1.000000
vn 0.000000 0.000000 -1.000000
vn 0.000000 -1.000000 0.000000
vn 0.000000 -1.000000 0.000000
vn 0.000000 -1.000000 0.000000
vn 0.000000 -1.000000 0.000000
vn 0.000000 0.000007 1.000000
vn 0.000000 0.000007 1.000000
vn 0.000000 0.000007 1.000000
vn 0.000000 0.000007 1.000000
vn 0.000000 1.000000 0.000000
vn 0.000000 1.000000 0.000000
vn 0.000000 1.000000 0.000000
vn 0.000000 1.000000 0.000000
vn 0.000000 -0.000007 -1.000000
vn 0.000000 -0.000007 -1.000000
vn 0.000000 -0.000007 -1.000000
vn 0.000000 -0.000007 -1.000000
vn 1.000000 0.000000 0.000000
vn 1.000000 0.000000 0.000000
vn 1.000000 0.000000 0.000000
vn 1.000000 0.000000 0.000000
vn -1.000000 0.000000 0.000000
vn -1.000000 0.000000 0.000000
vn -1.000000 0.000000 0.000000
vn -1.000000 0.000000 0.000000
vn 0.000000 -0.000000 -1.000000
vn 0.000000 -0.000000 -1.000000
vn 0.000000 -0.000000 -1.000000
vn 0.000000 -0.000000 -1.000000
vn 1.000000 0.000000 0.000007
vn 1.000000 0.000000 0.000007
vn 1.000000 0.000000 0.000007
vn 1.000000 0.000000 0.000007
vn 0.000000 0.000000 1.000000
vn 0.000000 0.000000 1.000000
vn 0.000000 0.000000 1.000000
vn 0.000000 0.000000 1.000000
vn -1.000000 0.000000 -0.000007
vn -1.000000 0.000000 -0.000007
vn -1.000000 0.000000 -0.000007
vn -1.000000 0.000000 -0.000007
vn 0.000000 1.000000 0.000000
vn 0.000000 1.000000 0.000000
vn 0.000000 1.000000 0.000000
vn 0.000000 1.000000 0.000000
vn 0.000000 -1.000000 0.000000
vn 0.000000 -1.000000 0.000000
vn 0.000000 -1.000000 0.000000
vn 0.000000 -1.000000 0.000000
vn 0.000000 -0.000000 -1.000000
vn 0.000000 -0.000000 -1.000000
vn 0.000000 -0.000000 -1.000000
vn 0.000000 -0.000000 -1.000000
vn 1.000000 0.000000 0.000007
vn 1.000000 0.000000 0.000007
vn 1.000000 0.000000 0.000007
vn 1.000000 0.000000 0.000007
vn 0.000000 0.000000 1.000000
vn 0.000000 0.000000 1.000000
vn 0.000000 0.000000 1.000000
vn 0.000000 0.000000 1.000000
vn -1.000000 0.000000 -0.000007
vn -1.000000 0.000000 -0.000007
vn -1.000000 0.000000 -0.000007
vn -1.000000 0.000000 -0.000007
vn 0.000000 1.000000 0.000000
vn 0.000000 1.000000 0.000000
vn 0.000000 1.000000 0.000000
vn 0.000000 1.000000 0.000000
vn 0.000000 -1.000000 0.000000
vn 0.000000 -1.000000 0.000000
vn 0.000000 -1.000000 0.000000
vn 0.000000 -1.000000 0.000000
vn -0.004526 0.999990 0.000000
vn -0.004526 0.999990 0.000000
vn -0.004526 0.999990 0.000000
vn -0.004526 0.999990 0.000000
vn 0.935733 0.352710 0.000000
vn 0.935733 0.352710 0.000000
vn 0.935733 0.352710 0.000000
vn 0.935733 0.352710 0.000000
vn 0.935733 -0.352710 0.000000
vn 0.935733 -0.352710 0.000000
vn 0.935733 -0.352710 0.000000
vn 0.935733 -0.352710 0.000000
vn -0.004526 -0.999990 0.000000
vn -0.004526 -0.999990 0.000000
vn -0.004526 -0.999990 0.000000
vn -0.004526 -0.999990 0.000000
vn 0.000000 0.000000 1.000000
vn 0.000000 0.000000 1.000000
vn -0.000000 0.000000 1.000000
vn -0.000000 0.000000 1.000000
vn -0.000000 0.000000 1.000000
vn -0.000000 0.000000 1.000000
vn 0.000000 0.000000 -1.000000
vn 0.000000 0.000000 -1.000000
vn 0.000000 0.000000 -1.000000
vn 0.000000 0.000000 -1.000000
vn 0.000000 0.000000 -1.000000
vn 0.000000 0.000000 -1.000000
vn -0.004526 0.999990 0.000000
vn -0.004526 0.999990 0.000000
vn -0.004526 0.999990 0.000000
vn -0.004526 0.999990 0.000000
vn 0.935733 0.352710 0.000000
vn 0.935733 0.352710 0.000000
vn 0.935733 0.352710 0.000000
vn 0.935733 0.352710 0.000000
vn 0.935733 -0.352710 0.000000
vn 0.935733 -0.352710 0.000000
vn 0.935733 -0.352710 0.000000
vn 0.935733 -0.352710 0.000000
vn -0.004526 -0.999990 0.000000
vn -0.004526 -0.999990 0.000000
vn -0.004526 -0.999990 0.000000
vn -0.004526 -0.999990 0.000000
vn 0.000000 0.000000 1.000000
vn 0.000000 0.000000 1.000000
vn -0.000000 0.000000 1.000000
vn -0.000000 0.000000 1.000000
vn -0.000000 0.000000 1.000000
vn -0.000000 0.000000 1.000000
vn 0.000000 0.000000 -1.000000
vn 0.000000 0.000000 -1.000000
vn 0.000000 0.000000 -1.000000
vn 0.000000 0.000000 -1.000000
vn 0.000000 0.000000 -1.000000
vn 0.000000 0.000000 -1.000000
vn 1.000000 0.000000 0.000000
vn 1.000000 0.000000 0.000000
vn 1.000000 0.000000 0.000000
vn 1.000000 0.000000 0.000000
vn -0.000007 1.000000 0.000000
vn -0.000007 1.000000 0.000000
vn -0.000007 1.000000 0.000000
vn -0.000007 1.000000 0.000000
vn -1.000000 0.000000 0.000000
vn -1.000000 0.000000 0.000000
vn -1.000000 0.000000 0.000000
vn -1.000000 0.000000 0.000000
vn 0.000007 -1.000000 0.000000
vn 0.000007 -1.000000 0.000000
vn 0.000007 -1.000000 0.000000
vn 0.000007 -1.000000 0.000000
vn 0.000000 0.000000 -1.000000
vn 0.000000 0.000000 -1.000000
vn 0.000000 0.000000 -1.000000
vn 0.000000 0.000000 -1.000000
vn 0.000000 0.000000 1.000000
vn 0.000000 0.000000 1.000000
vn 0.000000 0.000000 1.000000
vn 0.000000 0.000000 1.000000
s off
g Pizarron
usemtl initialShadingGroup
f 1/1/1 2/2/2 4/4/3 3/3/4
f 3/3/5 4/4/6 6/6/7 5/5/8
f 5/5/9 6/6/10 8/8/11 7/7/12
f 7/7/13 8/8/14 2/10/15 1/9/16
f 2/2/17 8/11/18 6/12/19 4/4/20
f 7/13/21 1/1/22 3/3/23 5/14/24
f 9/15/25 10/16/26 12/17/27 11/18/28
f 11/18/29 12/17/30 14/19/31 13/20/32
f 13/20/33 14/19/34 16/21/35 15/22/36
f 15/22/37 16/21/38 10/23/39 9/24/40
f 10/16/41 16/25/42 14/26/43 12/17/44
f 15/27/45 9/15/46 11/18/47 13/28/48
f 17/29/49 18/30/50 20/31/51 19/32/52
f 19/32/53 20/31/54 22/33/55 21/34/56
f 21/34/57 22/33/58 24/35/59 23/36/60
f 23/36/61 24/35/62 18/37/63 17/38/64
f 18/30/65 24/39/66 22/40/67 20/31/68
f 23/41/69 17/29/70 19/32/71 21/42/72
f 25/43/73 26/44/74 31/45/75 30/46/76
f 26/44/77 27/47/78 32/48/79 31/45/80
f 27/47/81 28/49/82 33/50/83 32/48/84
f 28/49/85 29/51/86 34/52/87 33/50/88
s 1
f 26/53/89 25/54/90 35/55/91 27/56/92
f 28/57/93 27/56/92 35/55/91 29/58/94
s 2
f 36/59/95 30/60/96 31/61/97 32/62/98
f 36/59/95 32/62/98 33/63/99 34/64/100
s off
f 37/65/101 38/66/102 43/67/103 42/68/104
f 38/66/105 39/69/106 44/70/107 43/67/108
f 39/69/109 40/71/110 45/72/111 44/70/112
f 40/71/113 41/73/114 46/74/115 45/72/116
s 3
f 38/75/117 37/76/118 47/77/119 39/78/120
f 40/79/121 39/78/120 47/77/119 41/80/122
s 4
f 48/81/123 42/82/124 43/83/125 44/84/126
f 48/81/123 44/84/126 45/85/127 46/86/128
s off
f 49/87/129 50/88/130 52/89/131 51/90/132
f 51/90/133 52/89/134 54/91/135 53/92/136
f 53/92/137 54/91/138 56/93/139 55/94/140
f 55/94/141 56/93/142 50/95/143 49/96/144
f 50/88/145 56/97/146 54/98/147 52/89/148
f 55/99/149 49/87/150 51/90/151 53/100/152
f 57/101/153 58/102/154 60/103/155 59/104/156
f 59/104/157 60/103/158 62/105/159 61/106/160
f 61/106/161 62/105/162 64/107/163 63/108/164
f 63/108/165 64/107/166 58/109/167 57/110/168
f 58/102/169 64/111/170 62/112/171 60/103/172
f 63/113/173 57/101/174 59/104/175 61/114/176
f 65/115/177 66/116/178 68/117/179 67/118/180
f 67/118/181 68/117/182 70/119/183 69/120/184
f 69/120/185 70/119/186 72/121/187 71/122/188
f 71/122/189 72/121/190 66/123/191 65/124/192
f 66/116/193 72/125/194 70/126/195 68/117/196
f 71/127/197 65/115/198 67/118/199 69/128/200
f 73/129/201 74/130/202 79/131/203 78/132/204
f 74/130/205 75/133/206 80/134/207 79/131/208
f 75/133/209 76/135/210 81/136/211 80/134/212
f 76/135/213 77/137/214 82/138/215 81/136/216
s 5
f 74/139/217 73/140/218 83/141/219 75/142/220
f 76/143/221 75/142/220 83/141/219 77/144/222
s 6
f 84/145/223 78/146/224 79/147/225 80/148/226
f 84/145/223 80/148/226 81/149/227 82/150/228
s off
f 85/151/229 86/152/230 91/153/231 90/154/232
f 86/152/233 87/155/234 92/156/235 91/153/236
f 87/155/237 88/157/238 93/158/239 92/156/240
f 88/157/241 89/159/242 94/160/243 93/158/244
s 7
f 86/161/245 85/162/246 95/163/247 87/164/248
f 88/165/249 87/164/248 95/163/247 89/166/250
s 8
f 96/167/251 90/168/252 91/169/253 92/170/254
f 96/167/251 92/170/254 93/171/255 94/172/256
s off
f 97/173/257 98/174/258 100/175/259 99/176/260
f 99/176/261 100/175/262 102/177/263 101/178/264
f 101/178/265 102/177/266 104/179/267 103/180/268
f 103/180/269 104/179/270 98/181/271 97/182/272
f 98/174/273 104/183/274 102/184/275 100/175/276
f 103/185/277 97/173/278 99/176/279 101/186/280
