# This file uses centimeters as units for non-parametric coordinates.

mtllib SM_Piso.mtl
g default
v 0.000000 0.000000 300.000000
v 300.000000 0.000000 300.000000
v 0.000000 0.000000 0.000000
v 300.000000 0.000000 0.000000
v 150.000000 0.000000 300.000000
v 150.000000 0.000000 0.000000
v 0.000000 0.000000 150.000000
v 150.000000 0.000000 150.000000
v 300.000000 0.000000 150.000000
v 75.000000 0.000000 300.000000
v 75.000000 0.000000 150.000000
v 75.000000 0.000000 0.000000
v 225.000000 0.000000 300.000000
v 225.000000 0.000000 150.000000
v 225.000000 0.000000 0.000000
v 0.000000 0.000000 75.000000
v 75.000000 0.000000 75.000000
v 150.000000 0.000000 75.000000
v 225.000000 0.000000 75.000000
v 300.000000 0.000000 75.000000
v 0.000000 0.000000 225.000000
v 75.000000 0.000000 225.000000
v 150.000000 0.000000 225.000000
v 225.000000 0.000000 225.000000
v 300.000000 0.000000 225.000000
vt 0.351866 0.271637
vt 0.351866 0.271637
vt 0.351866 0.179671
vt 0.351866 0.179671
vt 0.351866 0.179671
vt 0.443833 0.179671
vt 0.443833 0.271637
vt 0.351866 0.271637
vt 0.351866 0.271637
vt 0.351866 0.271637
vt 0.443833 0.179671
vt 0.351866 0.271637
vt 0.351866 0.179671
vt 0.351866 0.179671
vt 0.443833 0.179671
vt 0.351866 0.271637
vt 0.443833 0.271637
vt 0.443833 0.179671
vt 0.443833 0.271637
vt 0.443833 0.179671
vt 0.443833 0.271637
vt 0.443833 0.179671
vt 0.443833 0.179671
vt 0.351866 0.271637
vt 0.443833 0.179671
vt 0.443833 0.271637
vt 0.351866 0.271637
vt 0.351866 0.179671
vt 0.443833 0.271637
vt 0.351866 0.271637
vt 0.351866 0.179671
vt 0.443833 0.271637
vt 0.351866 0.271637
vt 0.351866 0.179671
vt 0.443833 0.271637
vt 0.351866 0.271637
vt 0.351866 0.179671
vt 0.443833 0.179671
vt 0.443833 0.271637
vt 0.351866 0.179671
vt 0.443833 0.179671
vt 0.443833 0.271637
vt 0.351866 0.179671
vt 0.443833 0.179671
vt 0.443833 0.271637
vt 0.351866 0.179671
vt 0.443833 0.179671
vt 0.443833 0.271637
vt 0.351866 0.271637
vt 0.351866 0.179671
vt 0.351866 0.271637
vt 0.351866 0.179671
vt 0.443833 0.179671
vt 0.443833 0.271637
vt 0.351866 0.271637
vt 0.351866 0.179671
vt 0.443833 0.271637
vt 0.351866 0.271637
vt 0.443833 0.179671
vt 0.443833 0.271637
vt 0.443833 0.179671
vt 0.443833 0.271637
vt 0.351866 0.179671
vt 0.443833 0.179671
vn 0.000000 1.000000 0.000000
vn 0.000000 1.000000 0.000000
vn 0.000000 1.000000 0.000000
vn 0.000000 1.000000 0.000000
vn 0.000000 1.000000 0.000000
vn 0.000000 1.000000 0.000000
vn 0.000000 1.000000 0.000000
vn 0.000000 1.000000 0.000000
vn 0.000000 1.000000 0.000000
vn 0.000000 1.000000 0.000000
vn 0.000000 1.000000 0.000000
vn 0.000000 1.000000 0.000000
vn 0.000000 1.000000 0.000000
vn 0.000000 1.000000 0.000000
vn 0.000000 1.000000 0.000000
vn 0.000000 1.000000 0.000000
vn 0.000000 1.000000 0.000000
vn 0.000000 1.000000 0.000000
vn 0.000000 1.000000 0.000000
vn 0.000000 1.000000 0.000000
vn 0.000000 1.000000 0.000000
vn 0.000000 1.000000 0.000000
vn 0.000000 1.000000 0.000000
vn 0.000000 1.000000 0.000000
vn 0.000000 1.000000 0.000000
s 1
g Piso
usemtl lambert2SG
f 16/1/1 17/4/2 12/59/3 3/60/4
f 6/7/5 18/8/6 19/63/7 15/64/8
f 21/9/9 22/37/10 11/38/11 7/39/12
f 23/16/13 24/43/14 14/44/15 8/45/16
f 11/10/11 22/40/10 23/41/13 8/42/16
f 12/2/3 17/3/2 18/61/6 6/62/5
f 9/21/17 14/24/15 24/46/14 25/47/18
f 15/12/8 19/13/7 20/18/19 4/19/20
f 7/5/12 11/6/11 17/57/2 16/58/1
f 18/11/6 17/54/2 11/55/11 8/56/16
f 19/17/7 18/51/6 8/52/16 14/53/15
f 20/22/19 19/48/7 14/49/15 9/50/17
f 1/14/21 10/15/22 22/35/10 21/36/9
f 23/20/13 22/32/10 10/33/22 5/34/23
f 13/23/24 24/29/14 23/30/13 5/31/23
f 25/25/18 24/26/14 13/27/24 2/28/25
