# This file uses centimeters as units for non-parametric coordinates.

v 8.181931 7.152725 0.220495
v 3.375720 7.152725 0.220495
v 3.375720 22.584808 0.220495
v 8.181931 22.584808 0.220495
v 3.375720 7.152725 0.003946
v 3.375720 22.584808 0.003946
v -8.177601 7.152725 0.220495
v -3.371390 7.152725 0.220495
v -3.371390 22.584808 0.220495
v -8.177601 22.584808 0.220495
v -3.371390 7.152725 0.003946
v -3.371390 22.584808 0.003946
v 7.914795 7.404663 0.091338
v -7.914787 7.404663 0.091338
v -7.914787 1.150960 0.339920
v 7.914795 1.150960 0.339920
v 7.914795 7.404663 0.339920
v -7.914787 7.404663 0.339920
v -9.119183 1.150959 -0.440702
v 9.119194 1.150959 -0.440702
v -9.119183 1.150959 0.440701
v 9.119194 1.150959 0.440701
v -9.119183 23.076355 0.440701
v 9.119194 23.076355 0.440701
v -9.119183 23.076355 -0.440702
v 9.119194 23.076355 -0.440702
v -7.914787 1.150960 0.440701
v 7.914795 1.150960 0.440701
v 7.914795 22.488220 0.440701
v -7.914787 22.488220 0.440701
v -7.914787 1.150960 0.091338
v 7.914795 1.150960 0.091338
v 7.914795 22.488220 0.091338
v -7.914787 22.488220 0.091338
v -7.206036 11.533028 0.045488
v -4.451994 11.533028 0.045488
v -7.206036 11.533028 0.365254
v -4.451994 11.533028 0.365254
v -7.206036 11.954437 0.365254
v -4.451994 11.954437 0.365254
v -7.206036 11.954437 0.045488
v -4.451994 11.954437 0.045488
vt 0.461280 0.080992
vt 0.461280 0.081790
vt 0.462079 0.081790
vt 0.462079 0.080992
vt 0.460082 0.080193
vt 0.460082 0.083388
vt 0.463277 0.083388
vt 0.463277 0.080193
vt 0.461280 0.080992
vt 0.462079 0.080992
vt 0.462079 0.081790
vt 0.461280 0.081790
vt 0.460082 0.080193
vt 0.463277 0.080193
vt 0.463277 0.083388
vt 0.460082 0.083388
vt 0.025657 0.658364
vt 0.026560 0.658364
vt 0.026560 0.659267
vt 0.025657 0.659267
vt 0.026560 0.659267
vt 0.025657 0.659267
vt 0.025254 0.659010
vt 0.026157 0.659010
vt 0.026157 0.659913
vt 0.025254 0.659913
vt 0.025254 0.659913
vt 0.026157 0.659913
vt 0.026157 0.660816
vt 0.025254 0.660816
vt 0.026157 0.658107
vt 0.027060 0.658107
vt 0.027060 0.659010
vt 0.026157 0.659010
vt 0.024351 0.658107
vt 0.025254 0.658107
vt 0.025254 0.659010
vt 0.024351 0.659010
vt 0.026157 0.659913
vt 0.026157 0.659010
vt 0.025254 0.659913
vt 0.025254 0.659010
vt 0.885093 0.988759
vt 0.883490 0.988759
vt 0.883490 0.987155
vt 0.885093 0.987155
vt 0.883490 0.985552
vt 0.885093 0.985552
vt 0.883490 0.983949
vt 0.885093 0.983949
vt 0.881886 0.988759
vt 0.881886 0.987155
vt 0.886696 0.988759
vt 0.886696 0.987155
vn 0.000000 0.000000 1.000000
vn 0.000000 0.000000 1.000000
vn 0.000000 0.000000 1.000000
vn 0.000000 0.000000 1.000000
vn -1.000000 0.000000 0.000000
vn -1.000000 0.000000 0.000000
vn -1.000000 0.000000 0.000000
vn -1.000000 0.000000 0.000000
vn 0.000000 0.000000 1.000000
vn 0.000000 0.000000 1.000000
vn 0.000000 0.000000 1.000000
vn 0.000000 0.000000 1.000000
vn 1.000000 0.000000 0.000000
vn 1.000000 0.000000 0.000000
vn 1.000000 0.000000 0.000000
vn 1.000000 0.000000 0.000000
vn 0.000000 0.000000 1.000000
vn 0.000000 0.000000 1.000000
vn 0.000000 0.000000 1.000000
vn 0.000000 0.000000 1.000000
vn 0.000000 1.000000 0.000000
vn 0.000000 1.000000 0.000000
vn 0.000000 1.000000 0.000000
vn 0.000000 1.000000 0.000000
vn 0.000000 0.000000 1.000000
vn 0.000000 0.000000 1.000000
vn 0.000000 0.000000 1.000000
vn 0.000000 0.000000 1.000000
vn 0.000000 1.000000 0.000000
vn 0.000000 1.000000 0.000000
vn 0.000000 1.000000 0.000000
vn 0.000000 1.000000 0.000000
vn 1.000000 0.000000 0.000000
vn 1.000000 0.000000 0.000000
vn 1.000000 0.000000 0.000000
vn 1.000000 0.000000 0.000000
vn -1.000000 0.000000 0.000000
vn -1.000000 0.000000 0.000000
vn -1.000000 0.000000 0.000000
vn -1.000000 0.000000 0.000000
vn 0.000000 0.000000 1.000000
vn 0.000000 0.000000 1.000000
vn 0.000000 0.000000 1.000000
vn 0.000000 0.000000 1.000000
vn 0.000000 0.000000 1.000000
vn 0.000000 0.000000 1.000000
vn 0.000000 0.000000 1.000000
vn 0.000000 0.000000 1.000000
vn 0.000000 0.000000 1.000000
vn 0.000000 0.000000 1.000000
vn 0.000000 0.000000 1.000000
vn 0.000000 0.000000 1.000000
vn -1.000000 0.000000 0.000000
vn -1.000000 0.000000 0.000000
vn -1.000000 0.000000 0.000000
vn -1.000000 0.000000 0.000000
vn 0.000000 -1.000000 0.000000
vn 0.000000 -1.000000 0.000000
vn 0.000000 -1.000000 0.000000
vn 0.000000 -1.000000 0.000000
vn 1.000000 0.000000 0.000000
vn 1.000000 0.000000 0.000000
vn 1.000000 0.000000 0.000000
vn 1.000000 0.000000 0.000000
vn 0.000000 -1.000000 0.000000
vn 0.000000 -1.000000 0.000000
vn 0.000000 -1.000000 0.000000
vn 0.000000 -1.000000 0.000000
vn 0.000000 0.000000 1.000000
vn 0.000000 0.000000 1.000000
vn 0.000000 0.000000 1.000000
vn 0.000000 0.000000 1.000000
vn 0.000000 1.000000 0.000000
vn 0.000000 1.000000 0.000000
vn 0.000000 1.000000 0.000000
vn 0.000000 1.000000 0.000000
vn 1.000000 0.000000 0.000000
vn 1.000000 0.000000 0.000000
vn 1.000000 0.000000 0.000000
vn 1.000000 0.000000 0.000000
vn -1.000000 0.000000 0.000000
vn -1.000000 0.000000 0.000000
vn -1.000000 0.000000 0.000000
vn -1.000000 0.000000 0.000000
s off
f 1/1/1 4/2/2 3/3/3 2/4/4
f 3/5/5 6/6/6 5/7/7 2/8/8
f 7/9/9 8/10/10 9/11/11 10/12/12
f 9/13/13 8/14/14 11/15/15 12/16/16
f 15/17/17 16/18/18 17/19/19 18/20/20
f 13/21/21 14/22/22 18/20/23 17/19/24
f 31/23/25 32/24/26 33/25/27 34/26/28
f 23/27/29 24/28/30 26/29/31 25/30/32
f 20/31/33 26/32/34 24/33/35 22/34/36
f 25/35/37 19/36/38 21/37/39 23/38/40
f 22/34/41 24/28/42 29/39/43 28/40/44
f 24/28/45 23/27/46 30/41/47 29/39/48
f 23/27/49 21/37/50 27/42/51 30/41/52
f 28/40/53 29/39/54 33/25/55 32/24/56
f 29/39/57 30/41/58 34/26/59 33/25/60
f 30/41/61 27/42/62 31/23/63 34/26/64
f 35/43/65 36/44/66 38/45/67 37/46/68
f 37/46/69 38/45/70 40/47/71 39/48/72
f 39/48/73 40/47/74 42/49/75 41/50/76
f 36/44/77 42/51/78 40/52/79 38/45/80
f 41/53/81 35/43/82 37/46/83 39/54/84
