# This file uses centimeters as units for non-parametric coordinates.

v -15.000000 0.000000 15.000000
v 15.000000 0.000000 15.000000
v -15.000000 0.000000 -15.000000
v 15.000000 0.000000 -15.000000
vt 0.443833 0.271637
vt 0.443833 0.271637
vt 0.351866 0.179671
vt 0.351866 0.179671
vn 0.000000 1.000000 0.000000
vn 0.000000 1.000000 0.000000
vn 0.000000 1.000000 0.000000
vn 0.000000 1.000000 0.000000
s off
f 2/4/1 4/2/2 3/1/3 1/3/4
v -15.000000 0.000000 15.000000
v 15.000000 0.000000 15.000000
v -15.000000 0.000000 -15.000000
v 15.000000 0.000000 -15.000000
vt 0.443833 0.271637
vt 0.443833 0.271637
vt 0.351866 0.179671
vt 0.351866 0.179671
vn 0.000000 1.000000 0.000000
vn 0.000000 1.000000 0.000000
vn 0.000000 1.000000 0.000000
vn 0.000000 1.000000 0.000000
s off
f 6/8/5 8/6/6 7/5/7 5/7/8
