# This file uses centimeters as units for non-parametric coordinates.

mtllib SM_PuertaC.mtl
g default
v -50.000061 10.485260 0.064941
v 50.000000 10.485260 0.064941
v -50.000061 10.485260 8.878976
v 50.000000 10.485260 8.878976
v -50.000061 210.225983 8.878976
v 50.000000 210.225983 8.878976
v -50.000061 210.225983 0.064941
v 50.000000 210.225983 0.064941
v -43.396362 10.485268 8.878976
v 43.396362 10.485268 8.878976
v 43.396362 204.868103 8.878976
v -43.396362 204.868103 8.878976
v -43.396362 10.485268 5.385346
v 43.396362 10.485268 5.385346
v 43.396362 204.868103 5.385346
v -43.396362 204.868103 5.385346
v -39.510376 105.066109 4.926838
v -24.410095 105.066109 4.926838
v -39.510376 105.066109 8.124502
v -24.410095 105.066109 8.124502
v -39.510376 108.905159 8.124502
v -24.410095 108.905159 8.124502
v -39.510376 108.905159 4.926838
v -24.410095 108.905159 4.926838
vt 0.678085 -0.515269
vt 0.677114 -0.515269
vt 0.678085 -0.516240
vt 0.677114 -0.516240
vt 0.678085 -0.517210
vt 0.677114 -0.517210
vt 0.678085 -0.518181
vt 0.677114 -0.518181
vt 0.676143 -0.515269
vt 0.676143 -0.516240
vt 0.679055 -0.515269
vt 0.679055 -0.516240
vt 0.678085 -0.516240
vt 0.677114 -0.516240
vt 0.677114 -0.517210
vt 0.678085 -0.517210
vt 0.678085 -0.516240
vt 0.677114 -0.516240
vt 0.677114 -0.517210
vt 0.678085 -0.517210
vt 0.438642 0.055938
vt 0.437685 0.055938
vt 0.437685 0.054981
vt 0.438642 0.054981
vt 0.437685 0.054024
vt 0.438642 0.054024
vt 0.437685 0.053067
vt 0.438642 0.053067
vt 0.436728 0.055938
vt 0.436728 0.054981
vt 0.439599 0.055938
vt 0.439599 0.054981
vt 0.463129 0.081321
vt 0.460244 0.081321
vt 0.460244 0.089016
vt 0.463129 0.089016
vn 0.000000 0.000000 1.000000
vn 0.000000 0.000000 1.000000
vn 0.000000 0.000000 1.000000
vn 0.000000 0.000000 1.000000
vn 0.000000 1.000000 0.000000
vn 0.000000 1.000000 0.000000
vn 0.000000 1.000000 0.000000
vn 0.000000 1.000000 0.000000
vn 1.000000 0.000000 0.000000
vn 1.000000 0.000000 0.000000
vn 1.000000 0.000000 0.000000
vn 1.000000 0.000000 0.000000
vn -1.000000 0.000000 0.000000
vn -1.000000 0.000000 0.000000
vn -1.000000 0.000000 0.000000
vn -1.000000 0.000000 0.000000
vn 0.000000 0.000000 1.000000
vn 0.000000 0.000000 1.000000
vn 0.000000 0.000000 1.000000
vn 0.000000 0.000000 1.000000
vn 0.000000 0.000000 1.000000
vn 0.000000 0.000000 1.000000
vn 0.000000 0.000000 1.000000
vn 0.000000 0.000000 1.000000
vn -0.000000 0.000000 1.000000
vn -0.000000 0.000000 1.000000
vn -0.000000 0.000000 1.000000
vn -0.000000 0.000000 1.000000
vn -1.000000 0.000000 0.000000
vn -1.000000 0.000000 0.000000
vn -1.000000 0.000000 0.000000
vn -1.000000 0.000000 0.000000
vn 0.000000 -1.000000 0.000000
vn 0.000000 -1.000000 0.000000
vn 0.000000 -1.000000 0.000000
vn 0.000000 -1.000000 0.000000
vn 1.000000 0.000000 0.000000
vn 1.000000 0.000000 0.000000
vn 1.000000 0.000000 0.000000
vn 1.000000 0.000000 0.000000
vn 0.000000 -1.000000 0.000000
vn 0.000000 -1.000000 0.000000
vn 0.000000 -1.000000 0.000000
vn 0.000000 -1.000000 0.000000
vn 0.000000 0.000000 1.000000
vn 0.000000 0.000000 1.000000
vn 0.000000 0.000000 1.000000
vn 0.000000 0.000000 1.000000
vn 0.000000 1.000000 0.000000
vn 0.000000 1.000000 0.000000
vn 0.000000 1.000000 0.000000
vn 0.000000 1.000000 0.000000
vn 1.000000 0.000000 0.000000
vn 1.000000 0.000000 0.000000
vn 1.000000 0.000000 0.000000
vn 1.000000 0.000000 0.000000
vn -1.000000 0.000000 0.000000
vn -1.000000 0.000000 0.000000
vn -1.000000 0.000000 0.000000
vn -1.000000 0.000000 0.000000
s off
g PuertaC
usemtl initialShadingGroup
f 13/33/1 14/34/2 15/35/3 16/36/4
f 5/5/5 6/6/6 8/8/7 7/7/8
f 2/2/9 8/9/10 6/10/11 4/4/12
f 7/11/13 1/1/14 3/3/15 5/12/16
f 4/4/17 6/6/18 11/15/19 10/14/20
f 6/6/21 5/5/22 12/16/23 11/15/24
f 5/5/25 3/3/26 9/13/27 12/16/28
f 10/14/29 11/15/30 15/19/31 14/18/32
f 11/15/33 12/16/34 16/20/35 15/19/36
f 12/16/37 9/13/38 13/17/39 16/20/40
f 17/21/41 18/22/42 20/23/43 19/24/44
f 19/24/45 20/23/46 22/25/47 21/26/48
f 21/26/49 22/25/50 24/27/51 23/28/52
f 18/22/53 24/29/54 22/30/55 20/23/56
f 23/31/57 17/21/58 19/24/59 21/32/60
