# This file uses centimeters as units for non-parametric coordinates.

mtllib SM_Portaretrato.mtl
g default
v -3.373119 -2.466583 -9.952220
v 3.847218 -2.466583 -9.952220
v -3.373119 -2.577995 -8.865184
v 3.847218 -2.577995 -8.865184
v -1.326107 12.047712 -1.219799
v 1.800198 12.047712 -1.219799
v -1.326107 12.159123 -2.306842
v 1.800198 12.159123 -2.306842
v -8.251659 -2.619289 0.899670
v 8.725758 -2.619289 0.899670
v -8.251659 -2.055395 3.004155
v 8.725758 -2.055395 3.004155
v -8.251659 18.758621 -2.572948
v 8.725758 18.758621 -2.572948
v -8.251659 18.194727 -4.677425
v 8.725758 18.194727 -4.677425
vt 0.263250 0.541500
vt 0.265524 0.541500
vt 0.263250 0.541845
vt 0.265524 0.541843
vt 0.263898 0.547043
vt 0.264883 0.547042
vt 0.263250 0.542534
vt 0.263594 0.542534
vt 0.263024 0.544353
vt 0.263820 0.544353
vt 0.270371 0.543422
vt 0.270371 0.543765
vt 0.258353 0.543436
vt 0.258353 0.543782
vt 0.412538 0.024999
vt 0.420972 0.024999
vt 0.420972 0.026081
vt 0.412538 0.026081
vt 0.263594 0.542189
vt 0.260909 0.542189
vt 0.263594 0.542534
vt 0.260909 0.542534
vt 0.263594 0.545942
vt 0.260909 0.545942
vt 0.431676 0.024999
vt 0.431676 0.026081
vt 0.401834 0.024999
vt 0.401834 0.026081
vt 0.276761 0.482025
vt 0.393445 0.482025
vt 0.393445 0.640217
vt 0.276761 0.640217
vn 0.000000 -0.994789 -0.101957
vn 0.000000 -0.994789 -0.101957
vn 0.000000 -0.994789 -0.101957
vn 0.000000 -0.994789 -0.101957
vn 0.000000 -0.463260 0.886222
vn 0.000000 -0.463260 0.886222
vn 0.000000 -0.463260 0.886222
vn 0.000000 -0.463260 0.886222
vn 0.000000 0.463260 -0.886222
vn 0.000000 0.463260 -0.886222
vn 0.000000 0.463260 -0.886222
vn 0.000000 0.463260 -0.886222
vn 0.991201 0.131674 0.013495
vn 0.991201 0.131674 0.013495
vn 0.991201 0.131674 0.013495
vn 0.991201 0.131674 0.013495
vn -0.991201 0.131674 0.013495
vn -0.991201 0.131674 0.013495
vn -0.991201 0.131674 0.013495
vn -0.991201 0.131674 0.013495
vn 0.000000 -0.965926 0.258819
vn 0.000000 -0.965926 0.258819
vn 0.000000 -0.965926 0.258819
vn 0.000000 -0.965926 0.258819
vn 0.000000 0.258819 0.965926
vn 0.000000 0.258819 0.965926
vn 0.000000 0.258819 0.965926
vn 0.000000 0.258819 0.965926
vn 0.000000 0.965926 -0.258819
vn 0.000000 0.965926 -0.258819
vn 0.000000 0.965926 -0.258819
vn 0.000000 0.965926 -0.258819
vn 0.000000 -0.258819 -0.965926
vn 0.000000 -0.258819 -0.965926
vn 0.000000 -0.258819 -0.965926
vn 0.000000 -0.258819 -0.965926
vn 1.000000 0.000000 0.000000
vn 1.000000 0.000000 0.000000
vn 1.000000 0.000000 0.000000
vn 1.000000 0.000000 0.000000
vn -1.000000 0.000000 0.000000
vn -1.000000 0.000000 0.000000
vn -1.000000 0.000000 0.000000
vn -1.000000 0.000000 0.000000
s off
g Portaretrato
usemtl lambert2SG
f 1/1/1 2/2/2 4/4/3 3/3/4
f 3/3/5 4/4/6 6/6/7 5/5/8
f 7/7/9 8/8/10 2/10/11 1/9/12
f 2/2/13 8/11/14 6/12/15 4/4/16
f 7/13/17 1/1/18 3/3/19 5/14/20
f 9/15/21 10/16/22 12/17/23 11/18/24
f 11/29/25 12/30/26 14/31/27 13/32/28
f 13/20/29 14/19/30 16/21/31 15/22/32
f 15/22/33 16/21/34 10/23/35 9/24/36
f 10/16/37 16/25/38 14/26/39 12/17/40
f 15/27/41 9/15/42 11/18/43 13/28/44
