# This file uses centimeters as units for non-parametric coordinates.

mtllib SM_Sillon_Individual.mtl
g default
v -26.100006 18.709044 38.467972
v -26.100006 21.276310 41.035236
v -28.667282 21.276310 38.467972
v 28.719179 21.276310 38.467972
v 26.151913 21.276310 41.035236
v 26.151913 18.709044 38.467972
v -28.667282 34.941601 38.467972
v -26.100006 34.941601 41.035236
v -26.100006 37.508865 38.467972
v 26.151913 37.508865 38.467972
v 26.151913 34.941601 41.035236
v 28.719179 34.941601 38.467972
v -28.667282 34.941601 -29.135853
v -26.100006 37.508865 -29.135853
v -26.100006 34.941601 -31.703121
v 26.151913 34.941601 -31.703121
v 26.151913 37.508865 -29.135853
v 28.719179 34.941601 -29.135853
v -28.667282 21.276310 -29.135853
v -26.100006 21.276310 -31.703121
v -26.100006 18.709044 -29.135853
v 26.151913 18.709044 -29.135853
v 26.151913 21.276310 -31.703121
v 28.719179 21.276310 -29.135853
v -40.960678 8.519829 40.599789
v 40.960678 8.519829 40.599789
v -40.960678 19.171837 40.599789
v 40.960678 19.171837 40.599789
v -40.960678 19.171837 -41.035236
v 40.960678 19.171837 -41.035236
v -40.960678 8.519829 -41.035236
v 40.960678 8.519829 -41.035236
v -40.960678 19.171837 28.972267
v 40.960678 19.171837 28.972267
v 40.960678 8.519829 28.972267
v -40.960678 8.519829 28.972267
v -40.960678 8.519829 -29.683453
v 40.960678 8.519829 -29.683453
v 40.960678 19.171837 -29.683453
v -40.960678 19.171837 -29.683453
v 28.137543 8.519825 40.599789
v 28.137466 8.519833 28.972267
v 28.137543 8.519825 -29.683453
v 28.137543 8.519825 -41.035236
v 28.137543 19.171835 -41.035236
v 28.137466 19.171835 -29.683453
v 28.137543 19.171835 28.972267
v 28.137543 19.171835 40.599789
v -28.613449 8.519829 40.599789
v -28.613510 8.519829 28.972267
v -28.613449 8.519829 -29.683453
v -30.563080 8.519829 -41.035236
v -28.613449 19.171837 -41.035236
v -28.613510 19.171837 -29.683453
v -28.613449 19.171837 28.972267
v -28.613449 19.171837 40.599789
v 28.137543 0.157364 40.599789
v 28.137466 0.157368 28.972267
v 40.960678 0.157364 28.972267
v 40.960678 0.157364 40.599789
v 28.137543 0.157364 -29.683453
v 28.137543 0.157364 -41.035236
v 40.960678 0.157364 -41.035236
v 40.960678 0.157364 -29.683453
v -28.613510 0.157364 28.972267
v -40.960678 0.157364 28.972267
v -28.613449 0.157364 40.599789
v -40.960678 0.157364 40.599789
v -40.960678 0.157364 -41.035236
v -30.563080 0.157364 -41.035236
v -28.613449 0.157364 -29.683453
v -40.960678 0.157364 -29.683453
v 28.137543 42.029243 28.972267
v 28.137543 42.029243 40.599789
v 40.960678 42.029243 40.599789
v 40.960678 42.029243 28.972267
v 28.137543 42.029243 -41.035236
v 28.137466 42.029243 -29.683453
v 40.960678 42.029243 -29.683453
v 40.960678 42.029243 -41.035236
v -40.960678 42.029243 40.599789
v -28.613449 42.029243 40.599789
v -28.613449 42.029243 28.972267
v -40.960678 42.029243 28.972267
v 28.137543 51.785454 28.972267
v 28.137543 51.785454 40.599789
v 40.960678 51.785454 40.599789
v 40.960678 51.785454 28.972267
v 28.137543 51.785454 -41.035236
v 28.137466 51.785454 -29.683453
v 40.960678 51.785454 -29.683453
v 40.960678 51.785454 -41.035236
v -40.960678 53.496342 40.599789
v -28.613449 53.496342 40.599789
v -28.613449 53.496342 28.972267
v -40.960678 53.496342 28.972267
v -28.613510 40.582611 -29.683453
v -40.960678 40.582611 -29.683453
v -28.613449 40.582611 -41.035236
v -40.960678 40.582611 -41.035236
v -28.613510 51.749928 -29.683453
v -40.960678 51.749928 -29.683453
v -28.613449 51.749928 -41.035236
v -40.960678 51.749928 -41.035236
v -28.613449 66.980568 -41.035236
v -28.613510 66.980568 -29.683453
v -40.960678 66.980568 -41.035236
v -40.960678 66.980568 -29.683453
v 28.137543 67.016098 -41.035236
v 28.137466 67.016098 -29.683453
v 40.960678 67.016098 -29.683453
v 40.960678 67.016098 -41.035236
vt 0.423826 0.743002
vt 0.423801 0.743002
vt 0.423801 0.742479
vt 0.423826 0.742479
vt 0.423826 0.740833
vt 0.423826 0.740748
vt 0.424345 0.740748
vt 0.424345 0.740833
vt 0.423777 0.740833
vt 0.423826 0.741232
vt 0.423777 0.741232
vt 0.424370 0.743002
vt 0.424345 0.743002
vt 0.424345 0.742479
vt 0.424370 0.742479
vt 0.424394 0.740833
vt 0.424394 0.741232
vt 0.424345 0.741232
vt 0.423801 0.741340
vt 0.423826 0.741340
vt 0.423826 0.741863
vt 0.423801 0.741863
vt 0.424345 0.741340
vt 0.424370 0.741340
vt 0.424370 0.741863
vt 0.424345 0.741863
vt 0.423801 0.741972
vt 0.423826 0.741972
vt 0.423826 0.742371
vt 0.423801 0.742371
vt 0.424345 0.741972
vt 0.424370 0.741972
vt 0.424370 0.742371
vt 0.424345 0.742371
vt 0.424916 0.740833
vt 0.424916 0.741232
vt 0.423255 0.740833
vt 0.423255 0.741232
vt 0.798014 0.989237
vt 0.798014 0.990071
vt 0.797969 0.990071
vt 0.797969 0.989237
vt 0.798014 0.988518
vt 0.798014 0.989118
vt 0.797969 0.989118
vt 0.797969 0.988518
vt 0.798014 0.987568
vt 0.798014 0.988402
vt 0.797969 0.988402
vt 0.797969 0.987568
vt 0.798014 0.986852
vt 0.798014 0.987452
vt 0.797969 0.987452
vt 0.797969 0.986852
vt 0.797850 0.989237
vt 0.797850 0.990071
vt 0.797251 0.990071
vt 0.797251 0.989237
vt 0.799522 0.989237
vt 0.799522 0.990071
vt 0.798922 0.990071
vt 0.798922 0.989237
vt 0.798014 0.986734
vt 0.798014 0.986852
vt 0.797969 0.986852
vt 0.797969 0.986734
vt 0.798803 0.990071
vt 0.798803 0.989237
vt 0.798014 0.987452
vt 0.798014 0.987568
vt 0.797969 0.987568
vt 0.797969 0.987452
vt 0.797134 0.990071
vt 0.797134 0.989237
vt 0.799638 0.990071
vt 0.799638 0.989237
vt 0.798754 0.986734
vt 0.798754 0.986852
vt 0.798014 0.986734
vt 0.798754 0.987452
vt 0.798754 0.987568
vt 0.798754 0.988402
vt 0.798754 0.988518
vt 0.798754 0.989118
vt 0.798754 0.989237
vt 0.798754 0.990071
vt 0.798803 0.986852
vt 0.798754 0.986852
vt 0.798754 0.986734
vt 0.798803 0.986734
vt 0.798803 0.987452
vt 0.798803 0.986852
vt 0.798803 0.987568
vt 0.798754 0.987568
vt 0.798754 0.987452
vt 0.798803 0.987452
vt 0.798803 0.988402
vt 0.798803 0.987568
vt 0.798803 0.989118
vt 0.798803 0.988518
vt 0.797969 0.986734
vt 0.798803 0.986734
vt 0.798014 0.989237
vt 0.798014 0.989118
vt 0.797969 0.989237
vt 0.797969 0.989118
vt 0.798014 0.988518
vt 0.798014 0.988402
vt 0.797969 0.988518
vt 0.797969 0.988402
vt 0.798754 0.989237
vt 0.798803 0.989237
vt 0.798754 0.989118
vt 0.798803 0.989118
vt 0.798014 0.989237
vt 0.798014 0.989118
vt 0.797969 0.989237
vt 0.797969 0.989118
vt 0.798014 0.988518
vt 0.798014 0.988402
vt 0.797969 0.988402
vt 0.797969 0.988518
vt 0.798754 0.989237
vt 0.798803 0.989237
vt 0.798754 0.989118
vt 0.798803 0.989118
vt 0.798754 0.988518
vt 0.798803 0.988518
vt 0.798754 0.988402
vt 0.798803 0.988402
vt 0.798754 0.988402
vt 0.798754 0.988518
vt 0.798803 0.988402
vt 0.798803 0.988518
vt 0.798754 0.988518
vt 0.798754 0.988402
vt 0.798803 0.988402
vt 0.798803 0.988518
vt 0.798014 0.988402
vt 0.798014 0.988518
vt 0.797969 0.988518
vt 0.797969 0.988402
vn -0.460734 -0.812391 0.357415
vn -0.987695 -0.152990 0.032451
vn -0.987695 -0.152990 -0.032451
vn -0.460733 -0.812391 -0.357415
vn -0.041575 -0.152053 0.987498
vn 0.460734 -0.812390 0.357416
vn 0.041575 -0.152053 0.987498
vn -0.041575 0.152053 0.987498
vn -0.987695 0.152990 0.032451
vn 0.987695 -0.152989 0.032451
vn 0.460734 -0.812391 -0.357415
vn 0.987695 -0.152989 -0.032451
vn 0.987695 0.152989 0.032451
vn 0.041575 0.152053 0.987498
vn -0.045665 0.998329 0.035425
vn -0.045665 0.998329 -0.035425
vn -0.987695 0.152990 -0.032451
vn 0.045665 0.998329 0.035425
vn 0.987695 0.152989 -0.032451
vn 0.045665 0.998329 -0.035425
vn -0.041575 0.152053 -0.987498
vn -0.041575 -0.152053 -0.987498
vn 0.041575 0.152053 -0.987498
vn 0.041575 -0.152053 -0.987498
vn 0.000000 0.000000 1.000000
vn -0.000000 0.000000 1.000000
vn 0.000000 0.000000 1.000000
vn 0.000000 0.000000 1.000000
vn 0.000000 1.000000 0.000000
vn 0.000000 1.000000 0.000000
vn -0.000000 1.000000 0.000000
vn -0.000000 1.000000 0.000000
vn -0.000000 0.000000 -1.000000
vn 0.000000 0.000000 -1.000000
vn 0.000000 0.000000 -1.000000
vn 0.000000 0.000000 -1.000000
vn -0.000000 -1.000000 0.000000
vn -0.000000 -1.000000 0.000000
vn 0.000000 -1.000000 0.000000
vn 0.000000 -1.000000 0.000000
vn 1.000000 0.000000 0.000000
vn 1.000000 0.000000 0.000000
vn 1.000000 0.000000 0.000000
vn 1.000000 0.000000 0.000000
vn -1.000000 0.000000 0.000000
vn -1.000000 0.000000 0.000000
vn -1.000000 0.000000 0.000000
vn -1.000000 0.000000 0.000000
vn 1.000000 0.000000 0.000000
vn 1.000000 0.000000 0.000000
vn -0.000000 -1.000000 -0.000000
vn -0.000000 -1.000000 -0.000000
vn -0.000000 -1.000000 -0.000000
vn -0.000000 -1.000000 -0.000000
vn -1.000000 0.000000 0.000000
vn -1.000000 0.000000 0.000000
vn 0.000000 -1.000000 0.000000
vn 0.000000 -1.000000 0.000000
vn 0.000000 -1.000000 0.000000
vn 0.000000 -1.000000 0.000000
vn 1.000000 0.000000 0.000000
vn 1.000000 0.000000 0.000000
vn -1.000000 0.000000 0.000000
vn -1.000000 0.000000 0.000000
vn -0.000000 -1.000000 -0.000000
vn -0.000000 -1.000000 0.000000
vn -0.000000 -1.000000 -0.000000
vn -0.000000 -1.000000 0.000000
vn -0.000000 -1.000000 0.000000
vn -0.000000 -1.000000 0.000000
vn -0.000000 0.000000 -1.000000
vn -0.000000 0.000000 -1.000000
vn 0.000000 1.000000 0.000000
vn 0.000000 1.000000 0.000000
vn 0.000000 1.000000 0.000000
vn 0.000000 1.000000 0.000000
vn 0.000000 1.000000 0.000000
vn 0.000000 1.000000 0.000000
vn -0.000000 0.000000 1.000000
vn -0.000000 0.000000 1.000000
vn 0.000000 -1.000000 0.000000
vn 0.000000 -1.000000 0.000000
vn 0.000000 -1.000000 0.000000
vn 0.000000 -1.000000 0.000000
vn 0.000000 -1.000000 0.000000
vn 0.000000 -1.000000 0.000000
vn 0.000000 -1.000000 0.000000
vn 0.000000 -1.000000 0.000000
vn 0.000000 -1.000000 0.000000
vn 0.000000 -1.000000 0.000000
vn 0.000000 0.000000 -1.000000
vn 0.000000 0.000000 -1.000000
vn 0.000000 1.000000 0.000000
vn 0.000000 1.000000 0.000000
vn 0.000000 0.000000 1.000000
vn 0.000000 0.000000 1.000000
vn -1.000000 0.000000 0.000007
vn -1.000000 0.000000 0.000007
vn -1.000000 0.000000 0.000007
vn -1.000000 0.000000 0.000007
vn 0.000000 0.000000 -1.000000
vn 0.000000 0.000000 -1.000000
vn 0.000000 0.000000 -1.000000
vn 0.000000 0.000000 -1.000000
vn 1.000000 0.000000 0.000000
vn 1.000000 0.000000 0.000000
vn 0.000000 0.000000 1.000000
vn 0.000000 0.000000 1.000000
vn -1.000000 0.000000 0.000000
vn -1.000000 0.000000 0.000000
vn -1.000000 0.000000 0.000000
vn -1.000000 0.000000 0.000000
vn 0.000000 0.000000 -1.000000
vn 0.000000 0.000000 -1.000000
vn 1.000000 0.000000 0.000000
vn 1.000000 0.000000 0.000000
vn 0.000000 0.000000 1.000000
vn 0.000000 0.000000 1.000000
vn 0.000000 0.000000 1.000000
vn 0.000000 0.000000 1.000000
vn 0.000000 0.000000 -1.000000
vn 0.000000 0.000000 -1.000000
vn 0.000000 0.000000 -1.000000
vn 0.000000 0.000000 -1.000000
vn 1.000000 0.000000 -0.000005
vn 1.000000 0.000000 -0.000005
vn 1.000000 0.000000 -0.000005
vn 1.000000 0.000000 -0.000005
vn 0.000000 0.000000 1.000000
vn 0.000000 0.000000 1.000000
vn -1.000000 0.000000 0.000000
vn -1.000000 0.000000 0.000000
vn 0.000000 0.000000 -1.000000
vn 0.000000 0.000000 -1.000000
vn 0.985570 0.000000 -0.169268
vn 0.985570 0.000000 -0.169268
vn 0.985570 0.000000 -0.169268
vn 0.985570 0.000000 -0.169268
vn 0.000000 0.000000 1.000000
vn 0.000000 0.000000 1.000000
vn 0.000000 0.000000 1.000000
vn 0.000000 0.000000 1.000000
vn -1.000000 0.000000 0.000000
vn -1.000000 0.000000 0.000000
vn -1.000000 0.000000 0.000000
vn -1.000000 0.000000 0.000000
vn -1.000000 0.000000 0.000000
vn -1.000000 0.000000 0.000001
vn 0.000000 0.000000 1.000000
vn 0.000000 0.000000 1.000000
vn 1.000000 0.000000 0.000000
vn 1.000000 0.000000 0.000000
vn 0.000000 0.000000 -1.000000
vn 0.000000 0.000000 -1.000000
vn 0.000000 0.000000 -1.000000
vn 0.000000 0.000000 -1.000000
vn -1.000000 0.000000 -0.000007
vn -1.000000 0.000000 -0.000007
vn -1.000000 0.000000 -0.000002
vn -1.000000 0.000000 -0.000007
vn 0.000000 0.000000 1.000000
vn 0.000000 0.000000 1.000000
vn 0.000000 0.000000 1.000000
vn 0.000000 0.000000 1.000000
vn 1.000000 0.000000 0.000000
vn 1.000000 0.000000 0.000000
vn 0.000000 0.000000 -1.000000
vn 0.000000 0.000000 -1.000000
vn 0.000000 0.000000 1.000000
vn 0.000000 0.000000 1.000000
vn 1.000000 0.000000 0.000000
vn 1.000000 0.000000 0.000000
vn 1.000000 0.000000 -0.000001
vn 1.000000 0.000000 0.000000
vn 0.000000 0.000000 -1.000000
vn 0.000000 0.000000 -1.000000
vn 0.000000 0.000000 -1.000000
vn 0.000000 0.000000 -1.000000
vn -1.000000 0.000000 0.000000
vn -1.000000 0.000000 0.000000
vn -1.000000 0.000000 0.000000
vn -1.000000 0.000000 0.000001
vn 0.000000 0.000000 1.000000
vn 0.000000 0.000000 1.000000
vn 1.000000 0.000000 0.000000
vn 1.000000 0.000000 0.000000
vn -1.000000 0.000000 0.000000
vn -1.000000 0.000000 -0.000007
vn 1.000000 0.000000 0.000000
vn 1.000000 0.000000 0.000000
vn 0.000000 0.000000 -1.000000
vn 0.000000 0.000000 -1.000000
vn 0.000000 0.000000 1.000000
vn 0.000000 0.000000 1.000000
vn 1.000000 0.000000 -0.000001
vn 1.000000 0.000000 0.000000
vn -1.000000 0.000000 0.000000
vn -1.000000 0.000000 0.000000
vn 0.000000 0.000000 1.000000
vn 0.000000 0.000000 1.000000
vn 0.000000 0.000000 1.000000
vn 0.000000 0.000000 1.000000
vn 1.000000 0.000000 0.000005
vn 1.000000 0.000000 0.000005
vn 1.000000 0.000000 0.000005
vn 1.000000 0.000000 0.000001
vn 0.000000 0.000000 -1.000000
vn 0.000000 0.000000 -1.000000
vn -1.000000 0.000000 0.000000
vn -1.000000 0.000000 0.000000
vn 1.000000 0.000000 0.000005
vn 1.000000 0.000000 -0.000000
vn 0.000000 0.000000 -1.000000
vn 0.000000 0.000000 -1.000000
vn -1.000000 0.000000 0.000000
vn -1.000000 0.000000 0.000000
vn 0.000000 -1.000000 0.000000
vn 0.000000 -1.000000 0.000000
vn 0.000000 -1.000000 0.000000
vn 0.000000 -1.000000 0.000000
vn 0.000000 -0.999696 0.024656
vn 0.000000 -0.999696 0.024656
vn 0.000000 -0.999696 0.024656
vn 0.000000 -0.999696 0.024656
vn 0.000000 1.000000 0.000000
vn 0.000000 1.000000 0.000000
vn 0.000000 1.000000 0.000000
vn 0.000000 1.000000 0.000000
vn 0.000000 0.999557 -0.029761
vn 0.000000 0.999557 -0.029761
vn 0.000000 0.999557 -0.029761
vn 0.000000 0.999557 -0.029761
vn 0.000000 1.000000 0.000000
vn 0.000000 1.000000 0.000000
vn 0.000000 1.000000 0.000000
vn 0.000000 1.000000 0.000000
vn 0.000000 1.000000 0.000000
vn 0.000000 1.000000 0.000000
vn 0.000000 1.000000 0.000000
vn 0.000000 1.000000 0.000000
vn 0.000000 1.000000 0.000000
vn 0.000000 1.000000 0.000000
vn 0.000000 1.000000 0.000000
vn 0.000000 1.000000 0.000000
vn 0.000000 1.000000 0.000000
vn 0.000000 1.000000 0.000000
vn 0.000000 1.000000 0.000000
vn 0.000000 1.000000 0.000000
vn 0.000000 0.000000 -1.000000
vn 0.000000 0.000000 -1.000000
vn 0.000000 0.000000 -1.000000
vn 0.000000 0.000000 -1.000000
vn -1.000000 0.000000 0.000000
vn -1.000000 0.000000 0.000000
vn -1.000000 0.000000 0.000000
vn -1.000000 0.000000 0.000000
vn 0.000000 0.000000 1.000000
vn 0.000000 0.000000 1.000000
vn 0.000000 0.000000 1.000000
vn 0.000000 0.000000 1.000000
vn 0.000000 0.000000 1.000000
vn 0.000000 0.000000 1.000000
vn 0.000000 0.000000 1.000000
vn 0.000000 0.000000 1.000000
vn 1.000000 0.000000 0.000000
vn 1.000000 0.000000 0.000000
vn 1.000000 0.000000 0.000000
vn 1.000000 0.000000 0.000000
vn 0.000000 0.000000 -1.000000
vn 0.000000 0.000000 -1.000000
vn 0.000000 0.000000 -1.000000
vn 0.000000 0.000000 -1.000000
vn 0.000000 0.000000 1.000000
vn 0.000000 0.000000 1.000000
vn 0.000000 0.000000 1.000000
vn 0.000000 0.000000 1.000000
vn -0.000626 1.000000 0.000000
vn -0.000626 1.000000 0.000000
vn -0.000626 1.000000 0.000000
vn -0.000626 1.000000 0.000000
vn -0.000000 0.000000 -1.000000
vn -0.000000 0.000000 -1.000000
vn -0.000000 0.000000 -1.000000
vn -0.000000 0.000000 -1.000000
vn 0.000626 -1.000000 0.000000
vn 0.000626 -1.000000 0.000000
vn 0.000626 -1.000000 0.000000
vn 0.000626 -1.000000 0.000000
s 1
g Sillon_Individual
usemtl initialShadingGroup
f 1/1/1 3/2/2 19/3/3 21/4/4
f 2/5/5 1/6/1 6/7/6 5/8/7
f 3/9/2 2/5/5 8/10/8 7/11/9
f 4/12/10 6/13/6 22/14/11 24/15/12
f 5/8/7 4/16/10 12/17/13 11/18/14
f 7/19/9 9/20/15 14/21/16 13/22/17
f 9/20/15 8/10/8 11/18/14 10/23/18
f 10/23/18 12/24/13 18/25/19 17/26/20
f 13/27/17 15/28/21 20/29/22 19/30/3
f 15/28/21 14/21/16 17/26/20 16/31/23
f 16/31/23 18/32/19 24/33/12 23/34/24
f 21/4/4 20/29/22 23/34/24 22/14/11
f 2/5/5 5/8/7 11/18/14 8/10/8
f 9/20/15 10/23/18 17/26/20 14/21/16
f 15/28/21 16/31/23 23/34/24 20/29/22
f 4/16/10 24/35/12 18/36/19 12/17/13
f 19/37/3 3/9/2 7/11/9 13/38/17
f 1/6/1 2/5/5 3/9/2
f 4/16/10 5/8/7 6/7/6
f 7/11/9 8/10/8 9/20/15
f 10/23/18 11/18/14 12/17/13
f 13/22/17 14/21/16 15/28/21
f 16/31/23 17/26/20 18/25/19
f 19/30/3 20/29/22 21/4/4
f 22/14/11 23/34/24 24/33/12
s 2
f 48/39/25 41/40/26 26/41/27 28/42/28
s 3
f 46/43/29 47/44/30 34/45/31 39/46/32
s 4
f 44/47/33 45/48/34 30/49/35 32/50/36
s 5
f 42/51/37 43/52/38 38/53/39 35/54/40
s 6
f 34/55/41 35/56/42 38/57/43 39/58/44
s 7
f 40/59/45 37/60/46 36/61/47 33/62/48
s 6
f 26/41/49 35/56/42 34/55/41 28/42/50
s off
f 57/63/51 58/64/52 59/65/53 60/66/54
s 7
f 33/62/48 36/61/47 25/67/55 27/68/56
s off
f 61/69/57 62/70/58 63/71/59 64/72/60
s 6
f 39/58/44 38/57/43 32/73/61 30/74/62
s 7
f 31/75/63 37/60/46 40/59/45 29/76/64
s 5
f 49/77/65 50/78/66 42/51/37 41/79/67
f 50/78/66 51/80/68 43/52/38 42/51/37
f 51/80/68 52/81/69 44/47/70 43/52/38
s 4
f 52/81/71 53/82/72 45/48/34 44/47/33
s 3
f 53/82/73 54/83/74 46/43/29 45/48/75
f 54/83/74 55/84/76 47/44/30 46/43/29
f 55/84/76 56/85/77 48/39/78 47/44/30
s 2
f 56/85/79 49/86/80 41/40/26 48/39/25
s off
f 66/87/81 65/88/82 67/89/83 68/90/84
s 5
f 37/91/85 51/80/68 50/78/66 36/92/86
s off
f 69/93/87 70/94/88 71/95/89 72/96/90
s 4
f 29/97/91 53/82/72 52/81/71 31/98/92
s 3
f 33/99/93 55/84/76 54/83/74 40/100/94
s 2
f 25/67/95 49/86/80 56/85/79 27/68/96
s off
f 41/79/97 42/51/98 58/64/99 57/63/100
f 42/51/101 35/54/102 59/65/103 58/64/104
s 6
f 35/54/42 26/101/49 60/66/105 59/65/106
s 2
f 26/101/27 41/79/26 57/63/107 60/66/108
s off
f 43/52/109 44/47/110 62/70/111 61/69/112
s 4
f 44/47/33 32/50/36 63/71/113 62/70/114
s 6
f 32/50/61 38/53/43 64/72/115 63/71/116
s off
f 38/53/117 43/52/118 61/69/119 64/72/120
f 36/92/121 50/78/122 65/88/123 66/87/124
f 50/78/125 49/77/126 67/89/127 65/88/128
s 2
f 49/77/80 25/102/95 68/90/129 67/89/130
s 7
f 25/102/55 36/92/47 66/87/131 68/90/132
s 4
f 31/98/92 52/81/71 70/94/133 69/93/134
s off
f 52/81/135 51/80/136 71/95/137 70/94/138
f 51/80/139 37/91/140 72/96/141 71/95/142
s 7
f 37/91/46 31/98/63 69/93/143 72/96/144
s 8
f 47/44/145 48/39/146 74/103/147 73/104/148
s 2
f 48/39/25 28/42/28 75/105/149 74/103/150
s 6
f 28/42/50 34/45/41 76/106/151 75/105/152
s off
f 34/45/153 47/44/154 73/104/155 76/106/156
s 8
f 45/48/157 46/43/158 78/107/159 77/108/160
s off
f 46/43/161 39/46/162 79/109/163 78/107/164
s 6
f 39/46/44 30/49/62 80/110/165 79/109/166
s 4
f 30/49/35 45/48/34 77/108/167 80/110/168
s 2
f 27/68/96 56/85/79 82/111/169 81/112/170
s 10
f 56/85/171 55/84/172 83/113/173 82/111/174
s off
f 55/84/175 33/99/176 84/114/177 83/113/178
s 7
f 33/99/48 27/68/56 81/112/179 84/114/180
s 8
f 73/104/148 74/103/147 86/115/181 85/116/182
s 2
f 74/103/150 75/105/149 87/117/183 86/115/184
s 6
f 75/105/152 76/106/151 88/118/185 87/117/186
s 8
f 77/108/160 78/107/159 90/119/187 89/120/188
s 6
f 79/109/166 80/110/165 92/121/189 91/122/190
s 4
f 80/110/168 77/108/167 89/120/191 92/121/192
s 2
f 81/112/170 82/111/169 94/123/193 93/124/194
s 10
f 82/111/174 83/113/173 95/125/195 94/123/196
s 7
f 84/114/180 81/112/179 93/124/197 96/126/198
s off
f 40/100/199 54/83/200 97/127/201 98/128/202
s 10
f 54/83/203 53/82/204 99/129/205 97/127/206
s 4
f 53/82/72 29/97/91 100/130/207 99/129/208
s 7
f 29/97/64 40/100/45 98/128/209 100/130/210
s 10
f 97/127/206 99/129/205 103/131/211 101/132/212
s 4
f 99/129/208 100/130/207 104/133/213 103/131/214
s 7
f 100/130/210 98/128/209 102/134/215 104/133/216
s off
f 76/106/217 73/104/218 78/107/219 79/109/220
s 8
f 73/104/148 85/116/182 90/119/187 78/107/159
s 6
f 88/118/185 76/106/151 79/109/166 91/122/190
s off
f 83/113/221 84/114/222 98/128/223 97/127/224
s 7
f 84/114/180 96/126/198 102/134/215 98/128/209
s 10
f 95/125/195 83/113/173 97/127/206 101/132/212
s off
f 94/123/225 95/125/226 96/126/227 93/124/228
f 95/125/229 101/132/230 102/134/231 96/126/232
f 106/135/233 105/136/234 107/137/235 108/138/236
f 109/139/237 110/140/238 111/141/239 112/142/240
f 90/119/241 85/116/242 88/118/243 91/122/244
f 85/116/245 86/115/246 87/117/247 88/118/248
f 103/131/249 104/133/250 107/137/251 105/136/252
f 104/133/253 102/134/254 108/138/255 107/137/256
f 102/134/257 101/132/258 106/135/259 108/138/260
f 90/119/261 91/122/262 111/141/263 110/140/264
f 91/122/265 92/121/266 112/142/267 111/141/268
f 92/121/269 89/120/270 109/139/271 112/142/272
f 90/119/273 110/140/274 106/135/275 101/132/276
f 110/140/277 109/139/278 105/136/279 106/135/280
f 109/139/281 89/120/282 103/131/283 105/136/284
f 89/120/285 90/119/286 101/132/287 103/131/288
