# This file uses centimeters as units for non-parametric coordinates.

mtllib SM_Tacho.mtl
g default
v -3.585472 32.153755 -12.030106
v 10.210693 29.328939 -9.700562
v 3.460693 26.498888 -8.058121
v -10.246155 33.356255 8.519089
v 9.132980 32.081783 -7.505722
v 8.878532 29.474960 9.971024
v 7.059807 28.705112 -11.911545
v 2.107559 29.152664 12.750000
v -5.167778 31.036171 -2.530182
v -3.499504 24.885296 5.166092
v 12.924095 32.266712 -5.979187
v -0.623764 26.822247 -2.308624
v 0.517517 27.420811 0.513275
v 3.939331 26.967701 -4.838943
v -12.583351 29.712763 -4.049133
v 2.869965 31.435534 1.337952
v 7.517303 33.063454 5.712921
v -4.619019 26.612780 0.203964
v 8.047096 28.625240 -11.452820
v -8.532913 27.383419 5.754227
v 10.727959 31.727167 0.099915
v -3.571274 30.376879 -4.365585
v 13.694740 29.772270 -2.929428
v -0.359085 28.101034 -9.556366
v -3.116890 28.899353 11.242081
v -8.768845 29.631325 1.647614
v 6.975067 27.676140 -8.432266
v -10.170738 32.766251 -4.816406
v -0.784477 26.165127 3.665344
v -8.614929 30.692265 -10.150864
v 3.150139 32.132202 5.875870
v -5.121140 31.773233 -6.165955
v 4.420769 30.688383 -0.401978
v -2.734726 31.958670 -9.979584
v 6.440826 31.567995 10.005356
v 5.829453 29.625834 -5.371307
v 2.286072 29.080538 -13.726074
v -6.720512 26.841349 7.789551
v -8.490440 31.398872 -1.524582
v 13.755997 30.542368 1.348526
v 1.441963 25.808420 -6.769943
v -2.982468 30.865738 -13.683395
v 10.062439 32.216160 7.100418
v -12.551872 30.399988 4.790817
v -6.525398 33.002159 -4.979553
v 3.084709 28.252533 -2.764023
v 11.075668 30.555000 8.136444
v -1.394714 29.765472 -7.893768
v -0.310211 28.010227 7.856766
v 9.210243 31.136831 -2.696899
v -8.617531 31.098824 -11.016464
v -2.716171 25.593956 3.439301
v 5.642311 27.055483 -11.129150
v 7.427383 31.839428 2.038345
v -5.981194 32.820774 -8.566940
v -10.063324 29.836014 4.548553
v 0.918686 29.552311 3.279861
v -9.250519 31.878761 9.363770
v -6.672112 29.504065 10.967407
v -2.606865 31.962025 -7.916214
v -13.103012 29.891151 -0.529938
v 6.637115 30.471544 -6.868179
v -6.777214 28.828653 10.229309
v -6.973122 29.128773 -0.933472
v -10.623840 0.000000 6.081818
v -6.171646 0.000000 10.534012
v -0.089828 0.000000 12.163620
v 5.991982 0.000000 10.534012
v 10.444183 0.000000 6.081818
v 12.073799 0.000000 0.000000
v 10.444183 0.000000 -6.081818
v 5.991982 0.000000 -10.534012
v -0.089828 0.000000 -12.163620
v -6.171646 0.000000 -10.534012
v -10.623840 0.000000 -6.081818
v -12.253456 0.000000 0.000000
v -13.227280 33.693153 7.584915
v -7.674736 33.693153 13.137451
v -0.089828 33.693153 15.169815
v 7.495071 33.693153 13.137451
v 13.047615 33.693153 7.584915
v 15.079987 33.693153 0.000000
v 13.047615 33.693153 -7.584915
v 7.495071 33.693153 -13.137451
v -0.089828 33.693153 -15.169815
v -7.674736 33.693153 -13.137451
v -13.227280 33.693153 -7.584915
v -15.259644 33.693153 0.000000
v -0.089828 0.000000 0.000000
v -11.494057 33.693153 6.584229
v -6.674065 33.693153 11.404236
v -0.089828 33.693153 13.168472
v 6.494400 33.693153 11.404236
v 11.314392 33.693153 6.584229
v 13.078636 33.693153 0.000000
v 11.314392 33.693153 -6.584229
v 6.494400 33.693153 -11.404236
v -0.089828 33.693153 -13.168472
v -6.674065 33.693153 -11.404236
v -11.494057 33.693153 -6.584229
v -13.258293 33.693153 0.000000
v -9.843208 23.561251 5.631119
v -5.720947 23.561251 9.753387
v -0.089828 23.561251 11.262238
v 5.541290 23.561251 9.753387
v 9.663551 23.561251 5.631119
v 11.172409 23.561251 0.000000
v 9.663551 23.561251 -5.631119
v 5.541290 23.561251 -9.753387
v -0.089828 23.561251 -11.262238
v -5.720947 23.561251 -9.753387
v -9.843208 23.561251 -5.631119
v -11.352066 23.561251 0.000000
vt 0.307239 0.996448
vt 0.307268 0.996448
vt 0.307268 0.996978
vt 0.307239 0.996978
vt 0.307297 0.996448
vt 0.307297 0.996978
vt 0.307327 0.996448
vt 0.307327 0.996978
vt 0.307356 0.996448
vt 0.307356 0.996978
vt 0.307385 0.996448
vt 0.307385 0.996978
vt 0.307415 0.996448
vt 0.307415 0.996978
vt 0.307444 0.996448
vt 0.307444 0.996978
vt 0.307474 0.996448
vt 0.307474 0.996978
vt 0.307503 0.996448
vt 0.307503 0.996978
vt 0.307532 0.996448
vt 0.307532 0.996978
vt 0.307562 0.996448
vt 0.307562 0.996978
vt 0.307591 0.996448
vt 0.307591 0.996978
vt 0.307525 0.996037
vt 0.307606 0.996117
vt 0.307415 0.996219
vt 0.307415 0.996007
vt 0.307305 0.996037
vt 0.307224 0.996117
vt 0.307195 0.996227
vt 0.307224 0.996338
vt 0.307305 0.996418
vt 0.307415 0.996448
vt 0.307525 0.996418
vt 0.307606 0.996338
vt 0.307635 0.996227
vt 0.307606 0.997307
vt 0.307525 0.997387
vt 0.307525 0.997387
vt 0.307606 0.997307
vt 0.307415 0.997417
vt 0.307415 0.997417
vt 0.307305 0.997387
vt 0.307305 0.997387
vt 0.307224 0.997307
vt 0.307224 0.997307
vt 0.307195 0.997197
vt 0.307195 0.997197
vt 0.307224 0.997086
vt 0.307224 0.997086
vt 0.307305 0.997006
vt 0.307305 0.997006
vt 0.307415 0.996976
vt 0.307415 0.996976
vt 0.307525 0.997006
vt 0.307525 0.997006
vt 0.307606 0.997086
vt 0.307606 0.997086
vt 0.307635 0.997197
vt 0.307635 0.997197
vt 0.307525 0.997387
vt 0.307606 0.997307
vt 0.307415 0.997417
vt 0.307305 0.997387
vt 0.307224 0.997307
vt 0.307195 0.997197
vt 0.307224 0.997086
vt 0.307305 0.997006
vt 0.307415 0.996976
vt 0.307525 0.997006
vt 0.307606 0.997086
vt 0.307635 0.997197
vt 0.464879 0.023076
vt 0.465665 0.021470
vt 0.465955 0.021145
vt 0.461619 0.026154
vt 0.460158 0.025706
vt 0.461257 0.024814
vt 0.465883 0.020841
vt 0.464982 0.020954
vt 0.464820 0.020369
vt 0.460558 0.018912
vt 0.459926 0.019405
vt 0.462611 0.018548
vt 0.461348 0.022012
vt 0.458766 0.021134
vt 0.460733 0.021281
vt 0.459766 0.020118
vt 0.465366 0.024183
vt 0.464841 0.023825
vt 0.466191 0.022589
vt 0.458894 0.022677
vt 0.460006 0.022070
vt 0.462151 0.024945
vt 0.463231 0.023715
vt 0.461913 0.023688
vt 0.462841 0.022717
vt 0.465511 0.020148
vt 0.464606 0.019225
vt 0.464684 0.021897
vt 0.461120 0.022956
vt 0.462112 0.022247
vt 0.460596 0.023065
vt 0.464213 0.022377
vt 0.463807 0.021587
vt 0.463171 0.021729
vt 0.462571 0.021260
vt 0.463483 0.020059
vt 0.464049 0.021132
vt 0.462052 0.020299
vt 0.462782 0.019485
vt 0.460781 0.019281
vt 0.460132 0.024479
vt 0.459668 0.023848
vt 0.462084 0.024451
vt 0.464509 0.021004
vt 0.462623 0.024068
vt 0.464803 0.025515
vt 0.463809 0.018796
vt 0.459056 0.024546
vt 0.458970 0.023757
vt 0.460370 0.025015
vt 0.462970 0.025624
vt 0.463221 0.024618
vt 0.464257 0.024667
vt 0.462635 0.026206
vt 0.461163 0.022412
vt 0.464563 0.025459
vt 0.461992 0.021607
vt 0.461021 0.020085
vt 0.463639 0.024273
vt 0.464345 0.023297
vt 0.459228 0.024896
vt 0.465871 0.024088
vt 0.464271 0.023672
vt 0.458766 0.023696
vn 0.281194 0.203203 0.937890
vn 0.281194 0.203202 0.937890
vn 0.281194 0.203203 0.937891
vn 0.112553 0.987961 -0.106139
vn 0.112553 0.987961 -0.106139
vn 0.112553 0.987961 -0.106139
vn -0.871751 0.461557 -0.164366
vn -0.871751 0.461557 -0.164366
vn -0.871751 0.461557 -0.164366
vn 0.576814 -0.784054 0.229225
vn 0.576814 -0.784055 0.229225
vn 0.576814 -0.784055 0.229225
vn -0.809464 0.573530 0.125823
vn -0.809464 0.573530 0.125823
vn -0.809464 0.573530 0.125823
vn 0.336183 0.377390 0.862878
vn 0.336183 0.377390 0.862878
vn 0.336183 0.377390 0.862878
vn 0.439321 0.893045 -0.097308
vn 0.439321 0.893045 -0.097308
vn 0.439321 0.893044 -0.097308
vn 0.021410 0.971194 -0.237327
vn 0.021410 0.971194 -0.237327
vn 0.021410 0.971194 -0.237327
vn -0.182390 0.865613 0.466312
vn -0.182390 0.865613 0.466313
vn -0.182390 0.865613 0.466313
vn 0.684478 0.481569 0.547341
vn 0.684478 0.481569 0.547341
vn 0.684478 0.481569 0.547340
vn 0.367174 0.674871 0.640103
vn 0.367174 0.674871 0.640104
vn 0.367174 0.674871 0.640104
vn -0.595430 0.796068 0.108345
vn -0.595430 0.796068 0.108345
vn -0.595430 0.796068 0.108345
vn 0.252059 0.661686 -0.706143
vn 0.252059 0.661686 -0.706143
vn 0.252059 0.661686 -0.706143
vn 0.718270 0.680221 0.146248
vn 0.718270 0.680221 0.146248
vn 0.718270 0.680221 0.146248
vn -0.322644 0.944743 -0.057976
vn -0.322644 0.944743 -0.057976
vn -0.322644 0.944743 -0.057976
vn -0.484643 0.874649 0.010483
vn -0.484643 0.874649 0.010483
vn -0.484643 0.874649 0.010483
vn -0.352816 0.790772 -0.500201
vn -0.352816 0.790772 -0.500201
vn -0.352816 0.790772 -0.500201
vn -0.197996 0.932039 -0.303481
vn -0.197996 0.932039 -0.303481
vn -0.197996 0.932039 -0.303481
vn -0.364709 0.929793 -0.049720
vn -0.364709 0.929793 -0.049720
vn -0.364709 0.929793 -0.049720
vn -0.649682 0.682005 -0.335831
vn -0.649682 0.682005 -0.335831
vn -0.649682 0.682005 -0.335831
vn -0.213565 0.941200 -0.261789
vn -0.213565 0.941200 -0.261789
vn -0.213565 0.941200 -0.261789
vn -0.133900 0.949729 -0.282993
vn -0.133900 0.949729 -0.282993
vn -0.133900 0.949729 -0.282993
vn 0.374613 0.926724 -0.029119
vn 0.374613 0.926724 -0.029119
vn 0.374613 0.926724 -0.029119
vn 0.102521 0.964486 0.243425
vn 0.102521 0.964486 0.243425
vn 0.102521 0.964486 0.243425
vn 0.426687 0.893170 -0.142076
vn 0.426687 0.893170 -0.142076
vn 0.426687 0.893170 -0.142076
vn 0.328101 0.664087 -0.671817
vn 0.328101 0.664087 -0.671817
vn 0.328101 0.664087 -0.671817
vn 0.568901 0.818817 -0.076748
vn 0.568901 0.818817 -0.076748
vn 0.568901 0.818817 -0.076748
vn 0.627077 0.720535 0.295980
vn 0.627077 0.720535 0.295980
vn 0.627077 0.720535 0.295980
vn -0.501943 0.847109 0.174526
vn -0.501943 0.847109 0.174526
vn -0.501943 0.847109 0.174526
vn -0.125277 0.973122 0.193236
vn -0.125277 0.973122 0.193236
vn -0.125277 0.973122 0.193236
vn 0.756084 0.409411 0.510607
vn 0.756084 0.409411 0.510607
vn 0.756084 0.409411 0.510607
vn -0.170807 0.971676 0.163311
vn -0.170807 0.971676 0.163311
vn -0.170807 0.971676 0.163311
vn 0.266240 0.778001 0.569061
vn 0.266240 0.778001 0.569061
vn 0.266240 0.778001 0.569061
vn 0.679475 0.717892 0.151478
vn 0.679475 0.717892 0.151478
vn 0.679475 0.717892 0.151478
vn 0.247191 0.907339 0.340048
vn 0.247191 0.907339 0.340048
vn 0.247191 0.907339 0.340048
vn 0.751688 0.481704 -0.450475
vn 0.751688 0.481704 -0.450475
vn 0.751688 0.481704 -0.450475
vn 0.443402 0.796723 0.410642
vn 0.443402 0.796723 0.410642
vn 0.443402 0.796723 0.410642
vn 0.867413 0.388305 -0.311149
vn 0.867413 0.388305 -0.311149
vn 0.867413 0.388305 -0.311149
vn -0.456732 0.391690 -0.798733
vn -0.456732 0.391690 -0.798733
vn -0.456732 0.391690 -0.798733
vn -0.312132 0.744042 -0.590741
vn -0.312132 0.744042 -0.590742
vn -0.312132 0.744042 -0.590741
vn -0.067160 0.995904 -0.060544
vn -0.067160 0.995904 -0.060544
vn -0.067160 0.995904 -0.060544
vn -0.584377 0.599226 0.547203
vn -0.584377 0.599226 0.547203
vn -0.584377 0.599226 0.547203
vn -0.301089 0.922122 0.242975
vn -0.301089 0.922122 0.242975
vn -0.301089 0.922122 0.242975
vn -0.884701 0.422412 -0.197159
vn -0.884701 0.422412 -0.197159
vn -0.884701 0.422412 -0.197159
vn -0.396206 0.810825 -0.430795
vn -0.396206 0.810825 -0.430794
vn -0.396206 0.810825 -0.430794
vn -0.761592 0.497345 -0.415483
vn -0.761592 0.497345 -0.415483
vn -0.761592 0.497345 -0.415483
vn -0.211461 0.967942 -0.135546
vn -0.211461 0.967942 -0.135546
vn -0.211461 0.967942 -0.135546
vn 0.416472 0.472313 0.776834
vn 0.416472 0.472313 0.776834
vn 0.416473 0.472313 0.776834
vn 0.663128 0.748444 0.009629
vn 0.663128 0.748444 0.009629
vn 0.663128 0.748444 0.009629
vn 0.851540 0.006163 0.524253
vn 0.851540 0.006163 0.524253
vn 0.851540 0.006163 0.524253
vn 0.105219 0.746509 -0.657003
vn 0.105219 0.746509 -0.657003
vn 0.105219 0.746509 -0.657003
vn -0.018167 0.912739 -0.408138
vn -0.018167 0.912739 -0.408138
vn -0.018167 0.912739 -0.408138
vn -0.551937 0.465525 -0.691847
vn -0.551937 0.465525 -0.691847
vn -0.551937 0.465525 -0.691847
vn -0.022780 0.829246 -0.558420
vn -0.022780 0.829246 -0.558420
vn -0.022780 0.829246 -0.558420
vn 0.531057 0.827052 0.184292
vn 0.531057 0.827052 0.184292
vn 0.531057 0.827052 0.184292
vn -0.280227 0.895539 0.345663
vn -0.280227 0.895539 0.345663
vn -0.280227 0.895539 0.345663
vn -0.190193 0.940936 0.280119
vn -0.190193 0.940936 0.280119
vn -0.190193 0.940936 0.280119
vn -0.811077 0.583857 0.035566
vn -0.811078 0.583857 0.035566
vn -0.811078 0.583857 0.035566
vn -0.798574 0.501048 -0.333511
vn -0.798574 0.501048 -0.333511
vn -0.798574 0.501048 -0.333511
vn -0.008361 0.974634 0.223647
vn -0.008361 0.974634 0.223647
vn -0.008361 0.974634 0.223647
vn 0.054732 0.831524 -0.552786
vn 0.054732 0.831524 -0.552786
vn 0.054732 0.831524 -0.552786
vn -0.041265 0.915073 0.401172
vn -0.041265 0.915073 0.401172
vn -0.041265 0.915073 0.401172
vn 0.169540 0.533300 0.828763
vn 0.169540 0.533300 0.828763
vn 0.169540 0.533300 0.828763
vn 0.278394 0.944570 -0.174023
vn 0.278394 0.944570 -0.174023
vn 0.278394 0.944570 -0.174023
vn -0.368012 0.926357 -0.080190
vn -0.368012 0.926357 -0.080190
vn -0.368012 0.926357 -0.080190
vn 0.103632 0.799882 0.591143
vn 0.103632 0.799882 0.591143
vn 0.103632 0.799882 0.591143
vn -0.279125 0.705498 -0.651431
vn -0.279125 0.705498 -0.651431
vn -0.279125 0.705498 -0.651431
vn 0.268456 0.804927 -0.529174
vn 0.268456 0.804927 -0.529174
vn 0.268456 0.804927 -0.529174
vn -0.007407 0.997493 -0.070380
vn -0.007407 0.997493 -0.070380
vn -0.007407 0.997493 -0.070380
vn 0.116776 0.928407 0.352739
vn 0.116776 0.928407 0.352739
vn 0.116776 0.928407 0.352739
vn 0.610063 0.747765 0.262050
vn 0.610063 0.747765 0.262050
vn 0.610063 0.747765 0.262050
vn 0.246604 0.817913 0.519812
vn 0.246604 0.817913 0.519812
vn 0.246604 0.817913 0.519812
vn -0.313626 0.744067 -0.589918
vn -0.313626 0.744067 -0.589918
vn -0.313626 0.744067 -0.589918
vn -0.352060 0.723930 -0.593279
vn -0.352060 0.723930 -0.593279
vn -0.352060 0.723930 -0.593279
vn 0.402318 0.648452 0.646259
vn 0.402318 0.648452 0.646259
vn 0.402318 0.648452 0.646259
vn 0.728147 0.622734 0.286364
vn 0.728147 0.622734 0.286364
vn 0.728147 0.622734 0.286364
vn 0.851239 0.524755 0.004899
vn 0.851239 0.524755 0.004899
vn 0.851239 0.524755 0.004899
vn 0.249684 0.968177 -0.017049
vn 0.249684 0.968177 -0.017049
vn 0.249684 0.968177 -0.017049
vn -0.893786 0.438938 -0.092090
vn -0.893786 0.438938 -0.092090
vn -0.893786 0.438938 -0.092090
vn -0.223012 0.901249 -0.371504
vn -0.223012 0.901249 -0.371504
vn -0.223012 0.901249 -0.371504
vn 0.475800 0.772156 -0.421176
vn 0.475800 0.772156 -0.421176
vn 0.475800 0.772156 -0.421176
vn -0.151570 0.980547 -0.124717
vn -0.151570 0.980547 -0.124717
vn -0.151570 0.980547 -0.124717
vn -0.702721 0.643156 0.304193
vn -0.702721 0.643156 0.304193
vn -0.702721 0.643156 0.304193
vn 0.377137 0.784117 0.492878
vn 0.377137 0.784117 0.492878
vn 0.377137 0.784117 0.492878
vn -0.692054 0.721626 -0.017790
vn -0.692054 0.721626 -0.017790
vn -0.692054 0.721626 -0.017790
vn -0.294949 0.604435 0.740043
vn -0.294949 0.604435 0.740043
vn -0.294949 0.604435 0.740043
vn -0.538278 0.839619 0.072778
vn -0.538278 0.839619 0.072778
vn -0.538278 0.839619 0.072778
vn -0.035634 0.948407 -0.315047
vn -0.035634 0.948407 -0.315047
vn -0.035634 0.948407 -0.315047
vn 0.442050 0.847718 -0.293199
vn 0.442050 0.847718 -0.293199
vn 0.442050 0.847718 -0.293199
vn 0.169114 0.924129 0.342616
vn 0.169114 0.924129 0.342616
vn 0.169114 0.924129 0.342616
vn 0.688970 0.721590 0.068032
vn 0.688970 0.721590 0.068032
vn 0.688971 0.721590 0.068032
vn 0.742175 0.604936 0.288495
vn 0.742175 0.604936 0.288495
vn 0.742175 0.604936 0.288495
vn 0.223797 0.974138 0.031132
vn 0.223797 0.974138 0.031132
vn 0.223797 0.974138 0.031132
vn -0.723841 0.687281 -0.060822
vn -0.723841 0.687281 -0.060822
vn -0.723841 0.687281 -0.060822
vn -0.798313 0.527475 -0.290630
vn -0.798313 0.527475 -0.290630
vn -0.798313 0.527475 -0.290630
vn 0.860721 0.399951 -0.314959
vn 0.860721 0.399951 -0.314959
vn 0.860721 0.399951 -0.314959
vn 0.227241 -0.363394 -0.903497
vn 0.227241 -0.363394 -0.903497
vn 0.227241 -0.363394 -0.903497
vn 0.173848 0.714051 -0.678166
vn 0.173848 0.714050 -0.678166
vn 0.173848 0.714050 -0.678166
vn 0.731846 0.447636 -0.513831
vn 0.731846 0.447636 -0.513831
vn 0.731846 0.447636 -0.513831
vn 0.874448 0.481995 -0.054970
vn 0.874448 0.481995 -0.054970
vn 0.874448 0.481995 -0.054970
vn 0.529647 0.300388 0.793247
vn 0.529647 0.300388 0.793247
vn 0.529647 0.300388 0.793247
vn -0.327913 0.939812 -0.096060
vn -0.327912 0.939812 -0.096060
vn -0.327913 0.939812 -0.096060
vn -0.521343 0.832184 0.188871
vn -0.521343 0.832184 0.188871
vn -0.521343 0.832184 0.188871
vn -0.900852 0.123892 -0.416073
vn -0.900852 0.123892 -0.416073
vn -0.900852 0.123892 -0.416073
vn 0.157140 0.767489 -0.621505
vn 0.157140 0.767489 -0.621505
vn 0.157140 0.767489 -0.621505
vn 0.680844 0.575547 -0.452987
vn 0.680844 0.575546 -0.452987
vn 0.680844 0.575546 -0.452987
vn 0.304381 0.425375 0.852296
vn 0.304381 0.425375 0.852296
vn 0.304381 0.425375 0.852296
vn 0.717306 0.579984 0.386121
vn 0.717306 0.579984 0.386121
vn 0.717306 0.579984 0.386121
vn -0.862599 -0.088870 0.498021
vn -0.498021 -0.088870 0.862599
vn -0.498021 -0.088870 0.862599
vn -0.862599 -0.088870 0.498021
vn 0.000000 -0.088870 0.996043
vn -0.000000 -0.088870 0.996043
vn 0.498021 -0.088870 0.862599
vn 0.498021 -0.088870 0.862599
vn 0.862599 -0.088869 0.498022
vn 0.862599 -0.088869 0.498022
vn 0.996043 -0.088869 0.000000
vn 0.996043 -0.088869 0.000000
vn 0.862599 -0.088869 -0.498022
vn 0.862599 -0.088870 -0.498022
vn 0.498021 -0.088870 -0.862599
vn 0.498021 -0.088870 -0.862599
vn 0.000000 -0.088870 -0.996043
vn -0.000000 -0.088870 -0.996043
vn -0.498021 -0.088870 -0.862599
vn -0.498021 -0.088870 -0.862599
vn -0.862599 -0.088870 -0.498021
vn -0.862599 -0.088870 -0.498021
vn -0.996043 -0.088870 0.000000
vn -0.996043 -0.088870 0.000000
vn 0.000000 -1.000000 0.000000
vn 0.000000 -1.000000 0.000000
vn 0.000000 -1.000000 0.000000
vn 0.000000 -1.000000 0.000000
vn 0.000000 -1.000000 0.000000
vn 0.000000 -1.000000 0.000000
vn 0.000000 -1.000000 0.000000
vn 0.000000 -1.000000 0.000000
vn 0.000000 -1.000000 0.000000
vn 0.000000 -1.000000 0.000000
vn 0.000000 -1.000000 0.000000
vn 0.000000 -1.000000 0.000000
vn 0.000000 -1.000000 0.000000
vn 0.000000 1.000000 -0.000000
vn 0.000000 1.000000 -0.000000
vn 0.000000 1.000000 -0.000000
vn 0.000000 1.000000 -0.000000
vn 0.000000 1.000000 0.000000
vn 0.000000 1.000000 0.000000
vn 0.000000 1.000000 0.000000
vn 0.000000 1.000000 0.000000
vn 0.000000 1.000000 0.000000
vn 0.000000 1.000000 0.000000
vn 0.000000 1.000000 0.000000
vn 0.000000 1.000000 0.000000
vn 0.000000 1.000000 0.000000
vn 0.000000 1.000000 0.000000
vn 0.000000 1.000000 0.000000
vn 0.000000 1.000000 0.000000
vn 0.000000 1.000000 0.000000
vn 0.000000 1.000000 0.000000
vn 0.000000 1.000000 0.000000
vn 0.000000 1.000000 0.000000
vn 0.000000 1.000000 -0.000000
vn 0.000000 1.000000 -0.000000
vn 0.000000 1.000000 -0.000000
vn 0.000000 1.000000 -0.000000
vn 0.851094 0.184897 -0.491378
vn 0.491379 0.184898 -0.851093
vn 0.491379 0.184898 -0.851093
vn 0.851093 0.184898 -0.491379
vn 0.000000 0.184898 -0.982758
vn 0.000000 0.184898 -0.982758
vn -0.491379 0.184897 -0.851093
vn -0.491380 0.184898 -0.851093
vn -0.851093 0.184897 -0.491379
vn -0.851093 0.184897 -0.491379
vn -0.982758 0.184897 0.000000
vn -0.982758 0.184897 0.000000
vn -0.851093 0.184897 0.491379
vn -0.851093 0.184897 0.491379
vn -0.491379 0.184897 0.851093
vn -0.491380 0.184898 0.851093
vn 0.000000 0.184898 0.982758
vn 0.000000 0.184898 0.982758
vn 0.491379 0.184898 0.851093
vn 0.491379 0.184898 0.851093
vn 0.851094 0.184898 0.491378
vn 0.851093 0.184898 0.491379
vn 0.982758 0.184897 0.000000
vn 0.982758 0.184897 0.000000
s off
g Tacho
usemtl initialShadingGroup
f 24/76/1 53/77/2 7/78/3
f 61/79/4 44/80/5 26/81/6
f 19/82/7 27/83/8 5/84/9
f 47/85/10 6/86/11 40/87/12
f 57/88/13 8/89/14 31/90/15
f 6/86/16 35/91/17 8/89/18
f 1/92/19 34/93/20 37/94/21
f 25/95/22 8/89/23 49/96/24
f 61/79/25 26/81/26 39/97/27
f 34/93/28 24/76/29 37/94/30
f 22/98/31 18/99/32 12/100/33
f 57/88/34 49/96/35 8/89/36
f 2/101/37 5/84/38 11/102/39
f 22/98/40 12/100/41 24/76/42
f 53/77/43 3/103/44 27/83/45
f 52/104/46 13/105/47 12/100/48
f 10/106/49 25/95/50 49/96/51
f 41/107/52 12/100/53 14/108/54
f 12/100/55 13/105/56 46/109/57
f 13/105/58 33/110/59 46/109/60
f 33/110/61 50/111/62 36/112/63
f 33/110/64 54/113/65 21/114/66
f 21/114/67 43/115/68 40/87/69
f 18/99/70 52/104/71 12/100/72
f 20/116/73 38/117/74 10/106/75
f 19/82/76 5/84/77 2/101/78
f 18/99/79 26/81/80 52/104/81
f 26/81/82 18/99/83 64/118/84
f 62/119/85 50/111/86 5/84/87
f 5/84/88 50/111/89 11/102/90
f 22/98/91 9/120/92 18/99/93
f 1/92/94 51/121/95 34/93/96
f 11/102/97 50/111/98 23/122/99
f 24/76/100 12/100/101 41/107/102
f 24/76/103 3/103/104 53/77/105
f 58/123/106 63/124/107 20/116/108
f 26/81/109 20/116/110 10/106/111
f 56/125/112 58/123/113 20/116/114
f 5/84/115 27/83/116 62/119/117
f 3/103/118 36/112/119 27/83/120
f 28/126/121 45/127/122 55/128/123
f 28/126/124 15/129/125 39/97/126
f 52/104/127 29/130/128 13/105/129
f 13/105/130 29/130/131 57/88/132
f 30/131/133 28/126/134 55/128/135
f 30/131/136 15/129/137 28/126/138
f 16/132/139 31/90/140 17/133/141
f 47/85/142 35/91/143 6/86/144
f 32/134/145 45/127/146 22/98/147
f 22/98/148 24/76/149 48/135/150
f 56/125/151 44/80/152 4/136/153
f 16/132/154 54/113/155 33/110/156
f 33/110/157 13/105/158 16/132/159
f 51/121/160 55/128/161 34/93/162
f 32/134/163 22/98/164 48/135/165
f 8/89/166 35/91/167 31/90/168
f 31/90/169 35/91/170 17/133/171
f 3/103/172 14/108/173 36/112/174
f 14/108/175 33/110/176 36/112/177
f 37/94/178 24/76/179 7/78/180
f 10/106/181 38/117/182 25/95/183
f 39/97/184 45/127/185 28/126/186
f 9/120/187 64/118/188 18/99/189
f 50/111/190 40/87/191 23/122/192
f 41/107/193 14/108/194 3/103/195
f 24/76/196 41/107/197 3/103/198
f 42/137/199 51/121/200 1/92/201
f 42/137/202 1/92/203 37/94/204
f 21/114/205 54/113/206 43/115/207
f 17/133/208 35/91/209 43/115/210
f 45/127/211 9/120/212 22/98/213
f 45/127/214 39/97/215 9/120/216
f 46/109/217 33/110/218 14/108/219
f 12/100/220 46/109/221 14/108/222
f 35/91/223 47/85/224 43/115/225
f 43/115/226 47/85/227 40/87/228
f 48/135/229 24/76/230 34/93/231
f 55/128/232 60/138/233 34/93/234
f 29/130/235 49/96/236 57/88/237
f 49/96/238 29/130/239 52/104/240
f 50/111/241 21/114/242 40/87/243
f 50/111/244 33/110/245 21/114/246
f 51/121/247 30/131/248 55/128/249
f 10/106/250 52/104/251 26/81/252
f 52/104/253 10/106/254 49/96/255
f 7/78/256 53/77/257 19/82/258
f 53/77/259 27/83/260 19/82/261
f 16/132/262 17/133/263 54/113/264
f 54/113/265 17/133/266 43/115/267
f 55/128/268 32/134/269 60/138/270
f 55/128/271 45/127/272 32/134/273
f 56/125/274 20/116/275 26/81/276
f 44/80/277 56/125/278 26/81/279
f 16/132/280 57/88/281 31/90/282
f 13/105/283 57/88/284 16/132/285
f 56/125/286 4/136/287 58/123/288
f 4/136/289 59/139/290 58/123/291
f 59/139/292 25/95/293 63/124/294
f 58/123/295 59/139/296 63/124/297
f 60/138/298 48/135/299 34/93/300
f 60/138/301 32/134/302 48/135/303
f 61/79/304 39/97/305 15/129/306
f 36/112/307 50/111/308 62/119/309
f 27/83/310 36/112/311 62/119/312
f 38/117/313 63/124/314 25/95/315
f 20/116/316 63/124/317 38/117/318
f 39/97/319 64/118/320 9/120/321
f 39/97/322 26/81/323 64/118/324
s 1
f 65/1/325 66/2/326 78/3/327 77/4/328
f 66/2/326 67/5/329 79/6/330 78/3/327
f 67/5/329 68/7/331 80/8/332 79/6/330
f 68/7/331 69/9/333 81/10/334 80/8/332
f 69/9/333 70/11/335 82/12/336 81/10/334
f 70/11/335 71/13/337 83/14/338 82/12/336
f 71/13/337 72/15/339 84/16/340 83/14/338
f 72/15/339 73/17/341 85/18/342 84/16/340
f 73/17/341 74/19/343 86/20/344 85/18/342
f 74/19/343 75/21/345 87/22/346 86/20/344
f 75/21/345 76/23/347 88/24/348 87/22/346
f 76/23/347 65/25/325 77/26/328 88/24/348
s 2
f 66/27/349 65/28/350 89/29/351
f 67/30/352 66/27/349 89/29/351
f 68/31/353 67/30/352 89/29/351
f 69/32/354 68/31/353 89/29/351
f 70/33/355 69/32/354 89/29/351
f 71/34/356 70/33/355 89/29/351
f 72/35/357 71/34/356 89/29/351
f 73/36/358 72/35/357 89/29/351
f 74/37/359 73/36/358 89/29/351
f 75/38/360 74/37/359 89/29/351
f 76/39/361 75/38/360 89/29/351
f 65/28/350 76/39/361 89/29/351
s 3
f 77/40/362 78/41/363 91/42/364 90/43/365
f 78/41/363 79/44/366 92/45/367 91/42/364
f 79/44/366 80/46/368 93/47/369 92/45/367
f 80/46/368 81/48/370 94/49/371 93/47/369
f 81/48/370 82/50/372 95/51/373 94/49/371
f 82/50/372 83/52/374 96/53/375 95/51/373
f 83/52/374 84/54/376 97/55/377 96/53/375
f 84/54/376 85/56/378 98/57/379 97/55/377
f 85/56/378 86/58/380 99/59/381 98/57/379
f 86/58/380 87/60/382 100/61/383 99/59/381
f 87/60/382 88/62/384 101/63/385 100/61/383
f 88/62/384 77/40/362 90/43/365 101/63/385
s 4
f 90/43/386 91/42/387 103/64/388 102/65/389
f 91/42/387 92/45/390 104/66/391 103/64/388
f 92/45/390 93/47/392 105/67/393 104/66/391
f 93/47/392 94/49/394 106/68/395 105/67/393
f 94/49/394 95/51/396 107/69/397 106/68/395
f 95/51/396 96/53/398 108/70/399 107/69/397
f 96/53/398 97/55/400 109/71/401 108/70/399
f 97/55/400 98/57/402 110/72/403 109/71/401
f 98/57/402 99/59/404 111/73/405 110/72/403
f 99/59/404 100/61/406 112/74/407 111/73/405
f 100/61/406 101/63/408 113/75/409 112/74/407
f 101/63/408 90/43/386 102/65/389 113/75/409
