# This file uses centimeters as units for non-parametric coordinates.

mtllib SM_Teclado.mtl
g default
v 30.893463 1.255246 -7.890244
v 31.242634 0.980145 -8.182572
v 30.919563 0.985811 -8.457676
v 30.525557 1.255246 -8.166458
v -29.650835 1.255246 -8.166458
v -30.038052 0.980154 -8.457676
v -30.367905 0.985792 -8.188221
v -30.018734 1.255246 -7.890244
v 30.525557 1.255246 8.166458
v 30.912779 0.980154 8.457676
v 31.242634 0.985792 8.188221
v 30.893463 1.255246 7.890243
v -30.018734 1.255246 7.890243
v -30.367905 0.980145 8.182571
v -30.044838 0.985811 8.457676
v -29.650835 1.255246 8.166458
v 30.906002 0.000001 -8.457676
v 31.242634 0.000001 -8.176926
v -30.367905 0.000001 -8.176926
v -30.031269 0.000001 -8.457676
v 31.242634 0.000001 8.176925
v 30.906002 0.000001 8.457676
v -30.031269 0.000001 8.457676
v -30.367905 0.000001 8.176925
vt 0.241025 0.666883
vt 0.239632 0.668356
vt 0.241021 0.666889
vt 0.240962 0.666947
vt 0.240999 0.666897
vt 0.236568 0.662961
vt 0.236537 0.663034
vt 0.236617 0.662994
vt 0.236617 0.662993
vt 0.235503 0.664178
vt 0.235501 0.664178
vt 0.239559 0.668385
vt 0.239602 0.668376
vt 0.239643 0.668292
vt 0.239694 0.668288
vt 0.235416 0.664217
vt 0.235469 0.664163
vt 0.235543 0.664135
vt 0.240918 0.666942
vt 0.235419 0.664176
vt 0.235491 0.664141
vt 0.236578 0.663039
vt 0.239635 0.668349
vt 0.241005 0.666853
vt 0.236608 0.662955
vt 0.239666 0.668378
vt -0.000640 0.649619
vt 0.242072 0.649619
vt 0.242072 0.746727
vt -0.000640 0.746727
vn 0.604831 0.796147 -0.018140
vn 0.609089 0.793031 -0.010611
vn 0.614925 0.788585 -0.000138
vn 0.614925 0.788585 -0.000138
vn 0.644304 -0.006640 -0.764740
vn 0.644304 -0.006640 -0.764740
vn 0.644304 -0.006640 -0.764740
vn 0.644304 -0.006640 -0.764740
vn -0.636647 -0.006626 -0.771127
vn -0.636647 -0.006626 -0.771127
vn -0.636647 -0.006626 -0.771127
vn -0.636647 -0.006626 -0.771127
vn -0.614925 0.788585 0.000138
vn -0.614925 0.788585 0.000138
vn -0.604831 0.796147 0.018139
vn -0.609089 0.793031 0.010611
vn 0.636648 -0.006625 0.771126
vn 0.636648 -0.006625 0.771126
vn 0.636648 -0.006625 0.771126
vn 0.636648 -0.006625 0.771126
vn -0.644304 -0.006644 0.764740
vn -0.644304 -0.006644 0.764740
vn -0.644304 -0.006644 0.764740
vn -0.644304 -0.006644 0.764740
vn -1.000000 0.000000 0.000000
vn -1.000000 0.000000 0.000000
vn -1.000000 0.000000 0.000000
vn -1.000000 0.000000 0.000000
vn 1.000000 0.000000 0.000000
vn 1.000000 0.000000 0.000000
vn 1.000000 0.000000 0.000000
vn 1.000000 0.000000 0.000000
vn 0.006909 0.734873 -0.678169
vn 0.001717 0.731593 -0.681740
vn -0.001750 0.731572 -0.681762
vn -0.006627 0.734657 -0.678406
vn -0.310624 0.859426 -0.406079
vn -0.310624 0.859426 -0.406079
vn 0.001750 0.731572 0.681762
vn 0.006627 0.734657 0.678406
vn 0.310620 0.859427 0.406079
vn 0.310620 0.859427 0.406079
vn -0.006909 0.734873 0.678169
vn -0.001717 0.731593 0.681739
vn 0.000000 -1.000000 0.000000
vn 0.000000 -1.000000 0.000000
vn 0.000000 -1.000000 0.000000
vn 0.000000 -1.000000 0.000000
vn 0.000000 -1.000000 0.000000
vn 0.000000 -1.000000 0.000000
vn 0.000000 -1.000000 0.000000
vn 0.000000 -1.000000 0.000000
vn 0.000000 -1.000000 0.000000
vn 0.000000 -1.000000 0.000000
vn 0.000000 -1.000000 0.000000
vn 0.000000 -1.000000 0.000000
vn 0.000000 0.000000 1.000000
vn 0.000000 0.000000 1.000000
vn 0.000000 0.000000 1.000000
vn 0.000000 0.000000 1.000000
vn 0.000000 0.000000 -1.000000
vn 0.000000 0.000000 -1.000000
vn 0.000000 0.000000 -1.000000
vn 0.000000 0.000000 -1.000000
vn 0.000000 1.000000 0.000000
vn 0.000000 1.000000 0.000000
vn 0.000000 1.000000 0.000000
vn 0.000000 1.000000 0.000000
vn 0.000000 1.000000 0.000000
vn 0.000000 1.000000 0.000000
vn 0.000000 1.000000 0.000000
vn 0.000000 1.000000 0.000000
vn 0.000000 1.000000 0.000000
vn 0.000000 1.000000 0.000000
vn 0.000000 1.000000 0.000000
vn 0.000000 1.000000 0.000000
s 1
g Teclado
usemtl lambert2SG
f 2/3/1 1/1/2 12/2/3 11/23/4
s off
f 3/5/5 2/3/6 18/4/7 17/19/8
f 7/9/9 6/6/10 20/7/11 19/22/12
s 2
f 8/8/13 7/9/14 14/10/15 13/11/16
s off
f 11/26/17 10/13/18 22/14/19 21/15/20
f 15/20/21 14/17/22 24/18/23 23/21/24
f 7/9/25 19/22/26 24/18/27 14/10/28
f 18/4/29 2/3/30 11/23/31 21/15/32
s 1
f 1/1/2 2/3/1 3/5/33 4/24/34
f 5/25/35 6/6/36 7/9/37 8/8/38
s 2
f 9/12/39 10/13/40 11/26/41 12/2/42
f 13/11/16 14/17/15 15/20/43 16/16/44
s off
f 19/22/45 20/7/46 23/21/47 24/18/48
f 17/19/49 18/4/50 21/15/51 22/14/52
f 20/7/53 17/19/54 22/14/55 23/21/56
f 22/14/57 10/13/58 15/20/59 23/21/60
s 2
f 15/20/43 10/13/40 9/12/39 16/16/44
s 1
f 5/25/35 4/24/34 3/5/33 6/6/36
s off
f 6/6/61 3/5/62 17/19/63 20/7/64
f 16/27/65 9/28/66 4/29/67 5/30/68
f 4/24/69 9/12/70 12/2/71 1/1/72
f 8/8/73 13/11/74 16/16/75 5/25/76
