# This file uses centimeters as units for non-parametric coordinates.

mtllib SM_VentanaA.mtl
g default
v -54.359924 0.000002 -3.057220
v 54.359924 0.000002 -3.057220
v -54.359924 0.000002 4.281158
v 54.359924 0.000002 4.281158
v -54.359924 77.288971 4.281158
v 54.359924 77.288971 4.281158
v -54.359924 77.288971 -3.057220
v 54.359924 77.288971 -3.057220
v -50.477173 3.806967 4.281158
v 50.477173 3.806967 4.281158
v 50.477173 73.482010 4.281158
v -50.477173 73.482010 4.281158
v -50.477173 3.806967 -2.268890
v 50.477173 3.806967 -2.268890
v 50.477173 73.482010 -2.268890
v -50.477173 73.482010 -2.268890
v -52.668213 49.695049 -4.281143
v 52.141052 49.695049 -4.281143
v -52.668213 49.695049 3.491440
v 52.141052 49.695049 3.491440
v -52.668213 52.902962 3.491440
v 52.141052 52.902962 3.491440
v -52.668213 52.902962 -4.281143
v 52.141052 52.902962 -4.281143
vt 0.462396 0.915729
vt 0.459761 0.915729
vt 0.462396 0.913094
vt 0.459761 0.913094
vt 0.462396 0.910458
vt 0.459761 0.910458
vt 0.462396 0.907823
vt 0.459761 0.907823
vt 0.457125 0.915729
vt 0.457125 0.913094
vt 0.465031 0.915729
vt 0.465031 0.913094
vt 0.462396 0.913094
vt 0.459761 0.913094
vt 0.459761 0.910458
vt 0.462396 0.910458
vt 0.462396 0.913094
vt 0.459761 0.913094
vt 0.459761 0.910458
vt 0.462396 0.910458
vt 0.462396 0.915729
vt 0.459761 0.915729
vt 0.459761 0.913094
vt 0.462396 0.913094
vt 0.459761 0.910458
vt 0.462396 0.910458
vt 0.459761 0.907823
vt 0.462396 0.907823
vt 0.517573 0.687056
vt 0.527863 0.687056
vt 0.527863 0.694158
vt 0.517573 0.694158
vn 0.000000 -1.000000 0.000000
vn 0.000000 -1.000000 0.000000
vn 0.000000 -1.000000 0.000000
vn 0.000000 -1.000000 0.000000
vn 0.000000 0.000000 1.000000
vn 0.000000 0.000000 1.000000
vn 0.000000 0.000000 1.000000
vn 0.000000 0.000000 1.000000
vn 0.000000 1.000000 0.000000
vn 0.000000 1.000000 0.000000
vn 0.000000 1.000000 0.000000
vn 0.000000 1.000000 0.000000
vn 1.000000 0.000000 0.000000
vn 1.000000 0.000000 0.000000
vn 1.000000 0.000000 0.000000
vn 1.000000 0.000000 0.000000
vn -1.000000 0.000000 0.000000
vn -1.000000 0.000000 0.000000
vn -1.000000 0.000000 0.000000
vn -1.000000 0.000000 0.000000
vn 0.000000 0.000000 1.000000
vn 0.000000 0.000000 1.000000
vn 0.000000 0.000000 1.000000
vn 0.000000 0.000000 1.000000
vn 0.000000 0.000000 1.000000
vn 0.000000 0.000000 1.000000
vn 0.000000 0.000000 1.000000
vn 0.000000 0.000000 1.000000
vn 0.000000 0.000000 1.000000
vn 0.000000 0.000000 1.000000
vn 0.000000 0.000000 1.000000
vn 0.000000 0.000000 1.000000
vn 0.000000 0.000000 1.000000
vn 0.000000 0.000000 1.000000
vn 0.000000 0.000000 1.000000
vn 0.000000 0.000000 1.000000
vn 0.000000 1.000000 0.000000
vn 0.000000 1.000000 0.000000
vn 0.000000 1.000000 0.000000
vn 0.000000 1.000000 0.000000
vn -1.000000 0.000000 0.000000
vn -1.000000 0.000000 0.000000
vn -1.000000 0.000000 0.000000
vn -1.000000 0.000000 0.000000
vn 0.000000 -1.000000 0.000000
vn 0.000000 -1.000000 0.000000
vn 0.000000 -1.000000 0.000000
vn 0.000000 -1.000000 0.000000
vn 1.000000 0.000000 0.000000
vn 1.000000 0.000000 0.000000
vn 1.000000 0.000000 0.000000
vn 1.000000 0.000000 0.000000
vn 0.000000 -1.000000 0.000000
vn 0.000000 -1.000000 0.000000
vn 0.000000 -1.000000 0.000000
vn 0.000000 -1.000000 0.000000
vn 0.000000 0.000000 1.000000
vn 0.000000 0.000000 1.000000
vn 0.000000 0.000000 1.000000
vn 0.000000 0.000000 1.000000
vn 0.000000 1.000000 0.000000
vn 0.000000 1.000000 0.000000
vn 0.000000 1.000000 0.000000
vn 0.000000 1.000000 0.000000
s off
g VentanaA
usemtl initialShadingGroup
f 1/1/1 2/2/2 4/4/3 3/3/4
f 13/29/5 14/30/6 15/31/7 16/32/8
f 5/5/9 6/6/10 8/8/11 7/7/12
f 2/2/13 8/9/14 6/10/15 4/4/16
f 7/11/17 1/1/18 3/3/19 5/12/20
f 3/3/21 4/4/22 10/14/23 9/13/24
f 4/4/25 6/6/26 11/15/27 10/14/28
f 6/6/29 5/5/30 12/16/31 11/15/32
f 5/5/33 3/3/34 9/13/35 12/16/36
f 9/13/37 10/14/38 14/18/39 13/17/40
f 10/14/41 11/15/42 15/19/43 14/18/44
f 11/15/45 12/16/46 16/20/47 15/19/48
f 12/16/49 9/13/50 13/17/51 16/20/52
f 17/21/53 18/22/54 20/23/55 19/24/56
f 19/24/57 20/23/58 22/25/59 21/26/60
f 21/26/61 22/25/62 24/27/63 23/28/64
