# This file uses centimeters as units for non-parametric coordinates.

v -10.533642 6.424343 0.005322
v 10.428211 6.424343 0.005322
v -10.533642 5.799047 1.333661
v 10.428211 5.799047 1.333661
v -10.533642 6.071371 1.461856
v 10.428211 6.071371 1.461856
v -10.533642 6.696669 0.133517
v 10.428211 6.696669 0.133517
v -10.533642 7.495483 0.005322
v 10.428211 7.495483 0.005322
v -10.533642 6.870188 1.333661
v 10.428211 6.870188 1.333661
v -10.533642 7.142513 1.461856
v 10.428211 7.142513 1.461856
v -10.533642 7.767809 0.133517
v 10.428211 7.767809 0.133517
v -10.533642 14.993465 0.005322
v 10.428211 14.993465 0.005322
v -10.533642 14.368168 1.333661
v 10.428211 14.368168 1.333661
v -10.533642 14.640495 1.461856
v 10.428211 14.640495 1.461856
v -10.533642 15.265789 0.133517
v 10.428211 15.265789 0.133517
v -10.871986 0.000000 -1.461856
v 10.871986 0.000000 -1.461856
v -10.871986 0.000000 0.005823
v 10.871986 0.000000 0.005823
v -10.871986 15.457794 0.005823
v 10.871986 15.457794 0.005823
v -10.871986 15.457794 -1.461856
v 10.871986 15.457794 -1.461856
v -10.095436 0.761393 0.005823
v 10.095436 0.761393 0.005823
v 10.095436 14.696404 0.005823
v -10.095436 14.696404 0.005823
v -10.095436 0.761393 -1.304187
v 10.095436 0.761393 -1.304187
v 10.095436 14.696404 -1.304187
v -10.095436 14.696404 -1.304187
v -10.533642 9.637764 0.005322
v 10.428211 9.637764 0.005322
v -10.533642 9.012466 1.333661
v 10.428211 9.012466 1.333661
v -10.533642 9.284794 1.461856
v 10.428211 9.284794 1.461856
v -10.533642 9.910088 0.133517
v 10.428211 9.910088 0.133517
v -10.533642 8.566624 0.005322
v 10.428211 8.566624 0.005322
v -10.533642 7.941326 1.333661
v 10.428211 7.941326 1.333661
v -10.533642 8.213654 1.461856
v 10.428211 8.213654 1.461856
v -10.533642 8.838951 0.133517
v 10.428211 8.838951 0.133517
v -10.533642 10.708904 0.005322
v 10.428211 10.708904 0.005322
v -10.533642 10.083607 1.333661
v 10.428211 10.083607 1.333661
v -10.533642 10.355934 1.461856
v 10.428211 10.355934 1.461856
v -10.533642 10.981232 0.133517
v 10.428211 10.981232 0.133517
v -10.533642 2.139783 0.005322
v 10.428211 2.139783 0.005322
v -10.533642 1.514486 1.333661
v 10.428211 1.514486 1.333661
v -10.533642 1.786811 1.461856
v 10.428211 1.786811 1.461856
v -10.533642 2.412108 0.133517
v 10.428211 2.412108 0.133517
v -10.533642 3.210923 0.005322
v 10.428211 3.210923 0.005322
v -10.533642 2.585627 1.333661
v 10.428211 2.585627 1.333661
v -10.533642 2.857951 1.461856
v 10.428211 2.857951 1.461856
v -10.533642 3.483249 0.133517
v 10.428211 3.483249 0.133517
v -10.533642 1.068643 0.005322
v 10.428211 1.068643 0.005322
v -10.533642 0.443346 1.333661
v 10.428211 0.443346 1.333661
v -10.533642 0.715671 1.461856
v 10.428211 0.715671 1.461856
v -10.533642 1.340969 0.133517
v 10.428211 1.340969 0.133517
v -10.533642 4.282064 0.005322
v 10.428211 4.282064 0.005322
v -10.533642 3.656767 1.333661
v 10.428211 3.656767 1.333661
v -10.533642 3.929091 1.461856
v 10.428211 3.929091 1.461856
v -10.533642 4.554388 0.133517
v 10.428211 4.554388 0.133517
v -10.533642 5.353203 0.005322
v 10.428211 5.353203 0.005322
v -10.533642 4.727907 1.333661
v 10.428211 4.727907 1.333661
v -10.533642 5.000233 1.461856
v 10.428211 5.000233 1.461856
v -10.533642 5.625528 0.133517
v 10.428211 5.625528 0.133517
v -10.533642 12.851185 0.005322
v 10.428211 12.851185 0.005322
v -10.533642 12.225887 1.333661
v 10.428211 12.225887 1.333661
v -10.533642 12.498215 1.461856
v 10.428211 12.498215 1.461856
v -10.533642 13.123512 0.133517
v 10.428211 13.123512 0.133517
v -10.533642 13.922325 0.005322
v 10.428211 13.922325 0.005322
v -10.533642 13.297028 1.333661
v 10.428211 13.297028 1.333661
v -10.533642 13.569351 1.461856
v 10.428211 13.569351 1.461856
v -10.533642 14.194649 0.133517
v 10.428211 14.194649 0.133517
v -10.533642 11.780045 0.005322
v 10.428211 11.780045 0.005322
v -10.533642 11.154747 1.333661
v 10.428211 11.154747 1.333661
v -10.533642 11.427074 1.461856
v 10.428211 11.427074 1.461856
v -10.533642 12.052368 0.133517
v 10.428211 12.052368 0.133517
vt 0.460668 0.913170
vt 0.463018 0.913170
vt 0.463018 0.915520
vt 0.460668 0.915520
vt 0.463018 0.917871
vt 0.460668 0.917871
vt 0.463018 0.920221
vt 0.460668 0.920221
vt 0.460668 0.913170
vt 0.463018 0.913170
vt 0.463018 0.915520
vt 0.460668 0.915520
vt 0.463018 0.917871
vt 0.460668 0.917871
vt 0.463018 0.920221
vt 0.460668 0.920221
vt 0.460668 0.913170
vt 0.463018 0.913170
vt 0.463018 0.915520
vt 0.460668 0.915520
vt 0.463018 0.917871
vt 0.460668 0.917871
vt 0.463018 0.920221
vt 0.460668 0.920221
vt 0.460668 0.913170
vt 0.463018 0.913170
vt 0.463018 0.915520
vt 0.460668 0.915520
vt 0.521018 0.697256
vt 0.521018 0.697256
vt 0.521018 0.688510
vt 0.521018 0.688510
vt 0.460668 0.917871
vt 0.463018 0.917871
vt 0.463018 0.920221
vt 0.460668 0.920221
vt 0.465368 0.913170
vt 0.465368 0.915520
vt 0.458318 0.913170
vt 0.458318 0.915520
vt 0.463018 0.915520
vt 0.460668 0.915520
vt 0.463018 0.917871
vt 0.460668 0.917871
vt 0.463018 0.915520
vt 0.460668 0.915520
vt 0.463018 0.917871
vt 0.460668 0.917871
vt 0.460668 0.913170
vt 0.463018 0.913170
vt 0.463018 0.915520
vt 0.460668 0.915520
vt 0.463018 0.917871
vt 0.460668 0.917871
vt 0.463018 0.920221
vt 0.460668 0.920221
vt 0.460668 0.913170
vt 0.463018 0.913170
vt 0.463018 0.915520
vt 0.460668 0.915520
vt 0.463018 0.917871
vt 0.460668 0.917871
vt 0.463018 0.920221
vt 0.460668 0.920221
vt 0.460668 0.913170
vt 0.463018 0.913170
vt 0.463018 0.915520
vt 0.460668 0.915520
vt 0.463018 0.917871
vt 0.460668 0.917871
vt 0.463018 0.920221
vt 0.460668 0.920221
vt 0.460668 0.913170
vt 0.463018 0.913170
vt 0.463018 0.915520
vt 0.460668 0.915520
vt 0.463018 0.917871
vt 0.460668 0.917871
vt 0.463018 0.920221
vt 0.460668 0.920221
vt 0.460668 0.913170
vt 0.463018 0.913170
vt 0.463018 0.915520
vt 0.460668 0.915520
vt 0.463018 0.917871
vt 0.460668 0.917871
vt 0.463018 0.920221
vt 0.460668 0.920221
vt 0.460668 0.913170
vt 0.463018 0.913170
vt 0.463018 0.915520
vt 0.460668 0.915520
vt 0.463018 0.917871
vt 0.460668 0.917871
vt 0.463018 0.920221
vt 0.460668 0.920221
vt 0.460668 0.913170
vt 0.463018 0.913170
vt 0.463018 0.915520
vt 0.460668 0.915520
vt 0.463018 0.917871
vt 0.460668 0.917871
vt 0.463018 0.920221
vt 0.460668 0.920221
vt 0.460668 0.913170
vt 0.463018 0.913170
vt 0.463018 0.915520
vt 0.460668 0.915520
vt 0.463018 0.917871
vt 0.460668 0.917871
vt 0.463018 0.920221
vt 0.460668 0.920221
vt 0.460668 0.913170
vt 0.463018 0.913170
vt 0.463018 0.915520
vt 0.460668 0.915520
vt 0.463018 0.917871
vt 0.460668 0.917871
vt 0.463018 0.920221
vt 0.460668 0.920221
vt 0.460668 0.913170
vt 0.463018 0.913170
vt 0.463018 0.915520
vt 0.460668 0.915520
vt 0.463018 0.917871
vt 0.460668 0.917871
vt 0.463018 0.920221
vt 0.460668 0.920221
vt 0.460668 0.913170
vt 0.463018 0.913170
vt 0.463018 0.915520
vt 0.460668 0.915520
vt 0.463018 0.917871
vt 0.460668 0.917871
vt 0.463018 0.920221
vt 0.460668 0.920221
vn 0.000000 -0.904767 -0.425907
vn 0.000000 -0.904767 -0.425907
vn 0.000000 -0.904767 -0.425907
vn 0.000000 -0.904767 -0.425907
vn 0.000000 -0.425912 0.904765
vn 0.000000 -0.425912 0.904765
vn 0.000000 -0.425912 0.904765
vn 0.000000 -0.425912 0.904765
vn 0.000000 0.904767 0.425907
vn 0.000000 0.904767 0.425907
vn 0.000000 0.904767 0.425907
vn 0.000000 0.904767 0.425907
vn 1.000000 -0.000001 0.000000
vn 1.000000 -0.000001 0.000000
vn 1.000000 -0.000001 0.000000
vn 1.000000 -0.000001 0.000000
vn -1.000000 0.000001 0.000000
vn -1.000000 0.000001 0.000000
vn -1.000000 0.000001 0.000000
vn -1.000000 0.000001 0.000000
vn 0.000000 -0.904767 -0.425907
vn 0.000000 -0.904767 -0.425907
vn 0.000000 -0.904767 -0.425907
vn 0.000000 -0.904767 -0.425907
vn 0.000000 -0.425912 0.904765
vn 0.000000 -0.425912 0.904765
vn 0.000000 -0.425912 0.904765
vn 0.000000 -0.425912 0.904765
vn 0.000000 0.904767 0.425907
vn 0.000000 0.904767 0.425907
vn 0.000000 0.904767 0.425907
vn 0.000000 0.904767 0.425907
vn 1.000000 -0.000001 0.000000
vn 1.000000 -0.000001 0.000000
vn 1.000000 -0.000001 0.000000
vn 1.000000 -0.000001 0.000000
vn -1.000000 0.000001 0.000000
vn -1.000000 0.000001 0.000000
vn -1.000000 0.000001 0.000000
vn -1.000000 0.000001 0.000000
vn 0.000000 -0.904767 -0.425907
vn 0.000000 -0.904767 -0.425907
vn 0.000000 -0.904767 -0.425907
vn 0.000000 -0.904767 -0.425907
vn 0.000000 -0.425910 0.904766
vn 0.000000 -0.425910 0.904766
vn 0.000000 -0.425910 0.904766
vn 0.000000 -0.425910 0.904766
vn 0.000000 0.904767 0.425906
vn 0.000000 0.904767 0.425906
vn 0.000000 0.904767 0.425906
vn 0.000000 0.904767 0.425906
vn 1.000000 -0.000001 0.000000
vn 1.000000 -0.000001 0.000000
vn 1.000000 -0.000001 0.000000
vn 1.000000 -0.000001 0.000000
vn -1.000000 0.000001 0.000000
vn -1.000000 0.000001 0.000000
vn -1.000000 0.000001 0.000000
vn -1.000000 0.000001 0.000000
vn 0.000000 -1.000000 0.000000
vn 0.000000 -1.000000 0.000000
vn 0.000000 -1.000000 0.000000
vn 0.000000 -1.000000 0.000000
vn 0.000000 0.000000 1.000000
vn 0.000000 0.000000 1.000000
vn 0.000000 0.000000 1.000000
vn 0.000000 0.000000 1.000000
vn 0.000000 1.000000 0.000000
vn 0.000000 1.000000 0.000000
vn 0.000000 1.000000 0.000000
vn 0.000000 1.000000 0.000000
vn 1.000000 0.000000 0.000000
vn 1.000000 0.000000 0.000000
vn 1.000000 0.000000 0.000000
vn 1.000000 0.000000 0.000000
vn -1.000000 0.000000 0.000000
vn -1.000000 0.000000 0.000000
vn -1.000000 0.000000 0.000000
vn -1.000000 0.000000 0.000000
vn 0.000000 0.000000 1.000000
vn 0.000000 0.000000 1.000000
vn 0.000000 0.000000 1.000000
vn 0.000000 0.000000 1.000000
vn 0.000000 0.000000 1.000000
vn 0.000000 0.000000 1.000000
vn 0.000000 0.000000 1.000000
vn 0.000000 0.000000 1.000000
vn 0.000000 0.000000 1.000000
vn 0.000000 0.000000 1.000000
vn 0.000000 0.000000 1.000000
vn 0.000000 0.000000 1.000000
vn 0.000000 0.000000 1.000000
vn 0.000000 0.000000 1.000000
vn 0.000000 0.000000 1.000000
vn 0.000000 0.000000 1.000000
vn 0.000000 1.000000 0.000000
vn 0.000000 1.000000 0.000000
vn 0.000000 1.000000 0.000000
vn 0.000000 1.000000 0.000000
vn -1.000000 0.000000 0.000000
vn -1.000000 0.000000 0.000000
vn -1.000000 0.000000 0.000000
vn -1.000000 0.000000 0.000000
vn 0.000000 -1.000000 0.000000
vn 0.000000 -1.000000 0.000000
vn 0.000000 -1.000000 0.000000
vn 0.000000 -1.000000 0.000000
vn 1.000000 0.000000 0.000000
vn 1.000000 0.000000 0.000000
vn 1.000000 0.000000 0.000000
vn 1.000000 0.000000 0.000000
vn 0.000000 -0.904767 -0.425907
vn 0.000000 -0.904767 -0.425907
vn 0.000000 -0.904767 -0.425907
vn 0.000000 -0.904767 -0.425907
vn 0.000000 -0.425912 0.904765
vn 0.000000 -0.425912 0.904765
vn 0.000000 -0.425912 0.904765
vn 0.000000 -0.425912 0.904765
vn 0.000000 0.904767 0.425907
vn 0.000000 0.904767 0.425907
vn 0.000000 0.904767 0.425907
vn 0.000000 0.904767 0.425907
vn 1.000000 -0.000001 0.000000
vn 1.000000 -0.000001 0.000000
vn 1.000000 -0.000001 0.000000
vn 1.000000 -0.000001 0.000000
vn -1.000000 0.000001 0.000000
vn -1.000000 0.000001 0.000000
vn -1.000000 0.000001 0.000000
vn -1.000000 0.000001 0.000000
vn 0.000000 -0.904767 -0.425907
vn 0.000000 -0.904767 -0.425907
vn 0.000000 -0.904767 -0.425907
vn 0.000000 -0.904767 -0.425907
vn 0.000000 -0.425912 0.904765
vn 0.000000 -0.425912 0.904765
vn 0.000000 -0.425912 0.904765
vn 0.000000 -0.425912 0.904765
vn 0.000000 0.904767 0.425907
vn 0.000000 0.904767 0.425907
vn 0.000000 0.904767 0.425907
vn 0.000000 0.904767 0.425907
vn 1.000000 -0.000001 0.000000
vn 1.000000 -0.000001 0.000000
vn 1.000000 -0.000001 0.000000
vn 1.000000 -0.000001 0.000000
vn -1.000000 0.000001 0.000000
vn -1.000000 0.000001 0.000000
vn -1.000000 0.000001 0.000000
vn -1.000000 0.000001 0.000000
vn 0.000000 -0.904767 -0.425907
vn 0.000000 -0.904767 -0.425907
vn 0.000000 -0.904767 -0.425907
vn 0.000000 -0.904767 -0.425907
vn 0.000000 -0.425912 0.904765
vn 0.000000 -0.425912 0.904765
vn 0.000000 -0.425912 0.904765
vn 0.000000 -0.425912 0.904765
vn 0.000000 0.904767 0.425907
vn 0.000000 0.904767 0.425907
vn 0.000000 0.904767 0.425907
vn 0.000000 0.904767 0.425907
vn 1.000000 -0.000001 0.000000
vn 1.000000 -0.000001 0.000000
vn 1.000000 -0.000001 0.000000
vn 1.000000 -0.000001 0.000000
vn -1.000000 0.000001 0.000000
vn -1.000000 0.000001 0.000000
vn -1.000000 0.000001 0.000000
vn -1.000000 0.000001 0.000000
vn 0.000000 -0.904767 -0.425907
vn 0.000000 -0.904767 -0.425907
vn 0.000000 -0.904767 -0.425907
vn 0.000000 -0.904767 -0.425907
vn 0.000000 -0.425912 0.904765
vn 0.000000 -0.425912 0.904765
vn 0.000000 -0.425912 0.904765
vn 0.000000 -0.425912 0.904765
vn 0.000000 0.904767 0.425907
vn 0.000000 0.904767 0.425907
vn 0.000000 0.904767 0.425907
vn 0.000000 0.904767 0.425907
vn 1.000000 -0.000001 0.000000
vn 1.000000 -0.000001 0.000000
vn 1.000000 -0.000001 0.000000
vn 1.000000 -0.000001 0.000000
vn -1.000000 0.000001 0.000000
vn -1.000000 0.000001 0.000000
vn -1.000000 0.000001 0.000000
vn -1.000000 0.000001 0.000000
vn 0.000000 -0.904767 -0.425907
vn 0.000000 -0.904767 -0.425907
vn 0.000000 -0.904767 -0.425907
vn 0.000000 -0.904767 -0.425907
vn 0.000000 -0.425912 0.904765
vn 0.000000 -0.425912 0.904765
vn 0.000000 -0.425912 0.904765
vn 0.000000 -0.425912 0.904765
vn 0.000000 0.904767 0.425907
vn 0.000000 0.904767 0.425907
vn 0.000000 0.904767 0.425907
vn 0.000000 0.904767 0.425907
vn 1.000000 -0.000001 0.000000
vn 1.000000 -0.000001 0.000000
vn 1.000000 -0.000001 0.000000
vn 1.000000 -0.000001 0.000000
vn -1.000000 0.000001 0.000000
vn -1.000000 0.000001 0.000000
vn -1.000000 0.000001 0.000000
vn -1.000000 0.000001 0.000000
vn 0.000000 -0.904767 -0.425907
vn 0.000000 -0.904767 -0.425907
vn 0.000000 -0.904767 -0.425907
vn 0.000000 -0.904767 -0.425907
vn 0.000000 -0.425912 0.904765
vn 0.000000 -0.425912 0.904765
vn 0.000000 -0.425912 0.904765
vn 0.000000 -0.425912 0.904765
vn 0.000000 0.904767 0.425907
vn 0.000000 0.904767 0.425907
vn 0.000000 0.904767 0.425907
vn 0.000000 0.904767 0.425907
vn 1.000000 -0.000001 0.000000
vn 1.000000 -0.000001 0.000000
vn 1.000000 -0.000001 0.000000
vn 1.000000 -0.000001 0.000000
vn -1.000000 0.000001 0.000000
vn -1.000000 0.000001 0.000000
vn -1.000000 0.000001 0.000000
vn -1.000000 0.000001 0.000000
vn 0.000000 -0.904767 -0.425907
vn 0.000000 -0.904767 -0.425907
vn 0.000000 -0.904767 -0.425907
vn 0.000000 -0.904767 -0.425907
vn 0.000000 -0.425912 0.904765
vn 0.000000 -0.425912 0.904765
vn 0.000000 -0.425912 0.904765
vn 0.000000 -0.425912 0.904765
vn 0.000000 0.904767 0.425907
vn 0.000000 0.904767 0.425907
vn 0.000000 0.904767 0.425907
vn 0.000000 0.904767 0.425907
vn 1.000000 -0.000001 0.000000
vn 1.000000 -0.000001 0.000000
vn 1.000000 -0.000001 0.000000
vn 1.000000 -0.000001 0.000000
vn -1.000000 0.000001 0.000000
vn -1.000000 0.000001 0.000000
vn -1.000000 0.000001 0.000000
vn -1.000000 0.000001 0.000000
vn 0.000000 -0.904767 -0.425907
vn 0.000000 -0.904767 -0.425907
vn 0.000000 -0.904767 -0.425907
vn 0.000000 -0.904767 -0.425907
vn 0.000000 -0.425911 0.904765
vn 0.000000 -0.425911 0.904765
vn 0.000000 -0.425911 0.904765
vn 0.000000 -0.425911 0.904765
vn 0.000000 0.904767 0.425906
vn 0.000000 0.904767 0.425906
vn 0.000000 0.904767 0.425906
vn 0.000000 0.904767 0.425906
vn 1.000000 -0.000001 0.000000
vn 1.000000 -0.000001 0.000000
vn 1.000000 -0.000001 0.000000
vn 1.000000 -0.000001 0.000000
vn -1.000000 0.000001 0.000000
vn -1.000000 0.000001 0.000000
vn -1.000000 0.000001 0.000000
vn -1.000000 0.000001 0.000000
vn 0.000000 -0.904767 -0.425907
vn 0.000000 -0.904767 -0.425907
vn 0.000000 -0.904767 -0.425907
vn 0.000000 -0.904767 -0.425907
vn 0.000000 -0.425912 0.904765
vn 0.000000 -0.425912 0.904765
vn 0.000000 -0.425912 0.904765
vn 0.000000 -0.425912 0.904765
vn 0.000000 0.904767 0.425907
vn 0.000000 0.904767 0.425907
vn 0.000000 0.904767 0.425907
vn 0.000000 0.904767 0.425907
vn 1.000000 -0.000001 0.000000
vn 1.000000 -0.000001 0.000000
vn 1.000000 -0.000001 0.000000
vn 1.000000 -0.000001 0.000000
vn -1.000000 0.000001 0.000000
vn -1.000000 0.000001 0.000000
vn -1.000000 0.000001 0.000000
vn -1.000000 0.000001 0.000000
vn 0.000000 -0.904767 -0.425907
vn 0.000000 -0.904767 -0.425907
vn 0.000000 -0.904767 -0.425907
vn 0.000000 -0.904767 -0.425907
vn 0.000000 -0.425912 0.904765
vn 0.000000 -0.425912 0.904765
vn 0.000000 -0.425912 0.904765
vn 0.000000 -0.425912 0.904765
vn 0.000000 0.904767 0.425907
vn 0.000000 0.904767 0.425907
vn 0.000000 0.904767 0.425907
vn 0.000000 0.904767 0.425907
vn 1.000000 -0.000001 0.000000
vn 1.000000 -0.000001 0.000000
vn 1.000000 -0.000001 0.000000
vn 1.000000 -0.000001 0.000000
vn -1.000000 0.000001 0.000000
vn -1.000000 0.000001 0.000000
vn -1.000000 0.000001 0.000000
vn -1.000000 0.000001 0.000000
vn 0.000000 -0.904767 -0.425907
vn 0.000000 -0.904767 -0.425907
vn 0.000000 -0.904767 -0.425907
vn 0.000000 -0.904767 -0.425907
vn 0.000000 -0.425912 0.904765
vn 0.000000 -0.425912 0.904765
vn 0.000000 -0.425912 0.904765
vn 0.000000 -0.425912 0.904765
vn 0.000000 0.904767 0.425907
vn 0.000000 0.904767 0.425907
vn 0.000000 0.904767 0.425907
vn 0.000000 0.904767 0.425907
vn 1.000000 -0.000001 0.000000
vn 1.000000 -0.000001 0.000000
vn 1.000000 -0.000001 0.000000
vn 1.000000 -0.000001 0.000000
vn -1.000000 0.000001 0.000000
vn -1.000000 0.000001 0.000000
vn -1.000000 0.000001 0.000000
vn -1.000000 0.000001 0.000000
s off
f 1/1/1 2/2/2 4/3/3 3/4/4
f 3/4/5 4/3/6 6/5/7 5/6/8
f 5/6/9 6/5/10 8/7/11 7/8/12
f 4/3/13 2/2/14 8/7/15 6/5/16
f 1/1/17 3/4/18 5/6/19 7/8/20
f 9/9/21 10/10/22 12/11/23 11/12/24
f 11/12/25 12/11/26 14/13/27 13/14/28
f 13/14/29 14/13/30 16/15/31 15/16/32
f 12/11/33 10/10/34 16/15/35 14/13/36
f 9/9/37 11/12/38 13/14/39 15/16/40
f 17/17/41 18/18/42 20/19/43 19/20/44
f 19/20/45 20/19/46 22/21/47 21/22/48
f 21/22/49 22/21/50 24/23/51 23/24/52
f 20/19/53 18/18/54 24/23/55 22/21/56
f 17/17/57 19/20/58 21/22/59 23/24/60
f 25/25/61 26/26/62 28/27/63 27/28/64
f 37/29/65 38/30/66 39/31/67 40/32/68
f 29/33/69 30/34/70 32/35/71 31/36/72
f 26/26/73 32/37/74 30/38/75 28/27/76
f 31/39/77 25/25/78 27/28/79 29/40/80
f 27/28/81 28/27/82 34/41/83 33/42/84
f 28/27/85 30/34/86 35/43/87 34/41/88
f 30/34/89 29/33/90 36/44/91 35/43/92
f 29/33/93 27/28/94 33/42/95 36/44/96
f 33/42/97 34/41/98 38/45/99 37/46/100
f 34/41/101 35/43/102 39/47/103 38/45/104
f 35/43/105 36/44/106 40/48/107 39/47/108
f 36/44/109 33/42/110 37/46/111 40/48/112
f 41/49/113 42/50/114 44/51/115 43/52/116
f 43/52/117 44/51/118 46/53/119 45/54/120
f 45/54/121 46/53/122 48/55/123 47/56/124
f 44/51/125 42/50/126 48/55/127 46/53/128
f 41/49/129 43/52/130 45/54/131 47/56/132
f 49/57/133 50/58/134 52/59/135 51/60/136
f 51/60/137 52/59/138 54/61/139 53/62/140
f 53/62/141 54/61/142 56/63/143 55/64/144
f 52/59/145 50/58/146 56/63/147 54/61/148
f 49/57/149 51/60/150 53/62/151 55/64/152
f 57/65/153 58/66/154 60/67/155 59/68/156
f 59/68/157 60/67/158 62/69/159 61/70/160
f 61/70/161 62/69/162 64/71/163 63/72/164
f 60/67/165 58/66/166 64/71/167 62/69/168
f 57/65/169 59/68/170 61/70/171 63/72/172
f 65/73/173 66/74/174 68/75/175 67/76/176
f 67/76/177 68/75/178 70/77/179 69/78/180
f 69/78/181 70/77/182 72/79/183 71/80/184
f 68/75/185 66/74/186 72/79/187 70/77/188
f 65/73/189 67/76/190 69/78/191 71/80/192
f 73/81/193 74/82/194 76/83/195 75/84/196
f 75/84/197 76/83/198 78/85/199 77/86/200
f 77/86/201 78/85/202 80/87/203 79/88/204
f 76/83/205 74/82/206 80/87/207 78/85/208
f 73/81/209 75/84/210 77/86/211 79/88/212
f 81/89/213 82/90/214 84/91/215 83/92/216
f 83/92/217 84/91/218 86/93/219 85/94/220
f 85/94/221 86/93/222 88/95/223 87/96/224
f 84/91/225 82/90/226 88/95/227 86/93/228
f 81/89/229 83/92/230 85/94/231 87/96/232
f 89/97/233 90/98/234 92/99/235 91/100/236
f 91/100/237 92/99/238 94/101/239 93/102/240
f 93/102/241 94/101/242 96/103/243 95/104/244
f 92/99/245 90/98/246 96/103/247 94/101/248
f 89/97/249 91/100/250 93/102/251 95/104/252
f 97/105/253 98/106/254 100/107/255 99/108/256
f 99/108/257 100/107/258 102/109/259 101/110/260
f 101/110/261 102/109/262 104/111/263 103/112/264
f 100/107/265 98/106/266 104/111/267 102/109/268
f 97/105/269 99/108/270 101/110/271 103/112/272
f 105/113/273 106/114/274 108/115/275 107/116/276
f 107/116/277 108/115/278 110/117/279 109/118/280
f 109/118/281 110/117/282 112/119/283 111/120/284
f 108/115/285 106/114/286 112/119/287 110/117/288
f 105/113/289 107/116/290 109/118/291 111/120/292
f 113/121/293 114/122/294 116/123/295 115/124/296
f 115/124/297 116/123/298 118/125/299 117/126/300
f 117/126/301 118/125/302 120/127/303 119/128/304
f 116/123/305 114/122/306 120/127/307 118/125/308
f 113/121/309 115/124/310 117/126/311 119/128/312
f 121/129/313 122/130/314 124/131/315 123/132/316
f 123/132/317 124/131/318 126/133/319 125/134/320
f 125/134/321 126/133/322 128/135/323 127/136/324
f 124/131/325 122/130/326 128/135/327 126/133/328
f 121/129/329 123/132/330 125/134/331 127/136/332
