# This file uses centimeters as units for non-parametric coordinates.

v -10.871986 0.000000 -0.611444
v 10.871986 0.000000 -0.611444
v -10.871986 0.000000 0.856232
v 10.871986 0.000000 0.856232
v -10.871986 15.457794 0.856232
v 10.871986 15.457794 0.856232
v -10.871986 15.457794 -0.611444
v 10.871986 15.457794 -0.611444
v -10.095436 0.761393 0.856232
v 10.095436 0.761393 0.856232
v 10.095436 14.696404 0.856232
v -10.095436 14.696404 0.856232
v -10.095436 0.761393 -0.453778
v 10.095436 0.761393 -0.453778
v 10.095436 14.696404 -0.453778
v -10.095436 14.696404 -0.453778
v -10.533642 9.939011 -0.856229
v 10.428211 9.939011 -0.856229
v -10.533642 9.939011 0.698288
v 10.428211 9.939011 0.698288
v -10.533642 10.580593 0.698288
v 10.428211 10.580593 0.698288
v -10.533642 10.580593 -0.856229
v 10.428211 10.580593 -0.856229
vt 0.462396 0.915729
vt 0.459761 0.915729
vt 0.459761 0.913094
vt 0.462396 0.913094
vt 0.517573 0.687056
vt 0.527863 0.687056
vt 0.527863 0.694158
vt 0.517573 0.694158
vt 0.462396 0.910458
vt 0.459761 0.910458
vt 0.459761 0.907823
vt 0.462396 0.907823
vt 0.457125 0.915729
vt 0.457125 0.913094
vt 0.465031 0.915729
vt 0.465031 0.913094
vt 0.459761 0.913094
vt 0.462396 0.913094
vt 0.459761 0.910458
vt 0.462396 0.910458
vt 0.459761 0.913094
vt 0.462396 0.913094
vt 0.459761 0.910458
vt 0.462396 0.910458
vt 0.462396 0.915729
vt 0.459761 0.915729
vt 0.459761 0.913094
vt 0.462396 0.913094
vt 0.459761 0.910458
vt 0.462396 0.910458
vt 0.459761 0.907823
vt 0.462396 0.907823
vn 0.000000 -1.000000 0.000000
vn 0.000000 -1.000000 0.000000
vn 0.000000 -1.000000 0.000000
vn 0.000000 -1.000000 0.000000
vn 0.000000 0.000000 1.000000
vn 0.000000 0.000000 1.000000
vn 0.000000 0.000000 1.000000
vn 0.000000 0.000000 1.000000
vn 0.000000 1.000000 0.000000
vn 0.000000 1.000000 0.000000
vn 0.000000 1.000000 0.000000
vn 0.000000 1.000000 0.000000
vn 1.000000 0.000000 0.000000
vn 1.000000 0.000000 0.000000
vn 1.000000 0.000000 0.000000
vn 1.000000 0.000000 0.000000
vn -1.000000 0.000000 0.000000
vn -1.000000 0.000000 0.000000
vn -1.000000 0.000000 0.000000
vn -1.000000 0.000000 0.000000
vn 0.000000 0.000000 1.000000
vn 0.000000 0.000000 1.000000
vn 0.000000 0.000000 1.000000
vn 0.000000 0.000000 1.000000
vn 0.000000 0.000000 1.000000
vn 0.000000 0.000000 1.000000
vn 0.000000 0.000000 1.000000
vn 0.000000 0.000000 1.000000
vn 0.000000 0.000000 1.000000
vn 0.000000 0.000000 1.000000
vn 0.000000 0.000000 1.000000
vn 0.000000 0.000000 1.000000
vn 0.000000 0.000000 1.000000
vn 0.000000 0.000000 1.000000
vn 0.000000 0.000000 1.000000
vn 0.000000 0.000000 1.000000
vn 0.000000 1.000000 0.000000
vn 0.000000 1.000000 0.000000
vn 0.000000 1.000000 0.000000
vn 0.000000 1.000000 0.000000
vn -1.000000 0.000000 0.000000
vn -1.000000 0.000000 0.000000
vn -1.000000 0.000000 0.000000
vn -1.000000 0.000000 0.000000
vn 0.000000 -1.000000 0.000000
vn 0.000000 -1.000000 0.000000
vn 0.000000 -1.000000 0.000000
vn 0.000000 -1.000000 0.000000
vn 1.000000 0.000000 0.000000
vn 1.000000 0.000000 0.000000
vn 1.000000 0.000000 0.000000
vn 1.000000 0.000000 0.000000
vn 0.000000 -1.000000 0.000000
vn 0.000000 -1.000000 0.000000
vn 0.000000 -1.000000 0.000000
vn 0.000000 -1.000000 0.000000
vn 0.000000 0.000000 1.000000
vn 0.000000 0.000000 1.000000
vn 0.000000 0.000000 1.000000
vn 0.000000 0.000000 1.000000
vn 0.000000 1.000000 0.000000
vn 0.000000 1.000000 0.000000
vn 0.000000 1.000000 0.000000
vn 0.000000 1.000000 0.000000
s off
f 1/1/1 2/2/2 4/3/3 3/4/4
f 13/5/5 14/6/6 15/7/7 16/8/8
f 5/9/9 6/10/10 8/11/11 7/12/12
f 2/2/13 8/13/14 6/14/15 4/3/16
f 7/15/17 1/1/18 3/4/19 5/16/20
f 3/4/21 4/3/22 10/17/23 9/18/24
f 4/3/25 6/10/26 11/19/27 10/17/28
f 6/10/29 5/9/30 12/20/31 11/19/32
f 5/9/33 3/4/34 9/18/35 12/20/36
f 9/18/37 10/17/38 14/21/39 13/22/40
f 10/17/41 11/19/42 15/23/43 14/21/44
f 11/19/45 12/20/46 16/24/47 15/23/48
f 12/20/49 9/18/50 13/22/51 16/24/52
f 17/25/53 18/26/54 20/27/55 19/28/56
f 19/28/57 20/27/58 22/29/59 21/30/60
f 21/30/61 22/29/62 24/31/63 23/32/64
