# This file uses centimeters as units for non-parametric coordinates.

mtllib SM_VentanaB.mtl
g default
v 24.542053 74.606308 -4.281158
v 24.542053 1.997345 -4.281158
v 24.542053 74.606308 3.491425
v 24.542053 1.997345 3.491425
v 27.749939 74.606308 3.491425
v 27.749939 1.997345 3.491425
v 27.749939 74.606308 -4.281158
v 27.749939 1.997345 -4.281158
v 54.359924 77.288971 -3.057236
v -54.359924 77.288971 -3.057236
v 54.359924 77.288971 4.281143
v -54.359924 77.288971 4.281143
v 54.359924 0.000000 4.281143
v -54.359924 0.000000 4.281143
v 54.359924 0.000000 -3.057236
v -54.359924 0.000000 -3.057236
v 50.477173 73.482002 4.281143
v -50.477173 73.482002 4.281143
v -50.477173 3.806961 4.281143
v 50.477173 3.806961 4.281143
v 50.477173 73.482002 -2.268906
v -50.477173 73.482002 -2.268906
v -50.477173 3.806961 -2.268906
v 50.477173 3.806961 -2.268906
v 52.668213 27.593922 -4.281158
v -52.141052 27.593922 -4.281158
v 52.668213 27.593922 3.491425
v -52.141052 27.593922 3.491425
v 52.668213 24.386009 3.491425
v -52.141052 24.386009 3.491425
v 52.668213 24.386009 -4.281158
v -52.141052 24.386009 -4.281158
v -1.340393 74.606308 -4.281158
v -1.340393 1.997345 -4.281158
v -1.340393 74.606308 3.491425
v -1.340393 1.997345 3.491425
v 1.867554 74.606308 3.491425
v 1.867554 1.997345 3.491425
v 1.867554 74.606308 -4.281158
v 1.867554 1.997345 -4.281158
v -28.032227 74.606308 -4.281158
v -28.032227 1.997345 -4.281158
v -28.032227 74.606308 3.491425
v -28.032227 1.997345 3.491425
v -24.824341 74.606308 3.491425
v -24.824341 1.997345 3.491425
v -24.824341 74.606308 -4.281158
v -24.824341 1.997345 -4.281158
vt 0.461759 0.916617
vt 0.460945 0.916617
vt 0.461486 0.915262
vt 0.461218 0.915262
vt 0.461486 0.915530
vt 0.461218 0.915530
vt 0.460945 0.914175
vt 0.461759 0.914175
vt 0.461759 0.916617
vt 0.460945 0.916617
vt 0.460945 0.915803
vt 0.461759 0.915803
vt 0.461759 0.915803
vt 0.460945 0.915803
vt 0.460945 0.914989
vt 0.461759 0.914989
vt 0.461759 0.914989
vt 0.460945 0.914989
vt 0.460945 0.914175
vt 0.461759 0.914175
vt 0.460131 0.916617
vt 0.460131 0.915803
vt 0.462573 0.916617
vt 0.462573 0.915803
vt 0.460945 0.915803
vt 0.461759 0.915803
vt 0.460945 0.914989
vt 0.461759 0.914989
vt 0.461759 0.916617
vt 0.460945 0.916617
vt 0.460945 0.915803
vt 0.461759 0.915803
vt 0.460945 0.914989
vt 0.461759 0.914989
vt 0.460945 0.914175
vt 0.461759 0.914175
vt 0.461759 0.916617
vt 0.460945 0.916617
vt 0.460945 0.915803
vt 0.461759 0.915803
vt 0.460945 0.914989
vt 0.461759 0.914989
vt 0.460945 0.914175
vt 0.461759 0.914175
vt 0.461759 0.916617
vt 0.460945 0.916617
vt 0.460945 0.915803
vt 0.461759 0.915803
vt 0.460945 0.914989
vt 0.461759 0.914989
vt 0.460945 0.914175
vt 0.461759 0.914175
vt 0.527444 0.696535
vt 0.519967 0.696535
vt 0.519967 0.691374
vt 0.527444 0.691374
vn -1.000000 0.000000 0.000000
vn -1.000000 0.000000 0.000000
vn -1.000000 0.000000 0.000000
vn -1.000000 0.000000 0.000000
vn 0.000000 0.000000 1.000000
vn 0.000000 0.000000 1.000000
vn 0.000000 0.000000 1.000000
vn 0.000000 0.000000 1.000000
vn 1.000000 0.000000 0.000000
vn 1.000000 0.000000 0.000000
vn 1.000000 0.000000 0.000000
vn 1.000000 0.000000 0.000000
vn 0.000000 1.000000 0.000000
vn 0.000000 1.000000 0.000000
vn 0.000000 1.000000 0.000000
vn 0.000000 1.000000 0.000000
vn 0.000000 0.000000 1.000000
vn 0.000000 0.000000 1.000000
vn 0.000000 0.000000 1.000000
vn 0.000000 0.000000 1.000000
vn 0.000000 -1.000000 0.000000
vn 0.000000 -1.000000 0.000000
vn 0.000000 -1.000000 0.000000
vn 0.000000 -1.000000 0.000000
vn -1.000000 0.000000 0.000000
vn -1.000000 0.000000 0.000000
vn -1.000000 0.000000 0.000000
vn -1.000000 0.000000 0.000000
vn 1.000000 0.000000 0.000000
vn 1.000000 0.000000 0.000000
vn 1.000000 0.000000 0.000000
vn 1.000000 0.000000 0.000000
vn 0.000000 0.000000 1.000000
vn 0.000000 0.000000 1.000000
vn 0.000000 0.000000 1.000000
vn 0.000000 0.000000 1.000000
vn 0.000000 0.000000 1.000000
vn 0.000000 0.000000 1.000000
vn 0.000000 0.000000 1.000000
vn 0.000000 0.000000 1.000000
vn 0.000000 0.000000 1.000000
vn 0.000000 0.000000 1.000000
vn 0.000000 0.000000 1.000000
vn 0.000000 0.000000 1.000000
vn -0.000000 0.000000 1.000000
vn -0.000000 0.000000 1.000000
vn -0.000000 0.000000 1.000000
vn -0.000000 0.000000 1.000000
vn 0.000000 -1.000000 0.000000
vn 0.000000 -1.000000 0.000000
vn 0.000000 -1.000000 0.000000
vn 0.000000 -1.000000 0.000000
vn 1.000000 0.000000 0.000000
vn 1.000000 0.000000 0.000000
vn 1.000000 0.000000 0.000000
vn 1.000000 0.000000 0.000000
vn 0.000000 1.000000 0.000000
vn 0.000000 1.000000 0.000000
vn 0.000000 1.000000 0.000000
vn 0.000000 1.000000 0.000000
vn -1.000000 0.000000 0.000000
vn -1.000000 0.000000 0.000000
vn -1.000000 0.000000 0.000000
vn -1.000000 0.000000 0.000000
vn 0.000000 1.000000 0.000000
vn 0.000000 1.000000 0.000000
vn 0.000000 1.000000 0.000000
vn 0.000000 1.000000 0.000000
vn 0.000000 0.000000 1.000000
vn 0.000000 0.000000 1.000000
vn 0.000000 0.000000 1.000000
vn 0.000000 0.000000 1.000000
vn 0.000000 -1.000000 0.000000
vn 0.000000 -1.000000 0.000000
vn 0.000000 -1.000000 0.000000
vn 0.000000 -1.000000 0.000000
vn -1.000000 0.000000 0.000000
vn -1.000000 0.000000 0.000000
vn -1.000000 0.000000 0.000000
vn -1.000000 0.000000 0.000000
vn 0.000000 0.000000 1.000000
vn 0.000000 0.000000 1.000000
vn 0.000000 0.000000 1.000000
vn 0.000000 0.000000 1.000000
vn 1.000000 0.000000 0.000000
vn 1.000000 0.000000 0.000000
vn 1.000000 0.000000 0.000000
vn 1.000000 0.000000 0.000000
vn -1.000000 0.000000 0.000000
vn -1.000000 0.000000 0.000000
vn -1.000000 0.000000 0.000000
vn -1.000000 0.000000 0.000000
vn 0.000000 0.000000 1.000000
vn 0.000000 0.000000 1.000000
vn 0.000000 0.000000 1.000000
vn 0.000000 0.000000 1.000000
vn 1.000000 0.000000 0.000000
vn 1.000000 0.000000 0.000000
vn 1.000000 0.000000 0.000000
vn 1.000000 0.000000 0.000000
s off
g VentanaB
usemtl initialShadingGroup
f 1/1/1 2/2/2 4/3/3 3/4/4
f 3/4/5 4/3/6 6/5/7 5/6/8
f 5/6/9 6/5/10 8/7/11 7/8/12
f 9/9/13 10/10/14 12/11/15 11/12/16
f 21/53/17 22/54/18 23/55/19 24/56/20
f 13/17/21 14/18/22 16/19/23 15/20/24
f 10/10/25 16/21/26 14/22/27 12/11/28
f 15/23/29 9/9/30 11/12/31 13/24/32
f 11/12/33 12/11/34 18/25/35 17/26/36
f 12/11/37 14/18/38 19/27/39 18/25/40
f 14/18/41 13/17/42 20/28/43 19/27/44
f 13/17/45 11/12/46 17/26/47 20/28/48
f 17/26/49 18/25/50 22/14/51 21/13/52
f 18/25/53 19/27/54 23/15/55 22/14/56
f 19/27/57 20/28/58 24/16/59 23/15/60
f 20/28/61 17/26/62 21/13/63 24/16/64
f 25/29/65 26/30/66 28/31/67 27/32/68
f 27/32/69 28/31/70 30/33/71 29/34/72
f 29/34/73 30/33/74 32/35/75 31/36/76
f 33/37/77 34/38/78 36/39/79 35/40/80
f 35/40/81 36/39/82 38/41/83 37/42/84
f 37/42/85 38/41/86 40/43/87 39/44/88
f 41/45/89 42/46/90 44/47/91 43/48/92
f 43/48/93 44/47/94 46/49/95 45/50/96
f 45/50/97 46/49/98 48/51/99 47/52/100
