# This file uses centimeters as units for non-parametric coordinates.

mtllib SM_Aire_Acondicionado.mtl
g default
v -51.953024 34.800860 -10.394656
v 51.953024 34.800860 -10.394656
v -51.953024 1.272543 -10.394656
v 51.953024 1.272543 -10.394656
v -51.953024 1.272543 -1.406213
v -51.953024 3.727353 4.520219
v -51.953024 9.653784 6.975028
v 51.953024 1.272543 -1.406213
v 51.953024 9.653784 6.975028
v 51.953024 3.727353 4.520219
v -51.953024 34.800860 1.593730
v -51.953024 26.419619 9.974971
v -51.953024 32.346051 7.520161
v 51.953024 34.800860 1.593730
v 51.953024 32.346051 7.520161
v 51.953024 26.419619 9.974971
v -50.753027 8.545128 6.515807
v -50.753027 3.727353 4.520219
v 50.753027 3.727353 4.520219
v 50.753027 8.545128 6.515807
v -50.753027 1.731764 -0.297557
v 50.753027 1.731764 -0.297557
v -51.312151 10.037594 2.912677
v -51.312151 6.712284 1.535288
v 51.312147 6.712285 1.535289
v 51.312147 10.037594 2.912677
v -51.312151 5.334895 -1.790023
v 51.312147 5.334895 -1.790023
v -50.681814 3.237369 -2.869436
v 51.010153 3.237369 -2.869436
v -50.681814 4.574955 -2.534515
v 51.010153 4.574955 -2.534515
v -50.681814 0.323704 8.766946
v -49.349115 0.000000 10.059735
v -49.349115 1.337586 10.394656
v 49.677454 0.000000 10.059734
v 51.010153 0.447462 8.766946
v 49.677454 1.337586 10.394656
v -50.681814 1.661290 9.101869
v 51.010153 1.661290 9.101869
vt 0.625000 0.500000
vt 0.375000 0.750000
vt 0.625000 0.750000
vt 0.375000 0.927005
vt 0.625000 0.322995
vt 0.375000 0.500000
vt 0.375000 0.062494
vt 0.625000 0.927005
vt 0.375000 0.322995
vt 0.625000 0.187506
vt 0.302005 0.250000
vt 0.125000 0.250000
vt 0.125000 0.000000
vt 0.302005 0.000000
vt 0.375000 0.187506
vt 0.625000 0.062494
vt 0.697995 0.000000
vt 0.875000 0.000000
vt 0.875000 0.250000
vt 0.697995 0.250000
vt 0.375000 0.000000
vt 0.375000 1.000000
vt 0.625000 1.000000
vt 0.625000 0.000000
vt 0.375000 0.250000
vt 0.625000 0.250000
vt 0.375000 0.062494
vt 0.375000 0.000000
vt 0.625000 0.000000
vt 0.625000 0.062494
vt 0.375000 1.000000
vt 0.375000 0.927005
vt 0.625000 0.927005
vt 0.625000 1.000000
vt 0.375000 0.062494
vt 0.375000 0.000000
vt 0.625000 0.000000
vt 0.625000 0.062494
vt 0.375000 1.000000
vt 0.375000 0.927005
vt 0.625000 0.927005
vt 0.625000 1.000000
vt 0.375000 0.225002
vt 0.625000 0.225002
vt 0.621724 0.250000
vt 0.378276 0.250000
vt 0.375000 0.524997
vt 0.625000 0.524997
vt 0.625000 0.750000
vt 0.375000 0.750000
vt 0.375000 0.000000
vt 0.378276 0.500000
vt 0.621724 0.500000
vt 0.625000 0.000000
vn 0.000000 -0.183610 0.982999
vn -0.000000 -0.183610 0.982999
vn 0.000000 -0.024016 0.999712
vn 0.000000 -0.024016 0.999712
vn 0.000000 0.990742 0.135758
vn 0.000000 0.990742 0.135758
vn 0.000000 1.000000 0.000000
vn 0.000000 1.000000 0.000000
vn 0.000000 -1.000000 0.000000
vn 0.000000 -1.000000 0.000000
vn 0.000000 -0.999686 0.025057
vn 0.000000 -0.999686 0.025057
vn 0.000000 -0.382683 0.923880
vn 0.000000 -0.382683 0.923880
vn 0.000000 -0.382683 0.923880
vn 0.000000 -0.382683 0.923880
vn -0.000000 -0.923880 0.382684
vn -0.000000 -0.923880 0.382684
vn -0.000000 -0.923880 0.382684
vn -0.000000 -0.923880 0.382684
vn 0.000000 0.707107 0.707107
vn 0.000000 0.707107 0.707107
vn -1.000000 0.000000 0.000000
vn -1.000000 0.000000 0.000000
vn -1.000000 0.000000 0.000000
vn -1.000000 0.000000 0.000000
vn 1.000000 0.000000 0.000000
vn 1.000000 0.000000 0.000000
vn 1.000000 0.000000 0.000000
vn 1.000000 0.000000 0.000000
vn 0.000000 -0.382682 0.923880
vn 0.000000 -0.382682 0.923880
vn 0.000000 -0.382684 0.923879
vn -0.000001 -0.382683 0.923880
vn -0.000000 -0.382684 0.923879
vn -0.000001 -0.382683 0.923880
vn 0.000000 -0.923879 0.382684
vn 0.000000 -0.923879 0.382684
vn 0.000000 -0.923879 0.382684
vn 0.000000 -0.923879 0.382684
vn 0.000000 -0.923880 0.382682
vn 0.000000 -0.923880 0.382682
vn 0.989879 0.054308 -0.131112
vn 0.991342 0.092847 -0.092847
vn 0.991342 0.092847 -0.092847
vn 0.989879 0.054308 -0.131112
vn -0.991342 0.092846 -0.092846
vn -0.989879 0.054308 -0.131111
vn -0.989879 0.054308 -0.131111
vn -0.991342 0.092846 -0.092846
vn 0.000000 -0.923880 -0.382683
vn 0.000000 -0.923880 -0.382683
vn 0.000000 -0.923880 -0.382683
vn 0.000000 -0.923880 -0.382683
vn 0.989879 0.131112 -0.054308
vn 0.989879 0.131112 -0.054308
vn 0.000000 0.382684 0.923880
vn 0.000000 0.382684 0.923880
vn 0.000000 0.382684 0.923879
vn 0.000000 0.382684 0.923880
vn -0.989879 0.131111 -0.054308
vn -0.989879 0.131111 -0.054308
vn 1.000000 0.000000 0.000000
vn 1.000000 0.000000 0.000000
vn 1.000000 0.000000 0.000000
vn 1.000000 0.000000 0.000000
vn 1.000000 0.000000 0.000000
vn 1.000000 0.000000 0.000000
vn 1.000000 0.000000 0.000000
vn 1.000000 0.000000 0.000000
vn -1.000000 0.000000 0.000000
vn -1.000000 0.000000 0.000000
vn -1.000000 0.000000 0.000000
vn -1.000000 0.000000 0.000000
vn -1.000000 0.000000 0.000000
vn -1.000000 0.000000 0.000000
vn -1.000000 0.000000 0.000000
vn -1.000000 0.000000 0.000000
vn 0.000591 -0.970634 -0.240562
vn 0.000591 -0.970624 -0.240599
vn 0.000591 -0.958285 -0.285815
vn 0.000591 -0.958285 -0.285815
vn 0.000000 0.970053 0.242894
vn 0.000000 0.970053 0.242894
vn 0.000000 0.970053 0.242894
vn 0.000000 0.970053 0.242894
vn -1.000000 -0.000001 0.000000
vn -1.000000 -0.000001 0.000000
vn -1.000000 -0.000001 0.000000
vn -1.000000 -0.000001 0.000000
vn -0.707107 -0.171751 0.685931
vn -0.707107 -0.171751 0.685931
vn -0.707107 -0.171751 0.685931
vn -0.707107 -0.171751 0.685931
vn 0.000000 -0.242894 0.970053
vn 0.000000 -0.242894 0.970053
vn 0.000000 -0.242894 0.970053
vn 0.000000 -0.242894 0.970053
vn 0.711216 -0.178508 0.679931
vn 0.711216 -0.178508 0.679931
vn 0.711216 -0.178508 0.679931
vn 0.711216 -0.178508 0.679931
vn 1.000000 -0.000002 0.000000
vn 1.000000 -0.000002 0.000000
vn 1.000000 -0.000002 0.000000
vn 1.000000 -0.000002 0.000000
vn 0.000000 0.970053 0.242894
vn 0.000000 0.970053 0.242894
vn 0.000591 -0.971257 -0.238031
vn 0.000591 -0.971257 -0.238031
s 1
g Aire_Acondicionado
usemtl initialShadingGroup
f 7/7/1 9/16/2 16/10/3 12/15/4
f 11/9/5 14/5/6 2/1/7 1/6/8
s 3
f 3/2/9 4/3/10 8/8/11 5/4/12
s off
f 23/35/13 24/36/14 25/37/15 26/38/16
f 24/39/17 27/40/18 28/41/19 25/42/20
s 1
f 11/9/5 13/25/21 15/26/22 14/5/6
f 13/25/21 12/15/4 16/10/3 15/26/22
s off
f 11/11/23 1/12/24 3/13/25 5/14/26
f 9/16/27 10/24/28 15/26/29 16/10/30
s 1
f 7/7/1 6/21/31 18/28/32 17/27/33
f 10/24/34 9/16/2 20/30/35 19/29/36
f 9/16/2 7/7/1 17/27/33 20/30/35
s 3
f 6/22/37 5/4/12 21/32/38 18/31/39
f 5/4/12 8/8/11 22/33/40 21/32/38
f 8/8/11 10/23/41 19/34/42 22/33/40
s 4
f 17/27/43 18/28/44 24/36/45 23/35/46
s 5
f 19/29/47 20/30/48 26/38/49 25/37/50
s off
f 20/30/51 17/27/52 23/35/53 26/38/54
s 4
f 18/31/44 21/32/55 27/40/56 24/39/45
s off
f 21/32/57 22/33/58 28/41/59 27/40/60
s 5
f 22/33/61 19/34/47 25/42/50 28/41/62
s off
f 14/20/63 8/17/64 4/18/65 2/19/66
f 15/26/67 10/24/68 8/17/69 14/20/70
f 11/11/71 5/14/72 6/21/73 13/25/74
f 13/25/75 6/21/76 7/7/77 12/15/78
s 6
f 33/43/79 37/44/80 36/45/81 34/46/82
s 7
f 39/47/83 40/48/84 32/49/85 31/50/86
s off
f 29/51/87 33/43/88 39/47/89 31/50/90
f 33/43/91 34/46/92 35/52/93 39/47/94
f 34/46/95 36/45/96 38/53/97 35/52/98
f 36/45/99 37/44/100 40/48/101 38/53/102
f 37/44/103 30/54/104 32/49/105 40/48/106
s 7
f 39/47/83 35/52/107 38/53/108 40/48/84
s 6
f 29/51/109 30/54/110 37/44/80 33/43/79
