# This file uses centimeters as units for non-parametric coordinates.

mtllib SM_Mouse.mtl
g default
v -0.065512 0.225803 0.174121
v 0.159612 0.225803 0.095332
v 0.053890 0.202189 -0.206751
v -0.171234 0.202189 -0.127961
v 0.298840 0.027955 0.226037
v -0.092668 0.027955 0.363058
v 0.058920 0.240491 0.168353
v -0.063156 0.216876 -0.180457
v 0.080143 0.027955 -0.398847
v -0.311366 0.027955 -0.261827
v 0.143316 0.027273 0.409498
v -0.143316 0.027273 -0.409497
v 0.288170 0.027614 0.023947
v 0.200117 0.027614 -0.227649
v -0.298401 0.027614 -0.053178
v -0.210347 0.027614 0.198418
v -0.092842 0.073799 0.363836
v 0.143510 0.073799 0.410049
v 0.299461 0.073799 0.226538
v -0.262287 0.129366 -0.222266
v -0.119081 0.129366 -0.340250
v 0.066445 0.129366 -0.337316
v -0.078970 0.173834 0.301527
v 0.119081 0.173834 0.340251
v 0.249762 0.173834 0.186477
v 0.130065 -0.001365 0.371633
v 0.026489 0.027614 0.418069
v -0.084952 0.001365 0.328396
v 0.271194 0.001365 0.203752
v 0.239992 0.027614 0.343347
v -0.001663 0.238971 0.177354
v 0.038911 0.246544 0.111182
v -0.090249 0.220226 0.156385
v 0.111895 0.238971 0.137610
v 0.167892 0.220226 0.066041
v 0.079839 0.210386 -0.185553
v -0.005986 0.215356 -0.199210
v -0.049142 0.236704 -0.140413
v -0.119544 0.215356 -0.159466
v -0.178302 0.210386 -0.095209
v -0.246666 0.027614 -0.362417
v -0.311987 0.073799 -0.262327
v -0.143509 0.073799 -0.410049
v -0.033163 0.027614 -0.437139
v 0.080316 0.073799 -0.399626
v 0.072427 0.001365 -0.364186
v -0.130065 -0.001365 -0.371634
v -0.283719 0.001365 -0.239542
v 0.023720 -0.000000 0.378997
v 0.217793 -0.000000 0.311075
v -0.019911 0.244635 0.131768
v 0.097733 0.244635 0.090595
v 0.009680 0.234796 -0.160999
v -0.107964 0.234796 -0.119826
v -0.247125 0.073799 -0.362959
v -0.033142 0.073799 -0.437849
v -0.030393 -0.000000 -0.398067
v -0.224467 -0.000000 -0.330145
v 0.266019 -0.000000 0.031699
v 0.177965 -0.000000 -0.219896
v -0.276249 -0.000000 -0.060930
v -0.188196 -0.000000 0.190665
v -0.210736 0.073799 0.198553
v -0.298789 0.073799 -0.053042
v 0.026468 0.073799 0.418778
v 0.240451 0.073799 0.343888
v 0.288559 0.073799 0.023810
v 0.200505 0.073799 -0.227785
v -0.206988 0.129366 -0.303881
v -0.027680 0.129366 -0.366636
v -0.170281 0.157810 0.184395
v -0.258334 0.137234 -0.067200
v 0.021006 0.173834 0.347565
v 0.200314 0.173834 0.284812
v 0.248104 0.157810 0.037968
v 0.160051 0.137234 -0.213626
v 0.093121 0.001365 0.266074
v 0.038911 -0.000000 0.111182
v -0.049142 -0.000000 -0.140413
v -0.105646 0.001365 -0.301864
vt 0.436343 0.311343
vt 0.563657 0.311343
vt 0.563657 0.438657
vt 0.436343 0.438657
vt 0.620117 0.129883
vt 0.379883 0.129883
vt 0.500000 0.294596
vt 0.500000 0.455404
vt 0.625000 0.625000
vt 0.875000 0.125000
vt 0.375000 0.625000
vt 0.125000 0.125000
vt 0.500000 0.125977
vt 0.500000 0.624023
vt 0.437500 0.062500
vt 0.562500 0.062500
vt 0.459201 0.334201
vt 0.540799 0.334201
vt 0.540799 0.415799
vt 0.459201 0.415799
vt 0.445313 0.554688
vt 0.554688 0.554688
vt 0.562500 0.687500
vt 0.437500 0.687500
vt 0.687500 0.062500
vt 0.812500 0.062500
vt 0.187500 0.062500
vt 0.312500 0.062500
vt 0.351563 0.226563
vt 0.289063 0.273438
vt 0.445313 0.195313
vt 0.554688 0.195313
vt 0.648438 0.226563
vt 0.710938 0.273438
vt 0.453125 0.484375
vt 0.546875 0.484375
vt 0.390625 0.328125
vt 0.390625 0.421875
vt 0.453125 0.265625
vt 0.546875 0.265625
vt 0.609375 0.328125
vt 0.609375 0.421875
vt 0.500000 0.061821
vt 0.439453 0.126953
vt 0.375000 0.062500
vt 0.625000 0.062500
vt 0.560547 0.126953
vt 0.462240 0.300130
vt 0.500000 0.331163
vt 0.425130 0.337240
vt 0.537760 0.300130
vt 0.574870 0.337240
vt 0.574870 0.412760
vt 0.537760 0.449870
vt 0.500000 0.418837
vt 0.462240 0.449870
vt 0.425130 0.412760
vt 0.439453 0.623047
vt 0.390625 0.546875
vt 0.265625 0.296875
vt 0.500000 0.558594
vt 0.560547 0.623047
vt 0.609375 0.546875
vt 0.734375 0.296875
vt 0.625000 0.687500
vt 0.875000 0.062500
vt 0.500000 0.688191
vt 0.375000 0.687500
vt 0.125000 0.062500
vt 0.677734 0.134766
vt 0.787109 0.146484
vt 0.212891 0.146484
vt 0.322266 0.134766
vt 0.394531 0.207031
vt 0.500000 0.191406
vt 0.605469 0.207031
vt 0.414063 0.460938
vt 0.500000 0.492188
vt 0.585938 0.460938
vt 0.414063 0.289063
vt 0.500000 0.257813
vt 0.585938 0.289063
vt 0.500000 0.062500
vt 0.500000 0.062500
vt 0.500000 0.062500
vt 0.500000 0.062500
vt 0.500000 0.687500
vt 0.500000 0.062500
vt 0.500000 0.687500
vn -0.134964 -0.805356 0.577224
vn 0.188703 -0.820778 0.539180
vn 0.296848 -0.438691 0.848193
vn -0.165073 -0.421367 0.891741
vn -0.488677 -0.722755 0.488693
vn -0.622536 -0.342746 0.703543
vn 0.465454 -0.805356 0.367090
vn 0.686765 -0.722756 0.077309
vn 0.925391 -0.342742 0.161798
vn 0.685119 -0.421365 0.594191
vn -0.319094 0.893162 0.316924
vn -0.075454 0.942820 0.324648
vn -0.178430 0.983032 0.042547
vn -0.483396 0.860113 0.162894
vn 0.102079 0.951057 0.291669
vn -0.004188 0.999920 -0.011966
vn -0.031026 0.995580 -0.088650
vn -0.203712 0.978854 -0.018586
vn -0.516056 0.853189 0.075857
vn 0.261505 0.942818 0.206661
vn 0.166254 0.982988 -0.078066
vn 0.446977 0.893229 0.048522
vn 0.479351 0.860180 -0.174109
vn 0.450631 0.853252 -0.262473
vn 0.147898 0.978806 -0.141649
vn 0.273911 0.839039 -0.470093
vn -0.009825 0.889781 -0.456283
vn -0.149626 0.891535 -0.427524
vn -0.276791 0.889762 -0.362920
vn -0.507402 0.838900 -0.196955
vn -0.294566 -0.452584 -0.841664
vn -0.591675 -0.427018 -0.683795
vn -0.550285 0.525221 -0.649099
vn -0.275760 0.550565 -0.787931
vn -0.923467 -0.339311 -0.179102
vn -0.887703 0.419712 -0.189279
vn -0.629860 0.760297 -0.158820
vn -0.338928 0.844663 -0.414333
vn -0.172462 0.852896 -0.492773
vn 0.610244 -0.339309 -0.715871
vn 0.036146 -0.427018 -0.903520
vn 0.025425 0.525218 -0.850588
vn 0.575940 0.419709 -0.701525
vn 0.006637 0.844673 -0.535242
vn 0.393519 0.760298 -0.516807
vn 0.034544 -0.815957 -0.577080
vn -0.191775 -0.814225 -0.547960
vn 0.476034 -0.729395 -0.491299
vn -0.386859 -0.815959 -0.429594
vn -0.678501 -0.729402 -0.087233
vn 0.930491 -0.302896 -0.206012
vn 0.732975 -0.662651 -0.153754
vn 0.670238 -0.661955 -0.335554
vn 0.856630 -0.302657 -0.417834
vn -0.930231 -0.302656 0.207532
vn -0.733209 -0.661956 0.155624
vn -0.668891 -0.662647 0.336873
vn -0.855885 -0.302895 0.419184
vn -0.614985 0.332590 0.714966
vn -0.854921 0.314151 0.412819
vn -0.495903 0.672680 0.549166
vn -0.708391 0.635682 0.306742
vn -0.917205 0.342243 0.203973
vn -0.727715 0.670777 0.143140
vn 0.299015 0.425018 0.854371
vn -0.160265 0.403157 0.900988
vn 0.203144 0.788554 0.580444
vn -0.124491 0.763750 0.633393
vn 0.926609 0.332592 0.175438
vn 0.687128 0.403157 0.604417
vn 0.730170 0.672663 0.119898
vn 0.492331 0.763738 0.417510
vn 0.925768 0.314151 -0.210386
vn 0.844227 0.342242 -0.412493
vn 0.744660 0.636177 -0.201891
vn 0.657758 0.671246 -0.341736
vn 0.000000 -1.000000 -0.000000
vn 0.000000 -1.000000 -0.000000
vn 0.000000 -1.000000 -0.000000
vn 0.000000 -1.000000 -0.000000
vn 0.002747 -0.999965 0.007850
vn 0.002747 -0.999965 0.007850
vn 0.002747 -0.999965 0.007850
vn 0.002747 -0.999965 0.007850
vn -0.003896 -0.999802 -0.019532
vn -0.003896 -0.999802 -0.019532
vn -0.003896 -0.999802 -0.019532
vn -0.003896 -0.999802 -0.019532
vn 0.012592 -0.999632 0.024032
vn 0.012592 -0.999632 0.024032
vn 0.012592 -0.999632 0.024032
vn 0.012592 -0.999632 0.024032
vn -0.002636 -0.999968 -0.007531
vn -0.002636 -0.999968 -0.007531
vn -0.002636 -0.999968 -0.007531
vn -0.002636 -0.999968 -0.007531
vn -0.009134 -0.999802 -0.017698
vn -0.009134 -0.999802 -0.017698
vn -0.009134 -0.999802 -0.017698
vn -0.009134 -0.999802 -0.017698
vn 0.002747 -0.999965 0.007850
vn 0.002747 -0.999965 0.007850
vn 0.002747 -0.999965 0.007850
vn 0.002747 -0.999965 0.007850
vn 0.000000 -1.000000 0.000000
vn 0.000000 -1.000000 0.000000
vn 0.000000 -1.000000 0.000000
vn 0.000000 -1.000000 0.000000
vn -0.002636 -0.999968 -0.007531
vn -0.002636 -0.999968 -0.007531
vn -0.002636 -0.999968 -0.007531
vn -0.002636 -0.999968 -0.007531
vn 0.005142 -0.999632 0.026639
vn 0.005142 -0.999632 0.026639
vn 0.005142 -0.999632 0.026639
vn 0.005142 -0.999632 0.026639
s 1
g Mouse
usemtl lambert5SG
f 49/15/1 26/43/2 11/13/3 27/44/4
f 28/45/5 49/15/1 27/44/4 6/6/6
f 50/16/7 29/46/8 5/5/9 30/47/10
f 26/43/2 50/16/7 30/47/10 11/13/3
f 1/1/11 31/48/12 51/17/13 33/50/14
f 31/48/12 7/7/15 32/49/16 51/17/13
f 51/17/13 32/49/16 38/55/17 54/20/18
f 33/50/14 51/17/13 54/20/18 40/57/19
f 7/7/15 34/51/20 52/18/21 32/49/16
f 34/51/20 2/2/22 35/52/23 52/18/21
f 52/18/21 35/52/23 36/53/24 53/19/25
f 32/49/16 52/18/21 53/19/25 38/55/17
f 53/19/25 36/53/24 3/3/26 37/54/27
f 38/55/17 53/19/25 37/54/27 8/8/28
f 54/20/18 38/55/17 8/8/28 39/56/29
f 40/57/19 54/20/18 39/56/29 4/4/30
f 12/14/31 41/58/32 55/21/33 43/61/34
f 41/58/32 10/11/35 42/59/36 55/21/33
f 55/21/33 42/59/36 20/77/37 69/35/38
f 43/61/34 55/21/33 69/35/38 21/78/39
f 9/9/40 44/62/41 56/22/42 45/63/43
f 44/62/41 12/14/31 43/61/34 56/22/42
f 56/22/42 43/61/34 21/78/39 70/36/44
f 22/79/45 45/63/43 56/22/42 70/36/44
f 12/14/31 44/62/41 57/23/46 47/67/47
f 44/62/41 9/9/40 46/65/48 57/23/46
f 10/11/35 41/58/32 58/24/49 48/68/50
f 41/58/32 12/14/31 47/67/47 58/24/49
f 13/70/51 59/25/52 60/26/53 14/71/54
f 29/46/8 59/25/52 13/70/51 5/5/9
f 60/26/53 46/66/48 9/10/40 14/71/54
f 15/72/55 61/27/56 62/28/57 16/73/58
f 48/69/50 61/27/56 15/72/55 10/12/35
f 62/28/57 28/45/5 6/6/6 16/73/58
f 16/73/58 6/6/6 17/74/59 63/29/60
f 63/29/60 17/74/59 23/80/61 71/37/62
f 10/12/35 15/72/55 64/30/63 42/60/36
f 63/29/60 64/30/63 15/72/55 16/73/58
f 71/37/62 72/38/64 64/30/63 63/29/60
f 20/77/37 42/60/36 64/30/63 72/38/64
f 11/13/3 18/75/65 65/31/66 27/44/4
f 65/31/66 18/75/65 24/81/67 73/39/68
f 17/74/59 65/31/66 73/39/68 23/80/61
f 27/44/4 65/31/66 17/74/59 6/6/6
f 5/5/9 19/76/69 66/32/70 30/47/10
f 66/32/70 19/76/69 25/82/71 74/40/72
f 18/75/65 66/32/70 74/40/72 24/81/67
f 30/47/10 66/32/70 18/75/65 11/13/3
f 67/33/73 13/70/51 14/71/54 68/34/74
f 75/41/75 67/33/73 68/34/74 76/42/76
f 25/82/71 19/76/69 67/33/73 75/41/75
f 13/70/51 67/33/73 19/76/69 5/5/9
f 9/10/40 45/64/43 68/34/74 14/71/54
f 68/34/74 45/64/43 22/79/45 76/42/76
f 69/35/38 20/77/37 4/4/30 39/56/29
f 21/78/39 69/35/38 39/56/29 8/8/28
f 70/36/44 21/78/39 8/8/28 37/54/27
f 3/3/26 22/79/45 70/36/44 37/54/27
f 71/37/62 23/80/61 1/1/11 33/50/14
f 71/37/62 33/50/14 40/57/19 72/38/64
f 4/4/30 20/77/37 72/38/64 40/57/19
f 73/39/68 24/81/67 7/7/15 31/48/12
f 23/80/61 73/39/68 31/48/12 1/1/11
f 74/40/72 25/82/71 2/2/22 34/51/20
f 24/81/67 74/40/72 34/51/20 7/7/15
f 2/2/22 25/82/71 75/41/75 35/52/23
f 76/42/76 22/79/45 3/3/26 36/53/24
f 75/41/75 76/42/76 36/53/24 35/52/23
s off
f 60/26/77 59/25/78 78/85/79 79/86/80
f 59/25/81 29/46/82 77/84/83 78/85/84
f 26/83/85 77/84/86 29/46/87 50/16/88
f 57/23/89 46/65/90 80/87/91 47/89/92
f 46/66/93 60/26/94 79/86/95 80/88/96
f 49/15/97 28/45/98 77/84/99 26/83/100
f 78/85/101 77/84/102 28/45/103 62/28/104
f 79/86/105 78/85/106 62/28/107 61/27/108
f 80/88/109 79/86/110 61/27/111 48/69/112
f 47/89/113 80/87/114 48/68/115 58/24/116
