# This file uses centimeters as units for non-parametric coordinates.

mtllib SM_MesadaB.mtl
g default
v -1.798251 0.000000 1.566512
v -1.658609 0.000000 1.508670
v -1.518966 0.000000 1.566512
v -1.461124 0.000000 1.706155
v -1.518966 0.000000 1.845797
v -1.658609 0.000000 1.903639
v -1.798251 0.000000 1.845797
v -1.856093 0.000000 1.706155
v -1.817651 3.550044 1.547113
v -1.658609 3.550044 1.481235
v -1.499567 3.550044 1.547113
v -1.433689 3.550044 1.706155
v -1.499567 3.550044 1.865196
v -1.658609 3.550044 1.931074
v -1.817651 3.550044 1.865196
v -1.883528 3.550044 1.706155
v -1.658609 0.000000 1.706155
v -1.658609 3.550044 1.706155
v 1.798251 0.000000 1.566512
v 1.658609 0.000000 1.508670
v 1.518966 0.000000 1.566512
v 1.461124 0.000000 1.706155
v 1.518966 0.000000 1.845797
v 1.658609 0.000000 1.903639
v 1.798251 0.000000 1.845797
v 1.856093 0.000000 1.706155
v 1.817651 3.550044 1.547113
v 1.658609 3.550044 1.481235
v 1.499567 3.550044 1.547113
v 1.433689 3.550044 1.706155
v 1.499567 3.550044 1.865197
v 1.658609 3.550044 1.931074
v 1.817651 3.550044 1.865197
v 1.883528 3.550044 1.706155
v 1.658609 0.000000 1.706155
v 1.658609 3.550044 1.706155
v -1.727153 2.645106 1.755115
v 1.727153 2.645106 1.755115
v -1.727153 3.448754 1.755115
v 1.727153 3.448754 1.755115
v -1.727153 3.448754 -1.699191
v 1.727153 3.448754 -1.699191
v -1.727153 2.645106 -1.699191
v 1.727153 2.645106 -1.699191
v -1.527947 2.645106 -1.499985
v 1.527947 2.645106 -1.499985
v 1.527947 2.645106 1.555909
v -1.527947 2.645106 1.555909
v -1.527947 3.167285 -1.499985
v 1.527947 3.167285 -1.499985
v 1.527947 3.167285 1.555909
v -1.527947 3.167285 1.555909
v -1.727153 1.374743 1.755115
v 1.727153 1.374743 1.755115
v -1.727153 1.593212 1.755115
v 1.727153 1.593212 1.755115
v -1.727153 1.593212 -1.699191
v 1.727153 1.593212 -1.699191
v -1.727153 1.374743 -1.699191
v 1.727153 1.374743 -1.699191
v -1.798251 0.000000 -1.566512
v -1.658609 0.000000 -1.508670
v -1.518966 0.000000 -1.566512
v -1.461124 0.000000 -1.706155
v -1.518966 0.000000 -1.845797
v -1.658609 0.000000 -1.903639
v -1.798251 0.000000 -1.845797
v -1.856093 0.000000 -1.706155
v -1.817651 3.550044 -1.547113
v -1.658609 3.550044 -1.481235
v -1.499567 3.550044 -1.547113
v -1.433689 3.550044 -1.706155
v -1.499567 3.550044 -1.865196
v -1.658609 3.550044 -1.931074
v -1.817651 3.550044 -1.865196
v -1.883528 3.550044 -1.706155
v -1.658609 0.000000 -1.706155
v -1.658609 3.550044 -1.706155
v 1.798251 0.000000 -1.566512
v 1.658609 0.000000 -1.508670
v 1.518966 0.000000 -1.566512
v 1.461124 0.000000 -1.706155
v 1.518966 0.000000 -1.845797
v 1.658609 0.000000 -1.903639
v 1.798251 0.000000 -1.845797
v 1.856093 0.000000 -1.706155
v 1.817651 3.550044 -1.547113
v 1.658609 3.550044 -1.481235
v 1.499567 3.550044 -1.547113
v 1.433689 3.550044 -1.706155
v 1.499567 3.550044 -1.865197
v 1.658609 3.550044 -1.931074
v 1.817651 3.550044 -1.865197
v 1.883528 3.550044 -1.706155
v 1.658609 0.000000 -1.706155
v 1.658609 3.550044 -1.706155
vt 0.610485 0.045765
vt 0.500000 0.000000
vt 0.389515 0.045765
vt 0.343750 0.156250
vt 0.389515 0.266735
vt 0.500000 0.312500
vt 0.610485 0.266735
vt 0.656250 0.156250
vt 0.375000 0.312500
vt 0.406250 0.312500
vt 0.437500 0.312500
vt 0.468750 0.312500
vt 0.500000 0.312500
vt 0.531250 0.312500
vt 0.562500 0.312500
vt 0.593750 0.312500
vt 0.625000 0.312500
vt 0.375000 0.688440
vt 0.406250 0.688440
vt 0.437500 0.688440
vt 0.468750 0.688440
vt 0.500000 0.688440
vt 0.531250 0.688440
vt 0.562500 0.688440
vt 0.593750 0.688440
vt 0.625000 0.688440
vt 0.610485 0.733265
vt 0.500000 0.687500
vt 0.389515 0.733265
vt 0.343750 0.843750
vt 0.389515 0.954235
vt 0.500000 1.000000
vt 0.610485 0.954235
vt 0.656250 0.843750
vt 0.500000 0.150000
vt 0.500000 0.837500
vt 0.375000 0.312500
vt 0.406250 0.312500
vt 0.406250 0.688440
vt 0.375000 0.688440
vt 0.437500 0.312500
vt 0.437500 0.688440
vt 0.468750 0.312500
vt 0.468750 0.688440
vt 0.500000 0.312500
vt 0.500000 0.688440
vt 0.531250 0.312500
vt 0.531250 0.688440
vt 0.562500 0.312500
vt 0.562500 0.688440
vt 0.593750 0.312500
vt 0.593750 0.688440
vt 0.625000 0.312500
vt 0.625000 0.688440
vt 0.500000 0.000000
vt 0.610485 0.045765
vt 0.500000 0.150000
vt 0.389515 0.045765
vt 0.343750 0.156250
vt 0.389515 0.266735
vt 0.500000 0.312500
vt 0.610485 0.266735
vt 0.656250 0.156250
vt 0.610485 0.954235
vt 0.500000 1.000000
vt 0.500000 0.837500
vt 0.389515 0.954235
vt 0.343750 0.843750
vt 0.389515 0.733265
vt 0.500000 0.687500
vt 0.610485 0.733265
vt 0.656250 0.843750
vt 0.375000 0.000000
vt 0.625000 0.000000
vt 0.625000 0.250000
vt 0.375000 0.250000
vt 0.625000 0.500000
vt 0.375000 0.500000
vt 0.625000 0.750000
vt 0.375000 0.750000
vt 0.375000 0.750000
vt 0.625000 0.750000
vt 0.625000 1.000000
vt 0.375000 1.000000
vt 0.875000 0.000000
vt 0.875000 0.250000
vt 0.125000 0.000000
vt 0.125000 0.250000
vt 0.625000 0.750000
vt 0.375000 0.750000
vt 0.625000 1.000000
vt 0.625000 1.000000
vt 0.375000 1.000000
vt 0.375000 1.000000
vt 0.375000 0.000000
vt 0.625000 0.000000
vt 0.625000 0.250000
vt 0.375000 0.250000
vt 0.625000 0.500000
vt 0.375000 0.500000
vt 0.625000 0.750000
vt 0.375000 0.750000
vt 0.625000 1.000000
vt 0.375000 1.000000
vt 0.875000 0.000000
vt 0.875000 0.250000
vt 0.125000 0.000000
vt 0.125000 0.250000
vt 0.375000 0.312500
vt 0.375000 0.688440
vt 0.406250 0.688440
vt 0.406250 0.312500
vt 0.437500 0.688440
vt 0.437500 0.312500
vt 0.468750 0.688440
vt 0.468750 0.312500
vt 0.500000 0.688440
vt 0.500000 0.312500
vt 0.531250 0.688440
vt 0.531250 0.312500
vt 0.562500 0.688440
vt 0.562500 0.312500
vt 0.593750 0.688440
vt 0.593750 0.312500
vt 0.625000 0.688440
vt 0.625000 0.312500
vt 0.500000 0.000000
vt 0.500000 0.150000
vt 0.610485 0.045765
vt 0.389515 0.045765
vt 0.343750 0.156250
vt 0.389515 0.266735
vt 0.500000 0.312500
vt 0.610485 0.266735
vt 0.656250 0.156250
vt 0.610485 0.954235
vt 0.500000 0.837500
vt 0.500000 1.000000
vt 0.389515 0.954235
vt 0.343750 0.843750
vt 0.389515 0.733265
vt 0.500000 0.687500
vt 0.610485 0.733265
vt 0.656250 0.843750
vt 0.375000 0.312500
vt 0.406250 0.312500
vt 0.406250 0.688440
vt 0.375000 0.688440
vt 0.437500 0.312500
vt 0.437500 0.688440
vt 0.468750 0.312500
vt 0.468750 0.688440
vt 0.500000 0.312500
vt 0.500000 0.688440
vt 0.531250 0.312500
vt 0.531250 0.688440
vt 0.562500 0.312500
vt 0.562500 0.688440
vt 0.593750 0.312500
vt 0.593750 0.688440
vt 0.625000 0.312500
vt 0.625000 0.688440
vt 0.500000 0.000000
vt 0.610485 0.045765
vt 0.500000 0.150000
vt 0.389515 0.045765
vt 0.343750 0.156250
vt 0.389515 0.266735
vt 0.500000 0.312500
vt 0.610485 0.266735
vt 0.656250 0.156250
vt 0.610485 0.954235
vt 0.500000 1.000000
vt 0.500000 0.837500
vt 0.389515 0.954235
vt 0.343750 0.843750
vt 0.389515 0.733265
vt 0.500000 0.687500
vt 0.610485 0.733265
vt 0.656250 0.843750
vn -0.707086 -0.007728 -0.707086
vn -0.707086 -0.007728 -0.707086
vn 0.000000 -0.007728 -0.999970
vn 0.000000 -0.007728 -0.999970
vn 0.707086 -0.007728 -0.707086
vn 0.707086 -0.007728 -0.707086
vn 0.999970 -0.007728 0.000000
vn 0.999970 -0.007728 0.000000
vn 0.707086 -0.007728 0.707086
vn 0.707086 -0.007728 0.707086
vn 0.000000 -0.007728 0.999970
vn 0.000000 -0.007728 0.999970
vn -0.707086 -0.007728 0.707086
vn -0.707086 -0.007728 0.707086
vn -0.999970 -0.007728 0.000000
vn -0.999970 -0.007728 0.000000
vn 0.000000 -1.000000 0.000000
vn 0.000000 -1.000000 0.000000
vn 0.000000 -1.000000 0.000000
vn 0.000000 -1.000000 0.000000
vn 0.000000 -1.000000 0.000000
vn 0.000000 -1.000000 0.000000
vn 0.000000 -1.000000 0.000000
vn 0.000000 -1.000000 0.000000
vn 0.000000 -1.000000 0.000000
vn 0.000000 -1.000000 0.000000
vn 0.000000 -1.000000 0.000000
vn 0.000000 -1.000000 0.000000
vn 0.000000 -1.000000 0.000000
vn 0.000000 -1.000000 0.000000
vn 0.000000 -1.000000 0.000000
vn 0.000000 -1.000000 0.000000
vn 0.000000 -1.000000 0.000000
vn 0.000000 -1.000000 0.000000
vn 0.000000 -1.000000 0.000000
vn 0.000000 -1.000000 0.000000
vn 0.000000 -1.000000 0.000000
vn 0.000000 -1.000000 0.000000
vn 0.000000 -1.000000 0.000000
vn 0.000000 -1.000000 0.000000
vn 0.000000 1.000000 0.000000
vn 0.000000 1.000000 0.000000
vn 0.000000 1.000000 0.000000
vn 0.000000 1.000000 0.000000
vn 0.000000 1.000000 0.000000
vn 0.000000 1.000000 0.000000
vn 0.000000 1.000000 0.000002
vn 0.000000 1.000000 0.000002
vn 0.000000 1.000000 0.000002
vn 0.000000 1.000000 -0.000002
vn 0.000000 1.000000 -0.000002
vn 0.000000 1.000000 -0.000002
vn 0.000000 1.000000 0.000000
vn 0.000000 1.000000 0.000000
vn 0.000000 1.000000 0.000000
vn 0.000000 1.000000 0.000000
vn 0.000000 1.000000 0.000000
vn 0.000000 1.000000 0.000000
vn 0.000000 1.000000 -0.000002
vn 0.000000 1.000000 -0.000002
vn 0.000000 1.000000 -0.000002
vn 0.000000 1.000000 0.000002
vn 0.000000 1.000000 0.000002
vn 0.000000 1.000000 0.000002
vn 0.707085 -0.007728 -0.707086
vn 0.000000 -0.007728 -0.999970
vn 0.000000 -0.007728 -0.999970
vn 0.707085 -0.007728 -0.707086
vn -0.707085 -0.007728 -0.707086
vn -0.707085 -0.007728 -0.707086
vn -0.999970 -0.007728 0.000000
vn -0.999970 -0.007728 0.000000
vn -0.707086 -0.007728 0.707086
vn -0.707086 -0.007728 0.707086
vn 0.000000 -0.007728 0.999970
vn 0.000000 -0.007728 0.999970
vn 0.707086 -0.007728 0.707086
vn 0.707086 -0.007728 0.707086
vn 0.999970 -0.007728 -0.000000
vn 0.999970 -0.007728 -0.000000
vn 0.000000 -1.000000 0.000000
vn 0.000000 -1.000000 0.000000
vn 0.000000 -1.000000 0.000000
vn 0.000000 -1.000000 0.000000
vn 0.000000 -1.000000 0.000000
vn 0.000000 -1.000000 0.000000
vn 0.000000 -1.000000 0.000000
vn 0.000000 -1.000000 0.000000
vn 0.000000 -1.000000 0.000000
vn 0.000000 -1.000000 0.000000
vn 0.000000 -1.000000 0.000000
vn 0.000000 -1.000000 0.000000
vn 0.000000 -1.000000 0.000000
vn 0.000000 -1.000000 0.000000
vn 0.000000 -1.000000 0.000000
vn 0.000000 -1.000000 0.000000
vn 0.000000 -1.000000 0.000000
vn 0.000000 -1.000000 0.000000
vn 0.000000 -1.000000 0.000000
vn 0.000000 -1.000000 0.000000
vn 0.000000 -1.000000 0.000000
vn 0.000000 -1.000000 0.000000
vn 0.000000 -1.000000 0.000000
vn 0.000000 -1.000000 0.000000
vn 0.000000 1.000000 0.000000
vn 0.000000 1.000000 0.000000
vn 0.000000 1.000000 0.000000
vn 0.000000 1.000000 0.000000
vn 0.000000 1.000000 0.000000
vn 0.000000 1.000000 0.000000
vn 0.000000 1.000000 0.000003
vn 0.000000 1.000000 0.000003
vn 0.000000 1.000000 0.000003
vn 0.000000 1.000000 0.000000
vn 0.000000 1.000000 0.000000
vn 0.000000 1.000000 0.000000
vn 0.000000 1.000000 0.000000
vn 0.000000 1.000000 0.000000
vn 0.000000 1.000000 0.000000
vn 0.000000 1.000000 0.000000
vn 0.000000 1.000000 0.000000
vn 0.000000 1.000000 0.000000
vn 0.000000 1.000000 -0.000003
vn 0.000000 1.000000 -0.000003
vn 0.000000 1.000000 -0.000003
vn 0.000000 1.000000 0.000000
vn 0.000000 1.000000 0.000000
vn 0.000000 1.000000 0.000000
vn 0.000000 0.000000 1.000000
vn 0.000000 0.000000 1.000000
vn 0.000000 0.000000 1.000000
vn 0.000000 0.000000 1.000000
vn 0.000000 1.000000 0.000000
vn 0.000000 1.000000 0.000000
vn 0.000000 1.000000 0.000000
vn 0.000000 1.000000 0.000000
vn 0.000000 0.000000 -1.000000
vn 0.000000 0.000000 -1.000000
vn 0.000000 0.000000 -1.000000
vn 0.000000 0.000000 -1.000000
vn 0.000000 -1.000000 0.000000
vn 0.000000 -1.000000 0.000000
vn 0.000000 -1.000000 0.000000
vn 0.000000 -1.000000 0.000000
vn 1.000000 0.000000 0.000000
vn 1.000000 0.000000 0.000000
vn 1.000000 0.000000 0.000000
vn 1.000000 0.000000 0.000000
vn -1.000000 0.000000 0.000000
vn -1.000000 0.000000 0.000000
vn -1.000000 0.000000 0.000000
vn -1.000000 0.000000 0.000000
vn 0.000000 -1.000000 0.000000
vn 0.000000 -1.000000 0.000000
vn 0.000000 -1.000000 0.000000
vn 0.000000 -1.000000 0.000000
vn 0.000000 -1.000000 -0.000000
vn 0.000000 -1.000000 -0.000000
vn 0.000000 -1.000000 -0.000000
vn 0.000000 -1.000000 -0.000000
vn 0.000000 0.000000 1.000000
vn 0.000000 0.000000 1.000000
vn 0.000000 0.000000 1.000000
vn 0.000000 0.000000 1.000000
vn -1.000000 0.000000 0.000000
vn -1.000000 0.000000 0.000000
vn -1.000000 0.000000 0.000000
vn -1.000000 0.000000 0.000000
vn 0.000000 0.000000 -1.000000
vn 0.000000 0.000000 -1.000000
vn 0.000000 0.000000 -1.000000
vn 0.000000 0.000000 -1.000000
vn 1.000000 0.000000 0.000000
vn 1.000000 0.000000 0.000000
vn 1.000000 0.000000 0.000000
vn 1.000000 0.000000 0.000000
vn 0.000000 0.000000 1.000000
vn 0.000000 0.000000 1.000000
vn 0.000000 0.000000 1.000000
vn 0.000000 0.000000 1.000000
vn 0.000000 1.000000 0.000000
vn 0.000000 1.000000 0.000000
vn 0.000000 1.000000 0.000000
vn 0.000000 1.000000 0.000000
vn 0.000000 0.000000 -1.000000
vn 0.000000 0.000000 -1.000000
vn 0.000000 0.000000 -1.000000
vn 0.000000 0.000000 -1.000000
vn 0.000000 -1.000000 0.000000
vn 0.000000 -1.000000 0.000000
vn 0.000000 -1.000000 0.000000
vn 0.000000 -1.000000 0.000000
vn 1.000000 0.000000 0.000000
vn 1.000000 0.000000 0.000000
vn 1.000000 0.000000 0.000000
vn 1.000000 0.000000 0.000000
vn -1.000000 0.000000 0.000000
vn -1.000000 0.000000 0.000000
vn -1.000000 0.000000 0.000000
vn -1.000000 0.000000 0.000000
vn -0.707086 -0.007728 0.707086
vn 0.000000 -0.007728 0.999970
vn 0.000000 -0.007728 0.999970
vn -0.707086 -0.007728 0.707086
vn 0.707086 -0.007728 0.707086
vn 0.707086 -0.007728 0.707086
vn 0.999970 -0.007728 0.000000
vn 0.999970 -0.007728 0.000000
vn 0.707086 -0.007728 -0.707086
vn 0.707086 -0.007728 -0.707086
vn 0.000000 -0.007728 -0.999970
vn 0.000000 -0.007728 -0.999970
vn -0.707086 -0.007728 -0.707086
vn -0.707086 -0.007728 -0.707086
vn -0.999970 -0.007728 0.000000
vn -0.999970 -0.007728 0.000000
vn 0.000000 -1.000000 0.000000
vn 0.000000 -1.000000 0.000000
vn 0.000000 -1.000000 0.000000
vn 0.000000 -1.000000 0.000000
vn 0.000000 -1.000000 0.000000
vn 0.000000 -1.000000 0.000000
vn 0.000000 -1.000000 0.000000
vn 0.000000 -1.000000 0.000000
vn 0.000000 -1.000000 0.000000
vn 0.000000 -1.000000 0.000000
vn 0.000000 -1.000000 0.000000
vn 0.000000 -1.000000 0.000000
vn 0.000000 -1.000000 0.000000
vn 0.000000 -1.000000 0.000000
vn 0.000000 -1.000000 0.000000
vn 0.000000 -1.000000 0.000000
vn 0.000000 -1.000000 0.000000
vn 0.000000 -1.000000 0.000000
vn 0.000000 -1.000000 0.000000
vn 0.000000 -1.000000 0.000000
vn 0.000000 -1.000000 0.000000
vn 0.000000 -1.000000 0.000000
vn 0.000000 -1.000000 0.000000
vn 0.000000 -1.000000 0.000000
vn 0.000000 1.000000 0.000000
vn 0.000000 1.000000 0.000000
vn 0.000000 1.000000 0.000000
vn 0.000000 1.000000 0.000000
vn 0.000000 1.000000 0.000000
vn 0.000000 1.000000 0.000000
vn 0.000000 1.000000 0.000000
vn 0.000000 1.000000 0.000000
vn 0.000000 1.000000 0.000000
vn 0.000000 1.000000 0.000003
vn 0.000000 1.000000 0.000003
vn 0.000000 1.000000 0.000003
vn 0.000000 1.000000 0.000000
vn 0.000000 1.000000 0.000000
vn 0.000000 1.000000 0.000000
vn 0.000000 1.000000 0.000000
vn 0.000000 1.000000 0.000000
vn 0.000000 1.000000 0.000000
vn 0.000000 1.000000 0.000003
vn 0.000000 1.000000 0.000003
vn 0.000000 1.000000 0.000003
vn 0.000000 1.000000 0.000000
vn 0.000000 1.000000 0.000000
vn 0.000000 1.000000 0.000000
vn 0.707085 -0.007728 0.707086
vn 0.707085 -0.007728 0.707086
vn 0.000000 -0.007728 0.999970
vn 0.000000 -0.007728 0.999970
vn -0.707085 -0.007728 0.707086
vn -0.707085 -0.007728 0.707086
vn -0.999970 -0.007728 0.000000
vn -0.999970 -0.007728 0.000000
vn -0.707086 -0.007728 -0.707086
vn -0.707086 -0.007728 -0.707086
vn 0.000000 -0.007728 -0.999970
vn 0.000000 -0.007728 -0.999970
vn 0.707086 -0.007728 -0.707086
vn 0.707086 -0.007728 -0.707086
vn 0.999970 -0.007728 -0.000000
vn 0.999970 -0.007728 -0.000000
vn 0.000000 -1.000000 0.000000
vn 0.000000 -1.000000 0.000000
vn 0.000000 -1.000000 0.000000
vn 0.000000 -1.000000 0.000000
vn 0.000000 -1.000000 0.000000
vn 0.000000 -1.000000 0.000000
vn 0.000000 -1.000000 0.000000
vn 0.000000 -1.000000 0.000000
vn 0.000000 -1.000000 0.000000
vn 0.000000 -1.000000 0.000000
vn 0.000000 -1.000000 0.000000
vn 0.000000 -1.000000 0.000000
vn 0.000000 -1.000000 0.000000
vn 0.000000 -1.000000 0.000000
vn 0.000000 -1.000000 0.000000
vn 0.000000 -1.000000 0.000000
vn 0.000000 -1.000000 0.000000
vn 0.000000 -1.000000 0.000000
vn 0.000000 -1.000000 0.000000
vn 0.000000 -1.000000 0.000000
vn 0.000000 -1.000000 0.000000
vn 0.000000 -1.000000 0.000000
vn 0.000000 -1.000000 0.000000
vn 0.000000 -1.000000 0.000000
vn 0.000000 1.000000 0.000000
vn 0.000000 1.000000 0.000000
vn 0.000000 1.000000 0.000000
vn 0.000000 1.000000 0.000000
vn 0.000000 1.000000 0.000000
vn 0.000000 1.000000 0.000000
vn 0.000000 1.000000 -0.000002
vn 0.000000 1.000000 -0.000002
vn 0.000000 1.000000 -0.000002
vn 0.000000 1.000000 0.000002
vn 0.000000 1.000000 0.000002
vn 0.000000 1.000000 0.000002
vn 0.000000 1.000000 0.000000
vn 0.000000 1.000000 0.000000
vn 0.000000 1.000000 0.000000
vn 0.000000 1.000000 0.000000
vn 0.000000 1.000000 0.000000
vn 0.000000 1.000000 0.000000
vn 0.000000 1.000000 0.000002
vn 0.000000 1.000000 0.000002
vn 0.000000 1.000000 0.000002
vn 0.000000 1.000000 -0.000002
vn 0.000000 1.000000 -0.000002
vn 0.000000 1.000000 -0.000002
s 1
g MesadaB
usemtl initialShadingGroup
f 1/9/1 9/18/2 10/19/3 2/10/4
f 2/10/4 10/19/3 11/20/5 3/11/6
f 3/11/6 11/20/5 12/21/7 4/12/8
f 4/12/8 12/21/7 13/22/9 5/13/10
f 5/13/10 13/22/9 14/23/11 6/14/12
f 6/14/12 14/23/11 15/24/13 7/15/14
f 7/15/14 15/24/13 16/25/15 8/16/16
f 8/16/16 16/25/15 9/26/2 1/17/1
s off
f 2/2/17 17/35/18 1/1/19
f 3/3/20 17/35/21 2/2/22
f 4/4/23 17/35/24 3/3/25
f 5/5/26 17/35/27 4/4/28
f 6/6/29 17/35/30 5/5/31
f 7/7/32 17/35/33 6/6/34
f 8/8/35 17/35/36 7/7/37
f 1/1/38 17/35/39 8/8/40
f 9/33/41 18/36/42 10/32/43
f 10/32/44 18/36/45 11/31/46
f 11/31/47 18/36/48 12/30/49
f 12/30/50 18/36/51 13/29/52
f 13/29/53 18/36/54 14/28/55
f 14/28/56 18/36/57 15/27/58
f 15/27/59 18/36/60 16/34/61
f 16/34/62 18/36/63 9/33/64
s 2
f 19/37/65 20/38/66 28/39/67 27/40/68
f 20/38/66 21/41/69 29/42/70 28/39/67
f 21/41/69 22/43/71 30/44/72 29/42/70
f 22/43/71 23/45/73 31/46/74 30/44/72
f 23/45/73 24/47/75 32/48/76 31/46/74
f 24/47/75 25/49/77 33/50/78 32/48/76
f 25/49/77 26/51/79 34/52/80 33/50/78
f 26/51/79 19/53/65 27/54/68 34/52/80
s off
f 20/55/81 19/56/82 35/57/83
f 21/58/84 20/55/85 35/57/86
f 22/59/87 21/58/88 35/57/89
f 23/60/90 22/59/91 35/57/92
f 24/61/93 23/60/94 35/57/95
f 25/62/96 24/61/97 35/57/98
f 26/63/99 25/62/100 35/57/101
f 19/56/102 26/63/103 35/57/104
f 27/64/105 28/65/106 36/66/107
f 28/65/108 29/67/109 36/66/110
f 29/67/111 30/68/112 36/66/113
f 30/68/114 31/69/115 36/66/116
f 31/69/117 32/70/118 36/66/119
f 32/70/120 33/71/121 36/66/122
f 33/71/123 34/72/124 36/66/125
f 34/72/126 27/64/127 36/66/128
f 37/73/129 38/74/130 40/75/131 39/76/132
f 39/76/133 40/75/134 42/77/135 41/78/136
f 41/78/137 42/77/138 44/79/139 43/80/140
f 49/81/141 50/82/142 51/83/143 52/84/144
f 38/74/145 44/85/146 42/86/147 40/75/148
f 43/87/149 37/73/150 39/76/151 41/88/152
s 3
f 43/80/153 44/79/154 46/89/155 45/90/156
f 44/79/154 38/91/157 47/92/158 46/89/155
f 38/91/157 37/93/159 48/94/160 47/92/158
f 37/93/159 43/80/153 45/90/156 48/94/160
s off
f 45/90/161 46/89/162 50/82/163 49/81/164
f 46/89/165 47/92/166 51/83/167 50/82/168
f 47/92/169 48/94/170 52/84/171 51/83/172
f 48/94/173 45/90/174 49/81/175 52/84/176
f 53/95/177 54/96/178 56/97/179 55/98/180
f 55/98/181 56/97/182 58/99/183 57/100/184
f 57/100/185 58/99/186 60/101/187 59/102/188
f 59/102/189 60/101/190 54/103/191 53/104/192
f 54/96/193 60/105/194 58/106/195 56/97/196
f 59/107/197 53/95/198 55/98/199 57/108/200
s 4
f 61/109/201 62/112/202 70/111/203 69/110/204
f 62/112/202 63/114/205 71/113/206 70/111/203
f 63/114/205 64/116/207 72/115/208 71/113/206
f 64/116/207 65/118/209 73/117/210 72/115/208
f 65/118/209 66/120/211 74/119/212 73/117/210
f 66/120/211 67/122/213 75/121/214 74/119/212
f 67/122/213 68/124/215 76/123/216 75/121/214
f 68/124/215 61/126/201 69/125/204 76/123/216
s off
f 62/127/217 61/129/218 77/128/219
f 63/130/220 62/127/221 77/128/222
f 64/131/223 63/130/224 77/128/225
f 65/132/226 64/131/227 77/128/228
f 66/133/229 65/132/230 77/128/231
f 67/134/232 66/133/233 77/128/234
f 68/135/235 67/134/236 77/128/237
f 61/129/238 68/135/239 77/128/240
f 69/136/241 70/138/242 78/137/243
f 70/138/244 71/139/245 78/137/246
f 71/139/247 72/140/248 78/137/249
f 72/140/250 73/141/251 78/137/252
f 73/141/253 74/142/254 78/137/255
f 74/142/256 75/143/257 78/137/258
f 75/143/259 76/144/260 78/137/261
f 76/144/262 69/136/263 78/137/264
s 5
f 79/145/265 87/148/266 88/147/267 80/146/268
f 80/146/268 88/147/267 89/150/269 81/149/270
f 81/149/270 89/150/269 90/152/271 82/151/272
f 82/151/272 90/152/271 91/154/273 83/153/274
f 83/153/274 91/154/273 92/156/275 84/155/276
f 84/155/276 92/156/275 93/158/277 85/157/278
f 85/157/278 93/158/277 94/160/279 86/159/280
f 86/159/280 94/160/279 87/162/266 79/161/265
s off
f 80/163/281 95/165/282 79/164/283
f 81/166/284 95/165/285 80/163/286
f 82/167/287 95/165/288 81/166/289
f 83/168/290 95/165/291 82/167/292
f 84/169/293 95/165/294 83/168/295
f 85/170/296 95/165/297 84/169/298
f 86/171/299 95/165/300 85/170/301
f 79/164/302 95/165/303 86/171/304
f 87/172/305 96/174/306 88/173/307
f 88/173/308 96/174/309 89/175/310
f 89/175/311 96/174/312 90/176/313
f 90/176/314 96/174/315 91/177/316
f 91/177/317 96/174/318 92/178/319
f 92/178/320 96/174/321 93/179/322
f 93/179/323 96/174/324 94/180/325
f 94/180/326 96/174/327 87/172/328
