# This file uses centimeters as units for non-parametric coordinates.

mtllib SM_Mesada.mtl
g default
v 3.631831 1.236264 -1.642734
v 3.430213 1.236264 -1.726247
v 3.228595 1.236264 -1.642734
v 3.145082 1.236264 -1.441116
v 3.228595 1.236264 -1.239498
v 3.430213 1.236264 -1.155985
v 3.631831 1.236264 -1.239498
v 3.715344 1.236264 -1.441116
v 3.430213 -0.000295 -1.441116
v 3.593165 0.062699 -1.604068
v 3.542832 -0.000295 -1.553735
v 3.430213 0.062699 -1.671565
v 3.430213 -0.000295 -1.600383
v 3.267261 0.062699 -1.604068
v 3.317595 -0.000295 -1.553735
v 3.199764 0.062699 -1.441116
v 3.270946 -0.000295 -1.441116
v 3.267261 0.062699 -1.278164
v 3.317595 -0.000295 -1.328497
v 3.430213 0.062699 -1.210667
v 3.430213 -0.000295 -1.281849
v 3.593165 0.062699 -1.278164
v 3.542832 -0.000295 -1.328497
v 3.660662 0.062699 -1.441116
v 3.589480 -0.000295 -1.441116
v -3.299734 1.236264 -1.642734
v -3.501352 1.236264 -1.726247
v -3.702971 1.236264 -1.642734
v -3.786484 1.236264 -1.441116
v -3.702971 1.236264 -1.239498
v -3.501352 1.236264 -1.155985
v -3.299734 1.236264 -1.239498
v -3.216221 1.236264 -1.441116
v -3.501352 -0.000295 -1.441116
v -3.338400 0.062699 -1.604068
v -3.388733 -0.000295 -1.553735
v -3.501352 0.062699 -1.671565
v -3.501352 -0.000295 -1.600383
v -3.664305 0.062699 -1.604068
v -3.613971 -0.000295 -1.553735
v -3.731802 0.062699 -1.441116
v -3.660619 -0.000295 -1.441116
v -3.664305 0.062699 -1.278164
v -3.613971 -0.000295 -1.328497
v -3.501352 0.062699 -1.210667
v -3.501352 -0.000295 -1.281849
v -3.338400 0.062699 -1.278164
v -3.388733 -0.000295 -1.328497
v -3.270903 0.062699 -1.441116
v -3.342086 -0.000295 -1.441116
v -2.961306 1.920815 1.171846
v 2.961306 1.920815 1.171846
v 2.961306 1.920815 -1.171863
v -2.961306 1.920815 -1.171863
v -2.961306 1.867316 1.171866
v 2.961306 1.867316 1.171866
v 2.961306 1.867316 -1.171842
v -2.961306 1.867316 -1.171842
v -4.006135 1.920815 2.042152
v -4.053803 1.920815 2.083403
v 4.006135 1.920815 2.042152
v 4.053803 1.920815 2.083403
v -4.006135 1.920815 -2.042169
v -4.053803 1.920815 -2.083421
v 4.006135 1.920815 -2.042169
v 4.053803 1.920815 -2.083421
v -4.006135 1.843868 2.042172
v -4.053803 1.843868 2.083424
v 4.053803 1.843868 2.083424
v 4.006135 1.843868 2.042172
v -4.006135 1.843868 -2.042148
v -4.053803 1.843868 -2.083399
v 4.053803 1.843868 -2.083399
v 4.006135 1.843868 -2.042148
v -4.205029 1.220936 2.214289
v -4.261080 1.255927 2.262794
v 4.261080 1.255927 2.262794
v 4.205029 1.220936 2.214289
v 4.261080 1.885828 2.262778
v 4.205029 1.920818 2.214271
v -4.261080 1.885827 2.262778
v -4.205029 1.920818 2.214271
v -4.261080 1.885822 -2.262794
v -4.205029 1.920813 -2.214289
v 4.261080 1.885822 -2.262794
v 4.205030 1.920813 -2.214290
v 4.205029 1.220930 -2.214268
v 4.261080 1.255921 -2.262775
v -4.261080 1.255921 -2.262775
v -4.205029 1.220930 -2.214268
v 3.631831 1.236264 1.334284
v 3.430213 1.236264 1.250771
v 3.228595 1.236264 1.334284
v 3.145082 1.236264 1.535903
v 3.228595 1.236264 1.737521
v 3.430213 1.236264 1.821034
v 3.631831 1.236264 1.737521
v 3.715344 1.236264 1.535903
v 3.430213 -0.000295 1.535903
v 3.593165 0.062699 1.372950
v 3.542832 -0.000295 1.423284
v 3.430213 0.062699 1.305453
v 3.430213 -0.000295 1.376636
v 3.267261 0.062699 1.372950
v 3.317595 -0.000295 1.423284
v 3.199764 0.062699 1.535903
v 3.270946 -0.000295 1.535903
v 3.267261 0.062699 1.698855
v 3.317595 -0.000295 1.648521
v 3.430213 0.062699 1.766352
v 3.430213 -0.000295 1.695169
v 3.593165 0.062699 1.698855
v 3.542832 -0.000295 1.648521
v 3.660662 0.062699 1.535903
v 3.589480 -0.000295 1.535903
v -3.299734 1.236264 1.334284
v -3.501352 1.236264 1.250771
v -3.702971 1.236264 1.334284
v -3.786484 1.236264 1.535903
v -3.702971 1.236264 1.737521
v -3.501352 1.236264 1.821034
v -3.299734 1.236264 1.737521
v -3.216221 1.236264 1.535903
v -3.501352 -0.000295 1.535903
v -3.338400 0.062699 1.372950
v -3.388733 -0.000295 1.423284
v -3.501352 0.062699 1.305453
v -3.501352 -0.000295 1.376636
v -3.664305 0.062699 1.372950
v -3.613971 -0.000295 1.423284
v -3.731802 0.062699 1.535903
v -3.660619 -0.000295 1.535903
v -3.664305 0.062699 1.698855
v -3.613971 -0.000295 1.648521
v -3.501352 0.062699 1.766352
v -3.501352 -0.000295 1.695169
v -3.338400 0.062699 1.698855
v -3.388733 -0.000295 1.648521
v -3.270903 0.062699 1.535903
v -3.342086 -0.000295 1.535903
vt 0.375000 0.331651
vt 0.379668 0.312500
vt 0.401496 0.312500
vt 0.620246 0.312500
vt 0.598418 0.312500
vt 0.410918 0.312500
vt 0.432746 0.312500
vt 0.442168 0.312500
vt 0.463996 0.312500
vt 0.473418 0.312500
vt 0.495246 0.312500
vt 0.504668 0.312500
vt 0.526496 0.312500
vt 0.535918 0.312500
vt 0.557746 0.312500
vt 0.567168 0.312500
vt 0.588996 0.312500
vt 0.406250 0.331648
vt 0.375000 0.688440
vt 0.437500 0.331649
vt 0.406250 0.688440
vt 0.468750 0.331648
vt 0.437500 0.688440
vt 0.500000 0.331649
vt 0.468750 0.688440
vt 0.531250 0.331648
vt 0.500000 0.688440
vt 0.562500 0.331648
vt 0.531250 0.688440
vt 0.593750 0.331648
vt 0.562500 0.688440
vt 0.625000 0.331651
vt 0.625000 0.688440
vt 0.593750 0.688440
vt 0.577343 0.077032
vt 0.500000 0.044996
vt 0.422657 0.077032
vt 0.390620 0.154375
vt 0.422657 0.231718
vt 0.500000 0.263755
vt 0.577343 0.231718
vt 0.500000 0.150000
vt 0.609380 0.154375
vt 0.375000 0.331651
vt 0.379668 0.312500
vt 0.401496 0.312500
vt 0.406250 0.331648
vt 0.620246 0.312500
vt 0.625000 0.331651
vt 0.593750 0.331648
vt 0.598418 0.312500
vt 0.410918 0.312500
vt 0.432746 0.312500
vt 0.437500 0.331649
vt 0.442168 0.312500
vt 0.463996 0.312500
vt 0.468750 0.331648
vt 0.473418 0.312500
vt 0.495246 0.312500
vt 0.500000 0.331649
vt 0.504668 0.312500
vt 0.526496 0.312500
vt 0.531250 0.331648
vt 0.535918 0.312500
vt 0.557746 0.312500
vt 0.562500 0.331648
vt 0.567168 0.312500
vt 0.588996 0.312500
vt 0.406250 0.688440
vt 0.375000 0.688440
vt 0.437500 0.688440
vt 0.468750 0.688440
vt 0.500000 0.688440
vt 0.531250 0.688440
vt 0.562500 0.688440
vt 0.593750 0.688440
vt 0.625000 0.688440
vt 0.500000 0.044996
vt 0.577343 0.077032
vt 0.500000 0.150000
vt 0.422657 0.077032
vt 0.390620 0.154375
vt 0.422657 0.231718
vt 0.500000 0.263755
vt 0.577343 0.231718
vt 0.609380 0.154375
vt 0.375000 0.500000
vt 0.625000 0.500000
vt 0.625000 0.750000
vt 0.375000 0.750000
vt 0.375000 0.500000
vt 0.625000 0.500000
vt 0.625000 0.750000
vt 0.375000 0.750000
vt 0.494565 0.380435
vt 0.376644 0.251462
vt 0.500261 0.124739
vt 0.625000 0.270833
vt 0.625000 0.487500
vt 0.571229 0.500000
vt 0.375000 0.500000
vt 0.386905 0.488095
vt 0.496755 0.878245
vt 0.428771 0.750000
vt 0.625000 0.750000
vt 0.625000 0.762652
vt 0.625000 0.987582
vt 0.624999 1.000000
vt 0.624892 1.000000
vt 0.386830 0.988170
vt 0.376644 0.985384
vt 0.622332 0.002669
vt 0.496884 0.500000
vt 0.375000 0.500000
vt 0.503116 0.750000
vt 0.625000 0.750000
vt 0.375000 0.331651
vt 0.379668 0.312500
vt 0.401496 0.312500
vt 0.406250 0.331648
vt 0.620246 0.312500
vt 0.625000 0.331651
vt 0.593750 0.331648
vt 0.598418 0.312500
vt 0.410918 0.312500
vt 0.432746 0.312500
vt 0.437500 0.331649
vt 0.442168 0.312500
vt 0.463996 0.312500
vt 0.468750 0.331648
vt 0.473418 0.312500
vt 0.495246 0.312500
vt 0.500000 0.331649
vt 0.504668 0.312500
vt 0.526496 0.312500
vt 0.531250 0.331648
vt 0.535918 0.312500
vt 0.557746 0.312500
vt 0.562500 0.331648
vt 0.567168 0.312500
vt 0.588996 0.312500
vt 0.406250 0.688440
vt 0.375000 0.688440
vt 0.437500 0.688440
vt 0.468750 0.688440
vt 0.500000 0.688440
vt 0.531250 0.688440
vt 0.562500 0.688440
vt 0.593750 0.688440
vt 0.625000 0.688440
vt 0.500000 0.044996
vt 0.577343 0.077032
vt 0.500000 0.150000
vt 0.422657 0.077032
vt 0.390620 0.154375
vt 0.422657 0.231718
vt 0.500000 0.263755
vt 0.577343 0.231718
vt 0.609380 0.154375
vt 0.375000 0.331651
vt 0.379668 0.312500
vt 0.401496 0.312500
vt 0.406250 0.331648
vt 0.620246 0.312500
vt 0.625000 0.331651
vt 0.593750 0.331648
vt 0.598418 0.312500
vt 0.410918 0.312500
vt 0.432746 0.312500
vt 0.437500 0.331649
vt 0.442168 0.312500
vt 0.463996 0.312500
vt 0.468750 0.331648
vt 0.473418 0.312500
vt 0.495246 0.312500
vt 0.500000 0.331649
vt 0.504668 0.312500
vt 0.526496 0.312500
vt 0.531250 0.331648
vt 0.535918 0.312500
vt 0.557746 0.312500
vt 0.562500 0.331648
vt 0.567168 0.312500
vt 0.588996 0.312500
vt 0.406250 0.688440
vt 0.375000 0.688440
vt 0.437500 0.688440
vt 0.468750 0.688440
vt 0.500000 0.688440
vt 0.531250 0.688440
vt 0.562500 0.688440
vt 0.593750 0.688440
vt 0.625000 0.688440
vt 0.500000 0.044996
vt 0.577343 0.077032
vt 0.500000 0.150000
vt 0.422657 0.077032
vt 0.390620 0.154375
vt 0.422657 0.231718
vt 0.500000 0.263755
vt 0.577343 0.231718
vt 0.609380 0.154375
vn 0.704804 -0.080632 -0.704804
vn 0.468615 -0.748866 -0.468615
vn -0.000000 -0.748866 -0.662722
vn 0.000000 -0.080632 -0.996744
vn 0.996744 -0.080632 0.000000
vn 0.662723 -0.748865 0.000000
vn -0.468613 -0.748868 -0.468614
vn -0.704804 -0.080632 -0.704804
vn -0.662718 -0.748869 0.000000
vn -0.996744 -0.080632 0.000000
vn -0.468613 -0.748868 0.468614
vn -0.704804 -0.080632 0.704804
vn -0.000000 -0.748866 0.662722
vn 0.000000 -0.080632 0.996744
vn 0.468615 -0.748866 0.468615
vn 0.704804 -0.080632 0.704804
vn 0.000000 -0.046544 -0.998916
vn 0.706340 -0.046544 -0.706340
vn -0.706340 -0.046544 -0.706340
vn -0.998916 -0.046544 0.000000
vn -0.706340 -0.046544 0.706340
vn 0.000000 -0.046544 0.998916
vn 0.706340 -0.046544 0.706340
vn 0.998916 -0.046544 -0.000000
vn 0.000000 -1.000000 0.000000
vn 0.000000 -1.000000 0.000000
vn 0.000000 -1.000000 0.000000
vn 0.000000 -1.000000 0.000000
vn 0.000000 -1.000000 0.000000
vn 0.000000 -1.000000 0.000000
vn 0.000000 -1.000000 0.000000
vn 0.000000 -1.000000 0.000000
vn 0.000000 -1.000000 0.000000
vn 0.000000 -1.000000 -0.000000
vn 0.000000 -1.000000 -0.000000
vn 0.000000 -1.000000 -0.000000
vn 0.000000 -1.000000 0.000000
vn 0.000000 -1.000000 0.000000
vn 0.000000 -1.000000 0.000000
vn 0.000000 -1.000000 0.000000
vn 0.000000 -1.000000 0.000000
vn 0.000000 -1.000000 0.000000
vn 0.000000 -1.000000 -0.000000
vn 0.000000 -1.000000 -0.000000
vn 0.000000 -1.000000 -0.000000
vn 0.000000 -1.000000 0.000000
vn 0.000000 -1.000000 0.000000
vn 0.000000 -1.000000 0.000000
vn 0.704804 -0.080632 -0.704804
vn 0.468614 -0.748866 -0.468615
vn -0.000000 -0.748866 -0.662721
vn 0.000000 -0.080632 -0.996744
vn 0.996744 -0.080632 0.000000
vn 0.662722 -0.748865 0.000000
vn -0.468613 -0.748867 -0.468615
vn -0.704804 -0.080632 -0.704804
vn -0.662720 -0.748867 0.000000
vn -0.996744 -0.080632 0.000000
vn -0.468614 -0.748867 0.468615
vn -0.704805 -0.080632 0.704804
vn -0.000000 -0.748866 0.662721
vn 0.000000 -0.080632 0.996744
vn 0.468615 -0.748866 0.468615
vn 0.704804 -0.080632 0.704804
vn 0.000000 -0.046544 -0.998916
vn 0.706340 -0.046544 -0.706340
vn -0.706340 -0.046544 -0.706340
vn -0.998916 -0.046544 0.000000
vn -0.706340 -0.046544 0.706340
vn 0.000000 -0.046544 0.998916
vn 0.706340 -0.046544 0.706340
vn 0.998916 -0.046544 0.000000
vn 0.000000 -1.000000 0.000000
vn 0.000000 -1.000000 0.000000
vn 0.000000 -1.000000 0.000000
vn 0.000000 -1.000000 0.000000
vn 0.000000 -1.000000 0.000000
vn 0.000000 -1.000000 0.000000
vn 0.000000 -1.000000 0.000000
vn 0.000000 -1.000000 0.000000
vn 0.000000 -1.000000 0.000000
vn 0.000000 -1.000000 -0.000000
vn 0.000000 -1.000000 -0.000000
vn 0.000000 -1.000000 -0.000000
vn 0.000000 -1.000000 0.000000
vn 0.000000 -1.000000 0.000000
vn 0.000000 -1.000000 0.000000
vn 0.000000 -1.000000 0.000000
vn 0.000000 -1.000000 0.000000
vn 0.000000 -1.000000 0.000000
vn 0.000000 -1.000000 -0.000000
vn 0.000000 -1.000000 -0.000000
vn 0.000000 -1.000000 -0.000000
vn 0.000000 -1.000000 0.000000
vn 0.000000 -1.000000 0.000000
vn 0.000000 -1.000000 0.000000
vn 0.000000 1.000000 0.000000
vn 0.000000 1.000000 0.000000
vn 0.000000 1.000000 0.000000
vn 0.000000 1.000000 0.000000
vn 0.000000 -0.000379 -1.000000
vn 0.000000 -0.000379 -1.000000
vn 0.000000 -0.000379 -1.000000
vn 0.000000 -0.000379 -1.000000
vn -1.000000 -0.000001 0.000000
vn -1.000000 -0.000001 0.000000
vn -1.000000 -0.000001 0.000000
vn -1.000000 -0.000001 0.000000
vn 0.000000 0.000392 1.000000
vn 0.000000 0.000392 1.000000
vn 0.000000 0.000392 1.000000
vn 0.000000 0.000392 1.000000
vn 1.000000 -0.000001 0.000000
vn 1.000000 -0.000001 0.000000
vn 1.000000 -0.000001 0.000000
vn 1.000000 -0.000001 0.000000
vn -0.000001 1.000000 -0.000004
vn -0.000001 1.000000 -0.000003
vn 0.000001 1.000000 -0.000003
vn 0.000001 1.000000 -0.000004
vn -0.000001 1.000000 -0.000007
vn -0.000001 1.000000 -0.000007
vn 0.000001 1.000000 -0.000007
vn 0.000001 1.000000 -0.000007
vn 0.000000 1.000000 0.000000
vn 0.000000 1.000000 0.000000
vn 0.000000 1.000000 0.000000
vn 0.000000 1.000000 0.000000
vn 0.000000 1.000000 -0.000000
vn 0.000000 1.000000 -0.000000
vn 0.000000 1.000000 -0.000000
vn 0.000000 1.000000 -0.000000
vn 0.000000 -0.000273 -1.000000
vn 0.000000 -0.000273 -1.000000
vn 0.000000 -0.000273 -1.000000
vn 0.000000 -0.000273 -1.000000
vn 0.000000 0.000266 1.000000
vn 0.000000 0.000266 1.000000
vn 0.000000 0.000266 1.000000
vn 0.000000 0.000266 1.000000
vn -1.000000 -0.000000 0.000000
vn -1.000000 -0.000000 0.000000
vn -1.000000 -0.000000 0.000000
vn -1.000000 -0.000000 0.000000
vn 1.000000 -0.000001 0.000000
vn 1.000000 -0.000001 0.000000
vn 1.000000 -0.000001 0.000000
vn 1.000000 -0.000001 0.000000
vn -1.000000 -0.000002 0.000000
vn -1.000000 -0.000002 0.000000
vn -1.000000 -0.000002 0.000000
vn -1.000000 -0.000002 0.000000
vn 1.000000 0.000000 0.000000
vn 1.000000 0.000000 0.000000
vn 1.000000 0.000000 0.000000
vn 1.000000 0.000000 0.000000
vn 0.000000 -0.000279 -1.000000
vn 0.000000 -0.000279 -1.000000
vn 0.000000 -0.000279 -1.000000
vn 0.000000 -0.000279 -1.000000
vn 0.000000 0.000282 1.000000
vn 0.000000 0.000282 1.000000
vn 0.000000 0.000282 1.000000
vn 0.000000 0.000282 1.000000
vn -0.529549 -0.848279 0.000001
vn -0.529549 -0.848279 0.000001
vn -0.529549 -0.848279 0.000001
vn -0.529549 -0.848279 0.000001
vn 0.000000 -0.811002 0.585043
vn 0.000000 -0.811002 0.585043
vn 0.000000 -0.811002 0.585043
vn 0.000000 -0.811002 0.585043
vn 0.529549 -0.848279 0.000001
vn 0.529549 -0.848279 0.000001
vn 0.529549 -0.848279 0.000001
vn 0.529549 -0.848279 0.000001
vn -0.000000 0.811019 0.585020
vn -0.000000 0.811019 0.585020
vn -0.000000 0.811019 0.585020
vn -0.000000 0.811019 0.585020
vn 0.529551 0.848278 -0.000001
vn 0.529551 0.848278 -0.000001
vn 0.529551 0.848278 -0.000001
vn 0.529551 0.848278 -0.000001
vn -0.529552 0.848278 -0.000001
vn -0.529552 0.848278 -0.000001
vn -0.529552 0.848278 -0.000001
vn -0.529552 0.848278 -0.000001
vn -0.000000 0.810994 -0.585055
vn -0.000000 0.810994 -0.585055
vn -0.000000 0.810994 -0.585055
vn -0.000000 0.810994 -0.585055
vn 0.000000 -0.811012 -0.585029
vn 0.000000 -0.811012 -0.585029
vn 0.000000 -0.811012 -0.585029
vn 0.000000 -0.811012 -0.585029
vn 0.000000 0.000025 1.000000
vn 0.000000 0.000025 1.000000
vn 0.000000 0.000025 1.000000
vn 0.000000 0.000025 1.000000
vn 0.000000 -0.000030 -1.000000
vn 0.000000 -0.000030 -1.000000
vn 0.000000 -0.000030 -1.000000
vn 0.000000 -0.000030 -1.000000
vn 1.000000 0.000001 0.000000
vn 1.000000 0.000001 0.000000
vn 1.000000 0.000001 0.000000
vn 1.000000 0.000001 0.000000
vn -1.000000 0.000001 0.000000
vn -1.000000 0.000001 0.000000
vn -1.000000 0.000001 0.000000
vn -1.000000 0.000001 0.000000
vn 0.000000 -1.000000 0.000001
vn 0.000000 -1.000000 0.000001
vn 0.000000 -1.000000 0.000001
vn 0.000000 -1.000000 0.000001
vn -0.000000 1.000000 -0.000012
vn 0.000000 1.000000 -0.000012
vn 0.000000 1.000000 -0.000011
vn -0.000000 1.000000 -0.000011
vn 0.000000 1.000000 -0.000009
vn -0.000000 1.000000 -0.000009
vn -0.000000 1.000000 -0.000009
vn 0.000000 1.000000 -0.000009
vn 0.704804 -0.080632 -0.704804
vn 0.468615 -0.748867 -0.468614
vn -0.000000 -0.748866 -0.662722
vn 0.000000 -0.080631 -0.996744
vn 0.996744 -0.080632 0.000000
vn 0.662721 -0.748867 0.000000
vn -0.468613 -0.748868 -0.468614
vn -0.704804 -0.080632 -0.704804
vn -0.662719 -0.748869 0.000000
vn -0.996744 -0.080632 0.000000
vn -0.468613 -0.748868 0.468614
vn -0.704804 -0.080632 0.704805
vn -0.000000 -0.748866 0.662722
vn 0.000000 -0.080632 0.996744
vn 0.468615 -0.748867 0.468614
vn 0.704804 -0.080632 0.704805
vn 0.000000 -0.046544 -0.998916
vn 0.706340 -0.046544 -0.706340
vn -0.706340 -0.046544 -0.706340
vn -0.998916 -0.046544 0.000000
vn -0.706340 -0.046544 0.706341
vn 0.000000 -0.046544 0.998916
vn 0.706340 -0.046544 0.706341
vn 0.998916 -0.046544 0.000000
vn 0.000000 -1.000000 0.000000
vn 0.000000 -1.000000 0.000000
vn 0.000000 -1.000000 0.000000
vn 0.000000 -1.000000 0.000000
vn 0.000000 -1.000000 0.000000
vn 0.000000 -1.000000 0.000000
vn 0.000000 -1.000000 0.000000
vn 0.000000 -1.000000 0.000000
vn 0.000000 -1.000000 0.000000
vn 0.000000 -1.000000 -0.000000
vn 0.000000 -1.000000 -0.000000
vn 0.000000 -1.000000 -0.000000
vn 0.000000 -1.000000 0.000000
vn 0.000000 -1.000000 0.000000
vn 0.000000 -1.000000 0.000000
vn 0.000000 -1.000000 0.000000
vn 0.000000 -1.000000 0.000000
vn 0.000000 -1.000000 0.000000
vn 0.000000 -1.000000 -0.000000
vn 0.000000 -1.000000 -0.000000
vn 0.000000 -1.000000 -0.000000
vn 0.000000 -1.000000 0.000000
vn 0.000000 -1.000000 0.000000
vn 0.000000 -1.000000 0.000000
vn 0.704804 -0.080631 -0.704804
vn 0.468614 -0.748867 -0.468614
vn -0.000000 -0.748866 -0.662721
vn 0.000000 -0.080632 -0.996744
vn 0.996744 -0.080631 0.000000
vn 0.662721 -0.748867 0.000000
vn -0.468613 -0.748868 -0.468614
vn -0.704804 -0.080632 -0.704804
vn -0.662719 -0.748869 0.000000
vn -0.996744 -0.080632 0.000000
vn -0.468613 -0.748868 0.468614
vn -0.704804 -0.080632 0.704805
vn -0.000000 -0.748866 0.662721
vn 0.000000 -0.080632 0.996744
vn 0.468615 -0.748867 0.468614
vn 0.704804 -0.080632 0.704805
vn 0.000000 -0.046544 -0.998916
vn 0.706340 -0.046544 -0.706340
vn -0.706340 -0.046544 -0.706340
vn -0.998916 -0.046544 0.000000
vn -0.706340 -0.046544 0.706341
vn 0.000000 -0.046544 0.998916
vn 0.706340 -0.046544 0.706341
vn 0.998916 -0.046544 0.000000
vn 0.000000 -1.000000 0.000000
vn 0.000000 -1.000000 0.000000
vn 0.000000 -1.000000 0.000000
vn 0.000000 -1.000000 0.000000
vn 0.000000 -1.000000 0.000000
vn 0.000000 -1.000000 0.000000
vn 0.000000 -1.000000 0.000000
vn 0.000000 -1.000000 0.000000
vn 0.000000 -1.000000 0.000000
vn 0.000000 -1.000000 -0.000000
vn 0.000000 -1.000000 -0.000000
vn 0.000000 -1.000000 -0.000000
vn 0.000000 -1.000000 0.000000
vn 0.000000 -1.000000 0.000000
vn 0.000000 -1.000000 0.000000
vn 0.000000 -1.000000 0.000000
vn 0.000000 -1.000000 0.000000
vn 0.000000 -1.000000 0.000000
vn 0.000000 -1.000000 -0.000000
vn 0.000000 -1.000000 -0.000000
vn 0.000000 -1.000000 -0.000000
vn 0.000000 -1.000000 0.000000
vn 0.000000 -1.000000 0.000000
vn 0.000000 -1.000000 0.000000
s 1
g MesadaA
usemtl initialShadingGroup
f 10/1/1 11/2/2 13/3/3 12/18/4
f 11/4/2 10/32/1 24/30/5 25/5/6
f 12/18/4 13/6/3 15/7/7 14/20/8
f 14/20/8 15/8/7 17/9/9 16/22/10
f 16/22/10 17/10/9 19/11/11 18/24/12
f 18/24/12 19/12/11 21/13/13 20/26/14
f 20/26/14 21/14/13 23/15/15 22/28/16
f 22/28/16 23/16/15 25/17/6 24/30/5
f 10/1/1 12/18/4 2/21/17 1/19/18
f 12/18/4 14/20/8 3/23/19 2/21/17
f 14/20/8 16/22/10 4/25/20 3/23/19
f 16/22/10 18/24/12 5/27/21 4/25/20
f 18/24/12 20/26/14 6/29/22 5/27/21
f 20/26/14 22/28/16 7/31/23 6/29/22
f 22/28/16 24/30/5 8/34/24 7/31/23
f 24/30/5 10/32/1 1/33/18 8/34/24
s off
f 13/36/25 11/35/26 9/42/27
f 15/37/28 13/36/29 9/42/30
f 17/38/31 15/37/32 9/42/33
f 19/39/34 17/38/35 9/42/36
f 21/40/37 19/39/38 9/42/39
f 23/41/40 21/40/41 9/42/42
f 25/43/43 23/41/44 9/42/45
f 11/35/46 25/43/47 9/42/48
s 2
f 35/44/49 36/45/50 38/46/51 37/47/52
f 36/48/50 35/49/49 49/50/53 50/51/54
f 37/47/52 38/52/51 40/53/55 39/54/56
f 39/54/56 40/55/55 42/56/57 41/57/58
f 41/57/58 42/58/57 44/59/59 43/60/60
f 43/60/60 44/61/59 46/62/61 45/63/62
f 45/63/62 46/64/61 48/65/63 47/66/64
f 47/66/64 48/67/63 50/68/54 49/50/53
f 35/44/49 37/47/52 27/69/65 26/70/66
f 37/47/52 39/54/56 28/71/67 27/69/65
f 39/54/56 41/57/58 29/72/68 28/71/67
f 41/57/58 43/60/60 30/73/69 29/72/68
f 43/60/60 45/63/62 31/74/70 30/73/69
f 45/63/62 47/66/64 32/75/71 31/74/70
f 47/66/64 49/50/53 33/76/72 32/75/71
f 49/50/53 35/49/49 26/77/66 33/76/72
s off
f 38/78/73 36/79/74 34/80/75
f 40/81/76 38/78/77 34/80/78
f 42/82/79 40/81/80 34/80/81
f 44/83/82 42/82/83 34/80/84
f 46/84/85 44/83/86 34/80/87
f 48/85/88 46/84/89 34/80/90
f 50/86/91 48/85/92 34/80/93
f 36/79/94 50/86/95 34/80/96
f 55/87/97 56/88/98 57/89/99 58/90/100
f 51/91/101 52/92/102 56/88/103 55/87/104
f 52/92/105 53/93/106 57/89/107 56/88/108
f 53/93/109 54/94/110 58/90/111 57/89/112
f 54/94/113 51/91/114 55/87/115 58/90/116
s 3
f 67//117 68//118 69//119 70//120
f 68//118 67//117 71//121 72//122
f 70//120 69//119 73//123 74//124
f 72//122 71//121 74//124 73//123
s 4
f 59//125 61//126 52//127 51//128
f 61//126 65//129 53//130 52//127
f 65//129 63//131 54//132 53//130
f 63//131 59//125 51//128 54//132
s off
f 60//133 62//134 69//135 68//136
f 61//137 59//138 67//139 70//140
f 59//141 63//142 71//143 67//144
f 64//145 60//146 68//147 72//148
f 62//149 66//150 73//151 69//152
f 65//153 61//154 70//155 74//156
f 63//157 65//158 74//159 71//160
f 66//161 64//162 72//163 73//164
f 75//165 76//166 89//167 90//168
f 76/95/169 75/96/170 78/97/171 77/98/172
f 77//173 78//174 87//175 88//176
f 79/99/177 80/100/178 82/101/179 81/102/180
f 80//181 79//182 85//183 86//184
f 81//185 82//186 84//187 83//188
f 83/103/189 84/104/190 86/105/191 85/106/192
f 88/107/193 87/108/194 90/109/195 89/110/196
f 76/95/197 77/98/198 79/99/199 81/102/200
f 83/103/201 85/106/202 88/107/203 89/110/204
f 88//205 85//206 79//207 77//208
f 83//209 89//210 76//211 81//212
f 78/97/213 75/96/214 90/111/215 87/112/216
s 5
f 62/113/217 60/114/218 82/101/219 80/100/220
f 64/115/221 66/116/222 86/105/223 84/104/224
f 66//222 62//217 80//220 86//223
f 60//218 64//221 84//224 82//219
s 6
f 100/117/225 101/118/226 103/119/227 102/120/228
f 101/121/226 100/122/225 114/123/229 115/124/230
f 102/120/228 103/125/227 105/126/231 104/127/232
f 104/127/232 105/128/231 107/129/233 106/130/234
f 106/130/234 107/131/233 109/132/235 108/133/236
f 108/133/236 109/134/235 111/135/237 110/136/238
f 110/136/238 111/137/237 113/138/239 112/139/240
f 112/139/240 113/140/239 115/141/230 114/123/229
f 100/117/225 102/120/228 92/142/241 91/143/242
f 102/120/228 104/127/232 93/144/243 92/142/241
f 104/127/232 106/130/234 94/145/244 93/144/243
f 106/130/234 108/133/236 95/146/245 94/145/244
f 108/133/236 110/136/238 96/147/246 95/146/245
f 110/136/238 112/139/240 97/148/247 96/147/246
f 112/139/240 114/123/229 98/149/248 97/148/247
f 114/123/229 100/122/225 91/150/242 98/149/248
s off
f 103/151/249 101/152/250 99/153/251
f 105/154/252 103/151/253 99/153/254
f 107/155/255 105/154/256 99/153/257
f 109/156/258 107/155/259 99/153/260
f 111/157/261 109/156/262 99/153/263
f 113/158/264 111/157/265 99/153/266
f 115/159/267 113/158/268 99/153/269
f 101/152/270 115/159/271 99/153/272
s 7
f 125/160/273 126/161/274 128/162/275 127/163/276
f 126/164/274 125/165/273 139/166/277 140/167/278
f 127/163/276 128/168/275 130/169/279 129/170/280
f 129/170/280 130/171/279 132/172/281 131/173/282
f 131/173/282 132/174/281 134/175/283 133/176/284
f 133/176/284 134/177/283 136/178/285 135/179/286
f 135/179/286 136/180/285 138/181/287 137/182/288
f 137/182/288 138/183/287 140/184/278 139/166/277
f 125/160/273 127/163/276 117/185/289 116/186/290
f 127/163/276 129/170/280 118/187/291 117/185/289
f 129/170/280 131/173/282 119/188/292 118/187/291
f 131/173/282 133/176/284 120/189/293 119/188/292
f 133/176/284 135/179/286 121/190/294 120/189/293
f 135/179/286 137/182/288 122/191/295 121/190/294
f 137/182/288 139/166/277 123/192/296 122/191/295
f 139/166/277 125/165/273 116/193/290 123/192/296
s off
f 128/194/297 126/195/298 124/196/299
f 130/197/300 128/194/301 124/196/302
f 132/198/303 130/197/304 124/196/305
f 134/199/306 132/198/307 124/196/308
f 136/200/309 134/199/310 124/196/311
f 138/201/312 136/200/313 124/196/314
f 140/202/315 138/201/316 124/196/317
f 126/195/318 140/202/319 124/196/320
