# This file uses centimeters as units for non-parametric coordinates.

mtllib SM_Portaretrato.mtl
g default
v -3.563171 0.111412 -6.178647
v 3.657163 0.111412 -6.178647
v -3.563171 0.000000 -5.091609
v 3.657163 0.000000 -5.091609
v -1.516156 14.625708 2.553774
v 1.610148 14.625708 2.553774
v -1.516156 14.737119 1.466736
v 1.610148 14.737119 1.466736
v -8.441710 -0.041294 4.673245
v 8.535703 -0.041294 4.673245
v -8.441710 0.522600 6.777727
v 8.535703 0.522600 6.777727
v -8.441710 21.336617 1.200628
v 8.535703 21.336617 1.200628
v -8.441710 20.772722 -0.903853
v 8.535703 20.772722 -0.903853
vt 0.375000 0.000000
vt 0.625000 0.000000
vt 0.375000 0.250000
vt 0.625000 0.250000
vt 0.375000 0.500000
vt 0.625000 0.500000
vt 0.375000 0.750000
vt 0.625000 0.750000
vt 0.375000 1.000000
vt 0.625000 1.000000
vt 0.875000 0.000000
vt 0.875000 0.250000
vt 0.125000 0.000000
vt 0.125000 0.250000
vt 0.375000 0.000000
vt 0.625000 0.000000
vt 0.625000 0.250000
vt 0.375000 0.250000
vt 0.625000 0.500000
vt 0.375000 0.500000
vt 0.625000 0.750000
vt 0.375000 0.750000
vt 0.625000 1.000000
vt 0.375000 1.000000
vt 0.875000 0.000000
vt 0.875000 0.250000
vt 0.125000 0.000000
vt 0.125000 0.250000
vn 0.000000 -0.994789 -0.101957
vn 0.000000 -0.994789 -0.101957
vn 0.000000 -0.994789 -0.101957
vn 0.000000 -0.994789 -0.101957
vn 0.000000 -0.463260 0.886222
vn 0.000000 -0.463260 0.886222
vn 0.000000 -0.463260 0.886222
vn 0.000000 -0.463260 0.886222
vn 0.000000 0.463260 -0.886222
vn 0.000000 0.463260 -0.886222
vn 0.000000 0.463260 -0.886222
vn 0.000000 0.463260 -0.886222
vn 0.991201 0.131674 0.013495
vn 0.991201 0.131674 0.013495
vn 0.991201 0.131674 0.013495
vn 0.991201 0.131674 0.013495
vn -0.991201 0.131674 0.013495
vn -0.991201 0.131674 0.013495
vn -0.991201 0.131674 0.013495
vn -0.991201 0.131674 0.013495
vn 0.000000 -0.965926 0.258819
vn 0.000000 -0.965926 0.258819
vn 0.000000 -0.965926 0.258819
vn 0.000000 -0.965926 0.258819
vn 0.000000 0.258819 0.965926
vn 0.000000 0.258819 0.965926
vn 0.000000 0.258819 0.965926
vn 0.000000 0.258819 0.965926
vn 0.000000 0.965926 -0.258820
vn 0.000000 0.965926 -0.258820
vn 0.000000 0.965926 -0.258820
vn 0.000000 0.965926 -0.258820
vn 0.000000 -0.258819 -0.965926
vn 0.000000 -0.258819 -0.965926
vn 0.000000 -0.258819 -0.965926
vn 0.000000 -0.258819 -0.965926
vn 1.000000 0.000000 0.000000
vn 1.000000 0.000000 0.000000
vn 1.000000 0.000000 0.000000
vn 1.000000 0.000000 0.000000
vn -1.000000 -0.000000 0.000000
vn -1.000000 -0.000000 0.000000
vn -1.000000 -0.000000 0.000000
vn -1.000000 -0.000000 0.000000
s off
g Cuadro
usemtl initialShadingGroup
f 1/1/1 2/2/2 4/4/3 3/3/4
f 3/3/5 4/4/6 6/6/7 5/5/8
f 7/7/9 8/8/10 2/10/11 1/9/12
f 2/2/13 8/11/14 6/12/15 4/4/16
f 7/13/17 1/1/18 3/3/19 5/14/20
f 9/15/21 10/16/22 12/17/23 11/18/24
f 11/18/25 12/17/26 14/19/27 13/20/28
f 13/20/29 14/19/30 16/21/31 15/22/32
f 15/22/33 16/21/34 10/23/35 9/24/36
f 10/16/37 16/25/38 14/26/39 12/17/40
f 15/27/41 9/15/42 11/18/43 13/28/44
