# This file uses centimeters as units for non-parametric coordinates.

mtllib SM_Pizarron.mtl
g default
v -45.669853 52.815758 0.081441
v 46.349075 52.815758 0.081441
v -45.669853 52.815758 3.157213
v 46.349075 52.815758 3.157213
v -45.669853 104.810196 3.157213
v 46.349075 104.810196 3.157213
v -45.669853 104.810196 0.081441
v 46.349075 104.810196 0.081441
v 54.526066 0.000000 28.302839
v 54.526066 0.000000 -28.302839
v 54.526066 3.075775 28.302839
v 54.526066 3.075775 -28.302839
v 48.381500 3.075729 28.302839
v 48.381500 3.075729 -28.302839
v 48.381500 -0.000046 28.302839
v 48.381500 -0.000046 -28.302839
v -51.713570 44.664635 0.081485
v 52.392792 44.664635 0.081485
v -51.713570 44.664635 3.157258
v 52.392792 44.664635 3.157258
v -51.713570 50.809200 3.157213
v 52.392792 50.809200 3.157213
v -51.713570 50.809200 0.081441
v 52.392792 50.809200 0.081441
v 50.983788 58.273849 3.323774
v 43.804279 58.241356 3.323774
v 42.585674 61.474297 3.323774
v 43.804279 64.707237 3.323774
v 50.983788 64.674744 3.323774
v 50.983788 58.273849 -0.211891
v 43.804279 58.241356 -0.211891
v 42.585674 61.474297 -0.211891
v 43.804279 64.707237 -0.211891
v 50.983788 64.674744 -0.211891
v 50.983788 61.474297 3.323774
v 50.983788 61.474297 -0.211891
v 50.983788 91.643242 3.323774
v 43.804279 91.610748 3.323774
v 42.585674 94.843689 3.323774
v 43.804279 98.076630 3.323774
v 50.983788 98.044136 3.323774
v 50.983788 91.643242 -0.211891
v 43.804279 91.610748 -0.211891
v 42.585674 94.843689 -0.211891
v 43.804279 98.076630 -0.211891
v 50.983788 98.044136 -0.211891
v 50.983788 94.843689 3.323774
v 50.983788 94.843689 -0.211891
v -51.713570 11.380997 0.081485
v 52.392792 11.380997 0.081485
v -51.713570 11.380997 3.157258
v 52.392792 11.380997 3.157258
v -51.713570 17.525558 3.157213
v 52.392792 17.525558 3.157213
v -51.713570 17.525558 0.081441
v 52.392792 17.525558 0.081441
v -52.652023 1.966888 -1.452911
v -52.652023 108.450653 -1.452932
v -49.576248 1.966888 -1.452911
v -49.576248 108.450653 -1.452932
v -49.576294 1.966888 4.691652
v -49.576294 108.450653 4.691631
v -52.652065 1.966888 4.691652
v -52.652065 108.450653 4.691631
v 49.915913 1.966888 -1.452911
v 49.915913 108.450653 -1.452932
v 52.991688 1.966888 -1.452911
v 52.991688 108.450653 -1.452932
v 52.991642 1.966888 4.691652
v 52.991642 108.450653 4.691631
v 49.915871 1.966888 4.691652
v 49.915871 108.450653 4.691631
v -49.645786 64.674744 3.323774
v -42.466278 64.707237 3.323774
v -41.247669 61.474297 3.323774
v -42.466278 58.241356 3.323774
v -49.645786 58.273849 3.323774
v -49.645786 64.674744 -0.211891
v -42.466278 64.707237 -0.211891
v -41.247669 61.474297 -0.211891
v -42.466278 58.241356 -0.211891
v -49.645786 58.273849 -0.211891
v -49.645786 61.474297 3.323774
v -49.645786 61.474297 -0.211891
v -49.645786 98.044136 3.323774
v -42.466278 98.076630 3.323774
v -41.247669 94.843689 3.323774
v -42.466278 91.610748 3.323774
v -49.645786 91.643242 3.323774
v -49.645786 98.044136 -0.211891
v -42.466278 98.076630 -0.211891
v -41.247669 94.843689 -0.211891
v -42.466278 91.610748 -0.211891
v -49.645786 91.643242 -0.211891
v -49.645786 94.843689 3.323774
v -49.645786 94.843689 -0.211891
v -48.381504 0.000000 28.302839
v -48.381504 0.000000 -28.302839
v -48.381504 3.075775 28.302839
v -48.381504 3.075775 -28.302839
v -54.526066 3.075729 28.302839
v -54.526066 3.075729 -28.302839
v -54.526066 -0.000046 28.302839
v -54.526066 -0.000046 -28.302839
vt 0.375000 0.000000
vt 0.625000 0.000000
vt 0.375000 0.250000
vt 0.625000 0.250000
vt 0.375000 0.500000
vt 0.625000 0.500000
vt 0.375000 0.750000
vt 0.625000 0.750000
vt 0.375000 1.000000
vt 0.625000 1.000000
vt 0.875000 0.000000
vt 0.875000 0.250000
vt 0.125000 0.000000
vt 0.125000 0.250000
vt 0.375000 0.000000
vt 0.625000 0.000000
vt 0.625000 0.250000
vt 0.375000 0.250000
vt 0.625000 0.500000
vt 0.375000 0.500000
vt 0.625000 0.750000
vt 0.375000 0.750000
vt 0.625000 1.000000
vt 0.375000 1.000000
vt 0.875000 0.000000
vt 0.875000 0.250000
vt 0.125000 0.000000
vt 0.125000 0.250000
vt 0.375000 0.000000
vt 0.625000 0.000000
vt 0.625000 0.250000
vt 0.375000 0.250000
vt 0.625000 0.500000
vt 0.375000 0.500000
vt 0.625000 0.750000
vt 0.375000 0.750000
vt 0.625000 1.000000
vt 0.375000 1.000000
vt 0.875000 0.000000
vt 0.875000 0.250000
vt 0.125000 0.000000
vt 0.125000 0.250000
vt 0.406250 0.312500
vt 0.437500 0.312500
vt 0.437500 0.688440
vt 0.406250 0.688440
vt 0.468750 0.312500
vt 0.468750 0.688440
vt 0.500000 0.312500
vt 0.500000 0.688440
vt 0.531250 0.312500
vt 0.531250 0.688440
vt 0.389515 0.045765
vt 0.500000 0.000000
vt 0.500000 0.150000
vt 0.343750 0.156250
vt 0.389515 0.266735
vt 0.500000 0.312500
vt 0.500000 0.837500
vt 0.500000 1.000000
vt 0.389515 0.954235
vt 0.343750 0.843750
vt 0.389515 0.733265
vt 0.500000 0.687500
vt 0.406250 0.312500
vt 0.437500 0.312500
vt 0.437500 0.688440
vt 0.406250 0.688440
vt 0.468750 0.312500
vt 0.468750 0.688440
vt 0.500000 0.312500
vt 0.500000 0.688440
vt 0.531250 0.312500
vt 0.531250 0.688440
vt 0.389515 0.045765
vt 0.500000 0.000000
vt 0.500000 0.150000
vt 0.343750 0.156250
vt 0.389515 0.266735
vt 0.500000 0.312500
vt 0.500000 0.837500
vt 0.500000 1.000000
vt 0.389515 0.954235
vt 0.343750 0.843750
vt 0.389515 0.733265
vt 0.500000 0.687500
vt 0.375000 0.000000
vt 0.625000 0.000000
vt 0.625000 0.250000
vt 0.375000 0.250000
vt 0.625000 0.500000
vt 0.375000 0.500000
vt 0.625000 0.750000
vt 0.375000 0.750000
vt 0.625000 1.000000
vt 0.375000 1.000000
vt 0.875000 0.000000
vt 0.875000 0.250000
vt 0.125000 0.000000
vt 0.125000 0.250000
vt 0.375000 0.000000
vt 0.625000 0.000000
vt 0.625000 0.250000
vt 0.375000 0.250000
vt 0.625000 0.500000
vt 0.375000 0.500000
vt 0.625000 0.750000
vt 0.375000 0.750000
vt 0.625000 1.000000
vt 0.375000 1.000000
vt 0.875000 0.000000
vt 0.875000 0.250000
vt 0.125000 0.000000
vt 0.125000 0.250000
vt 0.375000 0.000000
vt 0.625000 0.000000
vt 0.625000 0.250000
vt 0.375000 0.250000
vt 0.625000 0.500000
vt 0.375000 0.500000
vt 0.625000 0.750000
vt 0.375000 0.750000
vt 0.625000 1.000000
vt 0.375000 1.000000
vt 0.875000 0.000000
vt 0.875000 0.250000
vt 0.125000 0.000000
vt 0.125000 0.250000
vt 0.406250 0.312500
vt 0.437500 0.312500
vt 0.437500 0.688440
vt 0.406250 0.688440
vt 0.468750 0.312500
vt 0.468750 0.688440
vt 0.500000 0.312500
vt 0.500000 0.688440
vt 0.531250 0.312500
vt 0.531250 0.688440
vt 0.389515 0.045765
vt 0.500000 0.000000
vt 0.500000 0.150000
vt 0.343750 0.156250
vt 0.389515 0.266735
vt 0.500000 0.312500
vt 0.500000 0.837500
vt 0.500000 1.000000
vt 0.389515 0.954235
vt 0.343750 0.843750
vt 0.389515 0.733265
vt 0.500000 0.687500
vt 0.406250 0.312500
vt 0.437500 0.312500
vt 0.437500 0.688440
vt 0.406250 0.688440
vt 0.468750 0.312500
vt 0.468750 0.688440
vt 0.500000 0.312500
vt 0.500000 0.688440
vt 0.531250 0.312500
vt 0.531250 0.688440
vt 0.389515 0.045765
vt 0.500000 0.000000
vt 0.500000 0.150000
vt 0.343750 0.156250
vt 0.389515 0.266735
vt 0.500000 0.312500
vt 0.500000 0.837500
vt 0.500000 1.000000
vt 0.389515 0.954235
vt 0.343750 0.843750
vt 0.389515 0.733265
vt 0.500000 0.687500
vt 0.375000 0.000000
vt 0.625000 0.000000
vt 0.625000 0.250000
vt 0.375000 0.250000
vt 0.625000 0.500000
vt 0.375000 0.500000
vt 0.625000 0.750000
vt 0.375000 0.750000
vt 0.625000 1.000000
vt 0.375000 1.000000
vt 0.875000 0.000000
vt 0.875000 0.250000
vt 0.125000 0.000000
vt 0.125000 0.250000
vn 0.000000 -1.000000 0.000000
vn 0.000000 -1.000000 0.000000
vn 0.000000 -1.000000 0.000000
vn 0.000000 -1.000000 0.000000
vn 0.000000 0.000000 1.000000
vn 0.000000 0.000000 1.000000
vn 0.000000 0.000000 1.000000
vn 0.000000 0.000000 1.000000
vn 0.000000 1.000000 0.000000
vn 0.000000 1.000000 0.000000
vn 0.000000 1.000000 0.000000
vn 0.000000 1.000000 0.000000
vn 0.000000 0.000000 -1.000000
vn 0.000000 0.000000 -1.000000
vn 0.000000 0.000000 -1.000000
vn 0.000000 0.000000 -1.000000
vn 1.000000 0.000000 0.000000
vn 1.000000 0.000000 0.000000
vn 1.000000 0.000000 0.000000
vn 1.000000 0.000000 0.000000
vn -1.000000 0.000000 0.000000
vn -1.000000 0.000000 0.000000
vn -1.000000 0.000000 0.000000
vn -1.000000 0.000000 0.000000
vn 1.000000 0.000000 0.000000
vn 1.000000 0.000000 0.000000
vn 1.000000 0.000000 0.000000
vn 1.000000 0.000000 0.000000
vn -0.000007 1.000000 0.000000
vn -0.000007 1.000000 0.000000
vn -0.000007 1.000000 0.000000
vn -0.000007 1.000000 0.000000
vn -1.000000 0.000000 0.000000
vn -1.000000 0.000000 0.000000
vn -1.000000 0.000000 0.000000
vn -1.000000 0.000000 0.000000
vn 0.000007 -1.000000 0.000000
vn 0.000007 -1.000000 0.000000
vn 0.000007 -1.000000 0.000000
vn 0.000007 -1.000000 0.000000
vn 0.000000 0.000000 -1.000000
vn 0.000000 0.000000 -1.000000
vn 0.000000 0.000000 -1.000000
vn 0.000000 0.000000 -1.000000
vn 0.000000 0.000000 1.000000
vn 0.000000 0.000000 1.000000
vn 0.000000 0.000000 1.000000
vn 0.000000 0.000000 1.000000
vn 0.000000 -1.000000 0.000000
vn 0.000000 -1.000000 0.000000
vn 0.000000 -1.000000 0.000000
vn 0.000000 -1.000000 0.000000
vn 0.000000 0.000007 1.000000
vn 0.000000 0.000007 1.000000
vn 0.000000 0.000007 1.000000
vn 0.000000 0.000007 1.000000
vn 0.000000 1.000000 0.000000
vn 0.000000 1.000000 0.000000
vn 0.000000 1.000000 0.000000
vn 0.000000 1.000000 0.000000
vn 0.000000 -0.000007 -1.000000
vn 0.000000 -0.000007 -1.000000
vn 0.000000 -0.000007 -1.000000
vn 0.000000 -0.000007 -1.000000
vn 1.000000 0.000000 0.000000
vn 1.000000 0.000000 0.000000
vn 1.000000 0.000000 0.000000
vn 1.000000 0.000000 0.000000
vn -1.000000 0.000000 0.000000
vn -1.000000 0.000000 0.000000
vn -1.000000 0.000000 0.000000
vn -1.000000 0.000000 0.000000
vn 0.004526 -0.999990 0.000000
vn 0.004526 -0.999990 0.000000
vn 0.004526 -0.999990 0.000000
vn 0.004526 -0.999990 0.000000
vn -0.935733 -0.352709 0.000000
vn -0.935733 -0.352709 0.000000
vn -0.935733 -0.352709 0.000000
vn -0.935733 -0.352709 0.000000
vn -0.935733 0.352709 0.000000
vn -0.935733 0.352709 0.000000
vn -0.935733 0.352709 0.000000
vn -0.935733 0.352709 0.000000
vn 0.004526 0.999990 0.000000
vn 0.004526 0.999990 0.000000
vn 0.004526 0.999990 0.000000
vn 0.004526 0.999990 0.000000
vn 0.000000 0.000000 1.000000
vn 0.000000 0.000000 1.000000
vn 0.000000 0.000000 1.000000
vn 0.000000 0.000000 1.000000
vn 0.000000 0.000000 1.000000
vn 0.000000 0.000000 1.000000
vn 0.000000 0.000000 -1.000000
vn 0.000000 0.000000 -1.000000
vn 0.000000 0.000000 -1.000000
vn 0.000000 0.000000 -1.000000
vn 0.000000 0.000000 -1.000000
vn 0.000000 0.000000 -1.000000
vn 0.004526 -0.999990 0.000000
vn 0.004526 -0.999990 0.000000
vn 0.004526 -0.999990 0.000000
vn 0.004526 -0.999990 0.000000
vn -0.935733 -0.352709 0.000000
vn -0.935733 -0.352709 0.000000
vn -0.935733 -0.352709 0.000000
vn -0.935733 -0.352709 0.000000
vn -0.935733 0.352709 0.000000
vn -0.935733 0.352709 0.000000
vn -0.935733 0.352709 0.000000
vn -0.935733 0.352709 0.000000
vn 0.004526 0.999990 0.000000
vn 0.004526 0.999990 0.000000
vn 0.004526 0.999990 0.000000
vn 0.004526 0.999990 0.000000
vn 0.000000 0.000000 1.000000
vn 0.000000 0.000000 1.000000
vn 0.000000 0.000000 1.000000
vn 0.000000 0.000000 1.000000
vn 0.000000 0.000000 1.000000
vn 0.000000 0.000000 1.000000
vn 0.000000 0.000000 -1.000000
vn 0.000000 0.000000 -1.000000
vn 0.000000 0.000000 -1.000000
vn 0.000000 0.000000 -1.000000
vn 0.000000 0.000000 -1.000000
vn 0.000000 0.000000 -1.000000
vn 0.000000 -1.000000 0.000000
vn 0.000000 -1.000000 0.000000
vn 0.000000 -1.000000 0.000000
vn 0.000000 -1.000000 0.000000
vn 0.000000 0.000007 1.000000
vn 0.000000 0.000007 1.000000
vn 0.000000 0.000007 1.000000
vn 0.000000 0.000007 1.000000
vn 0.000000 1.000000 0.000000
vn 0.000000 1.000000 0.000000
vn 0.000000 1.000000 0.000000
vn 0.000000 1.000000 0.000000
vn 0.000000 -0.000007 -1.000000
vn 0.000000 -0.000007 -1.000000
vn 0.000000 -0.000007 -1.000000
vn 0.000000 -0.000007 -1.000000
vn 1.000000 0.000000 0.000000
vn 1.000000 0.000000 0.000000
vn 1.000000 0.000000 0.000000
vn 1.000000 0.000000 0.000000
vn -1.000000 0.000000 0.000000
vn -1.000000 0.000000 0.000000
vn -1.000000 0.000000 0.000000
vn -1.000000 0.000000 0.000000
vn 0.000000 -0.000000 -1.000000
vn 0.000000 -0.000000 -1.000000
vn 0.000000 -0.000000 -1.000000
vn 0.000000 -0.000000 -1.000000
vn 1.000000 0.000000 0.000007
vn 1.000000 0.000000 0.000007
vn 1.000000 0.000000 0.000007
vn 1.000000 0.000000 0.000007
vn 0.000000 0.000000 1.000000
vn 0.000000 0.000000 1.000000
vn 0.000000 0.000000 1.000000
vn 0.000000 0.000000 1.000000
vn -1.000000 0.000000 -0.000007
vn -1.000000 0.000000 -0.000007
vn -1.000000 0.000000 -0.000007
vn -1.000000 0.000000 -0.000007
vn 0.000000 1.000000 0.000000
vn 0.000000 1.000000 0.000000
vn 0.000000 1.000000 0.000000
vn 0.000000 1.000000 0.000000
vn 0.000000 -1.000000 0.000000
vn 0.000000 -1.000000 0.000000
vn 0.000000 -1.000000 0.000000
vn 0.000000 -1.000000 0.000000
vn 0.000000 -0.000000 -1.000000
vn 0.000000 -0.000000 -1.000000
vn 0.000000 -0.000000 -1.000000
vn 0.000000 -0.000000 -1.000000
vn 1.000000 0.000000 0.000007
vn 1.000000 0.000000 0.000007
vn 1.000000 0.000000 0.000007
vn 1.000000 0.000000 0.000007
vn 0.000000 0.000000 1.000000
vn 0.000000 0.000000 1.000000
vn 0.000000 0.000000 1.000000
vn 0.000000 0.000000 1.000000
vn -1.000000 0.000000 -0.000007
vn -1.000000 0.000000 -0.000007
vn -1.000000 0.000000 -0.000007
vn -1.000000 0.000000 -0.000007
vn 0.000000 1.000000 0.000000
vn 0.000000 1.000000 0.000000
vn 0.000000 1.000000 0.000000
vn 0.000000 1.000000 0.000000
vn 0.000000 -1.000000 0.000000
vn 0.000000 -1.000000 0.000000
vn 0.000000 -1.000000 0.000000
vn 0.000000 -1.000000 0.000000
vn -0.004526 0.999990 0.000000
vn -0.004526 0.999990 0.000000
vn -0.004526 0.999990 0.000000
vn -0.004526 0.999990 0.000000
vn 0.935733 0.352710 0.000000
vn 0.935733 0.352710 0.000000
vn 0.935733 0.352710 0.000000
vn 0.935733 0.352710 0.000000
vn 0.935733 -0.352710 0.000000
vn 0.935733 -0.352710 0.000000
vn 0.935733 -0.352710 0.000000
vn 0.935733 -0.352710 0.000000
vn -0.004526 -0.999990 0.000000
vn -0.004526 -0.999990 0.000000
vn -0.004526 -0.999990 0.000000
vn -0.004526 -0.999990 0.000000
vn 0.000000 0.000000 1.000000
vn 0.000000 0.000000 1.000000
vn -0.000000 0.000000 1.000000
vn -0.000000 0.000000 1.000000
vn -0.000000 0.000000 1.000000
vn -0.000000 0.000000 1.000000
vn 0.000000 0.000000 -1.000000
vn 0.000000 0.000000 -1.000000
vn 0.000000 0.000000 -1.000000
vn 0.000000 0.000000 -1.000000
vn 0.000000 0.000000 -1.000000
vn 0.000000 0.000000 -1.000000
vn -0.004526 0.999990 0.000000
vn -0.004526 0.999990 0.000000
vn -0.004526 0.999990 0.000000
vn -0.004526 0.999990 0.000000
vn 0.935733 0.352710 0.000000
vn 0.935733 0.352710 0.000000
vn 0.935733 0.352710 0.000000
vn 0.935733 0.352710 0.000000
vn 0.935733 -0.352710 0.000000
vn 0.935733 -0.352710 0.000000
vn 0.935733 -0.352710 0.000000
vn 0.935733 -0.352710 0.000000
vn -0.004526 -0.999990 0.000000
vn -0.004526 -0.999990 0.000000
vn -0.004526 -0.999990 0.000000
vn -0.004526 -0.999990 0.000000
vn 0.000000 0.000000 1.000000
vn 0.000000 0.000000 1.000000
vn -0.000000 0.000000 1.000000
vn -0.000000 0.000000 1.000000
vn -0.000000 0.000000 1.000000
vn -0.000000 0.000000 1.000000
vn 0.000000 0.000000 -1.000000
vn 0.000000 0.000000 -1.000000
vn 0.000000 0.000000 -1.000000
vn 0.000000 0.000000 -1.000000
vn 0.000000 0.000000 -1.000000
vn 0.000000 0.000000 -1.000000
vn 1.000000 0.000000 0.000000
vn 1.000000 0.000000 0.000000
vn 1.000000 0.000000 0.000000
vn 1.000000 0.000000 0.000000
vn -0.000007 1.000000 0.000000
vn -0.000007 1.000000 0.000000
vn -0.000007 1.000000 0.000000
vn -0.000007 1.000000 0.000000
vn -1.000000 0.000000 0.000000
vn -1.000000 0.000000 0.000000
vn -1.000000 0.000000 0.000000
vn -1.000000 0.000000 0.000000
vn 0.000007 -1.000000 0.000000
vn 0.000007 -1.000000 0.000000
vn 0.000007 -1.000000 0.000000
vn 0.000007 -1.000000 0.000000
vn 0.000000 0.000000 -1.000000
vn 0.000000 0.000000 -1.000000
vn 0.000000 0.000000 -1.000000
vn 0.000000 0.000000 -1.000000
vn 0.000000 0.000000 1.000000
vn 0.000000 0.000000 1.000000
vn 0.000000 0.000000 1.000000
vn 0.000000 0.000000 1.000000
s off
g Pizarron
usemtl initialShadingGroup
f 1/1/1 2/2/2 4/4/3 3/3/4
f 3/3/5 4/4/6 6/6/7 5/5/8
f 5/5/9 6/6/10 8/8/11 7/7/12
f 7/7/13 8/8/14 2/10/15 1/9/16
f 2/2/17 8/11/18 6/12/19 4/4/20
f 7/13/21 1/1/22 3/3/23 5/14/24
f 9/15/25 10/16/26 12/17/27 11/18/28
f 11/18/29 12/17/30 14/19/31 13/20/32
f 13/20/33 14/19/34 16/21/35 15/22/36
f 15/22/37 16/21/38 10/23/39 9/24/40
f 10/16/41 16/25/42 14/26/43 12/17/44
f 15/27/45 9/15/46 11/18/47 13/28/48
f 17/29/49 18/30/50 20/31/51 19/32/52
f 19/32/53 20/31/54 22/33/55 21/34/56
f 21/34/57 22/33/58 24/35/59 23/36/60
f 23/36/61 24/35/62 18/37/63 17/38/64
f 18/30/65 24/39/66 22/40/67 20/31/68
f 23/41/69 17/29/70 19/32/71 21/42/72
f 25/43/73 26/44/74 31/45/75 30/46/76
f 26/44/77 27/47/78 32/48/79 31/45/80
f 27/47/81 28/49/82 33/50/83 32/48/84
f 28/49/85 29/51/86 34/52/87 33/50/88
s 1
f 26/53/89 25/54/90 35/55/91 27/56/92
f 28/57/93 27/56/92 35/55/91 29/58/94
s 2
f 36/59/95 30/60/96 31/61/97 32/62/98
f 36/59/95 32/62/98 33/63/99 34/64/100
s off
f 37/65/101 38/66/102 43/67/103 42/68/104
f 38/66/105 39/69/106 44/70/107 43/67/108
f 39/69/109 40/71/110 45/72/111 44/70/112
f 40/71/113 41/73/114 46/74/115 45/72/116
s 3
f 38/75/117 37/76/118 47/77/119 39/78/120
f 40/79/121 39/78/120 47/77/119 41/80/122
s 4
f 48/81/123 42/82/124 43/83/125 44/84/126
f 48/81/123 44/84/126 45/85/127 46/86/128
s off
f 49/87/129 50/88/130 52/89/131 51/90/132
f 51/90/133 52/89/134 54/91/135 53/92/136
f 53/92/137 54/91/138 56/93/139 55/94/140
f 55/94/141 56/93/142 50/95/143 49/96/144
f 50/88/145 56/97/146 54/98/147 52/89/148
f 55/99/149 49/87/150 51/90/151 53/100/152
f 57/101/153 58/102/154 60/103/155 59/104/156
f 59/104/157 60/103/158 62/105/159 61/106/160
f 61/106/161 62/105/162 64/107/163 63/108/164
f 63/108/165 64/107/166 58/109/167 57/110/168
f 58/102/169 64/111/170 62/112/171 60/103/172
f 63/113/173 57/101/174 59/104/175 61/114/176
f 65/115/177 66/116/178 68/117/179 67/118/180
f 67/118/181 68/117/182 70/119/183 69/120/184
f 69/120/185 70/119/186 72/121/187 71/122/188
f 71/122/189 72/121/190 66/123/191 65/124/192
f 66/116/193 72/125/194 70/126/195 68/117/196
f 71/127/197 65/115/198 67/118/199 69/128/200
f 73/129/201 74/130/202 79/131/203 78/132/204
f 74/130/205 75/133/206 80/134/207 79/131/208
f 75/133/209 76/135/210 81/136/211 80/134/212
f 76/135/213 77/137/214 82/138/215 81/136/216
s 5
f 74/139/217 73/140/218 83/141/219 75/142/220
f 76/143/221 75/142/220 83/141/219 77/144/222
s 6
f 84/145/223 78/146/224 79/147/225 80/148/226
f 84/145/223 80/148/226 81/149/227 82/150/228
s off
f 85/151/229 86/152/230 91/153/231 90/154/232
f 86/152/233 87/155/234 92/156/235 91/153/236
f 87/155/237 88/157/238 93/158/239 92/156/240
f 88/157/241 89/159/242 94/160/243 93/158/244
s 7
f 86/161/245 85/162/246 95/163/247 87/164/248
f 88/165/249 87/164/248 95/163/247 89/166/250
s 8
f 96/167/251 90/168/252 91/169/253 92/170/254
f 96/167/251 92/170/254 93/171/255 94/172/256
s off
f 97/173/257 98/174/258 100/175/259 99/176/260
f 99/176/261 100/175/262 102/177/263 101/178/264
f 101/178/265 102/177/266 104/179/267 103/180/268
f 103/180/269 104/179/270 98/181/271 97/182/272
f 98/174/273 104/183/274 102/184/275 100/175/276
f 103/185/277 97/173/278 99/176/279 101/186/280
